<?xml version="1.0" encoding="UTF-8" standalone="no"?>
<svg
   xmlns:dc="http://purl.org/dc/elements/1.1/"
   xmlns:cc="http://creativecommons.org/ns#"
   xmlns:rdf="http://www.w3.org/1999/02/22-rdf-syntax-ns#"
   xmlns:svg="http://www.w3.org/2000/svg"
   xmlns="http://www.w3.org/2000/svg"
   xmlns:sodipodi="http://sodipodi.sourceforge.net/DTD/sodipodi-0.dtd"
   xmlns:inkscape="http://www.inkscape.org/namespaces/inkscape"
   sodipodi:docname="BICYCLE (REAL).svg"
   inkscape:version="1.0beta2 (2b71d25, 2019-12-03)"
   id="svg4856"
   version="1.1"
   viewBox="0 0 210 297"
   height="297mm"
   width="210mm">
  <defs
     id="defs4850" />
  <sodipodi:namedview
     inkscape:window-maximized="0"
     inkscape:window-y="23"
     inkscape:window-x="0"
     inkscape:window-height="829"
     inkscape:window-width="1440"
     showgrid="false"
     inkscape:document-rotation="0"
     inkscape:current-layer="layer1"
     inkscape:document-units="mm"
     inkscape:cy="623.32384"
     inkscape:cx="386.43186"
     inkscape:zoom="1.0414214"
     inkscape:pageshadow="2"
     inkscape:pageopacity="0.0"
     borderopacity="1.0"
     bordercolor="#666666"
     pagecolor="#ffffff"
     id="base" />
  <metadata
     id="metadata4853">
    <rdf:RDF>
      <cc:Work
         rdf:about="">
        <dc:format>image/svg+xml</dc:format>
        <dc:type
           rdf:resource="http://purl.org/dc/dcmitype/StillImage" />
        <dc:title></dc:title>
      </cc:Work>
    </rdf:RDF>
  </metadata>
  <g
     id="layer1"
     inkscape:groupmode="layer"
     inkscape:label="Layer 1">
    <path
       id="path4490"
       style="opacity:0;fill:none;fill-rule:evenodd;stroke:#000000;stroke-width:1.45366"
       d="M 79.650674,160.44215 A 22.883335,22.883335 0 0 0 56.767317,183.32551 22.883335,22.883335 0 0 0 79.650674,206.20886 22.883335,22.883335 0 0 0 102.534,183.32551 22.883335,22.883335 0 0 0 79.650674,160.44215 Z m 0,4.35927 a 18.524059,18.524059 0 0 1 18.524081,18.52409 18.524059,18.524059 0 0 1 -18.524081,18.52408 18.524059,18.524059 0 0 1 -18.524082,-18.52408 18.524059,18.524059 0 0 1 18.524082,-18.52409 z"
       inkscape:connector-curvature="0" />
    <path
       id="path4545"
       style="opacity:1;fill:none;fill-rule:evenodd;stroke:#000000;stroke-width:1.2"
       d="m 48.863741,197.69744 a 26.048346,26.033584 0 0 1 25.776173,-22.28002 26.048346,26.033584 0 0 1 25.817046,22.57231"
       inkscape:connector-curvature="0" />
    <path
       inkscape:connector-curvature="0"
       d="m 156.19057,179.08997 a 22.883335,22.883335 0 0 0 -22.88335,22.88336 22.883335,22.883335 0 0 0 22.88335,22.88335 22.883335,22.883335 0 0 0 22.88336,-22.88335 22.883335,22.883335 0 0 0 -22.88336,-22.88336 z m 0,4.35927 a 18.524059,18.524059 0 0 1 18.52409,18.52409 18.524059,18.524059 0 0 1 -18.52409,18.52408 18.524059,18.524059 0 0 1 -18.52408,-18.52408 18.524059,18.524059 0 0 1 18.52408,-18.52409 z"
       style="opacity:1;fill:none;fill-rule:evenodd;stroke:#000000;stroke-width:1.45366"
       id="path4531" />
    <path
       id="path4559"
       style="opacity:1;fill:none;fill-rule:evenodd;stroke:#000000;stroke-width:1.2"
       d="m 129.46766,201.97333 a 26.722917,26.722917 0 0 1 26.72292,-26.72292"
       inkscape:connector-curvature="0" />
    <path
       style="opacity:0;fill:none;stroke:#000000;stroke-width:1.05833;stroke-linecap:butt;stroke-linejoin:miter;stroke-miterlimit:4;stroke-dasharray:none;stroke-opacity:1"
       d="m 134.68813,204.46261 -37.403922,-0.004"
       id="path4623"
       inkscape:connector-curvature="0" />
    <path
       inkscape:connector-curvature="0"
       id="path4625"
       d="M 88.679533,215.39137 60.936349,190.30413"
       style="opacity:0;fill:none;stroke:#000000;stroke-width:1.05833;stroke-linecap:butt;stroke-linejoin:miter;stroke-miterlimit:4;stroke-dasharray:none;stroke-opacity:1" />
    <path
       style="opacity:0;fill:none;stroke:#000000;stroke-width:1.05833;stroke-linecap:butt;stroke-linejoin:miter;stroke-miterlimit:4;stroke-dasharray:none;stroke-opacity:1"
       d="M 89.216542,220.09042 74.731504,185.60508"
       id="path4627"
       inkscape:connector-curvature="0" />
    <path
       inkscape:connector-curvature="0"
       id="path4629"
       d="m 92.280163,190.63506 -28.32764,24.42538"
       style="opacity:0;fill:none;stroke:#000000;stroke-width:1.05833;stroke-linecap:butt;stroke-linejoin:miter;stroke-miterlimit:4;stroke-dasharray:none;stroke-opacity:1" />
    <path
       style="opacity:0;fill:none;stroke:#000000;stroke-width:1.05833;stroke-linecap:butt;stroke-linejoin:miter;stroke-miterlimit:4;stroke-dasharray:none;stroke-opacity:1"
       d="m 82.606623,185.8494 -15.59738,33.9967"
       id="path4631"
       inkscape:connector-curvature="0" />
    <g
       transform="translate(-3.4091436,38.631589)"
       id="g4795">
      <path
         style="fill:none;stroke:#000000;stroke-width:1.05833;stroke-linecap:butt;stroke-linejoin:miter;stroke-miterlimit:4;stroke-dasharray:none;stroke-opacity:1"
         d="M 87.70503,147.57047 68.72911,179.80351"
         id="path4646"
         inkscape:connector-curvature="0" />
      <g
         id="g4771">
        <g
           id="g4763">
          <path
             inkscape:connector-curvature="0"
             id="path4615"
             d="M 77.94336,182.38695 78.4908,144.98703"
             style="fill:none;stroke:#000000;stroke-width:1.05833;stroke-linecap:butt;stroke-linejoin:miter;stroke-miterlimit:4;stroke-dasharray:none;stroke-opacity:1" />
          <path
             style="fill:none;stroke:#000000;stroke-width:1.05833;stroke-linecap:butt;stroke-linejoin:miter;stroke-miterlimit:4;stroke-dasharray:none;stroke-opacity:1"
             d="m 96.77202,163.485 -37.404054,0.0482"
             id="path4642"
             inkscape:connector-curvature="0" />
          <path
             inkscape:connector-curvature="0"
             id="path4644"
             d="M 94.032302,153.70492 62.401834,173.66906"
             style="fill:none;stroke:#000000;stroke-width:1.05833;stroke-linecap:butt;stroke-linejoin:miter;stroke-miterlimit:4;stroke-dasharray:none;stroke-opacity:1" />
          <path
             style="fill:none;stroke:#000000;stroke-width:1.05833;stroke-linecap:butt;stroke-linejoin:miter;stroke-miterlimit:4;stroke-dasharray:none;stroke-opacity:1"
             d="m 70.85482,146.49512 14.72452,34.38374"
             id="path4686"
             inkscape:connector-curvature="0" />
        </g>
        <path
           inkscape:connector-curvature="0"
           id="path4688"
           d="m 62.789606,153.11549 30.854952,21.143"
           style="fill:none;stroke:#000000;stroke-width:1.05833;stroke-linecap:butt;stroke-linejoin:miter;stroke-miterlimit:4;stroke-dasharray:none;stroke-opacity:1" />
      </g>
    </g>
    <g
       id="g4813"
       transform="translate(78.120624,38.286346)">
      <path
         inkscape:connector-curvature="0"
         id="path4797"
         d="M 87.70503,147.57047 68.72911,179.80351"
         style="fill:none;stroke:#000000;stroke-width:1.05833;stroke-linecap:butt;stroke-linejoin:miter;stroke-miterlimit:4;stroke-dasharray:none;stroke-opacity:1" />
      <g
         id="g4811">
        <g
           id="g4807">
          <path
             style="fill:none;stroke:#000000;stroke-width:1.05833;stroke-linecap:butt;stroke-linejoin:miter;stroke-miterlimit:4;stroke-dasharray:none;stroke-opacity:1"
             d="M 77.94336,182.38695 78.4908,144.98703"
             id="path4799"
             inkscape:connector-curvature="0" />
          <path
             inkscape:connector-curvature="0"
             id="path4801"
             d="m 96.77202,163.485 -37.404054,0.0482"
             style="fill:none;stroke:#000000;stroke-width:1.05833;stroke-linecap:butt;stroke-linejoin:miter;stroke-miterlimit:4;stroke-dasharray:none;stroke-opacity:1" />
          <path
             style="fill:none;stroke:#000000;stroke-width:1.05833;stroke-linecap:butt;stroke-linejoin:miter;stroke-miterlimit:4;stroke-dasharray:none;stroke-opacity:1"
             d="M 94.032302,153.70492 62.401834,173.66906"
             id="path4803"
             inkscape:connector-curvature="0" />
          <path
             inkscape:connector-curvature="0"
             id="path4805"
             d="m 70.85482,146.49512 14.72452,34.38374"
             style="fill:none;stroke:#000000;stroke-width:1.05833;stroke-linecap:butt;stroke-linejoin:miter;stroke-miterlimit:4;stroke-dasharray:none;stroke-opacity:1" />
        </g>
        <path
           style="fill:none;stroke:#000000;stroke-width:1.05833;stroke-linecap:butt;stroke-linejoin:miter;stroke-miterlimit:4;stroke-dasharray:none;stroke-opacity:1"
           d="m 62.789606,153.11549 30.854952,21.143"
           id="path4809"
           inkscape:connector-curvature="0" />
      </g>
    </g>
    <circle
       r="6.7829595"
       cy="183.3255"
       cx="79.650658"
       id="path5518"
       style="opacity:0;fill:#ffffff;fill-rule:evenodd;stroke:#000000;stroke-width:1.85208;stroke-miterlimit:4;stroke-dasharray:none" />
    <path
       id="path5520"
       style="opacity:1;fill:none;fill-rule:evenodd;stroke:#000000;stroke-width:1.45366"
       d="m 74.731504,179.12913 a 22.883335,22.883335 0 0 0 -22.88335,22.88336 22.883335,22.883335 0 0 0 22.88335,22.88335 22.883335,22.883335 0 0 0 22.88336,-22.88335 22.883335,22.883335 0 0 0 -22.88336,-22.88336 z m 0,4.35927 a 18.524059,18.524059 0 0 1 18.52409,18.52409 18.524059,18.524059 0 0 1 -18.52409,18.52408 18.524059,18.524059 0 0 1 -18.52408,-18.52408 18.524059,18.524059 0 0 1 18.52408,-18.52409 z"
       inkscape:connector-curvature="0" />
    <circle
       r="3.0487173"
       cy="201.97333"
       cx="74.616325"
       id="path5522"
       style="opacity:1;fill:#ffffff;fill-rule:evenodd;stroke:#000000;stroke-width:1.85208;stroke-miterlimit:4;stroke-dasharray:none" />
    <circle
       style="opacity:1;fill:#ffffff;fill-rule:evenodd;stroke:#000000;stroke-width:1.85208;stroke-miterlimit:4;stroke-dasharray:none"
       id="circle5524"
       cx="156.19061"
       cy="201.97334"
       r="3.0487173" />
  </g>
</svg>
