<?xml version="1.0" encoding="UTF-8" standalone="no"?>
<svg
   xmlns:dc="http://purl.org/dc/elements/1.1/"
   xmlns:cc="http://creativecommons.org/ns#"
   xmlns:rdf="http://www.w3.org/1999/02/22-rdf-syntax-ns#"
   xmlns:svg="http://www.w3.org/2000/svg"
   xmlns="http://www.w3.org/2000/svg"
   xmlns:sodipodi="http://sodipodi.sourceforge.net/DTD/sodipodi-0.dtd"
   xmlns:inkscape="http://www.inkscape.org/namespaces/inkscape"
   sodipodi:docname="bike.svg"
   inkscape:version="1.0beta2 (2b71d25, 2019-12-03)"
   id="svg3927"
   version="1.1"
   viewBox="0 0 210 297"
   height="297mm"
   width="210mm">
  <defs
     id="defs3921" />
  <sodipodi:namedview
     inkscape:object-nodes="false"
     inkscape:snap-text-baseline="true"
     inkscape:snap-center="false"
     inkscape:object-paths="false"
     inkscape:window-maximized="0"
     inkscape:window-y="23"
     inkscape:window-x="0"
     inkscape:window-height="829"
     inkscape:window-width="1440"
     showgrid="false"
     inkscape:document-rotation="0"
     inkscape:current-layer="layer1"
     inkscape:document-units="mm"
     inkscape:cy="580.51089"
     inkscape:cx="397.24097"
     inkscape:zoom="1"
     inkscape:pageshadow="2"
     inkscape:pageopacity="0.0"
     borderopacity="1.0"
     bordercolor="#666666"
     pagecolor="#ffffff"
     id="base" />
  <metadata
     id="metadata3924">
    <rdf:RDF>
      <cc:Work
         rdf:about="">
        <dc:format>image/svg+xml</dc:format>
        <dc:type
           rdf:resource="http://purl.org/dc/dcmitype/StillImage" />
        <dc:title></dc:title>
      </cc:Work>
    </rdf:RDF>
  </metadata>
  <g
     id="layer1"
     inkscape:groupmode="layer"
     inkscape:label="Layer 1">
    <path
       inkscape:connector-curvature="0"
       d="m 78.069995,140.80363 a 22.883335,22.883335 0 0 0 -22.883357,22.88336 22.883335,22.883335 0 0 0 22.883357,22.88335 22.883335,22.883335 0 0 0 22.883355,-22.88335 22.883335,22.883335 0 0 0 -22.883355,-22.88336 z m 0,4.35927 A 18.524059,18.524059 0 0 1 96.594077,163.68699 18.524059,18.524059 0 0 1 78.069995,182.21107 18.524059,18.524059 0 0 1 59.545913,163.68699 18.524059,18.524059 0 0 1 78.069995,145.1629 Z"
       style="opacity:1;fill:none;fill-rule:evenodd;stroke:#000000;stroke-width:1.45366"
       id="path4490" />
    <path
       inkscape:connector-curvature="0"
       d="M 52.272888,159.59502 A 26.048346,26.033584 0 0 1 78.049061,137.315 26.048346,26.033584 0 0 1 103.86615,159.88731"
       style="opacity:1;fill:none;fill-rule:evenodd;stroke:#000000;stroke-width:1.2"
       id="path4545" />
    <path
       id="path4531"
       style="opacity:1;fill:none;fill-rule:evenodd;stroke:#000000;stroke-width:1.45366"
       d="m 159.59976,142.57506 a 22.883335,22.883335 0 0 0 -22.88335,22.88336 22.883335,22.883335 0 0 0 22.88335,22.88335 22.883335,22.883335 0 0 0 22.88336,-22.88335 22.883335,22.883335 0 0 0 -22.88336,-22.88336 z m 0,4.35927 a 18.524059,18.524059 0 0 1 18.52409,18.52409 18.524059,18.524059 0 0 1 -18.52409,18.52408 18.524059,18.524059 0 0 1 -18.52408,-18.52408 18.524059,18.524059 0 0 1 18.52408,-18.52409 z"
       inkscape:connector-curvature="0" />
    <path
       inkscape:connector-curvature="0"
       d="M 132.87685,165.45842 A 26.722916,26.722916 0 0 1 159.59977,138.7355"
       style="opacity:1;fill:none;fill-rule:evenodd;stroke:#000000;stroke-width:1.2"
       id="path4559" />
    <path
       inkscape:connector-curvature="0"
       id="path4623"
       d="m 138.09732,165.30185 -37.40394,-0.004"
       style="opacity:0;fill:none;stroke:#000000;stroke-width:1.05833;stroke-linecap:butt;stroke-linejoin:miter;stroke-miterlimit:4;stroke-dasharray:none;stroke-opacity:1" />
    <path
       style="opacity:0;fill:none;stroke:#000000;stroke-width:1.05833;stroke-linecap:butt;stroke-linejoin:miter;stroke-miterlimit:4;stroke-dasharray:none;stroke-opacity:1"
       d="M 92.08868,176.23061 64.345496,151.14337"
       id="path4625"
       inkscape:connector-curvature="0" />
    <path
       inkscape:connector-curvature="0"
       id="path4627"
       d="M 92.62569,180.92966 78.14065,146.44432"
       style="opacity:0;fill:none;stroke:#000000;stroke-width:1.05833;stroke-linecap:butt;stroke-linejoin:miter;stroke-miterlimit:4;stroke-dasharray:none;stroke-opacity:1" />
    <path
       style="opacity:0;fill:none;stroke:#000000;stroke-width:1.05833;stroke-linecap:butt;stroke-linejoin:miter;stroke-miterlimit:4;stroke-dasharray:none;stroke-opacity:1"
       d="M 95.68931,151.4743 67.36167,175.89968"
       id="path4629"
       inkscape:connector-curvature="0" />
    <path
       inkscape:connector-curvature="0"
       id="path4631"
       d="m 86.01577,146.68864 -15.59738,33.9967"
       style="opacity:0;fill:none;stroke:#000000;stroke-width:1.05833;stroke-linecap:butt;stroke-linejoin:miter;stroke-miterlimit:4;stroke-dasharray:none;stroke-opacity:1" />
    <path
       style="fill:none;stroke:#000000;stroke-width:1.05833;stroke-linecap:butt;stroke-linejoin:miter;stroke-miterlimit:4;stroke-dasharray:none;stroke-opacity:1"
       d="M 87.70503,147.57047 68.72911,179.80351"
       id="path4646"
       inkscape:connector-curvature="0" />
    <g
       id="g4771">
      <g
         id="g4763">
        <path
           inkscape:connector-curvature="0"
           id="path4615"
           d="M 77.94336,182.38695 78.4908,144.98703"
           style="fill:none;stroke:#000000;stroke-width:1.05833;stroke-linecap:butt;stroke-linejoin:miter;stroke-miterlimit:4;stroke-dasharray:none;stroke-opacity:1" />
        <path
           style="fill:none;stroke:#000000;stroke-width:1.05833;stroke-linecap:butt;stroke-linejoin:miter;stroke-miterlimit:4;stroke-dasharray:none;stroke-opacity:1"
           d="m 96.77202,163.485 -37.404054,0.0482"
           id="path4642"
           inkscape:connector-curvature="0" />
        <path
           inkscape:connector-curvature="0"
           id="path4644"
           d="M 94.032302,153.70492 62.401834,173.66906"
           style="fill:none;stroke:#000000;stroke-width:1.05833;stroke-linecap:butt;stroke-linejoin:miter;stroke-miterlimit:4;stroke-dasharray:none;stroke-opacity:1" />
        <path
           style="fill:none;stroke:#000000;stroke-width:1.05833;stroke-linecap:butt;stroke-linejoin:miter;stroke-miterlimit:4;stroke-dasharray:none;stroke-opacity:1"
           d="m 70.85482,146.49512 14.72452,34.38374"
           id="path4686"
           inkscape:connector-curvature="0" />
      </g>
      <path
         inkscape:connector-curvature="0"
         id="path4688"
         d="m 62.789606,153.11549 30.854952,21.143"
         style="fill:none;stroke:#000000;stroke-width:1.05833;stroke-linecap:butt;stroke-linejoin:miter;stroke-miterlimit:4;stroke-dasharray:none;stroke-opacity:1" />
    </g>
  </g>
</svg>
