<?xml version="1.0" encoding="UTF-8" standalone="no"?>
<svg
   xmlns:dc="http://purl.org/dc/elements/1.1/"
   xmlns:cc="http://creativecommons.org/ns#"
   xmlns:rdf="http://www.w3.org/1999/02/22-rdf-syntax-ns#"
   xmlns:svg="http://www.w3.org/2000/svg"
   xmlns="http://www.w3.org/2000/svg"
   xmlns:xlink="http://www.w3.org/1999/xlink"
   xmlns:sodipodi="http://sodipodi.sourceforge.net/DTD/sodipodi-0.dtd"
   xmlns:inkscape="http://www.inkscape.org/namespaces/inkscape"
   width="210mm"
   height="297mm"
   viewBox="0 0 210 297"
   version="1.1"
   id="svg1714"
   inkscape:version="1.0beta2 (2b71d25, 2019-12-03)"
   sodipodi:docname="coins.svg">
  <defs
     id="defs1708">
    <linearGradient
       gradientUnits="userSpaceOnUse"
       y2="692.68439"
       x2="651.96564"
       y1="691.24689"
       x1="210.03647"
       id="linearGradient876"
       xlink:href="#linearGradient874"
       inkscape:collect="always" />
    <linearGradient
       id="linearGradient874"
       inkscape:collect="always">
      <stop
         id="stop870"
         offset="0"
         style="stop-color:#ffcc00;stop-opacity:1;" />
      <stop
         style="stop-color:#ff7200;stop-opacity:1"
         offset="0.10848507"
         id="stop886" />
      <stop
         style="stop-color:#ffd633;stop-opacity:1"
         offset="0.2443182"
         id="stop882" />
      <stop
         style="stop-color:#ffcc00;stop-opacity:1;"
         offset="0.71579307"
         id="stop880" />
      <stop
         id="stop884"
         offset="0.8258459"
         style="stop-color:#ff7200;stop-opacity:1" />
      <stop
         id="stop872"
         offset="1"
         style="stop-color:#ffcc00;stop-opacity:1" />
    </linearGradient>
    <linearGradient
       gradientUnits="userSpaceOnUse"
       y2="157.29395"
       x2="164.30859"
       y1="157.29395"
       x1="56.089844"
       id="linearGradient974"
       xlink:href="#linearGradient972"
       inkscape:collect="always" />
    <linearGradient
       id="linearGradient972"
       inkscape:collect="always">
      <stop
         id="stop968"
         offset="0"
         style="stop-color:#ff6b00;stop-opacity:1;" />
      <stop
         style="stop-color:#ffb200;stop-opacity:1"
         offset="0.527713"
         id="stop976" />
      <stop
         id="stop970"
         offset="1"
         style="stop-color:#ff6b00;stop-opacity:1" />
    </linearGradient>
    <linearGradient
       gradientUnits="userSpaceOnUse"
       y2="174.82208"
       x2="107.22861"
       y1="139.92085"
       x1="107.22861"
       id="linearGradient984"
       xlink:href="#linearGradient982"
       inkscape:collect="always" />
    <linearGradient
       id="linearGradient982"
       inkscape:collect="always">
      <stop
         id="stop978"
         offset="0"
         style="stop-color:#ffe371;stop-opacity:1" />
      <stop
         id="stop980"
         offset="1"
         style="stop-color:#ffc00f;stop-opacity:1" />
    </linearGradient>
    <filter
       height="1.8547077"
       y="-0.42735383"
       width="1.6436212"
       x="-0.3218106"
       id="filter1196"
       style="color-interpolation-filters:sRGB"
       inkscape:collect="always">
      <feGaussianBlur
         id="feGaussianBlur1198"
         stdDeviation="14.774273"
         inkscape:collect="always" />
    </filter>
    <linearGradient
       inkscape:collect="always"
       xlink:href="#linearGradient874"
       id="linearGradient2531"
       gradientUnits="userSpaceOnUse"
       x1="210.03647"
       y1="691.24689"
       x2="651.96564"
       y2="692.68439" />
    <linearGradient
       inkscape:collect="always"
       xlink:href="#linearGradient972"
       id="linearGradient2533"
       gradientUnits="userSpaceOnUse"
       x1="56.089844"
       y1="157.29395"
       x2="164.30859"
       y2="157.29395" />
    <linearGradient
       inkscape:collect="always"
       xlink:href="#linearGradient982"
       id="linearGradient2535"
       gradientUnits="userSpaceOnUse"
       x1="107.22861"
       y1="139.92085"
       x2="107.22861"
       y2="174.82208" />
    <linearGradient
       inkscape:collect="always"
       xlink:href="#linearGradient874"
       id="linearGradient2537"
       gradientUnits="userSpaceOnUse"
       x1="210.03647"
       y1="691.24689"
       x2="651.96564"
       y2="692.68439" />
    <linearGradient
       inkscape:collect="always"
       xlink:href="#linearGradient972"
       id="linearGradient2539"
       gradientUnits="userSpaceOnUse"
       x1="56.089844"
       y1="157.29395"
       x2="164.30859"
       y2="157.29395" />
    <linearGradient
       inkscape:collect="always"
       xlink:href="#linearGradient982"
       id="linearGradient2541"
       gradientUnits="userSpaceOnUse"
       x1="107.22861"
       y1="139.92085"
       x2="107.22861"
       y2="174.82208" />
    <linearGradient
       inkscape:collect="always"
       xlink:href="#linearGradient874"
       id="linearGradient2543"
       gradientUnits="userSpaceOnUse"
       x1="210.03647"
       y1="691.24689"
       x2="651.96564"
       y2="692.68439" />
    <linearGradient
       inkscape:collect="always"
       xlink:href="#linearGradient972"
       id="linearGradient2545"
       gradientUnits="userSpaceOnUse"
       x1="56.089844"
       y1="157.29395"
       x2="164.30859"
       y2="157.29395" />
    <linearGradient
       inkscape:collect="always"
       xlink:href="#linearGradient982"
       id="linearGradient2547"
       gradientUnits="userSpaceOnUse"
       x1="107.22861"
       y1="139.92085"
       x2="107.22861"
       y2="174.82208" />
    <linearGradient
       inkscape:collect="always"
       xlink:href="#linearGradient874"
       id="linearGradient2549"
       gradientUnits="userSpaceOnUse"
       x1="210.03647"
       y1="691.24689"
       x2="651.96564"
       y2="692.68439" />
    <linearGradient
       inkscape:collect="always"
       xlink:href="#linearGradient972"
       id="linearGradient2551"
       gradientUnits="userSpaceOnUse"
       x1="56.089844"
       y1="157.29395"
       x2="164.30859"
       y2="157.29395" />
    <linearGradient
       inkscape:collect="always"
       xlink:href="#linearGradient982"
       id="linearGradient2553"
       gradientUnits="userSpaceOnUse"
       x1="107.22861"
       y1="139.92085"
       x2="107.22861"
       y2="174.82208" />
  </defs>
  <sodipodi:namedview
     id="base"
     pagecolor="#ffffff"
     bordercolor="#666666"
     borderopacity="1.0"
     inkscape:pageopacity="0.0"
     inkscape:pageshadow="2"
     inkscape:zoom="1"
     inkscape:cx="362.42857"
     inkscape:cy="634.42857"
     inkscape:document-units="mm"
     inkscape:current-layer="layer1"
     inkscape:document-rotation="0"
     showgrid="false"
     inkscape:window-width="1440"
     inkscape:window-height="803"
     inkscape:window-x="0"
     inkscape:window-y="23"
     inkscape:window-maximized="0" />
  <metadata
     id="metadata1711">
    <rdf:RDF>
      <cc:Work
         rdf:about="">
        <dc:format>image/svg+xml</dc:format>
        <dc:type
           rdf:resource="http://purl.org/dc/dcmitype/StillImage" />
        <dc:title />
      </cc:Work>
    </rdf:RDF>
  </metadata>
  <g
     inkscape:label="Layer 1"
     inkscape:groupmode="layer"
     id="layer1">
    <g
       transform="matrix(0.83188965,0,0,0.83188965,34.711189,41.931549)"
       id="g1475">
      <g
         id="g1350">
        <g
           id="g1144">
          <g
             id="g1019">
            <path
               inkscape:connector-curvature="0"
               id="path995"
               style="opacity:0.353698;fill:#000000;fill-opacity:1;fill-rule:evenodd;stroke-width:0.21658"
               d="m 110.14263,147.01689 c -13.354397,0.006 -26.577335,1.98209 -36.62722,5.73815 -5.018461,1.8756 -9.309674,4.16561 -12.642123,7.17165 -0.286231,0.2582 -0.563909,0.52747 -0.83716,0.8015 l -4.983673,-0.005 -0.04961,10.38232 c -0.01241,0.23265 -0.02071,0.46614 -0.02067,0.70176 2.6e-5,0.19318 0.0061,0.38501 0.01447,0.57619 v 0.0336 h 0.0021 c 0.208209,4.46752 2.672649,8.38124 5.885945,11.27683 3.336412,3.00652 7.630501,5.2968 12.654526,7.17217 10.061045,3.7556 23.297126,5.73039 36.660295,5.73041 13.36316,-2e-5 26.59872,-1.97481 36.65977,-5.73041 5.02402,-1.87537 9.31812,-4.16566 12.65453,-7.17217 3.35879,-3.02669 5.90184,-7.16536 5.90248,-11.88661 5e-5,-0.35655 -0.0162,-0.70917 -0.0444,-1.05885 h 0.002 l -0.0377,-9.92446 -4.88394,-0.005 c -0.30382,-0.30833 -0.61412,-0.61005 -0.93431,-0.89865 -3.33632,-3.00713 -7.63189,-5.29809 -12.65607,-7.17372 -10.06087,-3.75593 -23.29693,-5.73018 -36.6603,-5.7304 -0.0194,-1e-5 -0.039,-1e-5 -0.0584,0 z" />
            <path
               transform="scale(0.26458333)"
               d="m 416.28711,547.80273 c -50.47331,0.0227 -100.44977,7.49137 -138.43359,21.6875 -18.96741,7.08889 -35.18617,15.74406 -47.78125,27.10547 -1.08182,0.97586 -2.13131,1.99359 -3.16407,3.0293 l -18.83593,-0.0176 -0.1875,39.24024 c -0.0469,0.87934 -0.0783,1.76179 -0.0781,2.65234 1e-4,0.73011 0.0229,1.45514 0.0547,2.17773 v 0.12696 h 0.008 c 0.78693,16.88512 10.10135,31.6771 22.24609,42.62109 12.61006,11.36323 28.83969,20.01937 47.82813,27.10742 38.026,14.19436 88.05213,21.65813 138.55859,21.65821 50.50643,-8e-5 100.53063,-7.46385 138.55664,-21.65821 18.98843,-7.08805 35.21808,-15.74423 47.82813,-27.10742 12.69464,-11.43949 22.30617,-27.08169 22.30859,-44.92578 2.1e-4,-1.3476 -0.0614,-2.68035 -0.16797,-4.00195 h 0.006 l -0.14258,-37.50977 -18.45898,-0.0176 c -1.14831,-1.16535 -2.32109,-2.30572 -3.53125,-3.39648 -12.60971,-11.36553 -28.84496,-20.02429 -47.83398,-27.11328 -38.02534,-14.19561 -88.05137,-21.65737 -138.5586,-21.65821 -0.0733,-3e-5 -0.14738,-3e-5 -0.2207,0 z"
               style="opacity:1;fill:url(#linearGradient2531);fill-opacity:1;fill-rule:evenodd;stroke-width:0.81857"
               id="path865"
               inkscape:connector-curvature="0" />
            <path
               d="m 110.14258,132.50391 c -13.354396,0.006 -26.577067,1.98222 -36.626955,5.73828 -5.018459,1.8756 -9.310129,4.16583 -12.642578,7.17187 -3.354798,3.0262 -5.891359,7.16275 -5.890625,11.88086 6.34e-4,4.72125 2.543559,8.86002 5.902344,11.88672 3.336411,3.00652 7.630272,5.2965 12.654296,7.17188 10.061045,3.75559 23.296989,5.73044 36.660158,5.73046 13.36316,-2e-5 26.59911,-1.97487 36.66016,-5.73046 5.02402,-1.87538 9.31788,-4.16537 12.65429,-7.17188 3.35879,-3.0267 5.90171,-7.16547 5.90235,-11.88672 7.3e-4,-4.72128 -2.53979,-8.85946 -5.89844,-11.88672 -3.33632,-3.00713 -7.63207,-5.29819 -12.65625,-7.17382 -10.06087,-3.75592 -23.29679,-5.73025 -36.66016,-5.73047 -0.0194,-1e-5 -0.0392,-1e-5 -0.0586,0 z"
               style="opacity:1;fill:#ffff77;fill-opacity:0.6;fill-rule:evenodd;stroke-width:0.21658"
               id="path844"
               inkscape:connector-curvature="0" />
            <path
               inkscape:connector-curvature="0"
               d="m 110.14258,133.61133 c -13.244765,0.006 -26.370579,1.97927 -36.240236,5.66797 -4.934829,1.84435 -9.098656,4.08088 -12.28711,6.95703 -3.188453,2.87615 -5.526062,6.74009 -5.52539,11.05859 5.8e-4,4.3213 2.342787,8.18773 5.535156,11.06446 3.192369,2.87672 7.360326,5.11285 12.300781,6.95703 9.880911,3.68835 23.020075,5.66013 36.273439,5.66015 13.25336,-2e-5 26.39253,-1.9718 36.27344,-5.66015 4.94045,-1.84418 9.10841,-4.08031 12.30078,-6.95703 3.19237,-2.87673 5.53457,-6.74316 5.53515,-11.06446 6.7e-4,-4.32159 -2.33907,-8.18724 -5.53125,-11.06445 -3.19217,-2.87721 -7.36215,-5.11457 -12.30273,-6.95899 -9.88068,-3.68865 -23.01983,-5.65993 -36.27344,-5.66015 -0.019,-1e-5 -0.0396,-1e-5 -0.0586,0 z"
               style="opacity:1;fill:url(#linearGradient2533);fill-opacity:1;fill-rule:evenodd;stroke-width:0.21658"
               id="path841" />
            <path
               inkscape:connector-curvature="0"
               d="m 158.74998,157.29478 a 48.551044,18.123959 0 0 1 -48.55104,18.12396 48.551044,18.123959 0 0 1 -48.551048,-18.12396 48.551044,18.123959 0 0 1 48.551048,-18.12395 48.551044,18.123959 0 0 1 48.55104,18.12395"
               style="opacity:1;fill:url(#linearGradient2535);fill-opacity:1;fill-rule:evenodd;stroke-width:0.21658"
               id="path835" />
            <path
               transform="scale(0.26458333)"
               d="M 589.47461,571.63477 A 175.36753,65.464173 0 0 1 591.86719,582.4082 175.36753,65.464173 0 0 1 416.5,647.87305 175.36753,65.464173 0 0 1 241.13281,582.4082 175.36753,65.464173 0 0 1 243.52539,571.63672 183.50001,68.500003 0 0 0 233,594.5 183.50001,68.500003 0 0 0 416.5,663 183.50001,68.500003 0 0 0 600,594.5 183.50001,68.500003 0 0 0 589.47461,571.63477 Z"
               style="opacity:1;fill:#ff5500;fill-opacity:0.866667;fill-rule:evenodd;stroke-width:0.81857"
               id="path986"
               inkscape:connector-curvature="0" />
          </g>
          <g
             id="g1033"
             transform="translate(8.8074762,-15.552554)">
            <path
               d="m 110.14263,147.01689 c -13.354397,0.006 -26.577335,1.98209 -36.62722,5.73815 -5.018461,1.8756 -9.309674,4.16561 -12.642123,7.17165 -0.286231,0.2582 -0.563909,0.52747 -0.83716,0.8015 l -4.983673,-0.005 -0.04961,10.38232 c -0.01241,0.23265 -0.02071,0.46614 -0.02067,0.70176 2.6e-5,0.19318 0.0061,0.38501 0.01447,0.57619 v 0.0336 h 0.0021 c 0.208209,4.46752 2.672649,8.38124 5.885945,11.27683 3.336412,3.00652 7.630501,5.2968 12.654526,7.17217 10.061045,3.7556 23.297126,5.73039 36.660295,5.73041 13.36316,-2e-5 26.59872,-1.97481 36.65977,-5.73041 5.02402,-1.87537 9.31812,-4.16566 12.65453,-7.17217 3.35879,-3.02669 5.90184,-7.16536 5.90248,-11.88661 5e-5,-0.35655 -0.0162,-0.70917 -0.0444,-1.05885 h 0.002 l -0.0377,-9.92446 -4.88394,-0.005 c -0.30382,-0.30833 -0.61412,-0.61005 -0.93431,-0.89865 -3.33632,-3.00713 -7.63189,-5.29809 -12.65607,-7.17372 -10.06087,-3.75593 -23.29693,-5.73018 -36.6603,-5.7304 -0.0194,-1e-5 -0.039,-1e-5 -0.0584,0 z"
               style="opacity:0.353698;fill:#000000;fill-opacity:1;fill-rule:evenodd;stroke-width:0.21658"
               id="path1021"
               inkscape:connector-curvature="0" />
            <path
               id="path1023"
               style="opacity:1;fill:url(#linearGradient2537);fill-opacity:1;fill-rule:evenodd;stroke-width:0.81857"
               d="m 416.28711,547.80273 c -50.47331,0.0227 -100.44977,7.49137 -138.43359,21.6875 -18.96741,7.08889 -35.18617,15.74406 -47.78125,27.10547 -1.08182,0.97586 -2.13131,1.99359 -3.16407,3.0293 l -18.83593,-0.0176 -0.1875,39.24024 c -0.0469,0.87934 -0.0783,1.76179 -0.0781,2.65234 1e-4,0.73011 0.0229,1.45514 0.0547,2.17773 v 0.12696 h 0.008 c 0.78693,16.88512 10.10135,31.6771 22.24609,42.62109 12.61006,11.36323 28.83969,20.01937 47.82813,27.10742 38.026,14.19436 88.05213,21.65813 138.55859,21.65821 50.50643,-8e-5 100.53063,-7.46385 138.55664,-21.65821 18.98843,-7.08805 35.21808,-15.74423 47.82813,-27.10742 12.69464,-11.43949 22.30617,-27.08169 22.30859,-44.92578 2.1e-4,-1.3476 -0.0614,-2.68035 -0.16797,-4.00195 h 0.006 l -0.14258,-37.50977 -18.45898,-0.0176 c -1.14831,-1.16535 -2.32109,-2.30572 -3.53125,-3.39648 -12.60971,-11.36553 -28.84496,-20.02429 -47.83398,-27.11328 -38.02534,-14.19561 -88.05137,-21.65737 -138.5586,-21.65821 -0.0733,-3e-5 -0.14738,-3e-5 -0.2207,0 z"
               transform="scale(0.26458333)"
               inkscape:connector-curvature="0" />
            <path
               id="path1025"
               style="opacity:1;fill:#ffff77;fill-opacity:0.6;fill-rule:evenodd;stroke-width:0.21658"
               d="m 110.14258,132.50391 c -13.354396,0.006 -26.577067,1.98222 -36.626955,5.73828 -5.018459,1.8756 -9.310129,4.16583 -12.642578,7.17187 -3.354798,3.0262 -5.891359,7.16275 -5.890625,11.88086 6.34e-4,4.72125 2.543559,8.86002 5.902344,11.88672 3.336411,3.00652 7.630272,5.2965 12.654296,7.17188 10.061045,3.75559 23.296989,5.73044 36.660158,5.73046 13.36316,-2e-5 26.59911,-1.97487 36.66016,-5.73046 5.02402,-1.87538 9.31788,-4.16537 12.65429,-7.17188 3.35879,-3.0267 5.90171,-7.16547 5.90235,-11.88672 7.3e-4,-4.72128 -2.53979,-8.85946 -5.89844,-11.88672 -3.33632,-3.00713 -7.63207,-5.29819 -12.65625,-7.17382 -10.06087,-3.75592 -23.29679,-5.73025 -36.66016,-5.73047 -0.0194,-1e-5 -0.0392,-1e-5 -0.0586,0 z"
               inkscape:connector-curvature="0" />
            <path
               id="path1027"
               style="opacity:1;fill:url(#linearGradient2539);fill-opacity:1;fill-rule:evenodd;stroke-width:0.21658"
               d="m 110.14258,133.61133 c -13.244765,0.006 -26.370579,1.97927 -36.240236,5.66797 -4.934829,1.84435 -9.098656,4.08088 -12.28711,6.95703 -3.188453,2.87615 -5.526062,6.74009 -5.52539,11.05859 5.8e-4,4.3213 2.342787,8.18773 5.535156,11.06446 3.192369,2.87672 7.360326,5.11285 12.300781,6.95703 9.880911,3.68835 23.020075,5.66013 36.273439,5.66015 13.25336,-2e-5 26.39253,-1.9718 36.27344,-5.66015 4.94045,-1.84418 9.10841,-4.08031 12.30078,-6.95703 3.19237,-2.87673 5.53457,-6.74316 5.53515,-11.06446 6.7e-4,-4.32159 -2.33907,-8.18724 -5.53125,-11.06445 -3.19217,-2.87721 -7.36215,-5.11457 -12.30273,-6.95899 -9.88068,-3.68865 -23.01983,-5.65993 -36.27344,-5.66015 -0.019,-1e-5 -0.0396,-1e-5 -0.0586,0 z"
               inkscape:connector-curvature="0" />
            <path
               id="path1029"
               style="opacity:1;fill:url(#linearGradient2541);fill-opacity:1;fill-rule:evenodd;stroke-width:0.21658"
               d="m 158.74998,157.29478 a 48.551044,18.123959 0 0 1 -48.55104,18.12396 48.551044,18.123959 0 0 1 -48.551048,-18.12396 48.551044,18.123959 0 0 1 48.551048,-18.12395 48.551044,18.123959 0 0 1 48.55104,18.12395"
               inkscape:connector-curvature="0" />
            <path
               id="path1031"
               style="opacity:1;fill:#ff5500;fill-opacity:0.866667;fill-rule:evenodd;stroke-width:0.81857"
               d="M 589.47461,571.63477 A 175.36753,65.464173 0 0 1 591.86719,582.4082 175.36753,65.464173 0 0 1 416.5,647.87305 175.36753,65.464173 0 0 1 241.13281,582.4082 175.36753,65.464173 0 0 1 243.52539,571.63672 183.50001,68.500003 0 0 0 233,594.5 183.50001,68.500003 0 0 0 416.5,663 183.50001,68.500003 0 0 0 600,594.5 183.50001,68.500003 0 0 0 589.47461,571.63477 Z"
               transform="scale(0.26458333)"
               inkscape:connector-curvature="0" />
          </g>
          <g
             transform="translate(0,-30.772443)"
             id="g1059">
            <path
               inkscape:connector-curvature="0"
               id="path1047"
               style="opacity:0.353698;fill:#000000;fill-opacity:1;fill-rule:evenodd;stroke-width:0.21658"
               d="m 110.14263,147.01689 c -13.354397,0.006 -26.577335,1.98209 -36.62722,5.73815 -5.018461,1.8756 -9.309674,4.16561 -12.642123,7.17165 -0.286231,0.2582 -0.563909,0.52747 -0.83716,0.8015 l -4.983673,-0.005 -0.04961,10.38232 c -0.01241,0.23265 -0.02071,0.46614 -0.02067,0.70176 2.6e-5,0.19318 0.0061,0.38501 0.01447,0.57619 v 0.0336 h 0.0021 c 0.208209,4.46752 2.672649,8.38124 5.885945,11.27683 3.336412,3.00652 7.630501,5.2968 12.654526,7.17217 10.061045,3.7556 23.297126,5.73039 36.660295,5.73041 13.36316,-2e-5 26.59872,-1.97481 36.65977,-5.73041 5.02402,-1.87537 9.31812,-4.16566 12.65453,-7.17217 3.35879,-3.02669 5.90184,-7.16536 5.90248,-11.88661 5e-5,-0.35655 -0.0162,-0.70917 -0.0444,-1.05885 h 0.002 l -0.0377,-9.92446 -4.88394,-0.005 c -0.30382,-0.30833 -0.61412,-0.61005 -0.93431,-0.89865 -3.33632,-3.00713 -7.63189,-5.29809 -12.65607,-7.17372 -10.06087,-3.75593 -23.29693,-5.73018 -36.6603,-5.7304 -0.0194,-1e-5 -0.039,-1e-5 -0.0584,0 z" />
            <path
               inkscape:connector-curvature="0"
               transform="scale(0.26458333)"
               d="m 416.28711,547.80273 c -50.47331,0.0227 -100.44977,7.49137 -138.43359,21.6875 -18.96741,7.08889 -35.18617,15.74406 -47.78125,27.10547 -1.08182,0.97586 -2.13131,1.99359 -3.16407,3.0293 l -18.83593,-0.0176 -0.1875,39.24024 c -0.0469,0.87934 -0.0783,1.76179 -0.0781,2.65234 1e-4,0.73011 0.0229,1.45514 0.0547,2.17773 v 0.12696 h 0.008 c 0.78693,16.88512 10.10135,31.6771 22.24609,42.62109 12.61006,11.36323 28.83969,20.01937 47.82813,27.10742 38.026,14.19436 88.05213,21.65813 138.55859,21.65821 50.50643,-8e-5 100.53063,-7.46385 138.55664,-21.65821 18.98843,-7.08805 35.21808,-15.74423 47.82813,-27.10742 12.69464,-11.43949 22.30617,-27.08169 22.30859,-44.92578 2.1e-4,-1.3476 -0.0614,-2.68035 -0.16797,-4.00195 h 0.006 l -0.14258,-37.50977 -18.45898,-0.0176 c -1.14831,-1.16535 -2.32109,-2.30572 -3.53125,-3.39648 -12.60971,-11.36553 -28.84496,-20.02429 -47.83398,-27.11328 -38.02534,-14.19561 -88.05137,-21.65737 -138.5586,-21.65821 -0.0733,-3e-5 -0.14738,-3e-5 -0.2207,0 z"
               style="opacity:1;fill:url(#linearGradient2543);fill-opacity:1;fill-rule:evenodd;stroke-width:0.81857"
               id="path1049" />
            <path
               inkscape:connector-curvature="0"
               d="m 110.14258,132.50391 c -13.354396,0.006 -26.577067,1.98222 -36.626955,5.73828 -5.018459,1.8756 -9.310129,4.16583 -12.642578,7.17187 -3.354798,3.0262 -5.891359,7.16275 -5.890625,11.88086 6.34e-4,4.72125 2.543559,8.86002 5.902344,11.88672 3.336411,3.00652 7.630272,5.2965 12.654296,7.17188 10.061045,3.75559 23.296989,5.73044 36.660158,5.73046 13.36316,-2e-5 26.59911,-1.97487 36.66016,-5.73046 5.02402,-1.87538 9.31788,-4.16537 12.65429,-7.17188 3.35879,-3.0267 5.90171,-7.16547 5.90235,-11.88672 7.3e-4,-4.72128 -2.53979,-8.85946 -5.89844,-11.88672 -3.33632,-3.00713 -7.63207,-5.29819 -12.65625,-7.17382 -10.06087,-3.75592 -23.29679,-5.73025 -36.66016,-5.73047 -0.0194,-1e-5 -0.0392,-1e-5 -0.0586,0 z"
               style="opacity:1;fill:#ffff77;fill-opacity:0.6;fill-rule:evenodd;stroke-width:0.21658"
               id="path1051" />
            <path
               inkscape:connector-curvature="0"
               d="m 110.14258,133.61133 c -13.244765,0.006 -26.370579,1.97927 -36.240236,5.66797 -4.934829,1.84435 -9.098656,4.08088 -12.28711,6.95703 -3.188453,2.87615 -5.526062,6.74009 -5.52539,11.05859 5.8e-4,4.3213 2.342787,8.18773 5.535156,11.06446 3.192369,2.87672 7.360326,5.11285 12.300781,6.95703 9.880911,3.68835 23.020075,5.66013 36.273439,5.66015 13.25336,-2e-5 26.39253,-1.9718 36.27344,-5.66015 4.94045,-1.84418 9.10841,-4.08031 12.30078,-6.95703 3.19237,-2.87673 5.53457,-6.74316 5.53515,-11.06446 6.7e-4,-4.32159 -2.33907,-8.18724 -5.53125,-11.06445 -3.19217,-2.87721 -7.36215,-5.11457 -12.30273,-6.95899 -9.88068,-3.68865 -23.01983,-5.65993 -36.27344,-5.66015 -0.019,-1e-5 -0.0396,-1e-5 -0.0586,0 z"
               style="opacity:1;fill:url(#linearGradient2545);fill-opacity:1;fill-rule:evenodd;stroke-width:0.21658"
               id="path1053" />
            <path
               inkscape:connector-curvature="0"
               d="m 158.74998,157.29478 a 48.551044,18.123959 0 0 1 -48.55104,18.12396 48.551044,18.123959 0 0 1 -48.551048,-18.12396 48.551044,18.123959 0 0 1 48.551048,-18.12395 48.551044,18.123959 0 0 1 48.55104,18.12395"
               style="opacity:1;fill:url(#linearGradient2547);fill-opacity:1;fill-rule:evenodd;stroke-width:0.21658"
               id="path1055" />
            <path
               inkscape:connector-curvature="0"
               transform="scale(0.26458333)"
               d="M 589.47461,571.63477 A 175.36753,65.464173 0 0 1 591.86719,582.4082 175.36753,65.464173 0 0 1 416.5,647.87305 175.36753,65.464173 0 0 1 241.13281,582.4082 175.36753,65.464173 0 0 1 243.52539,571.63672 183.50001,68.500003 0 0 0 233,594.5 183.50001,68.500003 0 0 0 416.5,663 183.50001,68.500003 0 0 0 600,594.5 183.50001,68.500003 0 0 0 589.47461,571.63477 Z"
               style="opacity:1;fill:#ff5500;fill-opacity:0.866667;fill-rule:evenodd;stroke-width:0.81857"
               id="path1057" />
          </g>
        </g>
      </g>
      <g
         transform="matrix(0.76505896,-0.40923975,0.67277561,0.46537439,-143.42062,133.96711)"
         id="g1290"
         style="opacity:0.430868;fill:#000000">
        <g
           transform="matrix(0.86768908,0.10620773,0.10620773,0.84030972,-0.19200748,29.682893)"
           style="opacity:0.18;fill:#000000;fill-opacity:0.0846774;filter:url(#filter1196)"
           id="g1258">
          <g
             style="fill:#000000;fill-opacity:0.0846774"
             id="g1254">
            <path
               inkscape:connector-curvature="0"
               transform="scale(0.26458333)"
               d="m 416.28711,547.80273 c -50.47331,0.0227 -100.44977,7.49137 -138.43359,21.6875 -18.96741,7.08889 -35.18617,15.74406 -47.78125,27.10547 -1.08182,0.97586 -2.13131,1.99359 -3.16407,3.0293 l -18.83593,-0.0176 -0.1875,39.24024 c -0.0469,0.87934 -0.0783,1.76179 -0.0781,2.65234 1e-4,0.73011 0.0229,1.45514 0.0547,2.17773 v 0.12696 h 0.008 c 0.78693,16.88512 10.10135,31.6771 22.24609,42.62109 12.61006,11.36323 28.83969,20.01937 47.82813,27.10742 38.026,14.19436 88.05213,21.65813 138.55859,21.65821 50.50643,-8e-5 100.53063,-7.46385 138.55664,-21.65821 18.98843,-7.08805 35.21808,-15.74423 47.82813,-27.10742 12.69464,-11.43949 22.30617,-27.08169 22.30859,-44.92578 2.1e-4,-1.3476 -0.0614,-2.68035 -0.16797,-4.00195 h 0.006 l -0.14258,-37.50977 -18.45898,-0.0176 c -1.14831,-1.16535 -2.32109,-2.30572 -3.53125,-3.39648 -12.60971,-11.36553 -28.84496,-20.02429 -47.83398,-27.11328 -38.02534,-14.19561 -88.05137,-21.65737 -138.5586,-21.65821 -0.0733,-3e-5 -0.14738,-3e-5 -0.2207,0 z"
               style="opacity:1;fill:#000000;fill-opacity:0.0846774;fill-rule:evenodd;stroke-width:0.81857"
               id="path1246" />
            <path
               inkscape:connector-curvature="0"
               d="m 110.14258,133.61133 c -13.244765,0.006 -26.370579,1.97927 -36.240236,5.66797 -4.934829,1.84435 -9.098656,4.08088 -12.28711,6.95703 -3.188453,2.87615 -5.526062,6.74009 -5.52539,11.05859 5.8e-4,4.3213 2.342787,8.18773 5.535156,11.06446 3.192369,2.87672 7.360326,5.11285 12.300781,6.95703 9.880911,3.68835 23.020075,5.66013 36.273439,5.66015 13.25336,-2e-5 26.39253,-1.9718 36.27344,-5.66015 4.94045,-1.84418 9.10841,-4.08031 12.30078,-6.95703 3.19237,-2.87673 5.53457,-6.74316 5.53515,-11.06446 6.7e-4,-4.32159 -2.33907,-8.18724 -5.53125,-11.06445 -3.19217,-2.87721 -7.36215,-5.11457 -12.30273,-6.95899 -9.88068,-3.68865 -23.01983,-5.65993 -36.27344,-5.66015 -0.019,-1e-5 -0.0396,-1e-5 -0.0586,0 z"
               style="opacity:1;fill:#000000;fill-opacity:0.0846774;fill-rule:evenodd;stroke-width:0.21658"
               id="path1248" />
            <g
               style="fill:#000000;fill-opacity:0.0846774"
               id="g1252">
              <path
                 id="path1250"
                 style="opacity:1;fill:#000000;fill-opacity:0.0846774;fill-rule:evenodd;stroke-width:0.21658"
                 d="m 158.74998,157.29478 a 48.551044,18.123959 0 0 1 -48.55104,18.12396 48.551044,18.123959 0 0 1 -48.551048,-18.12396 48.551044,18.123959 0 0 1 48.551048,-18.12395 48.551044,18.123959 0 0 1 48.55104,18.12395"
                 inkscape:connector-curvature="0" />
            </g>
          </g>
          <path
             id="path1256"
             style="opacity:1;fill:#000000;fill-opacity:0.0846774;fill-rule:evenodd;stroke-width:0.81857"
             d="M 589.47461,571.63477 A 175.36753,65.464173 0 0 1 591.86719,582.4082 175.36753,65.464173 0 0 1 416.5,647.87305 175.36753,65.464173 0 0 1 241.13281,582.4082 175.36753,65.464173 0 0 1 243.52539,571.63672 183.50001,68.500003 0 0 0 233,594.5 183.50001,68.500003 0 0 0 416.5,663 183.50001,68.500003 0 0 0 600,594.5 183.50001,68.500003 0 0 0 589.47461,571.63477 Z"
             transform="scale(0.26458333)"
             inkscape:connector-curvature="0" />
        </g>
        <path
           inkscape:connector-curvature="0"
           d="m 110.14258,132.50391 c -13.354396,0.006 -26.577067,1.98222 -36.626955,5.73828 -5.018459,1.8756 -9.310129,4.16583 -12.642578,7.17187 -3.354798,3.0262 -5.891359,7.16275 -5.890625,11.88086 6.34e-4,4.72125 2.543559,8.86002 5.902344,11.88672 3.336411,3.00652 7.630272,5.2965 12.654296,7.17188 10.061045,3.75559 23.296989,5.73044 36.660158,5.73046 13.36316,-2e-5 26.59911,-1.97487 36.66016,-5.73046 5.02402,-1.87538 9.31788,-4.16537 12.65429,-7.17188 3.35879,-3.0267 5.90171,-7.16547 5.90235,-11.88672 7.3e-4,-4.72128 -2.53979,-8.85946 -5.89844,-11.88672 -3.33632,-3.00713 -7.63207,-5.29819 -12.65625,-7.17382 -10.06087,-3.75592 -23.29679,-5.73025 -36.66016,-5.73047 -0.0194,-1e-5 -0.0392,-1e-5 -0.0586,0 z"
           style="opacity:1;fill:#000000;fill-opacity:0.6;fill-rule:evenodd;stroke-width:0.21658"
           id="path1260" />
        <g
           id="g1274"
           style="fill:#000000">
          <g
             id="g1270"
             style="fill:#000000">
            <path
               inkscape:connector-curvature="0"
               transform="scale(0.26458333)"
               d="m 416.28711,547.80273 c -50.47331,0.0227 -100.44977,7.49137 -138.43359,21.6875 -18.96741,7.08889 -35.18617,15.74406 -47.78125,27.10547 -1.08182,0.97586 -2.13131,1.99359 -3.16407,3.0293 l -18.83593,-0.0176 -0.1875,39.24024 c -0.0469,0.87934 -0.0783,1.76179 -0.0781,2.65234 1e-4,0.73011 0.0229,1.45514 0.0547,2.17773 v 0.12696 h 0.008 c 0.78693,16.88512 10.10135,31.6771 22.24609,42.62109 12.61006,11.36323 28.83969,20.01937 47.82813,27.10742 38.026,14.19436 88.05213,21.65813 138.55859,21.65821 50.50643,-8e-5 100.53063,-7.46385 138.55664,-21.65821 18.98843,-7.08805 35.21808,-15.74423 47.82813,-27.10742 12.69464,-11.43949 22.30617,-27.08169 22.30859,-44.92578 2.1e-4,-1.3476 -0.0614,-2.68035 -0.16797,-4.00195 h 0.006 l -0.14258,-37.50977 -18.45898,-0.0176 c -1.14831,-1.16535 -2.32109,-2.30572 -3.53125,-3.39648 -12.60971,-11.36553 -28.84496,-20.02429 -47.83398,-27.11328 -38.02534,-14.19561 -88.05137,-21.65737 -138.5586,-21.65821 -0.0733,-3e-5 -0.14738,-3e-5 -0.2207,0 z"
               style="opacity:1;fill:#000000;fill-opacity:1;fill-rule:evenodd;stroke-width:0.81857"
               id="path1262" />
            <path
               inkscape:connector-curvature="0"
               d="m 110.14258,133.61133 c -13.244765,0.006 -26.370579,1.97927 -36.240236,5.66797 -4.934829,1.84435 -9.098656,4.08088 -12.28711,6.95703 -3.188453,2.87615 -5.526062,6.74009 -5.52539,11.05859 5.8e-4,4.3213 2.342787,8.18773 5.535156,11.06446 3.192369,2.87672 7.360326,5.11285 12.300781,6.95703 9.880911,3.68835 23.020075,5.66013 36.273439,5.66015 13.25336,-2e-5 26.39253,-1.9718 36.27344,-5.66015 4.94045,-1.84418 9.10841,-4.08031 12.30078,-6.95703 3.19237,-2.87673 5.53457,-6.74316 5.53515,-11.06446 6.7e-4,-4.32159 -2.33907,-8.18724 -5.53125,-11.06445 -3.19217,-2.87721 -7.36215,-5.11457 -12.30273,-6.95899 -9.88068,-3.68865 -23.01983,-5.65993 -36.27344,-5.66015 -0.019,-1e-5 -0.0396,-1e-5 -0.0586,0 z"
               style="opacity:1;fill:#000000;fill-opacity:1;fill-rule:evenodd;stroke-width:0.21658"
               id="path1264" />
            <g
               id="g1268"
               style="fill:#000000">
              <path
                 id="path1266"
                 style="opacity:1;fill:#000000;fill-opacity:1;fill-rule:evenodd;stroke-width:0.21658"
                 d="m 158.74998,157.29478 a 48.551044,18.123959 0 0 1 -48.55104,18.12396 48.551044,18.123959 0 0 1 -48.551048,-18.12396 48.551044,18.123959 0 0 1 48.551048,-18.12395 48.551044,18.123959 0 0 1 48.55104,18.12395"
                 inkscape:connector-curvature="0" />
            </g>
          </g>
          <path
             id="path1272"
             style="opacity:1;fill:#000000;fill-opacity:0.866667;fill-rule:evenodd;stroke-width:0.81857"
             d="M 589.47461,571.63477 A 175.36753,65.464173 0 0 1 591.86719,582.4082 175.36753,65.464173 0 0 1 416.5,647.87305 175.36753,65.464173 0 0 1 241.13281,582.4082 175.36753,65.464173 0 0 1 243.52539,571.63672 183.50001,68.500003 0 0 0 233,594.5 183.50001,68.500003 0 0 0 416.5,663 183.50001,68.500003 0 0 0 600,594.5 183.50001,68.500003 0 0 0 589.47461,571.63477 Z"
             transform="scale(0.26458333)"
             inkscape:connector-curvature="0" />
        </g>
        <g
           id="g1288"
           style="fill:#000000">
          <g
             id="g1284"
             style="fill:#000000">
            <path
               id="path1276"
               style="opacity:1;fill:#000000;fill-opacity:1;fill-rule:evenodd;stroke-width:0.81857"
               d="m 416.28711,547.80273 c -50.47331,0.0227 -100.44977,7.49137 -138.43359,21.6875 -18.96741,7.08889 -35.18617,15.74406 -47.78125,27.10547 -1.08182,0.97586 -2.13131,1.99359 -3.16407,3.0293 l -18.83593,-0.0176 -0.1875,39.24024 c -0.0469,0.87934 -0.0783,1.76179 -0.0781,2.65234 1e-4,0.73011 0.0229,1.45514 0.0547,2.17773 v 0.12696 h 0.008 c 0.78693,16.88512 10.10135,31.6771 22.24609,42.62109 12.61006,11.36323 28.83969,20.01937 47.82813,27.10742 38.026,14.19436 88.05213,21.65813 138.55859,21.65821 50.50643,-8e-5 100.53063,-7.46385 138.55664,-21.65821 18.98843,-7.08805 35.21808,-15.74423 47.82813,-27.10742 12.69464,-11.43949 22.30617,-27.08169 22.30859,-44.92578 2.1e-4,-1.3476 -0.0614,-2.68035 -0.16797,-4.00195 h 0.006 l -0.14258,-37.50977 -18.45898,-0.0176 c -1.14831,-1.16535 -2.32109,-2.30572 -3.53125,-3.39648 -12.60971,-11.36553 -28.84496,-20.02429 -47.83398,-27.11328 -38.02534,-14.19561 -88.05137,-21.65737 -138.5586,-21.65821 -0.0733,-3e-5 -0.14738,-3e-5 -0.2207,0 z"
               transform="scale(0.26458333)"
               inkscape:connector-curvature="0" />
            <path
               id="path1278"
               style="opacity:1;fill:#000000;fill-opacity:1;fill-rule:evenodd;stroke-width:0.21658"
               d="m 110.14258,133.61133 c -13.244765,0.006 -26.370579,1.97927 -36.240236,5.66797 -4.934829,1.84435 -9.098656,4.08088 -12.28711,6.95703 -3.188453,2.87615 -5.526062,6.74009 -5.52539,11.05859 5.8e-4,4.3213 2.342787,8.18773 5.535156,11.06446 3.192369,2.87672 7.360326,5.11285 12.300781,6.95703 9.880911,3.68835 23.020075,5.66013 36.273439,5.66015 13.25336,-2e-5 26.39253,-1.9718 36.27344,-5.66015 4.94045,-1.84418 9.10841,-4.08031 12.30078,-6.95703 3.19237,-2.87673 5.53457,-6.74316 5.53515,-11.06446 6.7e-4,-4.32159 -2.33907,-8.18724 -5.53125,-11.06445 -3.19217,-2.87721 -7.36215,-5.11457 -12.30273,-6.95899 -9.88068,-3.68865 -23.01983,-5.65993 -36.27344,-5.66015 -0.019,-1e-5 -0.0396,-1e-5 -0.0586,0 z"
               inkscape:connector-curvature="0" />
            <g
               id="g1282"
               style="fill:#000000">
              <path
                 inkscape:connector-curvature="0"
                 d="m 158.74998,157.29478 a 48.551044,18.123959 0 0 1 -48.55104,18.12396 48.551044,18.123959 0 0 1 -48.551048,-18.12396 48.551044,18.123959 0 0 1 48.551048,-18.12395 48.551044,18.123959 0 0 1 48.55104,18.12395"
                 style="opacity:1;fill:#000000;fill-opacity:1;fill-rule:evenodd;stroke-width:0.21658"
                 id="path1280" />
            </g>
          </g>
          <path
             inkscape:connector-curvature="0"
             transform="scale(0.26458333)"
             d="M 589.47461,571.63477 A 175.36753,65.464173 0 0 1 591.86719,582.4082 175.36753,65.464173 0 0 1 416.5,647.87305 175.36753,65.464173 0 0 1 241.13281,582.4082 175.36753,65.464173 0 0 1 243.52539,571.63672 183.50001,68.500003 0 0 0 233,594.5 183.50001,68.500003 0 0 0 416.5,663 183.50001,68.500003 0 0 0 600,594.5 183.50001,68.500003 0 0 0 589.47461,571.63477 Z"
             style="opacity:1;fill:#000000;fill-opacity:0.866667;fill-rule:evenodd;stroke-width:0.81857"
             id="path1286" />
        </g>
      </g>
      <g
         id="g1079"
         transform="rotate(-41.327669,55.976727,254.42797)">
        <g
           id="g1194"
           style="opacity:0.18;fill:#000000;fill-opacity:0.0846774;filter:url(#filter1196)"
           transform="matrix(0.86768908,0.10620773,0.10620773,0.84030972,-0.19200748,29.682893)">
          <g
             id="g1190"
             style="fill:#000000;fill-opacity:0.0846774">
            <path
               id="path1182"
               style="opacity:1;fill:#000000;fill-opacity:0.0846774;fill-rule:evenodd;stroke-width:0.81857"
               d="m 416.28711,547.80273 c -50.47331,0.0227 -100.44977,7.49137 -138.43359,21.6875 -18.96741,7.08889 -35.18617,15.74406 -47.78125,27.10547 -1.08182,0.97586 -2.13131,1.99359 -3.16407,3.0293 l -18.83593,-0.0176 -0.1875,39.24024 c -0.0469,0.87934 -0.0783,1.76179 -0.0781,2.65234 1e-4,0.73011 0.0229,1.45514 0.0547,2.17773 v 0.12696 h 0.008 c 0.78693,16.88512 10.10135,31.6771 22.24609,42.62109 12.61006,11.36323 28.83969,20.01937 47.82813,27.10742 38.026,14.19436 88.05213,21.65813 138.55859,21.65821 50.50643,-8e-5 100.53063,-7.46385 138.55664,-21.65821 18.98843,-7.08805 35.21808,-15.74423 47.82813,-27.10742 12.69464,-11.43949 22.30617,-27.08169 22.30859,-44.92578 2.1e-4,-1.3476 -0.0614,-2.68035 -0.16797,-4.00195 h 0.006 l -0.14258,-37.50977 -18.45898,-0.0176 c -1.14831,-1.16535 -2.32109,-2.30572 -3.53125,-3.39648 -12.60971,-11.36553 -28.84496,-20.02429 -47.83398,-27.11328 -38.02534,-14.19561 -88.05137,-21.65737 -138.5586,-21.65821 -0.0733,-3e-5 -0.14738,-3e-5 -0.2207,0 z"
               transform="scale(0.26458333)"
               inkscape:connector-curvature="0" />
            <path
               id="path1184"
               style="opacity:1;fill:#000000;fill-opacity:0.0846774;fill-rule:evenodd;stroke-width:0.21658"
               d="m 110.14258,133.61133 c -13.244765,0.006 -26.370579,1.97927 -36.240236,5.66797 -4.934829,1.84435 -9.098656,4.08088 -12.28711,6.95703 -3.188453,2.87615 -5.526062,6.74009 -5.52539,11.05859 5.8e-4,4.3213 2.342787,8.18773 5.535156,11.06446 3.192369,2.87672 7.360326,5.11285 12.300781,6.95703 9.880911,3.68835 23.020075,5.66013 36.273439,5.66015 13.25336,-2e-5 26.39253,-1.9718 36.27344,-5.66015 4.94045,-1.84418 9.10841,-4.08031 12.30078,-6.95703 3.19237,-2.87673 5.53457,-6.74316 5.53515,-11.06446 6.7e-4,-4.32159 -2.33907,-8.18724 -5.53125,-11.06445 -3.19217,-2.87721 -7.36215,-5.11457 -12.30273,-6.95899 -9.88068,-3.68865 -23.01983,-5.65993 -36.27344,-5.66015 -0.019,-1e-5 -0.0396,-1e-5 -0.0586,0 z"
               inkscape:connector-curvature="0" />
            <g
               id="g1188"
               style="fill:#000000;fill-opacity:0.0846774">
              <path
                 inkscape:connector-curvature="0"
                 d="m 158.74998,157.29478 a 48.551044,18.123959 0 0 1 -48.55104,18.12396 48.551044,18.123959 0 0 1 -48.551048,-18.12396 48.551044,18.123959 0 0 1 48.551048,-18.12395 48.551044,18.123959 0 0 1 48.55104,18.12395"
                 style="opacity:1;fill:#000000;fill-opacity:0.0846774;fill-rule:evenodd;stroke-width:0.21658"
                 id="path1186" />
            </g>
          </g>
          <path
             inkscape:connector-curvature="0"
             transform="scale(0.26458333)"
             d="M 589.47461,571.63477 A 175.36753,65.464173 0 0 1 591.86719,582.4082 175.36753,65.464173 0 0 1 416.5,647.87305 175.36753,65.464173 0 0 1 241.13281,582.4082 175.36753,65.464173 0 0 1 243.52539,571.63672 183.50001,68.500003 0 0 0 233,594.5 183.50001,68.500003 0 0 0 416.5,663 183.50001,68.500003 0 0 0 600,594.5 183.50001,68.500003 0 0 0 589.47461,571.63477 Z"
             style="opacity:1;fill:#000000;fill-opacity:0.0846774;fill-rule:evenodd;stroke-width:0.81857"
             id="path1192" />
        </g>
        <path
           id="path1071"
           style="opacity:1;fill:#ffff77;fill-opacity:0.6;fill-rule:evenodd;stroke-width:0.21658"
           d="m 110.14258,132.50391 c -13.354396,0.006 -26.577067,1.98222 -36.626955,5.73828 -5.018459,1.8756 -9.310129,4.16583 -12.642578,7.17187 -3.354798,3.0262 -5.891359,7.16275 -5.890625,11.88086 6.34e-4,4.72125 2.543559,8.86002 5.902344,11.88672 3.336411,3.00652 7.630272,5.2965 12.654296,7.17188 10.061045,3.75559 23.296989,5.73044 36.660158,5.73046 13.36316,-2e-5 26.59911,-1.97487 36.66016,-5.73046 5.02402,-1.87538 9.31788,-4.16537 12.65429,-7.17188 3.35879,-3.0267 5.90171,-7.16547 5.90235,-11.88672 7.3e-4,-4.72128 -2.53979,-8.85946 -5.89844,-11.88672 -3.33632,-3.00713 -7.63207,-5.29819 -12.65625,-7.17382 -10.06087,-3.75592 -23.29679,-5.73025 -36.66016,-5.73047 -0.0194,-1e-5 -0.0392,-1e-5 -0.0586,0 z"
           inkscape:connector-curvature="0" />
        <g
           id="g1166">
          <g
             id="g1158">
            <path
               id="path1069"
               style="opacity:1;fill:url(#linearGradient2549);fill-opacity:1;fill-rule:evenodd;stroke-width:0.81857"
               d="m 416.28711,547.80273 c -50.47331,0.0227 -100.44977,7.49137 -138.43359,21.6875 -18.96741,7.08889 -35.18617,15.74406 -47.78125,27.10547 -1.08182,0.97586 -2.13131,1.99359 -3.16407,3.0293 l -18.83593,-0.0176 -0.1875,39.24024 c -0.0469,0.87934 -0.0783,1.76179 -0.0781,2.65234 1e-4,0.73011 0.0229,1.45514 0.0547,2.17773 v 0.12696 h 0.008 c 0.78693,16.88512 10.10135,31.6771 22.24609,42.62109 12.61006,11.36323 28.83969,20.01937 47.82813,27.10742 38.026,14.19436 88.05213,21.65813 138.55859,21.65821 50.50643,-8e-5 100.53063,-7.46385 138.55664,-21.65821 18.98843,-7.08805 35.21808,-15.74423 47.82813,-27.10742 12.69464,-11.43949 22.30617,-27.08169 22.30859,-44.92578 2.1e-4,-1.3476 -0.0614,-2.68035 -0.16797,-4.00195 h 0.006 l -0.14258,-37.50977 -18.45898,-0.0176 c -1.14831,-1.16535 -2.32109,-2.30572 -3.53125,-3.39648 -12.60971,-11.36553 -28.84496,-20.02429 -47.83398,-27.11328 -38.02534,-14.19561 -88.05137,-21.65737 -138.5586,-21.65821 -0.0733,-3e-5 -0.14738,-3e-5 -0.2207,0 z"
               transform="scale(0.26458333)"
               inkscape:connector-curvature="0" />
            <path
               id="path1073"
               style="opacity:1;fill:url(#linearGradient2551);fill-opacity:1;fill-rule:evenodd;stroke-width:0.21658"
               d="m 110.14258,133.61133 c -13.244765,0.006 -26.370579,1.97927 -36.240236,5.66797 -4.934829,1.84435 -9.098656,4.08088 -12.28711,6.95703 -3.188453,2.87615 -5.526062,6.74009 -5.52539,11.05859 5.8e-4,4.3213 2.342787,8.18773 5.535156,11.06446 3.192369,2.87672 7.360326,5.11285 12.300781,6.95703 9.880911,3.68835 23.020075,5.66013 36.273439,5.66015 13.25336,-2e-5 26.39253,-1.9718 36.27344,-5.66015 4.94045,-1.84418 9.10841,-4.08031 12.30078,-6.95703 3.19237,-2.87673 5.53457,-6.74316 5.53515,-11.06446 6.7e-4,-4.32159 -2.33907,-8.18724 -5.53125,-11.06445 -3.19217,-2.87721 -7.36215,-5.11457 -12.30273,-6.95899 -9.88068,-3.68865 -23.01983,-5.65993 -36.27344,-5.66015 -0.019,-1e-5 -0.0396,-1e-5 -0.0586,0 z"
               inkscape:connector-curvature="0" />
            <g
               id="g1152">
              <path
                 inkscape:connector-curvature="0"
                 d="m 158.74998,157.29478 a 48.551044,18.123959 0 0 1 -48.55104,18.12396 48.551044,18.123959 0 0 1 -48.551048,-18.12396 48.551044,18.123959 0 0 1 48.551048,-18.12395 48.551044,18.123959 0 0 1 48.55104,18.12395"
                 style="opacity:1;fill:url(#linearGradient2553);fill-opacity:1;fill-rule:evenodd;stroke-width:0.21658"
                 id="path1075" />
            </g>
          </g>
          <path
             inkscape:connector-curvature="0"
             transform="scale(0.26458333)"
             d="M 589.47461,571.63477 A 175.36753,65.464173 0 0 1 591.86719,582.4082 175.36753,65.464173 0 0 1 416.5,647.87305 175.36753,65.464173 0 0 1 241.13281,582.4082 175.36753,65.464173 0 0 1 243.52539,571.63672 183.50001,68.500003 0 0 0 233,594.5 183.50001,68.500003 0 0 0 416.5,663 183.50001,68.500003 0 0 0 600,594.5 183.50001,68.500003 0 0 0 589.47461,571.63477 Z"
             style="opacity:1;fill:#ff5500;fill-opacity:0.866667;fill-rule:evenodd;stroke-width:0.81857"
             id="path1077" />
        </g>
        <g
           id="g1180">
          <g
             id="g1176">
            <path
               inkscape:connector-curvature="0"
               transform="scale(0.26458333)"
               d="m 416.28711,547.80273 c -50.47331,0.0227 -100.44977,7.49137 -138.43359,21.6875 -18.96741,7.08889 -35.18617,15.74406 -47.78125,27.10547 -1.08182,0.97586 -2.13131,1.99359 -3.16407,3.0293 l -18.83593,-0.0176 -0.1875,39.24024 c -0.0469,0.87934 -0.0783,1.76179 -0.0781,2.65234 1e-4,0.73011 0.0229,1.45514 0.0547,2.17773 v 0.12696 h 0.008 c 0.78693,16.88512 10.10135,31.6771 22.24609,42.62109 12.61006,11.36323 28.83969,20.01937 47.82813,27.10742 38.026,14.19436 88.05213,21.65813 138.55859,21.65821 50.50643,-8e-5 100.53063,-7.46385 138.55664,-21.65821 18.98843,-7.08805 35.21808,-15.74423 47.82813,-27.10742 12.69464,-11.43949 22.30617,-27.08169 22.30859,-44.92578 2.1e-4,-1.3476 -0.0614,-2.68035 -0.16797,-4.00195 h 0.006 l -0.14258,-37.50977 -18.45898,-0.0176 c -1.14831,-1.16535 -2.32109,-2.30572 -3.53125,-3.39648 -12.60971,-11.36553 -28.84496,-20.02429 -47.83398,-27.11328 -38.02534,-14.19561 -88.05137,-21.65737 -138.5586,-21.65821 -0.0733,-3e-5 -0.14738,-3e-5 -0.2207,0 z"
               style="opacity:1;fill:url(#linearGradient876);fill-opacity:1;fill-rule:evenodd;stroke-width:0.81857"
               id="path1168" />
            <path
               inkscape:connector-curvature="0"
               d="m 110.14258,133.61133 c -13.244765,0.006 -26.370579,1.97927 -36.240236,5.66797 -4.934829,1.84435 -9.098656,4.08088 -12.28711,6.95703 -3.188453,2.87615 -5.526062,6.74009 -5.52539,11.05859 5.8e-4,4.3213 2.342787,8.18773 5.535156,11.06446 3.192369,2.87672 7.360326,5.11285 12.300781,6.95703 9.880911,3.68835 23.020075,5.66013 36.273439,5.66015 13.25336,-2e-5 26.39253,-1.9718 36.27344,-5.66015 4.94045,-1.84418 9.10841,-4.08031 12.30078,-6.95703 3.19237,-2.87673 5.53457,-6.74316 5.53515,-11.06446 6.7e-4,-4.32159 -2.33907,-8.18724 -5.53125,-11.06445 -3.19217,-2.87721 -7.36215,-5.11457 -12.30273,-6.95899 -9.88068,-3.68865 -23.01983,-5.65993 -36.27344,-5.66015 -0.019,-1e-5 -0.0396,-1e-5 -0.0586,0 z"
               style="opacity:1;fill:url(#linearGradient974);fill-opacity:1;fill-rule:evenodd;stroke-width:0.21658"
               id="path1170" />
            <g
               id="g1174">
              <path
                 id="path1172"
                 style="opacity:1;fill:url(#linearGradient984);fill-opacity:1;fill-rule:evenodd;stroke-width:0.21658"
                 d="m 158.74998,157.29478 a 48.551044,18.123959 0 0 1 -48.55104,18.12396 48.551044,18.123959 0 0 1 -48.551048,-18.12396 48.551044,18.123959 0 0 1 48.551048,-18.12395 48.551044,18.123959 0 0 1 48.55104,18.12395"
                 inkscape:connector-curvature="0" />
            </g>
          </g>
          <path
             id="path1178"
             style="opacity:1;fill:#ff5500;fill-opacity:0.866667;fill-rule:evenodd;stroke-width:0.81857"
             d="M 589.47461,571.63477 A 175.36753,65.464173 0 0 1 591.86719,582.4082 175.36753,65.464173 0 0 1 416.5,647.87305 175.36753,65.464173 0 0 1 241.13281,582.4082 175.36753,65.464173 0 0 1 243.52539,571.63672 183.50001,68.500003 0 0 0 233,594.5 183.50001,68.500003 0 0 0 416.5,663 183.50001,68.500003 0 0 0 600,594.5 183.50001,68.500003 0 0 0 589.47461,571.63477 Z"
             transform="scale(0.26458333)"
             inkscape:connector-curvature="0" />
        </g>
      </g>
    </g>
  </g>
</svg>
