<?xml version="1.0" encoding="UTF-8" standalone="no"?>
<svg
   xmlns:dc="http://purl.org/dc/elements/1.1/"
   xmlns:cc="http://creativecommons.org/ns#"
   xmlns:rdf="http://www.w3.org/1999/02/22-rdf-syntax-ns#"
   xmlns:svg="http://www.w3.org/2000/svg"
   xmlns="http://www.w3.org/2000/svg"
   xmlns:sodipodi="http://sodipodi.sourceforge.net/DTD/sodipodi-0.dtd"
   xmlns:inkscape="http://www.inkscape.org/namespaces/inkscape"
   sodipodi:docname="cup.svg"
   inkscape:version="1.0beta2 (2b71d25, 2019-12-03)"
   id="svg1637"
   version="1.1"
   viewBox="0 0 210 297"
   height="297mm"
   width="210mm">
  <defs
     id="defs1631" />
  <sodipodi:namedview
     inkscape:window-maximized="0"
     inkscape:window-y="23"
     inkscape:window-x="0"
     inkscape:window-height="803"
     inkscape:window-width="1440"
     showgrid="false"
     inkscape:document-rotation="0"
     inkscape:current-layer="layer1"
     inkscape:document-units="mm"
     inkscape:cy="578.85714"
     inkscape:cx="326.42857"
     inkscape:zoom="1"
     inkscape:pageshadow="2"
     inkscape:pageopacity="0.0"
     borderopacity="1.0"
     bordercolor="#666666"
     pagecolor="#ffffff"
     id="base" />
  <metadata
     id="metadata1634">
    <rdf:RDF>
      <cc:Work
         rdf:about="">
        <dc:format>image/svg+xml</dc:format>
        <dc:type
           rdf:resource="http://purl.org/dc/dcmitype/StillImage" />
        <dc:title></dc:title>
      </cc:Work>
    </rdf:RDF>
  </metadata>
  <g
     id="layer1"
     inkscape:groupmode="layer"
     inkscape:label="Layer 1">
    <ellipse
       ry="13.760265"
       rx="50.270828"
       cy="152.2677"
       cx="86.783333"
       id="ellipse1413"
       style="opacity:0.495177;fill:#00ff00;fill-rule:evenodd;stroke-width:0.415645;stroke-opacity:0" />
    <ellipse
       style="opacity:0.495177;fill:#000000;fill-rule:evenodd;stroke-width:0.299702;stroke-opacity:0"
       id="path1404"
       cx="86.783333"
       cy="150.68021"
       rx="36.247913"
       ry="9.921875" />
    <path
       id="ellipse1406"
       style="opacity:0.495177;fill:#ff0000;fill-rule:evenodd;stroke-width:1.13273;stroke-opacity:0"
       d="M 327.75977 532 A 136.99999 37.5 0 0 0 191 569.5 A 136.99999 37.5 0 0 0 198.58008 581.79883 A 129.69333 35.500002 0 0 1 198.30664 579.5 A 129.69333 35.500002 0 0 1 328 544 A 129.69333 35.500002 0 0 1 457.69336 579.5 A 129.69333 35.500002 0 0 1 457.41992 581.80078 A 136.99999 37.5 0 0 0 465 569.5 A 136.99999 37.5 0 0 0 328 532 A 136.99999 37.5 0 0 0 327.75977 532 z "
       transform="scale(0.26458333)" />
    <path
       inkscape:connector-curvature="0"
       d="m 115.18164,142.67188 v 0.0234 l 0.26758,0.0859 0.36914,0.11719 0.36914,0.11718 v 0.0254 l 0.006,0.004 0.0176,0.006 0.0195,0.008 0.0117,0.004 0.006,0.002 0.01,0.004 0.006,0.002 0.0273,0.01 0.004,0.002 h 0.004 l 0.18164,0.0684 0.0273,0.01 0.0156,0.008 0.0215,0.01 0.008,0.002 0.004,0.002 0.01,0.004 0.0605,0.0195 0.006,0.002 0.0117,0.004 0.0117,0.004 0.0137,0.004 0.004,0.002 h 0.002 l 0.008,0.004 0.0801,0.0312 0.008,0.002 0.0606,0.0234 0.0234,0.01 0.004,0.002 0.0762,0.0293 0.0918,0.0351 0.0254,0.01 0.002,0.002 0.0254,0.01 0.0156,0.006 0.01,0.004 0.0117,0.004 h 0.002 l 0.0176,0.008 0.0156,0.004 0.01,0.006 0.0176,0.006 h 0.002 l 0.0176,0.006 0.0312,0.01 h 0.01 l 0.0137,0.008 0.0215,0.006 0.0215,0.0156 0.01,0.006 0.008,0.004 0.0117,0.006 h 0.002 l 0.004,0.002 0.0547,0.0215 h 0.0508 l 0.11328,0.0586 0.0176,0.01 0.0195,0.008 0.0566,0.0254 h 0.004 l 0.0996,0.043 0.0605,0.0273 0.004,-0.0176 0.4668,0.21679 0.0625,0.0273 0.008,0.004 0.084,0.0391 0.0234,0.0117 h 0.002 l 0.0449,0.0215 h 0.10937 l 0.0898,0.0898 0.22266,0.0977 0.002,0.002 0.31055,0.13672 0.31445,0.14063 v 0.008 l 0.15625,0.0703 v 0.0273 h 0.10938 0.5293 0.52929 v 0.30273 h 0.002 0.52929 v 0.5293 0.17187 h 0.0156 l 0.0977,0.0781 h 0.51368 0.52929 v 0.52929 0.26368 l 0.10352,0.0762 v 0.0312 l 0.0723,0.0762 0.15625,0.16406 0.14454,0.15039 0.004,0.004 0.004,0.006 0.0527,0.0527 0.004,0.002 0.002,0.002 0.002,0.004 0.004,0.004 0.006,0.004 0.004,0.004 0.0117,0.0117 0.0332,0.0352 0.0273,0.0273 0.006,0.0137 0.0156,0.0156 h 0.31054 0.5293 v 0.5293 0.52929 0.0215 l 0.0137,0.0215 0.10547,0.10547 0.15234,0.1543 v 0.21679 0.0352 l 0.0449,0.084 v 0.01 l 0.0449,0.084 v 0.0254 l 0.0273,0.0527 0.12305,0.125 v 0.21875 0.0332 l 0.004,0.01 0.0449,0.0449 0.0254,0.16992 v 0.004 l 0.10351,0.10351 v 0.21875 0.21875 0.1211 0.004 0.004 l 0.002,0.006 0.008,0.0469 v 0.041 0.006 l 0.002,0.0156 v 0.0137 l 0.002,0.0117 v 0.006 0.006 l 0.002,0.0156 0.002,0.0254 v 0.0234 0.0215 0.004 0.002 l 0.004,0.0312 v 0.0332 0.0176 0.0117 0.002 0.002 0.002 0.008 0.002 0.002 l 0.002,0.041 v 0.008 0.01 0.006 0.01 0.008 0.006 0.002 0.002 0.0176 0.002 0.006 0.006 0.008 0.008 0.01 0.01 l -0.002,0.0352 v 0.004 0.002 0.006 0.004 0.002 0.002 0.0117 0.0156 0.0293 l -0.004,0.0234 v 0.006 0.006 0.004 0.0332 0.041 l -0.004,0.0254 v 0.002 l -0.002,0.0117 v 0.004 0.002 0.0312 l -0.004,0.0312 -0.004,0.0332 v 0.006 0.006 l -0.002,0.0117 v 0.0293 l -0.008,0.0449 -0.004,0.0234 v 0.0254 l -0.008,0.0449 -0.006,0.0332 v 0.0937 0.21875 0.21484 l -0.0879,0.0898 v 0.13477 l -0.11524,0.11719 -0.0117,0.0273 v 0.10742 0.21485 l -0.15039,0.15429 -0.0215,0.0215 v 0.0957 l -0.15235,0.1543 v 0.17968 l -0.11523,0.11719 v 0.45703 0.5293 h -0.125 v 0.16992 h -0.5293 -0.32226 l -0.0312,0.0293 -0.008,0.008 v 0.0957 l -0.14453,0.0723 -0.11132,0.12891 h -0.008 v 0.01 l -0.10156,0.0762 v 0.006 l -0.0918,0.0703 -0.0801,0.084 h -0.0293 l -0.006,0.004 -0.20703,0.1582 -0.125,0.0957 v 0.041 l -0.11328,0.0762 v 0.21875 0.5293 h -0.5293 -0.5293 -0.0488 l -0.0234,0.0137 -0.006,0.004 v 0.0332 l -0.2793,0.15039 -0.17187,0.0918 v 0.21484 h -0.39454 l -0.0703,0.0391 -0.0332,0.0176 -0.0879,0.0508 h -0.006 l -0.0312,0.0176 -0.0449,0.0254 -0.008,0.002 -0.0644,0.0371 -0.12109,0.0703 h -0.0176 l -0.01,0.006 -0.12109,0.0684 h -0.0117 l -0.008,0.004 v 0.0273 l -0.3125,0.13868 -0.17383,0.0781 v 0.0234 l -0.32812,0.13476 -0.32422,0.13477 h -0.002 l -0.002,0.002 v 0.006 l -0.33008,0.13281 -0.041,0.0156 -0.002,0.002 -0.0312,0.0312 -0.0977,0.0234 -0.0645,0.0332 h -0.0215 l -0.0625,0.0254 -0.004,0.002 -0.0332,0.0137 -0.0449,0.0195 h -0.002 l -0.082,0.082 h -0.11328 l -0.0879,0.0371 -0.0977,0.041 h -0.0215 l -0.0215,0.008 -0.002,0.002 -0.0117,0.004 -0.006,0.002 -0.0137,0.006 -0.01,0.004 -0.004,0.002 h -0.002 l -0.006,0.004 -0.1543,0.0605 -0.15039,0.14844 h -0.21875 -0.0352 l -0.082,0.0312 h -0.002 l -0.004,0.002 -0.002,0.002 h -0.002 l -0.008,0.002 -0.006,0.002 -0.0293,0.0137 -0.0273,0.0137 -0.0352,0.008 -0.0645,0.0254 -0.0918,0.0352 h -0.0176 l -0.0156,0.006 -0.16016,0.0566 -0.0117,0.004 -0.0117,0.006 h -0.002 l -0.0156,0.008 -0.0117,0.004 -0.006,0.002 -0.006,0.002 -0.008,0.002 -0.0137,0.006 -0.006,0.002 -0.004,0.002 -0.006,0.002 -0.004,0.002 -0.0762,0.0293 -0.0918,0.0352 h -0.0254 l -0.0254,0.01 -0.006,0.002 -0.004,0.002 -0.002,0.002 -0.0137,0.008 -0.0293,0.008 -0.01,0.004 h -0.006 l -0.0156,0.004 -0.0645,0.0332 h -0.0215 l -0.11328,0.0352 -0.0352,0.0117 -0.01,0.002 -0.0254,0.01 -0.004,0.002 -0.0332,0.01 -0.006,0.002 -0.0215,0.008 v 0.0234 l -0.38086,0.11132 -0.37891,0.11133 h -0.002 l -0.375,0.11133 h -0.002 l -0.0664,0.0195 -0.006,0.002 -0.13086,0.0391 h -0.004 l -0.004,0.002 -0.0254,0.008 h -0.002 l -0.01,0.01 -0.0195,0.006 -0.0352,0.0176 h -0.0293 l -0.0488,0.0137 -0.13281,0.0371 -0.13282,0.0371 -0.21093,0.0586 -0.0684,0.0195 h -0.002 -0.002 l -0.0664,0.0195 h -0.004 l -0.0273,0.008 -0.004,0.004 -0.11914,0.0312 -0.0176,0.006 -0.0156,0.004 v 0.01 l -0.40039,0.10157 -0.22851,0.0566 -0.004,0.002 -0.16211,0.041 h -0.002 v 0.002 l -0.22266,0.0566 -0.0644,0.0156 h -0.004 -0.002 l -0.0332,0.008 -0.0254,0.008 h -0.002 l -0.0996,0.0254 -0.22656,0.0566 h -0.002 -0.002 l -0.0645,0.0156 -0.0625,0.0156 h -0.0117 l -0.0488,0.0117 v 0.0254 l -0.41797,0.0898 -0.41797,0.0899 -0.41797,0.0898 h -0.002 l -0.16602,0.0352 -0.004,0.002 -0.0625,0.0117 -0.006,0.002 -0.0254,0.006 -0.008,0.002 -0.0645,0.0156 h -0.008 l -0.0449,0.0117 h -0.008 l -0.0723,0.0156 h -0.004 -0.002 l -0.0566,0.0117 -0.0527,0.0117 h -0.008 l -0.0625,0.0137 -0.006,0.006 -0.041,0.008 -0.0293,0.008 -0.0176,0.004 -0.0644,0.0156 h -0.0117 l -0.14649,0.0312 h -0.002 l -0.002,0.002 -0.18164,0.0371 -0.0859,0.082 h -0.21289 -0.11719 l -0.14453,0.0274 -0.006,0.002 -0.0273,0.006 -0.0117,0.002 -0.0117,0.002 -0.0449,0.01 h -0.0137 l -0.13868,0.0273 h -0.004 l -0.0449,0.01 h -0.002 l -0.12109,0.0234 -0.004,0.002 -0.0664,0.0117 -0.006,0.002 -0.0117,0.002 -0.004,0.002 h -0.004 l -0.0645,0.0156 h -0.0156 l -0.0449,0.01 h -0.0332 l -0.0508,0.01 -0.008,0.002 -0.0137,0.002 -0.0117,0.004 -0.0391,0.008 -0.01,0.002 -0.008,0.002 -0.0684,0.0195 h -0.041 l -0.0312,0.006 -0.084,0.0801 h -0.21289 -0.12696 l -0.15039,0.0274 v 0.0156 l -0.44726,0.0703 -0.44727,0.0703 -0.44726,0.0703 -0.23047,0.0352 -0.01,0.002 h -0.004 l -0.004,0.002 h -0.004 l -0.0391,0.01 h -0.0293 -0.002 l -0.006,0.002 -0.0156,0.002 h -0.002 l -0.18164,0.0293 h -0.006 l -0.0352,0.006 h -0.002 -0.002 l -0.0937,0.0137 -0.0469,-0.75586 -0.86914,0.45313 0.84375,0.31445 -0.0567,0.008 -0.006,0.002 -0.0273,0.004 -0.008,0.002 h -0.004 l -0.0332,0.006 h -0.0137 l -0.16016,0.0234 h -0.002 l -0.0234,0.004 -0.0137,0.004 -0.01,0.002 -0.0117,0.002 -0.2246,0.0352 h -0.004 -0.004 l -0.041,0.006 -0.0371,0.006 h -0.0273 l -0.0781,0.01 -0.0117,0.0195 -0.24023,0.0293 -0.24024,0.0293 h -0.002 -0.002 l -0.12696,0.0156 -0.0117,0.002 -0.0293,0.004 -0.26172,0.0352 h -0.008 l -0.01,0.002 -0.0391,0.008 h -0.0332 l -0.1875,0.0254 -0.002,0.002 h -0.002 l -0.004,0.002 -0.0312,0.004 -0.20898,0.0254 -0.006,0.002 -0.0195,0.002 -0.0156,0.002 -0.0215,0.004 -0.0469,0.008 h -0.0234 l -0.18164,0.0234 h -0.002 l -0.27734,0.0352 -0.0195,0.002 -0.01,0.002 h -0.004 l -0.0254,0.004 h -0.0176 l -0.20704,0.0254 -0.0312,0.004 h -0.0332 -0.006 -0.0625 l -0.10742,0.0117 -0.006,0.002 h -0.002 -0.004 -0.002 l -0.004,0.002 h -0.002 -0.006 l -0.004,0.002 h -0.008 l -0.0195,0.004 h -0.002 l -0.0469,0.008 h -0.0469 l -0.16211,0.0195 h -0.008 l -0.0215,0.004 h -0.01 l -0.0254,0.004 h -0.01 l -0.21094,0.0254 h -0.008 l -0.0195,0.004 h -0.004 l -0.0215,0.004 h -0.0312 l -0.18555,0.0195 -0.0117,0.002 -0.01,0.002 h -0.006 l -0.041,0.008 h -0.0449 -0.002 l -0.11329,0.0117 -0.006,0.006 -0.187496,0.0195 -0.185546,0.0195 v 0.002 l -0.285157,0.0293 -0.285156,0.0293 h -0.0098 l -0.01758,0.002 h -0.002 -0.0039 l -0.01563,0.002 h -0.0059 l -0.244141,0.0234 -0.287109,0.0274 -0.02539,0.002 h -0.0059 -0.002 l -0.01367,0.002 h -0.0078 l -0.242188,0.0215 h -0.002 -0.002 l -0.01563,0.002 h -0.0078 l -0.242188,0.0234 -0.0293,0.008 h -0.04492 l -0.210937,0.0176 -0.03516,0.008 h -0.05273 -0.01172 l -0.232422,0.0195 h -0.002 -0.002 l -0.28711,0.0215 h -0.0039 l -0.289063,0.0234 -0.292968,0.0234 h -0.0059 l -0.01563,0.002 -0.0059,0.002 h -0.03711 -0.0098 -0.0039 -0.0078 -0.002 l -0.214844,0.0176 h -0.002 L 96,162.04492 l -0.02734,0.004 h -0.04297 -0.0078 -0.0098 -0.002 -0.002 l -0.199219,0.0156 -0.01758,0.002 -0.0293,0.004 h -0.0293 -0.0059 -0.0039 -0.0078 l -0.205078,0.0176 -0.01953,0.002 -0.02539,0.002 h -0.02734 -0.01953 l 0.02344,-0.002 -0.03125,0.002 -0.193359,0.0117 -0.01563,0.002 -0.0332,0.004 h -0.0332 -0.01367 -0.002 -0.0039 l -0.191406,0.0137 -0.03125,0.006 h -0.05273 -0.01758 l 0.02734,-0.002 -0.03125,0.002 -0.130859,0.008 -0.0293,0.0293 h -0.21875 -0.166016 l -0.298828,0.0156 h -0.02734 -0.0293 -0.01172 l -0.03516,0.0176 h -0.125 -0.101562 -0.002 -0.02148 l -0.248046,0.0117 h -0.0078 -0.0039 -0.01172 -0.002 l -0.267578,0.0156 h -0.01563 -0.01367 -0.01172 -0.002 -0.01367 -0.0039 -0.002 l -0.25586,0.0117 h -0.0098 -0.0078 -0.0039 -0.01172 l -0.148437,0.008 0.002,0.006 -0.638672,0.0215 -0.02734,0.002 -0.05078,0.002 h -0.0078 -0.0078 -0.0098 l -1.935546,0.0918 0.05469,-0.0352 -0.255859,0.006 h -0.002 l -0.296874,0.006 h -0.0039 -0.0059 -0.0039 -0.0039 -0.0059 -0.0039 l -0.263672,0.01 h -0.0078 -0.0098 -0.0098 -0.0078 -0.002 -0.002 -0.0039 l -0.291015,0.004 h -0.002 l -0.302734,0.004 -0.304688,0.004 h -0.002 -0.0039 -0.0039 -0.002 -0.002 -0.002 l -0.296876,0.002 -0.302734,0.002 h -0.002 -0.002 -0.002 -0.002 -0.002 -0.002 -0.002 l -0.292968,0.002 h -0.002 -0.002 -0.002 -0.002 -0.002 -0.002 -0.304688 -0.0625 -0.304687 -0.002 -0.002 -0.002 -0.002 -0.002 -0.002 l -0.304687,-0.002 -0.302735,-0.002 -0.292969,-0.002 h -0.002 -0.002 -0.002 -0.002 -0.0039 -0.002 -0.0039 -0.002 l -0.302734,-0.004 -0.304688,-0.004 h -0.002 l -0.291016,-0.004 h -0.002 -0.002 -0.002 -0.002 -0.002 -0.0078 -0.0078 -0.0059 l -0.285156,-0.008 h -0.0039 -0.0059 -0.0039 l -0.28125,-0.006 h -0.002 -0.002 -0.0059 -0.002 -0.0059 -0.0078 -0.0059 l -0.271484,-0.008 h -0.0039 -0.0059 -0.0039 -0.0059 -0.0039 l -0.279296,-0.006 h -0.002 -0.002 -0.0059 -0.002 -0.0059 -0.0078 -0.0078 l -0.259765,-0.008 h -0.002 -0.0078 -0.0039 -0.002 -0.0039 -0.0078 -0.0098 -0.0098 -0.01172 l -0.296875,-0.0117 h -0.0039 l -0.298828,-0.01 -0.302735,-0.01 -0.267578,-0.01 h -0.002 -0.002 -0.0098 -0.0039 -0.0078 -0.01172 -0.0098 l -0.257812,-0.0117 h -0.002 -0.01172 -0.0078 -0.0039 -0.01367 -0.01172 l -0.263671,-0.0137 h -0.0098 -0.0039 -0.0078 -0.01172 l -0.234376,-0.0117 h -0.01172 -0.0078 -0.002 -0.002 -0.01172 -0.01172 -0.01172 -0.01172 l -0.298828,-0.0137 h -0.002 l -0.269531,-0.0137 h -0.0078 -0.002 -0.0039 -0.01367 -0.01367 l -0.298828,-0.0156 -0.298828,-0.0156 -0.289063,-0.0156 h -0.0098 -0.0059 l -0.501953,-0.0273 -0.5,-0.0273 -0.5,-0.0273 v -0.0176 l -0.0098,-0.002 h -0.002 -0.0039 l -0.01367,-0.002 -0.162109,-0.0117 h -0.002 -0.0039 -0.002 -0.002 -0.01172 -0.03711 -0.04687 l -0.02344,-0.004 h -0.0098 l -0.02539,-0.006 h -0.0098 v -0.002 l -0.236329,-0.0156 h -0.002 l -0.294921,-0.0215 h -0.002 l -0.214843,-0.0176 h -0.002 -0.0078 -0.0039 -0.0098 -0.03711 l -0.0059,-0.002 -0.01563,-0.002 h -0.0059 l -0.292969,-0.0234 h -0.002 l -0.222656,-0.0195 h -0.0078 -0.002 -0.03711 l -0.0098,-0.002 h -0.0059 l -0.01758,-0.002 -0.291016,-0.0254 -0.291016,-0.0254 -0.246093,-0.0215 h -0.0078 l -0.01367,-0.002 h -0.002 -0.0059 l -0.02539,-0.002 -0.253906,-0.0254 h -0.0078 l -0.01562,-0.002 h -0.002 -0.002 l -0.240234,-0.0215 h -0.02734 l -0.03516,-0.006 -0.0098,-0.002 h -0.0059 l -0.002,-0.002 h -0.0039 l -0.175781,-0.0195 h -0.0059 -0.0039 -0.05273 l -0.01953,-0.004 h -0.002 l -0.261719,-0.0254 h -0.002 -0.002 l -0.01758,-0.002 h -0.0098 l -0.285156,-0.0293 v -0.002 l -0.185547,-0.0195 -0.03711,-0.004 h -0.01563 l -0.02344,-0.004 -0.111328,-0.0117 -0.0039,-0.004 -0.132813,-0.0137 h -0.0293 l -0.04102,-0.008 h -0.0059 l -0.0098,-0.002 -0.01172,-0.002 -0.146484,-0.0156 h -0.002 -0.04492 l -0.04102,-0.008 h -0.0059 l -0.0098,-0.002 h -0.0039 -0.002 v -0.002 h -0.002 -0.0039 l -0.0059,-0.002 h -0.0039 l -0.01367,-0.002 -0.169922,-0.0195 h -0.0098 -0.0332 l -0.01953,-0.004 -0.0098,-0.002 -0.01563,-0.002 h -0.0059 l -0.179688,-0.0215 h -0.03711 l -0.05273,-0.0117 h -0.002 -0.002 -0.0039 l -0.0059,-0.002 h -0.002 l -0.0078,-0.002 -0.263672,-0.0293 h -0.002 l -0.279297,-0.0332 -0.210937,-0.0254 h -0.01953 l -0.02539,-0.004 h -0.0039 l -0.0098,-0.002 -0.01953,-0.002 -0.277344,-0.0351 -0.212891,-0.0274 h -0.15039 -0.208985 l -0.05859,-0.0547 -0.03125,-0.004 0.0293,0.0234 -0.886718,-0.13672 -0.06836,-0.01 v -0.002 l -0.892578,-0.13867 -0.06641,-0.01 -0.04102,-0.006 -0.01172,-0.002 -0.03906,-0.006 h -0.002 -0.0078 l -0.01953,-0.004 -0.0078,-0.002 -0.05273,-0.008 -0.435547,-0.0625 0.002,-0.008 -0.113282,-0.0176 -0.447265,-0.0703 -0.447266,-0.0703 -0.162109,-0.0254 h -0.07617 l -0.03516,-0.0176 -0.173828,-0.0273 v -0.0215 l -0.142579,-0.0254 h -0.0039 -0.03906 l -0.0293,-0.008 h -0.002 l -0.02734,-0.008 -0.0078,-0.002 -0.02734,-0.006 -0.01563,-0.004 -0.0098,-0.004 h -0.0039 -0.002 l -0.0039,-0.002 h -0.002 l -0.189453,-0.0351 -0.09375,-0.0176 h -0.02734 l -0.05859,-0.0137 -0.0293,-0.006 -0.0098,-0.002 -0.0039,-0.002 -0.03516,-0.006 -0.07031,-0.0137 -0.0098,-0.006 -0.05664,-0.01 h -0.01758 l -0.04883,-0.01 -0.04297,-0.008 -0.0078,-0.002 -0.146484,-0.0254 h -0.0098 l -0.03516,-0.008 -0.0098,-0.002 h -0.0039 l -0.05078,-0.01 -0.246094,-0.0488 -0.148437,-0.0293 h -0.111328 -0.21875 l -0.08984,-0.0899 -0.181641,-0.0371 -0.07422,-0.0156 h -0.01953 l -0.06055,-0.0156 -0.0293,-0.006 -0.01953,-0.006 0.0098,0.004 -0.0078,-0.002 -0.0078,-0.002 -0.02148,-0.006 h -0.0039 l -0.01367,-0.004 h -0.002 -0.0039 l -0.0078,-0.002 -0.0078,-0.002 -0.101563,-0.0215 h -0.0098 l -0.05273,-0.0117 -0.05664,-0.0117 h -0.0039 -0.0039 l -0.238281,-0.0527 -0.414062,-0.0918 -0.146485,-0.0332 h -0.01758 l -0.03125,-0.0117 -0.21875,-0.0488 v -0.006 l -0.130859,-0.0312 v -0.002 l -0.40625,-0.0977 h -0.002 l -0.06445,-0.0156 h -0.0039 l -0.002,-0.002 -0.160156,-0.041 0.002,0.002 -0.06055,-0.0156 h -0.002 l -0.21875,-0.0547 -0.0059,-0.002 -0.0059,-0.002 -0.02148,-0.006 h -0.0039 -0.002 l -0.0039,-0.002 -0.0098,-0.002 -0.0039,-0.002 -0.0078,-0.002 -0.330078,-0.0781 h -0.002 l -0.404297,-0.0957 -0.408203,-0.0957 v -0.0312 l -0.03125,-0.01 -0.05078,-0.0156 h -0.002 l -0.0059,-0.002 -0.01172,-0.004 h -0.002 l -0.0039,-0.002 -0.0078,-0.002 h -0.0039 l -0.0098,-0.004 -0.0078,-0.002 -0.0098,-0.002 -0.0039,-0.002 -0.02148,-0.006 -0.0332,-0.0117 -0.0098,-0.004 -0.146485,-0.041 h -0.0293 l -0.06445,-0.0215 h -0.01758 l -0.08594,-0.0332 -0.0098,-0.004 -0.0098,-0.002 h -0.02539 l -0.08203,-0.0273 -0.05859,-0.0195 h -0.002 l -0.0098,-0.004 -0.0059,-0.002 -0.0078,-0.002 -0.01563,-0.004 -0.0039,-0.002 -0.01953,-0.006 -0.01172,-0.004 -0.01367,-0.004 -0.0039,-0.002 -0.01172,-0.004 -0.175781,-0.0527 -0.05078,-0.0156 H 59.4375 l -0.07227,-0.0234 -0.0078,-0.002 -0.02734,-0.01 -0.04102,-0.0117 -0.0039,-0.002 -0.199218,-0.0605 h -0.002 l -0.05078,-0.0156 h -0.0039 l -0.07031,-0.0234 h -0.0039 l -0.0059,-0.002 -0.07031,-0.0215 -0.179687,-0.0566 h -0.0078 l -0.08594,-0.0293 -0.05859,-0.0195 -0.0039,-0.002 -0.01563,-0.006 -0.0078,-0.002 -0.03125,-0.0117 -0.0078,-0.002 -0.02734,-0.01 -0.002,-0.002 -0.0332,-0.01 -0.0059,-0.004 -0.15039,-0.0488 h -0.002 l -0.04102,-0.0137 -0.04492,-0.0156 -0.04297,-0.0234 -0.02734,-0.0156 -0.0098,-0.006 h -0.002 l -0.002,-0.002 -0.123047,-0.0371 -0.0059,-0.006 -0.07227,-0.0234 -0.0078,-0.004 -0.02734,-0.008 -0.0059,-0.004 -0.07813,-0.0254 -0.117187,-0.0391 -0.0059,-0.006 -0.05469,-0.0195 -0.02734,-0.01 -0.02539,-0.008 -0.06836,-0.0215 -0.121094,-0.0391 -0.01172,-0.0117 -0.0039,-0.002 -0.02344,-0.008 -0.355469,-0.12305 -0.355469,-0.12305 -0.355468,-0.12304 v -0.0234 l -0.04687,-0.0254 -0.05078,-0.0273 -0.0039,-0.002 h -0.002 l -0.136719,-0.0566 -0.0059,-0.002 -0.09375,-0.0371 h -0.002 l -0.230469,-0.0918 -0.333984,-0.13281 -0.246094,-0.0977 h -0.136719 l -0.15039,-0.14453 -0.300782,-0.13086 v -0.0254 l -0.0293,-0.0137 -0.08398,-0.043 -0.02734,-0.0137 -0.113281,-0.0566 h -0.002 -0.002 l -0.115235,-0.0586 -0.289062,-0.14843 -0.0039,-0.002 -0.0059,-0.006 -0.0039,-0.002 -0.08203,-0.043 h -0.03906 l -0.123047,-0.0762 h -0.0098 l -0.125,-0.0762 -0.02148,-0.0137 -0.01172,-0.006 -0.03125,-0.0176 -0.05273,-0.0293 -0.210937,-0.11133 -0.285156,-0.14843 v -0.0312 l -0.06445,-0.041 -0.002,-0.002 h -0.002 -0.0625 l -0.121094,-0.1211 -0.06055,-0.0371 -0.002,-0.002 h -0.002 l -0.0918,-0.0586 h -0.03906 -0.529297 -0.529297 v -0.47852 h -0.09766 -0.529297 v -0.52929 -0.12305 h -0.169922 -0.529297 v -0.5293 -0.39453 h -0.04687 l -0.152343,-0.26953 -0.152344,-0.26953 -0.08984,-0.16016 -0.0059,-0.006 v -0.002 -0.002 h -0.002 l -0.154297,-0.15625 -0.152344,-0.1543 v -0.2168 -0.0351 l -0.04492,-0.084 v -0.0117 l -0.04492,-0.0859 v -0.0176 l -0.04102,-0.0801 v -0.0195 h -0.251954 v -0.5293 -0.0937 l -0.0332,-0.0332 v -0.21875 -0.21875 -0.0527 l -0.0039,-0.0117 -0.0039,-0.0703 -0.0039,-0.0723 v -0.002 l -0.0059,-0.11133 v -0.004 -0.01 l -0.0039,-0.0742 v -0.0137 -0.0117 -0.0137 -0.0117 -0.0117 -0.002 -0.006 -0.008 -0.002 -0.002 l -0.002,-0.0351 v -0.01 -0.01 -0.008 -0.008 -0.006 -0.006 -0.002 -0.002 -0.0176 -0.002 -0.006 -0.006 -0.008 -0.006 -0.01 -0.008 l 0.002,-0.041 v -0.002 -0.004 -0.008 -0.002 -0.002 -0.002 -0.0137 -0.0176 -0.0332 l 0.0039,-0.0274 v -0.006 -0.0371 -0.0527 l 0.0039,-0.0195 v -0.043 l 0.002,-0.006 v -0.004 l 0.0039,-0.0293 0.0039,-0.0352 v -0.006 -0.006 l 0.002,-0.0137 v -0.002 -0.0625 l 0.0078,-0.0312 v -0.004 l 0.0039,-0.0137 v -0.002 -0.0918 -0.21875 -0.21485 l 0.113281,-0.11718 0.002,-0.01 0.0293,-0.16406 0.04297,-0.043 0.0039,-0.0176 v -0.22265 -0.5293 -0.5293 h 0.304688 v -0.0723 -0.5293 h 0.529297 0.197265 l 0.107422,-0.16797 h 0.03516 l 0.05859,-0.084 h 0.04687 l 0.03516,-0.0449 0.148438,-0.19335 v -0.31055 -0.5293 h 0.529297 0.173828 V 146 145.4707 h 0.529297 0.529296 0.01367 l 0.105469,-0.0781 h 0.02539 0.002 v -0.002 -0.0332 l 0.214844,-0.10742 0.06836,-0.0469 0.04883,-0.0488 0.154297,-0.15235 h 0.111328 l 0.08789,-0.0469 0.02344,-0.0117 0.0293,-0.0195 h 0.0059 l 0.08789,-0.0469 v -0.0293 l 0.146484,-0.0723 v -0.004 l 0.292969,-0.14648 0.294922,-0.14648 h 0.002 l 0.0039,-0.002 v -0.002 l 0.296876,-0.14649 0.148437,-0.0723 h 0.0039 l 0.002,-0.002 0.111328,-0.0527 0.107422,-0.0508 h 0.0059 l 0.03711,-0.0176 0.0039,-0.002 0.103516,-0.0508 0.109375,-0.0547 h 0.0098 l 0.04492,-0.0215 h 0.01367 l 0.05469,-0.0234 0.04102,-0.0176 0.0078,-0.004 0.01758,-0.01 0.115235,-0.0606 h 0.01953 l 0.04492,-0.0215 0.107421,-0.0508 h 0.01953 l 0.0078,-0.004 0.0039,-0.002 0.0039,-0.002 0.0059,-0.002 0.0078,-0.004 0.410156,-0.18359 v -0.0215 l 0.257812,-0.0937 0.0059,-0.002 0.285156,-0.1289 v -0.004 l 0.03711,-0.0117 0.3125,-0.14062 v 0.0351 l 0.0098,-0.004 0.357422,-0.11914 0.002,-0.002 0.271484,-0.0918 0.0293,-0.0156 0.04883,-0.0137 0.03125,-0.008 0.0039,-0.002 0.07813,-0.0273 0.0039,-0.002 0.02539,-0.01 0.03125,-0.0117 0.0059,-0.002 0.0039,-0.002 0.09766,-0.0352 v -0.0312 l 0.376954,-0.11328 0.349609,-0.10547 -0.111328,0.0215 -0.291016,0.0566 -0.04883,0.01 h -0.002 -0.002 l -0.04687,0.01 h -0.002 l -0.189453,0.0371 h -0.0039 l -0.04687,0.01 h -0.0039 l -0.230469,0.0449 h -0.0039 l -0.04492,0.01 -0.05078,0.01 h -0.0078 l -0.171875,0.0352 -0.3125,0.0645 -0.01172,0.002 v 0.002 h -0.002 l -0.0098,0.002 -0.02344,0.006 -0.06445,0.0156 h -0.02148 l -0.402344,0.082 h 0.0059 l -0.04688,0.01 -0.0078,0.002 -0.04297,0.01 -0.0039,0.002 h -0.0059 l -0.03711,0.008 h -0.002 l -0.0625,0.0156 -0.03711,0.008 -0.0059,0.006 -0.152343,0.0332 -0.150391,0.0332 -0.25,0.0547 -0.002,0.002 -0.152344,0.0332 -0.150391,0.0332 h -0.002 l -0.1875,0.041 -0.01953,0.01 -0.06055,0.008 -0.0059,0.002 h -0.0039 l -0.0039,0.002 -0.02148,0.006 -0.02148,0.002 h -0.002 l -0.136719,0.0332 -0.05664,0.0137 h -0.002 l -0.03711,0.01 -0.0078,0.002 h -0.0059 l -0.01367,0.004 h -0.0039 l -0.05664,0.0137 -0.148437,0.0352 h -0.002 -0.002 l -0.06055,0.0137 -0.05859,0.0137 h -0.0059 l -0.138672,0.0332 -0.318359,0.0762 h 0.0059 l -0.02344,0.006 -0.01953,0.006 h -0.0039 l -0.07031,0.0215 h -0.01953 l -0.05469,0.0137 -0.01758,0.004 -0.02344,0.008 h -0.002 -0.0039 l -0.02148,0.006 -0.0059,0.002 -0.0078,0.002 -0.05664,0.0137 h -0.0039 l -0.0039,0.002 -0.126953,0.0332 -0.0059,0.002 h -0.002 l -0.01563,0.004 -0.04102,0.0117 h -0.0039 l -0.201172,0.0508 -0.0625,0.0156 -0.06055,0.0137 -0.002,0.002 h -0.002 l -0.123047,0.0312 -0.0059,0.002 -0.02344,0.006 h -0.0039 l -0.0039,0.002 -0.0098,0.002 -0.01367,0.004 -0.05664,0.0156 -0.07031,0.0195 h -0.01563 l -0.04883,0.0117 -0.0039,0.002 -0.06055,0.0156 v 0.002 h -0.002 l -0.189453,0.0508 -0.25586,0.0684 -0.06445,0.0176 h -0.002 l -0.185547,0.0508 -0.06836,0.0176 h -0.0059 l -0.117188,0.0332 -0.0059,0.002 -0.01953,0.004 -0.02148,0.006 -0.01172,0.004 -0.01758,0.004 -0.01758,0.006 h -0.002 l -0.01367,0.004 h -0.0039 l -0.0039,0.002 -0.01563,0.004 -0.16211,0.0469 h -0.002 l -0.06836,0.0195 -0.177735,0.0508 -0.06641,0.0176 -0.0039,0.002 h -0.002 l -0.06641,0.0195 h -0.01172 l -0.05664,0.0156 0.01367,-0.002 -0.02344,0.006 -0.0059,0.002 -0.0098,0.004 -0.07227,0.0234 h -0.01563 l -0.158203,0.0469 h -0.0039 l -0.06836,0.0215 -0.07422,0.0215 h -0.0059 l -0.07422,0.0234 -0.0059,0.002 h -0.0039 l -0.0625,0.0215 -0.08008,0.0254 h -0.0098 l -0.07031,0.0215 h -0.0078 l -0.01367,0.004 h -0.002 v 0.002 l -0.175781,0.0527 -0.03906,0.0117 -0.002,0.002 -0.238281,0.0742 h -0.0039 l -0.002,0.002 -0.07813,0.0234 -0.05664,0.0156 -0.01367,0.004 -0.0039,0.002 -0.06641,0.0234 h -0.01172 l -0.0059,0.002 -0.07617,0.0234 -0.07031,0.0215 -0.0059,0.002 -0.0039,0.002 -0.0625,0.0195 h -0.0039 l -0.0059,0.002 -0.07031,0.0234 h -0.002 l -0.152344,0.0488 -0.07422,0.0234 -0.0039,0.002 h -0.002 l -0.103516,0.0332 -0.07617,0.0391 h -0.04102 l -0.140625,0.0469 -0.224609,0.0742 -0.002,0.002 -0.07813,0.0254 -0.0039,0.002 h -0.002 -0.002 l -0.07617,0.0273 h -0.0039 l -0.03906,0.0137 h -0.002 l -0.01953,0.008 -0.01172,0.004 -0.0098,0.002 -0.173829,0.0625 -0.0039,0.002 h -0.0039 l -0.08008,0.0273 -0.0059,0.002 -0.347656,0.12304 v 0.002 l -0.191406,0.0664 -0.01953,0.008 -0.0078,0.002 -0.0293,0.0117 -0.04883,0.0156 -0.08008,0.0293 -0.0078,0.004 -0.01758,0.006 -0.0918,0.0352 h -0.0059 l -0.113281,0.043 h -0.002 l -0.08789,0.0332 -0.002,0.002 h -0.002 l -0.08203,0.0293 -0.0078,0.004 -0.01172,0.006 -0.0098,0.004 -0.01563,0.006 -0.0098,0.004 h -0.0039 l -0.01563,0.006 -0.002,0.002 -0.02148,0.008 -0.07617,0.0332 h -0.0098 l -0.04492,0.0176 -0.0918,0.0351 h -0.0039 l -0.117187,0.0449 -0.04883,0.0176 -0.04297,0.0176 -0.01953,0.008 v 0.004 l -0.332031,0.13477 -0.314453,0.125 -0.0078,0.004 -0.01758,0.006 -0.01563,0.006 h -0.002 l -0.02344,0.01 -0.02344,0.0117 -0.02344,0.01 -0.06055,0.0274 -0.02148,0.0117 -0.05078,0.0156 -0.0039,0.002 -0.0332,0.0137 -0.0039,0.004 -0.08594,0.0352 -0.01172,0.006 -0.02539,0.0117 -0.04492,0.0176 -0.01953,0.01 h -0.002 -0.002 l -0.01367,0.008 -0.01172,0.006 -0.01172,0.004 -0.05273,0.0215 -0.0039,0.002 -0.0039,0.004 -0.06641,0.0273 -0.0039,0.004 -0.08789,0.0352 -0.01172,0.006 -0.0098,0.004 h -0.002 -0.002 l -0.07422,0.0332 -0.0039,0.004 -0.08594,0.0391 -0.08984,0.041 -0.0039,0.002 -0.002,0.002 -0.07617,0.0332 -0.0078,0.004 -0.0039,0.002 -0.132812,0.0586 -0.0078,0.004 -0.0293,0.0137 h -0.002 l -0.140625,0.0645 -0.0078,0.004 -0.002,0.002 h -0.002 l -0.0039,0.002 -0.0039,0.002 -0.0039,0.004 -0.0078,0.004 -0.01172,0.0117 -0.09961,0.041 -0.0039,0.002 -0.0059,0.002 -0.01563,0.01 -0.0098,0.004 -0.0078,0.004 -0.03516,0.0176 -0.0098,0.004 -0.101562,0.0527 h -0.0098 l -0.01953,0.01 -0.002,0.002 -0.002,0.002 -0.0293,0.0137 -0.0098,0.004 -0.01367,0.006 -0.0293,0.0156 -0.07031,0.0332 -0.0059,0.004 -0.154297,0.0762 -0.002,0.002 -0.0332,0.0176 -0.0059,0.002 -0.109375,0.0566 -0.0059,0.004 -0.01172,0.006 -0.02539,0.0137 -0.01172,0.004 -0.0078,0.004 -0.0039,0.002 -0.03125,0.0156 -0.002,0.002 -0.002,0.002 h -0.002 l -0.02344,0.0137 -0.04687,0.0254 -0.162109,0.084 -0.105469,0.0527 -0.0039,0.002 -0.0059,0.004 -0.0059,0.004 -0.03906,0.0273 -0.03125,0.01 -0.04102,0.0234 -0.0039,0.002 -0.01953,0.01 -0.0332,0.0195 -0.0059,0.002 -0.138672,0.0801 -0.119141,0.0664 -0.002,0.002 h -0.002 -0.002 l -0.02539,0.0156 -0.04297,0.0254 -0.0098,0.006 -0.04102,0.0391 -0.06836,0.0234 -0.0098,0.004 -0.03906,0.0234 h -0.002 l -0.01758,0.0117 -0.05664,0.0332 -0.09766,0.0566 -0.0059,0.004 -0.002,0.002 -0.03711,0.0254 -0.0059,0.002 -0.0078,0.006 -0.0625,0.0371 -0.002,0.002 -0.03711,0.0234 -0.0078,0.004 -0.0098,0.006 -0.0098,0.006 -0.128907,0.0781 -0.0059,0.002 -0.0039,0.002 -0.0039,0.004 h -0.002 l -0.002,0.002 -0.002,0.002 -0.0059,0.002 -0.002,0.002 -0.01563,0.0117 -0.01563,0.008 -0.0039,0.002 -0.0098,0.006 -0.0332,0.0234 -0.0039,0.004 -0.0059,0.004 -0.0332,0.0215 -0.04492,0.043 -0.07617,0.0371 -0.02148,0.0117 -0.02539,0.0137 -0.01953,0.0137 -0.01953,0.0137 -0.0078,0.004 -0.06641,0.0488 v 0.23633 0.5293 H 40.6875 40.183594 l -0.01367,0.0137 -0.01953,0.01 -0.0059,0.006 -0.0059,0.002 -0.0059,0.006 -0.002,0.002 h -0.002 l -0.0059,0.006 -0.02148,0.0234 -0.01953,0.0117 -0.002,0.002 h -0.002 l -0.002,0.002 -0.0039,0.004 -0.0098,0.008 -0.01563,0.0156 -0.0293,0.0254 -0.01172,0.008 -0.002,0.002 -0.0059,0.004 -0.01172,0.0117 -0.01758,0.0156 -0.02539,0.0195 -0.0059,0.006 -0.0039,0.004 -0.0059,0.004 -0.0098,0.01 -0.0059,0.004 -0.0039,0.004 -0.002,0.002 -0.002,0.002 -0.002,0.002 -0.01172,0.01 -0.002,0.002 -0.0059,0.004 -0.0059,0.006 -0.0039,0.004 -0.01367,0.0156 -0.002,0.002 -0.0039,0.002 -0.002,0.002 -0.05664,0.0566 -0.0039,0.002 -0.002,0.002 -0.04492,0.043 -0.01367,0.008 h -0.002 l -0.0039,0.004 -0.002,0.002 -0.0059,0.006 -0.01172,0.0117 -0.002,0.004 -0.103516,0.20703 H 39.5 l -0.05078,0.0508 -0.08789,0.0899 v 0.008 l -0.08008,0.0801 -0.002,0.006 -0.05078,0.0527 v 0.12305 l -0.183594,0.0918 -0.0039,0.006 v 0.3418 h -0.248047 l -0.07813,0.11328 -0.04687,0.0684 v 0.1543 l -0.08984,0.0918 v 0.31055 l -0.220703,0.10742 -0.002,0.006 -0.01563,0.0312 -0.002,0.004 v 0.002 0.01 l -0.0059,0.0176 v 0.006 l -0.01563,0.0449 -0.002,0.0117 -0.0039,0.008 -0.002,0.002 -0.002,0.006 v 0.002 l -0.002,0.008 -0.002,0.004 -0.01758,0.0762 v 0.01 l -0.0078,0.0312 v 0.004 l -0.002,0.006 v 0.002 0.0293 l -0.002,0.006 v 0.002 l -0.01172,0.0332 v 0.004 l -0.0039,0.0215 -0.002,0.006 v 0.006 l -0.002,0.008 v 0.002 l -0.002,0.01 v 0.008 0.004 l -0.002,0.0117 v 0.002 l -0.002,0.0156 -0.002,0.008 v 0.008 l -0.002,0.004 v 0.002 0.002 0.002 0.0527 l -0.0059,0.0195 -0.002,0.0117 v 0.004 0.004 0.0137 0.004 l -0.002,0.0176 -0.002,0.0234 v 0.006 0.008 0.008 0.01 0.0117 l -0.002,0.0273 v 0.002 0.004 0.004 0.002 0.002 0.002 0.006 l 0.002,0.0312 v 0.01 0.01 0.008 0.008 0.006 l 0.002,0.0234 0.002,0.0176 v 0.0176 0.0117 0.004 l 0.002,0.004 v 0.004 l 0.0059,0.0156 v 0.0527 0.002 0.002 0.002 l 0.002,0.004 v 0.008 l 0.002,0.008 0.002,0.0156 v 0.002 l 0.002,0.0117 v 0.004 0.008 l 0.002,0.01 0.002,0.0156 0.002,0.0137 0.002,0.004 v 0.006 l 0.002,0.01 v 0.004 0.002 l 0.002,0.002 v 0.004 0.002 l 0.01367,0.0371 v 0.01 l 0.01172,0.0332 0.01172,0.0332 0.02344,0.0234 0.152343,0.1543 v 0.16601 l 0.03125,0.0313 v 0.21484 l 0.0039,0.008 0.02734,0.0566 0.0059,0.01 0.002,0.004 0.002,0.004 0.0039,0.008 0.01758,0.0273 0.0039,0.008 0.0059,0.008 0.0293,0.0547 0.0039,0.006 0.002,0.006 0.0039,0.004 0.0078,0.0137 v 0.002 l 0.01367,0.0215 v 0.002 l 0.05859,0.0586 h 0.01563 l 0.01563,0.0312 0.01953,0.0195 v 0.0195 l 0.07031,0.14258 0.0957,0.0957 v 0.0449 0.002 l 0.01758,0.0254 0.0039,0.004 0.002,0.004 0.0059,0.008 0.01172,0.0156 0.0078,0.01 0.0039,0.004 0.0059,0.006 0.03125,0.0312 0.0059,0.01 0.03906,0.0254 0.03516,0.0703 0.01562,0.0215 0.0059,0.006 0.08203,0.0664 0.0098,0.0312 0.01172,0.0117 0.07227,0.0762 0.002,0.006 0.08008,0.0801 v 0.01 l 0.08789,0.0899 0.152344,0.15429 v 0.004 0.002 l 0.01172,0.0117 h 0.002 0.01367 l 0.15625,0.1543 0.0918,0.0918 0.02148,0.0137 0.128906,0.082 0.0332,0.0684 v 0.002 l 0.0059,0.004 0.0078,0.008 0.0039,0.002 0.02734,0.0234 0.0039,0.002 0.0039,0.004 0.002,0.002 h 0.0293 l 0.134765,0.13282 0.07617,0.0605 0.0098,0.006 0.0957,0.0762 0.01563,0.0117 0.0039,0.002 0.0059,0.002 0.07227,0.0586 0.0293,0.0234 0.0098,0.008 0.002,0.002 0.0039,0.004 0.0098,0.006 0.0039,0.004 0.04687,0.0352 0.0059,0.004 0.02148,0.0117 0.02539,0.0254 0.07813,0.0547 v 0.002 h 0.002 l 0.113281,0.082 0.0039,0.002 0.0039,0.002 0.0059,0.004 0.0078,0.006 0.01953,0.0156 0.0078,0.004 0.01172,0.006 0.0059,0.004 0.002,0.002 0.002,0.002 0.0078,0.006 0.0059,0.004 0.0039,0.002 0.0059,0.006 0.0059,0.004 0.01172,0.008 0.0078,0.006 0.0078,0.006 0.06055,0.041 0.0059,0.004 0.002,0.002 0.0059,0.002 0.002,0.002 0.0059,0.004 0.03906,0.0176 0.02539,0.0254 0.002,0.002 h 0.002 l 0.002,0.002 0.002,0.002 0.0078,0.004 0.01563,0.01 0.0293,0.0195 0.0078,0.008 0.0078,0.006 0.0078,0.006 v 0.002 h 0.002 l 0.002,0.002 h 0.002 l 0.0039,0.002 v 0.002 h 0.002 l 0.04687,0.0215 0.01953,0.0195 0.04492,0.0254 0.01563,0.0156 0.002,0.002 0.01563,0.01 0.0059,0.002 0.0039,0.002 0.0059,0.006 0.0059,0.002 0.01953,0.0137 0.002,0.002 0.0078,0.006 0.0078,0.004 0.002,0.002 0.04883,0.0293 0.0039,0.004 0.04102,0.0254 0.0078,0.008 0.05469,0.0352 h 0.002 l 0.002,0.002 0.0039,0.002 0.0039,0.004 0.0078,0.004 0.0098,0.008 0.0059,0.002 0.02344,0.0156 0.07813,0.0449 0.0059,0.004 0.0332,0.0195 h 0.002 0.0059 l 0.126953,0.0781 0.123047,0.0742 0.002,0.002 0.105469,0.0625 0.01172,0.006 0.0039,0.004 0.002,0.002 0.01172,0.006 0.125,0.0723 h 0.002 l 0.02539,0.0156 h 0.002 0.08398 l 0.105469,0.10547 0.08398,0.0449 v 0.002 h 0.002 l 0.07813,0.043 0.0039,0.002 0.0059,0.004 0.02734,0.0156 0.0098,0.006 0.0098,0.006 0.0039,0.002 0.01172,0.006 0.0039,0.002 0.0078,0.004 0.01172,0.008 0.01953,0.01 0.136718,0.0684 0.115235,0.0586 0.113281,0.0586 h 0.169922 l 0.154297,0.15039 0.04297,0.041 0.0039,0.004 h 0.002 l 0.0039,0.002 0.0039,0.002 0.0059,0.002 0.0059,0.004 0.02539,0.0137 h 0.002 l 0.0039,0.002 0.002,0.002 0.0059,0.002 0.01758,0.008 0.04883,0.0215 0.0918,0.0391 0.01367,0.0137 0.06445,0.0332 0.02148,0.01 0.01367,0.008 0.05664,0.0254 0.06055,0.0273 0.03516,0.0176 0.0098,0.004 0.0039,0.002 0.0078,0.004 0.06836,0.0293 0.0039,0.004 0.04492,0.0215 0.177734,0.082 0.0078,0.004 0.0059,0.004 0.0039,0.002 0.002,0.002 0.01953,0.008 0.154297,0.0684 0.01172,0.006 0.002,0.002 0.0059,0.002 0.11914,0.0508 0.322266,0.13672 0.322265,0.13672 v 0.004 l 0.07227,0.0312 0.09766,0.041 0.002,0.002 0.08594,0.0371 0.01367,0.006 0.05273,0.0215 0.0098,0.004 0.0059,0.002 0.01172,0.004 0.09375,0.0371 0.09375,0.0371 0.01367,0.006 0.04297,0.0176 0.04492,0.0176 0.0059,0.002 0.09375,0.0371 0.107422,0.043 h 0.02539 l 0.09766,0.0488 0.07422,0.0293 h 0.123047 l 0.08203,0.0801 0.01953,0.008 0.0078,0.002 0.02344,0.01 0.0078,0.004 0.01953,0.006 h 0.0039 l 0.0039,0.002 0.02539,0.01 h 0.02734 0.214844 l 0.152344,0.14844 0.002,0.002 0.0625,0.0195 0.01367,0.01 0.105469,0.0371 0.0059,0.002 0.04492,0.0156 h 0.03516 l 0.07031,0.0371 h 0.002 l 0.0059,0.002 0.06445,0.0215 0.002,0.002 0.08789,0.0293 0.117187,0.0391 0.0059,0.006 0.01367,0.004 0.03906,0.0156 0.04687,0.0156 0.0039,0.004 0.01172,0.004 0.0059,0.002 0.0098,0.004 h 0.002 l 0.0039,0.002 0.0039,0.002 0.0625,0.0215 0.0039,0.002 h 0.002 l 0.02539,0.008 0.0039,0.002 0.179688,0.0605 0.03516,0.0117 h 0.0059 l 0.0625,0.0215 0.01563,0.006 0.002,0.002 0.0078,0.002 0.0078,0.004 h 0.002 l 0.0039,0.002 0.0078,0.002 0.07031,0.0234 0.002,0.002 0.224609,0.0742 0.216797,0.0723 0.0059,0.002 0.03125,0.01 h 0.447266 v 0.14453 l 0.123047,0.0371 h 0.002 l 0.06641,0.0215 0.0059,0.002 h 0.002 0.0078 l 0.658203,-0.11914 -0.06055,0.30273 0.08398,0.0254 0.242188,0.0723 0.171874,0.0508 h 0.05078 l 0.07227,0.0371 0.175782,0.0488 h 0.002 l 0.248047,0.0703 0.002,0.002 0.101562,0.0293 h 0.0039 l 0.07031,0.0195 0.06836,0.0195 0.0039,0.002 0.101562,0.0293 h 0.150391 l 0.05859,0.0566 0.167968,0.0449 h 0.002 l 0.123047,0.0332 h 0.002 l 0.01758,0.004 0.04687,0.0137 0.0039,0.002 0.06445,0.0176 -0.002,-0.002 0.189453,0.0508 h 0.002 l 0.06445,0.0195 h 0.0039 l 0.148438,0.041 0.0293,0.004 0.01367,0.006 0.01367,0.004 0.01172,0.004 0.02734,0.006 0.0059,0.002 0.248047,0.0625 0.128907,0.0332 0.0625,0.0156 0.06445,0.0156 h 0.002 l 0.0039,0.002 0.191406,0.0488 h 0.0059 l 0.0625,0.0156 0.263672,0.0664 0.07617,0.0195 0.0039,0.002 0.169922,0.041 v 0.002 l 0.07422,0.0176 h 0.0078 l 0.06055,0.0137 0.05859,0.0137 0.0059,0.002 h 0.002 l 0.0039,0.002 0.05664,0.0117 0.269531,0.0644 0.05859,0.0156 0.0039,0.002 0.193359,0.0449 h 0.002 l 0.271485,0.0625 0.212891,0.0488 h 0.0039 l 0.05664,0.0137 0.208985,0.0469 h 0.0332 l 0.03125,0.01 0.732422,-0.16406 -0.07813,0.3125 0.04883,0.01 h 0.01758 l 0.05469,0.0117 h 0.0039 l 0.458984,-0.125 0.0332,-0.11914 0.09766,0.082 0.13086,-0.0352 -0.02539,0.125 0.341797,0.28906 0.07617,0.0156 h 0.002 l 0.04883,0.01 h 0.002 l 0.289063,0.0566 0.189453,0.0371 h 0.002 l 0.04687,0.01 h 0.002 0.002 l 0.04883,0.01 0.291016,0.0566 0.189453,0.0371 h 0.002 l 0.04687,0.01 h 0.0039 l 0.04297,0.01 h 0.0059 l 0.128906,0.0254 h 0.02734 l 0.05273,0.0117 0.05664,0.0117 h 0.0059 l 0.0078,0.002 0.01172,0.004 h 0.0039 l 0.0059,0.002 0.01172,0.002 0.197265,0.0371 h 0.01367 l 0.04687,0.008 0.203125,0.0371 0.08984,-0.3125 0.5625,0.42773 h 0.002 l 0.04102,0.008 0.251953,0.0449 h 0.002 0.0039 l 0.002,0.002 0.03125,0.006 h 0.0039 0.002 l 0.0098,0.002 0.285157,0.0488 h 0.0039 l 0.296875,0.0488 h 0.002 l 0.615234,0.10156 0.240235,0.0391 h 0.01953 l 0.04102,0.008 0.265625,0.043 h 0.0078 l 0.0078,0.002 0.02148,0.004 0.01953,0.004 0.210938,0.0312 h 0.0059 l 0.0332,0.006 h 0.0078 l 0.03906,0.008 h 0.002 l 0.22461,0.0371 h 0.0098 l 0.01367,0.002 0.03125,0.002 0.0293,0.006 h 0.0039 l 0.0059,0.002 0.199218,0.0254 0.0293,0.004 h 0.0059 0.0059 l 0.0059,0.002 0.01562,0.002 0.01953,0.002 0.0039,0.002 0.01172,0.002 h 0.002 l 0.253906,0.0371 h 0.0039 l 0.03711,0.006 0.232422,0.0332 h 0.01563 l 0.0332,0.006 h 0.0059 l 0.0059,0.002 0.02539,0.004 0.0098,0.002 0.296875,0.041 -0.0039,-0.002 0.320312,0.043 0.002,0.002 h 0.002 l 0.177735,0.0254 0.0078,0.002 0.05469,0.008 0.0293,0.004 h 0.002 0.05469 l 0.04687,0.0156 0.173828,0.0234 h 0.01172 l 0.0293,0.004 0.03516,0.004 h 0.0039 0.0059 l 0.257812,0.0332 h 0.02539 l 0.01563,0.004 h 0.01563 l 0.05664,0.0137 0.0078,0.002 0.179687,0.0234 h 0.01758 l 0.03125,0.004 h 0.0039 l 0.0293,0.004 0.322265,0.041 0.259766,0.0332 h 0.01563 l 0.04102,0.008 h 0.0039 0.002 l 0.289063,0.0352 0.03125,0.004 0.326171,0.0391 0.328125,0.0391 0.144532,0.0176 0.08789,-0.30078 0.552735,0.375 0.126953,0.0137 h 0.01563 l 0.03516,0.004 0.0293,0.004 h -0.01367 l 0.253906,0.0273 h 0.04687 l 0.04687,0.01 0.0078,0.002 0.28125,0.0273 0.01367,0.002 h 0.0059 l 0.01172,0.002 0.216797,0.0254 h 0.01953 l 0.02344,0.004 h 0.002 0.0039 0.002 0.0059 0.01953 l 0.02734,0.002 0.294922,0.0293 h 0.464844 0.529297 v 0.0996 l 0.04492,0.004 0.339843,0.0312 0.3125,0.0293 0.01758,0.002 h 0.0039 l 0.333984,0.0293 0.339844,0.0293 0.271484,0.0234 h 0.02539 l 0.01172,0.002 h 0.0293 l 0.02539,0.006 0.275391,0.0234 h 0.0059 l 0.01563,0.002 h 0.0098 l 0.01172,0.002 h 0.0078 l 0.332031,0.0273 0.292969,0.0234 h 0.0078 l 0.01758,0.002 h 0.0078 l 0.01367,0.002 h 0.0078 l 0.228516,0.0195 h 0.0059 0.0059 0.02344 0.05273 l 0.0332,0.006 0.0039,0.002 h 0.002 0.0059 l 0.01563,0.002 0.193359,0.0156 h 0.0039 0.002 0.0039 0.0098 l 0.07813,-0.3125 0.566407,0.35937 0.08789,0.006 h 0.002 0.0039 0.01367 l 0.01563,0.002 h 0.002 l 0.310546,0.0215 h 0.002 0.0039 0.01563 l 0.01367,0.002 h 0.0039 L 75.267578,164 h 0.002 0.0039 0.002 0.002 0.0078 0.0293 0.04687 l 0.02344,0.004 h 0.01172 l 0.03125,0.006 0.28711,0.0176 h 0.002 l 0.347656,0.0215 0.279297,0.0176 0.03125,-0.002 h 0.0293 l 0.349609,0.0195 v 0.002 h 0.002 l 0.306641,0.0176 h 0.01172 l 0.01953,0.002 -0.01758,-0.002 h 0.01367 0.01367 l 0.339843,0.0176 0.01953,0.002 0.01953,0.002 0.01563,0.002 0.236328,0.0137 h 0.01172 l 0.01953,0.002 -0.01563,-0.002 h 0.01172 0.01172 0.01172 0.01367 l 0.316406,0.0156 h 0.0059 0.0039 0.0039 0.01367 0.01563 l 0.306641,0.0176 h 0.002 0.0098 0.0039 0.0078 H 78.5 l 0.349609,0.0156 h 0.002 l 0.314454,0.0156 h 0.0098 0.002 0.0039 0.0078 0.0098 l 0.308593,0.0137 h 0.002 0.002 0.01172 0.0059 0.0059 0.01172 0.01367 l 0.314453,0.0156 h 0.0078 0.002 0.0059 0.0039 0.0098 l 0.291015,0.0117 h 0.002 0.0098 0.0059 0.002 0.002 0.0098 0.01172 0.01172 0.0098 l 0.308593,0.0137 h 0.002 0.0098 0.0078 0.002 0.0098 0.0098 l 0.310547,0.0117 h 0.0039 0.0078 0.0059 0.002 0.0078 0.0078 l 0.320313,0.01 h 0.0039 0.002 0.0098 0.002 0.0059 0.0098 0.0098 l 0.314453,0.0117 h 0.0039 0.0078 0.0059 0.002 0.0059 0.0059 l 0.353516,0.01 h 0.002 l 0.324219,0.01 h 0.002 0.0078 0.0039 0.002 0.0078 0.0059 l 0.339844,0.01 h 0.002 0.0059 0.0059 l 0.31836,0.008 h 0.002 0.0059 0.0039 0.002 0.0059 0.0059 0.0059 0.0059 l 0.328125,0.008 h 0.0039 0.0039 0.0039 0.0059 0.0059 l 0.351562,0.008 h 0.002 l 0.335938,0.006 h 0.002 0.002 0.0039 0.002 0.0039 l 0.355469,0.004 0.357421,0.004 0.357422,0.004 0.34375,0.004 h 0.0039 0.002 0.002 l 0.353515,0.002 0.351563,0.002 h 0.002 0.355469 0.167968 0.355469 0.002 l 0.351563,-0.002 0.357422,-0.002 h 0.002 0.002 0.002 0.002 l 0.34375,-0.002 h 0.002 0.002 0.002 0.002 0.0039 l 0.341797,-0.004 0.357422,-0.004 0.355469,-0.004 h 0.0039 0.002 0.0039 0.002 0.002 l 0.335938,-0.006 h 0.002 l 0.355469,-0.008 h 0.002 0.002 l 0.353516,-0.006 h 0.0039 0.0039 0.0039 0.0039 0.0039 l 0.328125,-0.008 h 0.0059 0.0059 0.0059 0.0059 0.002 0.0039 0.0059 0.002 l 0.314453,-0.008 h 0.0059 0.0059 0.0039 0.0059 0.0059 0.002 l 0.320313,-0.0117 h 0.0078 0.0098 0.0078 0.002 0.0078 0.002 l 0.326172,-0.008 h 0.0059 0.0039 0.002 0.0059 0.0059 0.0059 l 0.3125,-0.0117 h 0.0098 0.0098 0.0059 0.002 0.0098 0.002 0.002 l 0.324219,-0.01 h 0.0078 0.0078 0.0059 0.0059 0.002 0.002 0.0059 0.0078 0.002 l 0.298828,-0.0117 h 0.002 l 0.353515,-0.0117 h 0.0098 0.0059 0.002 0.0098 0.0078 0.002 l 0.3125,-0.0137 0.351563,-0.0137 h 0.002 0.0098 0.0098 0.002 l 0.328126,-0.0137 h 0.01172 0.0078 0.002 0.0039 0.0098 l 0.314453,-0.0156 h 0.002 l 0.353516,-0.0156 0.349609,-0.0156 h 0.01172 0.0078 0.0039 0.0098 0.002 l 0.304688,-0.0176 h 0.01563 0.01367 0.01367 l 0.310546,-0.0176 h 0.002 l 0.349609,-0.0176 h 0.01367 0.01367 0.01367 l 0.304688,-0.0176 h 0.002 v -0.002 l 0.294922,-0.0156 0.05469,-0.004 h 0.01172 0.01758 l 0.117188,-0.008 0.201172,-0.0117 h 0.002 v -0.002 l 0.349609,-0.0195 h 0.0293 l 0.03125,0.002 0.25,-0.0156 h 0.0078 l 0.0098,-0.002 h 0.0078 l 0.02148,-0.004 h 0.0293 0.0078 0.0039 0.0039 0.002 l 0.271484,-0.0195 h 0.002 l 0.345703,-0.0234 h 0.002 l 0.113281,-0.008 0.554688,-0.3457 0.08398,0.29883 0.08398,-0.006 0.550781,-0.33594 0.0723,0.29101 0.24804,-0.0195 h 0.008 l 0.0176,-0.004 h 0.0254 l 0.28321,-0.0234 h 0.008 l 0.0117,-0.002 h 0.01 0.002 l 0.0137,-0.002 h 0.01 l 0.29102,-0.0254 h 0.008 l 0.0137,-0.002 0.0156,-0.002 h 0.0176 0.0117 l 0.25781,-0.0215 0.0117,-0.002 h 0.004 0.002 l 0.0176,-0.002 0.0137,-0.002 h 0.006 0.008 l 0.0176,-0.002 h 0.004 l 0.26758,-0.0234 h 0.01 l 0.0137,-0.002 0.006,-0.002 h 0.0156 l 0.29297,-0.0274 0.0234,-0.002 h 0.004 0.004 l 0.0117,-0.002 h 0.0117 l 0.2793,-0.0234 0.0117,-0.002 h 0.006 l 0.0117,-0.002 h 0.004 l 0.0137,-0.002 h 0.008 l 0.29297,-0.0273 0.33399,-0.0312 h 0.004 l 0.0176,-0.002 h 0.002 0.002 l 0.30469,-0.0312 h 0.008 l 0.0176,-0.002 h 0.002 l 0.26758,-0.0273 0.0332,-0.004 h 0.008 0.002 0.002 l 0.14258,-0.0137 h 0.004 l 0.1836,-0.0195 0.002,-0.002 0.33594,-0.0332 h 0.002 l 0.3125,-0.0293 0.0293,-0.008 h 0.0488 l 0.0332,-0.004 h 0.002 0.004 l 0.22265,-0.0234 h -0.0156 l 0.0293,-0.004 0.0351,-0.004 h 0.0176 l 0.25977,-0.0293 0.33008,-0.0371 0.0293,-0.004 h 0.004 l 0.2832,-0.0332 h 0.008 l 0.0215,-0.004 h 0.01 l 0.0254,-0.004 h 0.006 l 0.25391,-0.0312 h 0.006 l 0.0156,-0.002 0.01,-0.002 0.0195,-0.004 h 0.0156 0.008 l 0.0176,-0.004 h 0.0137 l 0.22265,-0.0274 h 0.006 l 0.0117,-0.002 h 0.002 0.002 l 0.01,-0.002 0.041,-0.01 h 0.0332 l 0.22657,-0.0273 h 0.002 0.004 l 0.041,-0.008 h 0.0156 l 0.25976,-0.0332 0.32422,-0.041 0.32227,-0.041 0.0293,-0.004 h 0.004 l 0.0312,-0.004 h 0.0156 l 0.17188,-0.0234 0.006,-0.002 0.0293,-0.006 0.0312,-0.006 0.0312,-0.002 0.0254,-0.002 h 0.006 l 0.0195,-0.004 h 0.0156 l 0.0391,-0.006 0.002,-0.002 0.17773,-0.0254 0.32227,-0.043 h 0.002 l 0.33984,-0.043 0.01,-0.002 0.0684,-0.01 h 0.002 0.002 l 0.18945,-0.0274 h 0.006 l 0.0312,-0.006 h 0.006 0.002 l 0.0332,-0.006 h 0.006 l 0.19727,-0.0293 h 0.002 l 0.0176,-0.004 0.0215,-0.004 0.0469,-0.008 h 0.008 l 0.0391,-0.008 h 0.0332 l 0.17773,-0.0254 0.01,-0.002 0.0254,-0.004 0.006,-0.002 h 0.006 0.002 l 0.0312,-0.006 h 0.008 l 0.23242,-0.0352 0.0391,-0.006 0.26757,-0.041 h 0.006 l 0.0215,-0.004 0.008,-0.002 h 0.002 0.002 l 0.26758,-0.043 0.043,-0.006 h 0.008 l 0.0332,-0.006 h 0.006 l 0.22851,-0.0352 h 0.002 l 0.0332,-0.006 h 0.006 l 0.26172,-0.043 h 0.004 l 0.0371,-0.006 0.27148,-0.043 0.041,-0.006 h 0.0156 l 0.23633,-0.0391 0.043,-0.008 h 0.004 l 0.24805,-0.043 h 0.006 l 0.0371,-0.008 h 0.004 l 0.043,-0.008 h 0.002 l 0.21093,-0.0371 0.008,-0.002 0.0644,-0.0156 h 0.0273 l 0.20508,-0.0352 0.043,-0.008 h 0.002 l 0.2461,-0.0449 h 0.004 0.002 l 0.0469,-0.008 0.0449,-0.008 h 0.006 l 0.16016,-0.0293 0.0488,-0.0254 h 0.0586 l 0.50781,-0.40625 0.10157,0.30469 0.19531,-0.0371 0.0117,-0.002 0.0352,-0.008 0.0527,-0.0117 h 0.0176 l 0.12695,-0.0234 0.0234,-0.006 h 0.004 l 0.0234,-0.006 0.0215,-0.006 h 0.002 l 0.006,-0.002 0.008,-0.002 0.0703,-0.0234 h 0.0449 l 0.13868,-0.0273 0.0449,-0.008 0.006,-0.002 h 0.004 l 0.043,-0.01 h 0.006 l 0.18946,-0.0371 0.2871,-0.0566 h 0.002 l 0.0508,-0.01 0.0488,-0.01 h 0.006 l 0.16992,-0.0352 h 0.002 l 0.004,-0.002 h 0.002 l 0.006,-0.002 0.008,-0.002 0.01,-0.002 h 0.004 l 0.0606,-0.0156 h 0.0391 l 0.15039,-0.0312 h 0.002 l 0.2832,-0.0586 0.27344,-0.0566 0.008,-0.002 0.0449,-0.01 0.004,-0.002 0.043,-0.01 0.01,-0.002 h 0.002 l 0.16992,-0.0371 h 0.002 0.002 l 0.24805,-0.0527 0.0273,-0.006 0.25196,-0.0566 0.006,-0.002 h 0.002 l 0.006,-0.002 0.0195,-0.004 0.0449,-0.0117 h 0.006 0.002 l 0.0488,-0.0117 h 0.006 l 0.0977,-0.0215 h 0.002 l 0.0605,-0.0137 -0.002,0.002 0.25,-0.0566 0.0117,-0.002 h 0.002 l 0.0488,-0.0117 h -0.006 l 0.008,-0.002 0.0547,-0.0137 0.0117,-0.002 0.0527,-0.0137 h 0.006 l 0.041,-0.01 v -0.23047 l 0.52929,0.10547 0.0625,-0.0156 h 0.002 0.002 l 0.0605,-0.0137 0.0586,-0.0137 h 0.008 l 0.084,-0.0195 h 0.002 l 0.0527,-0.0117 0.004,-0.002 0.0488,-0.0117 0.0117,-0.002 0.18945,-0.0469 0.0625,-0.0156 h 0.006 l 0.17969,-0.0469 h 0.004 l 0.006,-0.002 0.0312,-0.01 h 0.002 0.004 l 0.008,-0.002 0.0137,-0.004 0.004,-0.002 0.004,-0.002 0.19922,-0.0508 h 0.004 l 0.0606,-0.0156 h 0.002 l 0.20117,-0.0508 0.25586,-0.0644 0.0625,-0.0156 h 0.006 l 0.11524,-0.0293 0.0293,-0.0156 0.0703,-0.01 0.008,-0.002 0.20508,-0.0566 0.0645,-0.0176 0.004,-0.002 0.0469,-0.0117 0.0176,-0.006 h 0.002 l 0.12305,-0.0332 h 0.004 l 0.0625,-0.0176 h 0.004 l 0.0664,-0.0176 h 0.004 l 0.0488,-0.0137 h 0.002 l 0.0117,-0.004 h 0.002 0.002 l 0.0332,-0.01 h 0.004 l 0.0137,-0.006 h 0.002 l 0.043,-0.0117 0.006,-0.002 0.0645,-0.0176 0.11718,-0.0332 0.25,-0.0703 0.0684,-0.0195 h 0.002 0.002 l 0.0664,-0.0195 h 0.004 l 0.10352,-0.0293 0.0703,-0.0195 0.0703,-0.0195 h 0.004 l 0.0234,-0.006 0.006,-0.002 0.004,-0.002 0.006,-0.002 0.008,-0.002 0.006,-0.002 0.0137,-0.006 0.0215,-0.006 0.006,-0.002 0.008,-0.002 0.008,-0.002 0.2168,-0.0644 0.24219,-0.0723 0.0723,-0.0215 h 0.002 0.002 l 0.0742,-0.0215 0.0723,-0.0215 h 0.004 l 0.006,-0.002 0.0684,-0.0215 0.006,-0.002 0.004,-0.002 h 0.004 l 0.0254,-0.01 0.0391,-0.0117 h 0.004 l 0.0781,-0.0234 0.006,-0.002 h 0.002 l 0.0566,-0.0176 0.006,-0.002 0.006,-0.002 h 0.002 l 0.0137,-0.004 0.006,-0.002 0.0391,-0.0137 0.0215,-0.008 h 0.002 l 0.0625,-0.0215 h 0.0137 0.004 l 0.0723,-0.0254 h 0.008 l 0.14844,-0.0469 0.006,-0.002 0.006,-0.002 0.041,-0.0117 0.004,-0.002 0.0137,-0.004 h 0.002 l 0.14844,-0.0488 h 0.004 l 0.0781,-0.0273 h 0.006 l 0.14258,-0.0469 0.002,-0.002 h 0.002 l 0.0762,-0.0234 0.004,-0.002 0.0195,-0.006 0.0586,-0.0195 0.0234,-0.008 h 0.01 l 0.0254,-0.01 0.008,-0.002 0.0703,-0.0254 0.0859,-0.0293 0.0547,-0.0195 0.22461,-0.0762 h 0.004 l 0.041,-0.0137 0.0371,-0.0137 h 0.002 0.002 l 0.21289,-0.0742 0.35547,-0.12305 h 0.002 l 0.0762,-0.0254 0.004,-0.002 0.0293,-0.01 0.0195,-0.0137 0.0664,-0.0215 0.041,-0.0137 0.006,-0.002 0.004,-0.002 h 0.004 l 0.0195,-0.008 0.008,-0.002 0.0117,-0.004 0.0762,-0.0762 h 0.12695 l 0.52344,-0.19336 0.004,-0.002 0.008,-0.004 0.008,-0.002 0.0117,-0.004 0.041,-0.0176 h 0.002 v -0.002 l 0.01,-0.004 0.082,-0.0312 0.0137,-0.006 h 0.004 l 0.0781,-0.0332 h 0.008 l 0.13672,-0.0527 0.0117,-0.004 0.18359,-0.0742 0.0527,-0.0195 v -0.006 l 0.0352,-0.0137 0.002,-0.002 0.0215,-0.008 0.11328,-0.043 0.041,-0.0215 h 0.0137 l 0.10937,-0.043 0.0371,-0.0137 0.006,-0.004 0.0195,-0.01 0.0195,-0.008 h 0.002 l 0.0137,-0.006 0.084,-0.0352 0.0977,-0.041 0.0879,-0.0371 h 0.002 l 0.008,-0.004 0.008,-0.002 0.0898,-0.0391 h 0.002 0.002 l 0.004,-0.002 0.004,-0.002 0.008,-0.004 0.0469,-0.0215 0.008,-0.002 0.01,-0.006 0.0195,-0.006 0.01,-0.004 0.0606,-0.0274 0.0937,-0.041 h 0.002 l 0.0879,-0.0391 h 0.002 l 0.0215,-0.01 0.0586,-0.0274 0.004,-0.002 0.004,-0.002 0.10351,-0.0449 h 0.002 l 0.0215,-0.008 0.006,-0.004 0.0117,-0.008 0.0176,-0.008 0.0117,-0.006 0.0117,-0.008 0.0137,-0.004 0.0508,-0.0215 0.002,-0.002 0.004,-0.004 0.0117,-0.004 0.0684,-0.0312 0.006,-0.004 0.10157,-0.0469 0.004,-0.002 0.004,-0.002 0.004,-0.002 0.0703,-0.0312 0.0137,-0.006 0.0117,-0.006 0.0508,-0.0254 v -0.39453 h 0.5293 0.27148 l 0.0527,-0.0254 0.041,-0.0195 h 0.002 l 0.002,-0.002 0.0176,-0.008 0.004,-0.002 0.004,-0.002 0.006,-0.002 0.0566,-0.0332 0.004,-0.002 0.0645,-0.0332 0.006,-0.004 0.15626,-0.082 0.004,-0.002 0.006,-0.002 0.004,-0.002 0.004,-0.002 0.0137,-0.006 0.004,-0.002 0.002,-0.002 0.002,-0.002 0.0391,-0.0215 0.008,-0.008 0.0566,-0.0273 0.008,-0.004 0.002,-0.002 0.01,-0.004 0.004,-0.002 0.0703,-0.0391 0.002,-0.002 0.0254,-0.0137 0.0351,-0.0195 0.006,-0.004 0.0645,-0.0352 0.008,-0.008 0.0508,-0.0234 0.006,-0.004 0.008,-0.004 h 0.002 l 0.01,-0.006 0.0117,-0.008 0.006,-0.002 0.0566,-0.0332 0.0606,-0.0352 0.002,-0.002 h 0.002 l 0.10938,-0.0625 0.004,-0.002 0.0215,-0.0156 0.0273,-0.0156 0.0371,-0.0215 0.008,-0.008 0.0215,-0.0117 0.01,-0.01 0.0508,-0.0234 0.002,-0.002 h 0.002 l 0.002,-0.002 0.004,-0.002 0.11133,-0.0684 0.01,-0.006 0.006,-0.002 0.004,-0.004 0.0176,-0.01 0.0215,-0.0117 0.01,-0.008 h 0.002 v -0.002 h 0.002 l 0.002,-0.002 0.004,-0.004 0.0352,-0.0215 0.0156,-0.0117 0.14063,-0.0879 0.12305,-0.0762 0.002,-0.002 0.0195,-0.0117 0.0254,-0.0156 0.01,-0.01 0.0586,-0.0352 0.0156,-0.008 0.002,-0.002 0.004,-0.002 0.002,-0.002 0.002,-0.002 h 0.002 l 0.004,-0.002 0.002,-0.002 0.0273,-0.0195 0.0391,-0.0254 0.004,-0.004 0.01,-0.01 0.004,-0.002 0.008,-0.008 0.0488,-0.0234 0.004,-0.002 0.002,-0.002 0.0351,-0.0254 -0.0137,0.0117 0.0137,-0.01 0.041,-0.0293 0.004,-0.004 0.004,-0.004 0.0977,-0.0664 0.006,-0.004 0.008,-0.006 0.002,-0.002 0.006,-0.004 0.006,-0.004 0.10742,-0.0762 v 0.002 l 0.0137,-0.01 0.002,-0.002 h 0.002 l 0.0254,-0.0195 h 0.002 l 0.10351,-0.10352 0.1543,-0.15234 h 0.082 l 0.002,-0.002 0.0117,-0.008 0.0137,-0.0117 0.006,-0.006 0.008,-0.004 0.0176,-0.0117 0.004,-0.004 0.004,-0.002 0.0137,-0.01 0.0137,-0.0117 0.004,-0.002 0.0156,-0.0117 0.01,-0.01 0.0176,-0.0156 0.0293,-0.0234 0.008,-0.006 0.0117,-0.008 0.002,-0.002 0.01,-0.006 h 0.002 l 0.043,-0.0352 -0.01,0.006 0.0215,-0.0176 0.004,-0.002 h 0.002 v -0.002 h 0.002 l 0.004,-0.004 0.004,-0.004 0.004,-0.004 h 0.002 l 0.002,-0.002 0.002,-0.002 0.006,-0.006 0.0312,-0.0312 0.11328,-0.11329 0.0645,-0.0645 v -0.33789 -0.5293 h 0.52929 0.0918 v -0.0195 h 0.2832 l 0.0156,-0.0215 0.002,-0.002 v -0.002 -0.0254 l 0.0937,-0.0937 0.002,-0.006 0.0664,-0.13672 0.0371,-0.0234 v -0.32813 h 0.0547 v -0.082 h 0.22265 l 0.008,-0.0176 0.0215,-0.0215 0.0176,-0.0332 0.004,-0.008 0.004,-0.008 0.002,-0.004 v -0.40234 h 0.0332 v -0.0742 h 0.16015 l 0.006,-0.0215 v -0.43165 h 0.0937 l 0.002,-0.0137 v -0.01 l 0.004,-0.041 v -0.002 l 0.002,-0.01 v -0.004 -0.004 -0.006 l 0.002,-0.01 v -0.008 l 0.002,-0.0508 v -0.002 -0.01 -0.002 -0.002 -0.0137 -0.004 -0.002 -0.008 -0.002 -0.002 l -0.002,-0.043 v -0.01 -0.008 -0.008 -0.008 -0.006 l -0.002,-0.0234 -0.002,-0.0176 v -0.0176 -0.0195 -0.004 -0.004 l -0.002,-0.0156 -0.002,-0.0137 -0.002,-0.0117 v -0.008 l -0.008,-0.0508 -0.004,-0.0352 v -0.002 l -0.0137,-0.041 v -0.0156 l -0.0176,-0.0625 v -0.0371 l -0.006,-0.0234 -0.002,-0.006 v -0.002 l -0.004,-0.008 -0.0273,-0.0273 -0.15039,-0.15429 v -0.21485 -0.0351 l -0.0312,-0.043 v -0.11133 -0.002 -0.002 l -0.002,-0.002 v -0.002 l -0.002,-0.002 v -0.002 l -0.002,-0.004 -0.002,-0.002 -0.006,-0.0137 -0.006,-0.008 -0.0293,-0.043 -0.006,-0.0195 -0.0117,-0.0195 -0.002,-0.004 -0.004,-0.006 -0.0371,-0.0664 -0.002,-0.004 v -0.004 l -0.002,-0.002 -0.002,-0.004 -0.002,-0.002 v -0.002 l -0.002,-0.002 -0.0254,-0.0254 -0.0156,-0.0312 -0.002,-0.002 -0.004,-0.01 -0.004,-0.008 -0.0391,-0.0566 v -0.008 l -0.1211,-0.18555 -0.01,-0.0137 h -0.002 v -0.002 l -0.006,-0.01 -0.0137,-0.0156 -0.0469,-0.0488 -0.0195,-0.041 -0.006,-0.01 -0.004,-0.004 -0.002,-0.004 -0.006,-0.008 -0.002,-0.004 -0.002,-0.002 h -0.002 l -0.0254,-0.0176 -0.0449,-0.0664 -0.008,-0.0117 h -0.002 -0.16797 l -0.14648,-0.29297 -0.0586,-0.11914 -0.11523,-0.11524 v -0.01 l -0.0176,-0.0195 -0.0137,-0.0137 -0.0156,-0.0156 -0.002,-0.002 -0.002,-0.002 -0.002,-0.002 -0.0137,-0.0137 h -0.004 l -0.14453,-0.14453 -0.004,-0.004 -0.004,-0.004 -0.002,-0.002 h -0.002 l -0.002,-0.002 -0.004,-0.004 v -0.002 l -0.0273,-0.0156 -0.0469,-0.0449 -0.006,-0.006 -0.0117,-0.006 -0.0625,-0.0605 -0.0351,-0.0352 -0.008,-0.008 -0.002,-0.002 -0.002,-0.002 -0.0293,-0.0234 -0.0117,-0.01 h -0.004 l -0.0938,-0.084 -0.004,-0.002 -0.0332,-0.0312 -0.0156,-0.0117 -0.002,-0.002 -0.004,-0.004 h -0.002 l -0.002,-0.002 -0.004,-0.004 -0.002,-0.002 -0.002,-0.002 -0.0156,-0.0117 -0.004,-0.004 -0.004,-0.002 -0.002,-0.002 -0.006,-0.006 -0.006,-0.006 -0.084,-0.0664 -0.002,-0.002 -0.0371,-0.0293 -0.008,-0.006 -0.002,-0.002 -0.002,-0.002 -0.004,-0.004 -0.0293,-0.0215 -0.0273,-0.0215 -0.008,-0.008 -0.0801,-0.0606 -0.0195,-0.0156 0.0117,0.0117 -0.0137,-0.0117 h -0.002 -0.0371 l -0.0605,-0.0586 -0.11133,-0.0898 -0.0937,-0.0762 -0.008,-0.004 -0.0547,-0.0312 -0.0508,-0.0488 -0.041,-0.0273 -0.006,-0.008 h -0.002 l -0.0176,-0.0117 -0.0117,-0.006 -0.01,-0.01 -0.004,-0.004 -0.004,-0.002 -0.008,-0.006 h -0.008 l -0.13477,-0.0918 -0.13476,-0.0918 -0.002,-0.002 -0.004,-0.004 -0.01,-0.008 -0.004,-0.002 -0.008,-0.004 -0.01,-0.008 -0.002,-0.002 -0.0449,-0.0293 -0.0234,-0.0137 -0.006,-0.004 h -0.002 l -0.0293,-0.0195 -0.008,-0.006 h -0.002 l -0.002,-0.002 -0.008,-0.006 -0.006,-0.004 -0.004,-0.002 -0.0137,-0.008 -0.0547,-0.0332 -0.006,-0.006 h -0.0644 l -0.11524,-0.11328 -0.0586,-0.0371 -0.006,-0.004 -0.002,-0.002 -0.004,-0.004 h -0.002 l -0.0254,-0.0156 h -0.0117 l -0.12696,-0.0781 -0.0801,-0.0488 -0.0684,-0.0234 -0.0352,-0.0352 -0.0293,-0.0137 -0.0195,-0.0195 -0.008,-0.004 -0.006,-0.004 -0.006,-0.002 -0.0996,-0.0566 -0.0215,-0.0137 -0.008,-0.004 -0.004,-0.002 -0.0312,-0.0176 -0.0625,-0.0352 -0.006,-0.006 -0.0332,-0.0195 -0.004,-0.002 -0.006,-0.002 -0.006,-0.004 -0.006,-0.002 -0.006,-0.004 -0.004,-0.002 -0.004,-0.002 -0.002,-0.002 -0.0312,-0.0195 -0.006,-0.002 -0.004,-0.002 -0.01,-0.006 -0.002,-0.002 -0.0371,-0.0195 h -0.01 l -0.10547,-0.0625 h -0.0859 l -0.10351,-0.10156 -0.0293,-0.0176 -0.004,-0.002 -0.006,-0.002 -0.004,-0.002 -0.0898,-0.0469 -0.0723,-0.0293 -0.0508,-0.0215 h -0.0703 l -0.0996,-0.0977 -0.082,-0.043 h -0.002 l -0.0195,-0.01 -0.01,-0.006 -0.0859,-0.041 -0.004,-0.002 -0.002,-0.002 -0.041,-0.0195 -0.006,-0.004 -0.10547,-0.0488 -0.006,-0.004 -0.0234,-0.01 -0.084,-0.041 -0.006,-0.006 -0.0117,-0.006 -0.008,-0.004 -0.0801,-0.0371 -0.084,-0.041 -0.004,-0.004 -0.082,-0.0391 h -0.002 l -0.0117,-0.006 h -0.002 -0.008 l -0.0547,-0.0293 -0.01,-0.004 -0.002,-0.002 -0.008,-0.002 -0.004,-0.002 -0.006,-0.004 h -0.002 l -0.008,-0.004 -0.0352,-0.0156 -0.0137,-0.006 -0.002,-0.002 -0.0684,-0.0254 -0.008,-0.008 -0.10351,-0.0488 h -0.002 l -0.0508,-0.0234 h -0.0234 l -0.10937,-0.0605 -0.01,-0.004 -0.008,-0.004 -0.0137,-0.008 -0.0723,-0.0312 -0.0156,-0.008 -0.008,-0.004 -0.0391,-0.0176 h -0.002 l -0.043,-0.0176 -0.004,-0.004 -0.0293,-0.0117 h -0.002 l -0.0176,-0.008 -0.0234,-0.01 -0.0176,-0.008 -0.006,-0.002 -0.004,-0.004 h -0.002 l -0.004,-0.002 -0.0195,-0.008 -0.004,-0.002 -0.002,-0.002 -0.0273,-0.01 -0.0996,-0.041 -0.004,-0.004 -0.0469,-0.0195 -0.008,-0.004 -0.008,-0.004 -0.18165,-0.0762 h -0.0137 l -0.10742,-0.0488 -0.01,-0.004 -0.004,-0.002 -0.006,-0.004 h -0.002 l -0.004,-0.002 -0.002,-0.002 h -0.002 l -0.0449,-0.0195 -0.006,-0.002 -0.0137,-0.006 -0.0391,-0.0156 -0.004,-0.004 h -0.002 l -0.002,-0.002 H 128 l -0.0234,-0.01 -0.004,-0.002 -0.004,-0.002 -0.01,-0.004 -0.0703,-0.0273 -0.006,-0.002 h -0.11328 l -0.0801,-0.0801 h -0.002 -0.008 l -0.084,-0.0371 -0.0117,-0.004 -0.0215,-0.008 -0.0352,-0.0156 -0.006,-0.002 -0.0137,-0.006 -0.0137,-0.004 v -0.002 h -0.002 l -0.14063,-0.0566 -0.006,-0.002 -0.0117,-0.004 -0.0117,-0.004 -0.0117,-0.004 -0.0117,-0.004 -0.20117,-0.0781 -0.0547,-0.0215 -0.0137,-0.01 -0.125,-0.0469 -0.002,-0.002 -0.11328,-0.043 h -0.002 l -0.0352,-0.0137 -0.0703,-0.0137 -0.0352,-0.0234 -0.15039,-0.0547 -0.0254,-0.01 -0.006,-0.002 h -0.002 l -0.006,-0.002 -0.0723,-0.0273 -0.0137,-0.004 h -0.004 l -0.0879,-0.0312 -0.12891,-0.0469 -0.006,-0.002 -0.0527,-0.0195 -0.0274,-0.0117 h -0.002 l -0.008,-0.004 -0.008,-0.004 h -0.002 l -0.002,-0.002 -0.004,-0.002 -0.006,-0.002 -0.0254,-0.008 -0.008,-0.002 -0.008,-0.002 -0.0195,-0.008 -0.006,-0.002 -0.0117,-0.004 h -0.002 l -0.041,-0.01 -0.0273,-0.0156 -0.004,-0.002 h -0.002 l -0.01,-0.004 h -0.004 l -0.0156,-0.006 0.0195,0.006 -0.0293,-0.01 -0.0742,-0.0254 -0.12109,-0.0391 -0.01,-0.01 -0.0176,-0.006 -0.01,-0.002 -0.0117,-0.004 -0.01,-0.004 -0.13867,-0.0469 h -0.002 l -0.0371,-0.0117 -0.004,-0.002 -0.0742,-0.0234 -0.01,-0.004 -0.11328,-0.0352 -0.004,-0.004 -0.12304,-0.041 -0.01,-0.004 h -0.004 l -0.0156,-0.006 -0.01,-0.004 -0.0469,-0.0156 -0.006,-0.002 -0.26562,-0.0859 -0.0996,-0.0332 -0.0781,-0.0254 -0.18945,-0.0606 v -0.002 l -0.0352,-0.0117 h -0.002 -0.002 l -0.14453,-0.0469 h -0.0488 l -0.0469,-0.0234 h -0.002 l -0.082,-0.0274 -0.082,-0.0273 -0.008,-0.004 -0.008,-0.002 h -0.002 l -0.006,-0.002 -0.006,-0.002 -0.0215,-0.006 -0.008,-0.004 -0.01,-0.002 -0.002,-0.002 -0.0156,-0.006 -0.20313,-0.0625 -0.0137,-0.006 -0.006,-0.002 -0.006,-0.002 -0.0156,-0.004 -0.004,-0.002 -0.11523,-0.0332 h -0.002 -0.004 l -0.0391,-0.0117 -0.0195,-0.006 -0.0547,-0.0156 -0.11719,-0.0352 -0.0137,-0.008 -0.46094,-0.13281 h -0.006 l -0.0684,-0.0215 h -0.004 l -0.16797,-0.0488 h -0.14844 l -0.0605,-0.0606 -0.0312,-0.008 h -0.002 -0.002 -0.002 l -0.0664,-0.0195 h -0.004 l -0.0352,-0.01 h -0.0137 l -0.0781,-0.0234 -0.0469,-0.0156 h -0.004 l -0.0117,-0.004 -0.0156,-0.004 -0.004,-0.002 -0.0117,-0.004 -0.26172,-0.0684 h -0.002 l -0.25585,-0.0684 -0.18946,-0.0508 h -0.002 l -0.0644,-0.0176 -0.18946,-0.0508 H 121 v -0.002 l -0.0606,-0.0156 -0.004,-0.002 -0.0488,-0.0117 h -0.0176 l -0.0703,-0.0195 -0.0566,-0.0156 -0.0137,-0.004 -0.01,-0.002 -0.004,-0.002 h -0.004 l -0.0254,-0.008 h -0.004 l -0.12109,-0.0312 -0.004,-0.002 -0.0547,-0.0137 h -0.004 -0.008 l -0.0664,-0.0176 -0.12891,-0.0332 h -0.004 l -0.0566,-0.0156 h -0.002 -0.004 l -0.004,-0.002 -0.0605,-0.0156 h -0.002 l -0.12891,-0.0332 -0.0605,-0.0156 h -0.004 l -0.004,-0.002 -0.31054,-0.0742 v 0.002 l -0.26953,-0.0644 -0.1543,-0.0371 h -0.0547 l -0.0488,-0.0254 h -0.002 l -0.006,-0.002 -0.0898,-0.0215 -0.0508,-0.0117 -0.0684,-0.0156 -0.0566,-0.0137 h -0.002 l -0.0918,-0.0215 h -0.0176 l -0.0645,-0.0176 -0.0195,-0.006 -0.0137,-0.002 -0.006,-0.002 -0.0215,-0.004 -0.0449,-0.0117 h -0.002 l -0.008,-0.002 -0.0762,-0.0176 h -0.0156 l -0.0508,-0.0137 -0.0137,-0.004 -0.0508,-0.0117 -0.008,-0.002 h 0.006 l -0.0488,-0.0117 h -0.002 l -0.0117,-0.002 -0.1875,-0.043 h -0.0352 l -0.043,-0.0156 -0.006,-0.002 -0.0117,-0.002 -0.12695,-0.0273 h -0.10938 -0.21289 l -0.0977,-0.0937 -0.002,-0.002 h -0.004 l -0.1211,-0.0254 h -0.0176 l -0.0547,-0.0117 -0.0547,-0.0117 -0.20898,-0.0449 h -0.002 l -0.002,-0.002 -0.0137,-0.002 -0.004,-0.002 -0.0469,-0.01 h -0.004 l -0.22266,-0.0469 0.002,0.002 -0.33789,-0.0684 v -0.002 l -0.17188,-0.0352 h -0.01 l -0.0488,-0.01 -0.0508,-0.01 h -0.002 -0.002 l -0.23633,-0.0469 -0.01,-0.002 -0.01,-0.004 -0.0254,-0.006 -0.008,-0.002 -0.0156,-0.004 -0.21484,-0.043 h -0.006 l -0.0488,-0.01 -0.18164,-0.0352 h -0.01 l -0.041,-0.01 h -0.002 -0.004 l -0.006,-0.002 -0.0449,-0.008 -0.18945,-0.0371 h -0.004 l -0.0469,-0.01 h -0.004 l -0.0215,-0.004 z m -69.490234,15.72656 h -0.0039 l 0.0098,0.004 z m 9.730469,-15.11524 h 0.0059 l 0.002,-0.002 z m 65.828125,0.68946 0.63672,-0.13282 -0.57227,-0.31054 z m 4.42969,0.36718 -0.61524,0.0703 0.14649,0.3789 0.42383,-0.19922 -0.0195,0.10157 0.0742,-0.12891 0.14649,-0.0684 -0.0352,-0.11914 0.0293,-0.0508 -0.0449,0.004 -0.0293,-0.0957 -0.0527,-0.0176 z m -7.92774,0.17774 0.0957,0.23047 0.0566,-0.30274 z m 2.13672,0.23828 0.29297,0.16016 0.0391,-0.19141 z m 5.46094,0.38867 0.0977,-0.16601 -0.20704,-0.11329 z m 6.92383,2.91602 0.86718,0.26953 -0.40624,-0.81055 z m 4.05273,2.09375 0.125,0.14453 0.041,-0.1875 z m -98.802732,1.1875 0.324218,0.23242 L 38.013672,151 Z m -0.488282,0.77148 0.558594,0.52734 -0.05078,-0.76757 z m 0.492188,1.15039 0.113281,0.0781 -0.0098,-0.15235 z m 1.083984,0.33399 v 0.002 l 0.01367,0.0117 -0.002,-0.004 -0.0059,-0.0117 z m -1.533203,0.84961 0.166016,-0.043 -0.125,-0.14453 z m 30.873047,5.60937 0.289062,0.38867 0.01953,-0.0644 0.0293,-0.0918 0.06836,0.0879 0.162109,-0.49023 z m -12.775391,1.98633 0.107422,0.1543 -0.203125,0.10546 0.183594,0.15821 0.0293,-0.2461 0.130859,0.1875 h 0.07422 l 0.04102,-0.33789 -0.242187,0.125 0.02734,-0.22461 z m 0.125,0.45117 0.167969,0.14648 0.02344,-0.19335 z m 12.712891,1.73633 0.146484,-0.0957 -0.08594,-0.11133 z m 30.623047,0.42187 0.464843,0.33985 0.0625,-0.0195 -0.197265,-0.72852 z m 0.755859,-0.006 0.335938,0.23633 -0.13086,-0.49219 z m -25.017578,0.26954 0.339844,-0.23438 -0.208985,-0.25976 z"
       style="opacity:0.495177;fill:#0000ff;fill-rule:evenodd;stroke-width:0.415645;stroke-opacity:0"
       id="ellipse1415" />
  </g>
</svg>
