<?xml version="1.0" encoding="UTF-8" standalone="no"?>
<svg
   xmlns:dc="http://purl.org/dc/elements/1.1/"
   xmlns:cc="http://creativecommons.org/ns#"
   xmlns:rdf="http://www.w3.org/1999/02/22-rdf-syntax-ns#"
   xmlns:svg="http://www.w3.org/2000/svg"
   xmlns="http://www.w3.org/2000/svg"
   xmlns:sodipodi="http://sodipodi.sourceforge.net/DTD/sodipodi-0.dtd"
   xmlns:inkscape="http://www.inkscape.org/namespaces/inkscape"
   sodipodi:docname="drawing.svg"
   inkscape:version="1.0beta2 (2b71d25, 2019-12-03)"
   id="svg4528"
   version="1.1"
   viewBox="0 0 210 297"
   height="297mm"
   width="210mm">
  <defs
     id="defs4522">
    <filter
       inkscape:collect="always"
       style="color-interpolation-filters:sRGB"
       id="filter5142"
       x="-0.96723422"
       width="2.9344684"
       y="-0.95439498"
       height="2.90879">
      <feGaussianBlur
         inkscape:collect="always"
         stdDeviation="5.9406339"
         id="feGaussianBlur5140" />
    </filter>
    <filter
       height="2.7286174"
       y="-0.86430868"
       width="2.7286174"
       x="-0.86430868"
       id="filter5166"
       style="color-interpolation-filters:sRGB"
       inkscape:collect="always">
      <feGaussianBlur
         id="feGaussianBlur5168"
         stdDeviation="2.2868167"
         inkscape:collect="always" />
    </filter>
    <filter
       height="2.1957502"
       y="-0.59787511"
       width="2.2118364"
       x="-0.60591818"
       id="filter5218"
       style="color-interpolation-filters:sRGB"
       inkscape:collect="always">
      <feGaussianBlur
         id="feGaussianBlur5220"
         stdDeviation="3.7214751"
         inkscape:collect="always" />
    </filter>
    <filter
       height="2.8523517"
       y="-0.92617584"
       width="2.8772709"
       x="-0.93863546"
       id="filter5256"
       style="color-interpolation-filters:sRGB"
       inkscape:collect="always">
      <feGaussianBlur
         id="feGaussianBlur5258"
         stdDeviation="5.7649838"
         inkscape:collect="always" />
    </filter>
    <filter
       height="3.7752113"
       y="-1.3876057"
       width="3.8125456"
       x="-1.4062728"
       id="filter5264"
       style="color-interpolation-filters:sRGB"
       inkscape:collect="always">
      <feGaussianBlur
         id="feGaussianBlur5266"
         stdDeviation="8.6371548"
         inkscape:collect="always" />
    </filter>
    <filter
       inkscape:collect="always"
       style="color-interpolation-filters:sRGB"
       id="filter5270"
       x="-0.91214181"
       width="2.8242836"
       y="-0.90003387"
       height="2.8000677">
      <feGaussianBlur
         inkscape:collect="always"
         stdDeviation="5.602263"
         id="feGaussianBlur5268" />
    </filter>
    <filter
       inkscape:collect="always"
       style="color-interpolation-filters:sRGB"
       id="filter5274"
       x="-1.2323202"
       width="3.4646403"
       y="-1.2159621"
       height="3.4319243">
      <feGaussianBlur
         inkscape:collect="always"
         stdDeviation="7.5687593"
         id="feGaussianBlur5272" />
    </filter>
  </defs>
  <sodipodi:namedview
     inkscape:object-paths="true"
     inkscape:object-nodes="true"
     inkscape:window-maximized="0"
     inkscape:window-y="23"
     inkscape:window-x="0"
     inkscape:window-height="829"
     inkscape:window-width="1440"
     showgrid="false"
     inkscape:document-rotation="0"
     inkscape:current-layer="layer1"
     inkscape:document-units="mm"
     inkscape:cy="436.29258"
     inkscape:cx="331.85039"
     inkscape:zoom="1"
     inkscape:pageshadow="2"
     inkscape:pageopacity="0.0"
     borderopacity="1.0"
     bordercolor="#666666"
     pagecolor="#ffffff"
     id="base" />
  <metadata
     id="metadata4525">
    <rdf:RDF>
      <cc:Work
         rdf:about="">
        <dc:format>image/svg+xml</dc:format>
        <dc:type
           rdf:resource="http://purl.org/dc/dcmitype/StillImage" />
        <dc:title></dc:title>
      </cc:Work>
    </rdf:RDF>
  </metadata>
  <g
     id="layer1"
     inkscape:groupmode="layer"
     inkscape:label="Layer 1">
    <path
       transform="scale(0.26458333)"
       d="M 370 339 A 112 112 0 0 0 262.76562 418.67578 C 262.91262 418.9047 263 419.17537 263 419.46875 L 263 474.53125 C 263 475.34532 262.34534 476 261.53125 476 L 260.82617 476 A 112 112 0 0 0 370 563 A 112 112 0 0 0 482 451 A 112 112 0 0 0 370 339 z "
       style="opacity:1;fill:#c80000;fill-rule:evenodd;stroke-width:0.999999"
       id="path5091" />
    <g
       transform="matrix(0.70381176,0,0,2.1511816,33.807883,-127.66933)"
       style="opacity:0.376206;mix-blend-mode:normal;fill:#ffff00;filter:url(#filter5264)"
       id="g5174">
      <g
         transform="translate(-18.785417,-6.3500003)"
         style="mix-blend-mode:normal;fill:#ffff00;filter:url(#filter5142)"
         id="g5138">
        <path
           style="fill:#ffff00;stroke:none;stroke-width:0.264583px;stroke-linecap:butt;stroke-linejoin:miter;stroke-opacity:1"
           d="m 96.043749,114.03542 c 0,0 -4.7625,14.02291 -0.264584,14.81666 4.497915,0.79375 8.202085,-2.38125 12.170835,-6.61458 3.96875,-4.23333 -11.906251,-8.20208 -11.906251,-8.20208 z"
           id="path5134"
           inkscape:connector-curvature="0" />
        <path
           style="opacity:0.81672;fill:#ffff00;fill-opacity:0.9;stroke:none;stroke-width:0.264583px;stroke-linecap:butt;stroke-linejoin:miter;stroke-opacity:1"
           d="m 96.8375,123.03125 c 0,0 0.264583,-8.46667 3.96875,-6.08542 3.70417,2.38125 2.91042,6.61459 2.91042,6.61459 l -7.143754,0.52916 z"
           id="path5136"
           inkscape:connector-curvature="0" />
      </g>
      <circle
         style="opacity:1;mix-blend-mode:normal;fill:#ffff00;fill-opacity:0.9;fill-rule:evenodd;stroke:none;stroke-width:0.264583;filter:url(#filter5166)"
         id="path5146"
         cx="83.60833"
         cy="115.62292"
         r="3.175"
         inkscape:transform-center-x="-5.8208337"
         inkscape:transform-center-y="-9.2604163" />
    </g>
    <g
       inkscape:transform-center-y="-1.192737e-06"
       inkscape:transform-center-x="-2.9104156"
       transform="matrix(1.1776967,0,0,2.679037,-34.716781,-210.2548)"
       style="opacity:0.340836;mix-blend-mode:normal;fill:#ffff00;filter:url(#filter5256)"
       id="g5124">
      <path
         style="fill:#ffff00;stroke:none;stroke-width:0.264583px;stroke-linecap:butt;stroke-linejoin:miter;stroke-opacity:1"
         d="m 96.043749,114.03542 c 0,0 -4.7625,14.02291 -0.264584,14.81666 4.497915,0.79375 8.202085,-2.38125 12.170835,-6.61458 3.96875,-4.23333 -11.906251,-8.20208 -11.906251,-8.20208 z"
         id="path5116"
         inkscape:connector-curvature="0" />
      <path
         style="opacity:0.81672;fill:#ffff00;fill-opacity:0.9;stroke:none;stroke-width:0.264583px;stroke-linecap:butt;stroke-linejoin:miter;stroke-opacity:1"
         d="m 96.8375,123.03125 c 0,0 0.264583,-8.46667 3.96875,-6.08542 3.70417,2.38125 2.91042,6.61459 2.91042,6.61459 l -7.143754,0.52916 z"
         id="path5112"
         inkscape:connector-curvature="0" />
    </g>
    <g
       id="g5230"
       style="opacity:0.376206;mix-blend-mode:normal;fill:#ffff00;filter:url(#filter5218)"
       transform="matrix(0.70381176,0,0,2.1511816,22.959969,-136.40058)">
      <g
         id="g5226"
         style="mix-blend-mode:normal;fill:#ffff00;filter:url(#filter5142)"
         transform="translate(-18.785417,-6.3500003)">
        <path
           inkscape:connector-curvature="0"
           id="path5222"
           d="m 96.043749,114.03542 c 0,0 -4.7625,14.02291 -0.264584,14.81666 4.497915,0.79375 8.202085,-2.38125 12.170835,-6.61458 3.96875,-4.23333 -11.906251,-8.20208 -11.906251,-8.20208 z"
           style="fill:#ffff00;stroke:none;stroke-width:0.264583px;stroke-linecap:butt;stroke-linejoin:miter;stroke-opacity:1" />
        <path
           inkscape:connector-curvature="0"
           id="path5224"
           d="m 96.8375,123.03125 c 0,0 0.264583,-8.46667 3.96875,-6.08542 3.70417,2.38125 2.91042,6.61459 2.91042,6.61459 l -7.143754,0.52916 z"
           style="opacity:0.81672;fill:#ffff00;fill-opacity:0.9;stroke:none;stroke-width:0.264583px;stroke-linecap:butt;stroke-linejoin:miter;stroke-opacity:1" />
      </g>
      <circle
         inkscape:transform-center-y="-9.2604163"
         inkscape:transform-center-x="-5.8208337"
         r="3.175"
         cy="115.62292"
         cx="83.60833"
         id="circle5228"
         style="opacity:1;mix-blend-mode:normal;fill:#ffff00;fill-opacity:0.9;fill-rule:evenodd;stroke:none;stroke-width:0.264583;filter:url(#filter5166)" />
    </g>
    <g
       transform="matrix(0.84072641,0,0,1.62932,5.0593368,-66.64841)"
       style="opacity:0.376206;mix-blend-mode:normal;fill:#ffff00;filter:url(#filter5274)"
       id="g5240">
      <g
         transform="translate(-18.785417,-6.3500003)"
         style="mix-blend-mode:normal;fill:#ffff00;filter:url(#filter5142)"
         id="g5236">
        <path
           style="fill:#ffff00;stroke:none;stroke-width:0.264583px;stroke-linecap:butt;stroke-linejoin:miter;stroke-opacity:1"
           d="m 96.043749,114.03542 c 0,0 -4.7625,14.02291 -0.264584,14.81666 4.497915,0.79375 8.202085,-2.38125 12.170835,-6.61458 3.96875,-4.23333 -11.906251,-8.20208 -11.906251,-8.20208 z"
           id="path5232"
           inkscape:connector-curvature="0" />
        <path
           style="opacity:0.81672;fill:#ffff00;fill-opacity:0.9;stroke:none;stroke-width:0.264583px;stroke-linecap:butt;stroke-linejoin:miter;stroke-opacity:1"
           d="m 96.8375,123.03125 c 0,0 0.264583,-8.46667 3.96875,-6.08542 3.70417,2.38125 2.91042,6.61459 2.91042,6.61459 l -7.143754,0.52916 z"
           id="path5234"
           inkscape:connector-curvature="0" />
      </g>
      <circle
         style="opacity:1;mix-blend-mode:normal;fill:#ffff00;fill-opacity:0.9;fill-rule:evenodd;stroke:none;stroke-width:0.264583;filter:url(#filter5166)"
         id="circle5238"
         cx="83.60833"
         cy="115.62292"
         r="3.175"
         inkscape:transform-center-x="-5.8208337"
         inkscape:transform-center-y="-9.2604163" />
    </g>
    <g
       id="g5250"
       style="opacity:0.376206;mix-blend-mode:normal;fill:#ffff00;filter:url(#filter5270)"
       transform="matrix(0.79691925,0,0,1.8015207,32.482917,-81.715659)">
      <g
         id="g5246"
         style="mix-blend-mode:normal;fill:#ffff00;filter:url(#filter5142)"
         transform="translate(-18.785417,-6.3500003)">
        <path
           inkscape:connector-curvature="0"
           id="path5242"
           d="m 96.043749,114.03542 c 0,0 -4.7625,14.02291 -0.264584,14.81666 4.497915,0.79375 8.202085,-2.38125 12.170835,-6.61458 3.96875,-4.23333 -11.906251,-8.20208 -11.906251,-8.20208 z"
           style="fill:#ffff00;stroke:none;stroke-width:0.264583px;stroke-linecap:butt;stroke-linejoin:miter;stroke-opacity:1" />
        <path
           inkscape:connector-curvature="0"
           id="path5244"
           d="m 96.8375,123.03125 c 0,0 0.264583,-8.46667 3.96875,-6.08542 3.70417,2.38125 2.91042,6.61459 2.91042,6.61459 l -7.143754,0.52916 z"
           style="opacity:0.81672;fill:#ffff00;fill-opacity:0.9;stroke:none;stroke-width:0.264583px;stroke-linecap:butt;stroke-linejoin:miter;stroke-opacity:1" />
      </g>
      <circle
         inkscape:transform-center-y="-9.2604163"
         inkscape:transform-center-x="-5.8208337"
         r="3.175"
         cy="115.62292"
         cx="83.60833"
         id="circle5248"
         style="opacity:1;mix-blend-mode:normal;fill:#ffff00;fill-opacity:0.9;fill-rule:evenodd;stroke:none;stroke-width:0.264583;filter:url(#filter5166)" />
    </g>
  </g>
</svg>
