<?xml version="1.0" encoding="UTF-8" standalone="no"?>
<svg
   xmlns:dc="http://purl.org/dc/elements/1.1/"
   xmlns:cc="http://creativecommons.org/ns#"
   xmlns:rdf="http://www.w3.org/1999/02/22-rdf-syntax-ns#"
   xmlns:svg="http://www.w3.org/2000/svg"
   xmlns="http://www.w3.org/2000/svg"
   xmlns:sodipodi="http://sodipodi.sourceforge.net/DTD/sodipodi-0.dtd"
   xmlns:inkscape="http://www.inkscape.org/namespaces/inkscape"
   sodipodi:docname="drawing-1.svg"
   inkscape:version="1.0beta2 (2b71d25, 2019-12-03)"
   id="svg8"
   version="1.1"
   viewBox="0 0 210 297"
   height="297mm"
   width="210mm">
  <defs
     id="defs2" />
  <sodipodi:namedview
     inkscape:window-maximized="0"
     inkscape:window-y="23"
     inkscape:window-x="0"
     inkscape:window-height="829"
     inkscape:window-width="1440"
     showgrid="false"
     inkscape:document-rotation="0"
     inkscape:current-layer="layer1"
     inkscape:document-units="mm"
     inkscape:cy="366.97799"
     inkscape:cx="339.18314"
     inkscape:zoom="6.6090177"
     inkscape:pageshadow="2"
     inkscape:pageopacity="0.0"
     borderopacity="1.0"
     bordercolor="#666666"
     pagecolor="#ffffff"
     id="base" />
  <metadata
     id="metadata5">
    <rdf:RDF>
      <cc:Work
         rdf:about="">
        <dc:format>image/svg+xml</dc:format>
        <dc:type
           rdf:resource="http://purl.org/dc/dcmitype/StillImage" />
        <dc:title></dc:title>
      </cc:Work>
    </rdf:RDF>
  </metadata>
  <g
     id="layer1"
     inkscape:groupmode="layer"
     inkscape:label="Layer 1">
    <path
       inkscape:connector-curvature="0"
       id="path847"
       d="m 83.087169,146.71486 c -0.7937,-0.49211 -1.52285,-1.79222 -1.52285,-2.71529 0,-0.32233 1.30968,-3.53496 2.91041,-7.13917 1.60073,-3.60422 2.91042,-6.67935 2.91042,-6.83363 0,-0.15429 -2.35149,-1.84594 -5.22552,-3.75923 -5.77739,-3.84609 -6.57747,-4.49162 -7.11019,-5.73666 -0.91738,-2.14406 -0.41926,-3.31211 4.64949,-10.90265 2.06606,-3.09395 3.69004,-5.69178 3.60887,-5.77296 -0.0812,-0.0812 -1.31035,-0.40779 -2.73148,-0.72581 l -2.58388,-0.57822 -4.3247,2.88781 c -2.43858,1.62835 -4.68873,2.94198 -5.15938,3.01202 -1.15558,0.17197 -2.41609,-0.66449 -2.81281,-1.86656 -0.59102,-1.79081 0.0197,-2.46491 5.68231,-6.27212 3.58701,-2.411698 5.25446,-3.383388 5.82083,-3.392038 0.43656,-0.007 3.09641,0.48808 5.91077,1.09942 l 5.11702,1.11154 2.94651,1.997358 2.94651,1.99735 1.93828,4.35737 c 1.06606,2.39655 1.9784,4.39748 2.02744,4.44652 0.0986,0.0986 7.690871,1.1051 8.395781,1.11302 0.75949,0.009 2.04215,1.30288 2.21753,2.23773 0.22452,1.19679 -0.46874,2.47019 -1.60278,2.94402 -0.79143,0.33068 -1.49117,0.29819 -6.21986,-0.28883 -2.930461,-0.36379 -5.654301,-0.83011 -6.052981,-1.03628 -0.54499,-0.28183 -1.07667,-1.13724 -2.14259,-3.44722 -1.13235,-2.45392 -1.48262,-3.00357 -1.74011,-2.7306 -0.24355,0.25821 -4.59902,7.15478 -5.7437,9.09475 -0.0983,0.16665 1.62821,1.51783 4.13092,3.23283 2.36493,1.62059 4.57201,3.23622 4.90465,3.59029 1.34253,1.42906 1.21262,1.93207 -2.84465,11.01499 -2.4486,5.48161 -3.95671,8.53766 -4.40641,8.92923 -0.84506,0.73579 -2.81173,0.80197 -3.89385,0.13102 z m -27.25026,-13.44364 c -1.40325,-0.76139 -1.92872,-2.79951 -1.12332,-4.35698 0.76143,-1.47246 1.31902,-1.57884 8.27513,-1.57884 h 6.32152 l 1.57134,-2.21509 1.57134,-2.2151 0.72967,1.01511 c 0.40132,0.55831 1.44396,1.57629 2.31698,2.26217 0.91839,0.72152 1.53157,1.39232 1.45505,1.59174 -0.43058,1.12208 -3.44925,5.16663 -4.11187,5.50929 -1.13436,0.58659 -15.92178,0.57591 -17.00584,-0.0123 z m 38.60076,-34.367588 c -3.0602,-1.09111 -4.37291,-4.95922 -2.63628,-7.76816 2.2454,-3.63184 7.60905,-3.28227 9.377821,0.6112 0.69975,1.54032 0.62354,3.0001 -0.24325,4.65932 -1.243021,2.37942 -3.931611,3.41279 -6.498291,2.49764 z"
       style="fill:#000000;stroke-width:0.264583" />
    <circle
       r="5.3645139"
       cy="93.919029"
       cx="96.361084"
       id="path875"
       style="fill:#ff0000;fill-rule:evenodd;stroke:none;stroke-width:0.274838" />
  </g>
</svg>
