<?xml version="1.0" encoding="UTF-8" standalone="no"?>
<svg
   xmlns:dc="http://purl.org/dc/elements/1.1/"
   xmlns:cc="http://creativecommons.org/ns#"
   xmlns:rdf="http://www.w3.org/1999/02/22-rdf-syntax-ns#"
   xmlns:svg="http://www.w3.org/2000/svg"
   xmlns="http://www.w3.org/2000/svg"
   xmlns:sodipodi="http://sodipodi.sourceforge.net/DTD/sodipodi-0.dtd"
   xmlns:inkscape="http://www.inkscape.org/namespaces/inkscape"
   width="210mm"
   height="297mm"
   viewBox="0 0 210 297"
   version="1.1"
   id="svg5532"
   inkscape:version="1.0beta2 (2b71d25, 2019-12-03)"
   sodipodi:docname="fingerprints.svg">
  <defs
     id="defs5526" />
  <sodipodi:namedview
     id="base"
     pagecolor="#ffffff"
     bordercolor="#666666"
     borderopacity="1.0"
     inkscape:pageopacity="0.0"
     inkscape:pageshadow="2"
     inkscape:zoom="0.1767767"
     inkscape:cx="86.017625"
     inkscape:cy="536.92176"
     inkscape:document-units="mm"
     inkscape:current-layer="layer1"
     inkscape:document-rotation="0"
     showgrid="true"
     inkscape:window-width="1440"
     inkscape:window-height="803"
     inkscape:window-x="0"
     inkscape:window-y="23"
     inkscape:window-maximized="0"
     inkscape:snap-smooth-nodes="true"
     inkscape:snap-others="false"
     inkscape:object-nodes="true">
    <inkscape:grid
       type="xygrid"
       id="grid6113"
       spacingx="13.229167"
       spacingy="12.673542" />
  </sodipodi:namedview>
  <metadata
     id="metadata5529">
    <rdf:RDF>
      <cc:Work
         rdf:about="">
        <dc:format>image/svg+xml</dc:format>
        <dc:type
           rdf:resource="http://purl.org/dc/dcmitype/StillImage" />
        <dc:title />
      </cc:Work>
    </rdf:RDF>
  </metadata>
  <g
     inkscape:label="Layer 1"
     inkscape:groupmode="layer"
     id="layer1">
    <path
       inkscape:connector-curvature="0"
       d="M 63.764614,126.7354 A 33.072914,33.072914 0 0 1 96.837528,93.662483 33.072914,33.072914 0 0 1 129.91047,126.7354"
       style="opacity:0.524116;fill:none;fill-rule:evenodd;stroke:#000000;stroke-width:10.5833"
       id="path7460" />
    <path
       inkscape:connector-curvature="0"
       d="m 80.45982,126.73542 a 16.377708,16.377708 0 0 1 16.377708,-16.37771 16.377708,16.377708 0 0 1 16.377742,16.37771"
       style="opacity:0.524116;fill:none;fill-rule:evenodd;stroke:#000000;stroke-width:10.5833"
       id="path7456" />
    <path
       inkscape:connector-curvature="0"
       d="M 46.143354,126.73541 A 50.694177,50.694177 0 0 1 96.837528,76.041236 50.694177,50.694177 0 0 1 147.53173,126.73541"
       style="opacity:0.524116;fill:none;fill-rule:evenodd;stroke:#000000;stroke-width:10.5833"
       id="path7454" />
    <path
       inkscape:connector-curvature="0"
       d="M 31.22083,126.73541 A 66.145835,66.145835 0 0 1 97.366666,60.589577 66.145835,66.145835 0 0 1 163.51252,126.73541"
       style="opacity:0.524116;fill:none;fill-rule:evenodd;stroke:#000000;stroke-width:10.5833"
       id="path7450" />
    <path
       d="m -1.88676,114.06187 a 33.072914,33.072914 0 0 1 -33.072912,33.07291 33.072914,33.072914 0 0 1 -33.072913,-33.07291"
       style="opacity:0.524116;fill:none;fill-rule:evenodd;stroke:#000000;stroke-width:10.5833"
       id="path7413"
       inkscape:connector-curvature="0" />
    <path
       d="M -18.58196,114.06189 A 16.377708,16.377708 0 0 1 -34.959672,130.4396 16.377708,16.377708 0 0 1 -51.33738,114.06189"
       style="opacity:0.524116;fill:none;fill-rule:evenodd;stroke:#000000;stroke-width:10.5833"
       id="path7458"
       inkscape:connector-curvature="0" />
    <path
       d="m 15.7345,114.06188 a 50.694177,50.694177 0 0 1 -50.694172,50.69418 50.694177,50.694177 0 0 1 -50.694174,-50.69418"
       style="opacity:0.524116;fill:none;fill-rule:evenodd;stroke:#000000;stroke-width:10.5833"
       id="path7452"
       inkscape:connector-curvature="0" />
    <path
       d="m 31.7153,114.06188 a 66.145835,66.145835 0 0 1 -66.145834,66.14584 66.145835,66.145835 0 0 1 -66.145836,-66.14584"
       style="opacity:0.524116;fill:none;fill-rule:evenodd;stroke:#000000;stroke-width:10.5833"
       id="path7448"
       inkscape:connector-curvature="0" />
    <path
       d="m 47.625,114.06188 a 82.055532,82.055532 0 0 1 -82.055534,82.05554 82.055532,82.055532 0 0 1 -82.055536,-82.05554"
       style="opacity:0.524116;fill:none;fill-rule:evenodd;stroke:#000000;stroke-width:10.5833"
       id="path7446"
       inkscape:connector-curvature="0" />
    <path
       inkscape:connector-curvature="0"
       d="M 15.311133,126.73541 A 82.055532,82.055532 0 0 1 97.366666,44.679877 82.055532,82.055532 0 0 1 179.42222,126.73541"
       style="opacity:0.524116;fill:none;fill-rule:evenodd;stroke:#000000;stroke-width:10.5833"
       id="path7444" />
  </g>
</svg>
