<?xml version="1.0" encoding="UTF-8" standalone="no"?>
<svg
   xmlns:dc="http://purl.org/dc/elements/1.1/"
   xmlns:cc="http://creativecommons.org/ns#"
   xmlns:rdf="http://www.w3.org/1999/02/22-rdf-syntax-ns#"
   xmlns:svg="http://www.w3.org/2000/svg"
   xmlns="http://www.w3.org/2000/svg"
   xmlns:sodipodi="http://sodipodi.sourceforge.net/DTD/sodipodi-0.dtd"
   xmlns:inkscape="http://www.inkscape.org/namespaces/inkscape"
   width="210mm"
   height="297mm"
   viewBox="0 0 210 297"
   version="1.1"
   id="svg1530"
   inkscape:version="1.0beta2 (2b71d25, 2019-12-03)"
   sodipodi:docname="girl working.svg">
  <defs
     id="defs1524" />
  <sodipodi:namedview
     id="base"
     pagecolor="#ffffff"
     bordercolor="#666666"
     borderopacity="1.0"
     inkscape:pageopacity="0.0"
     inkscape:pageshadow="2"
     inkscape:zoom="1"
     inkscape:cx="424.5"
     inkscape:cy="506.5"
     inkscape:document-units="mm"
     inkscape:current-layer="layer1"
     inkscape:document-rotation="0"
     showgrid="false"
     inkscape:window-width="1440"
     inkscape:window-height="829"
     inkscape:window-x="0"
     inkscape:window-y="28"
     inkscape:window-maximized="0" />
  <metadata
     id="metadata1527">
    <rdf:RDF>
      <cc:Work
         rdf:about="">
        <dc:format>image/svg+xml</dc:format>
        <dc:type
           rdf:resource="http://purl.org/dc/dcmitype/StillImage" />
        <dc:title />
      </cc:Work>
    </rdf:RDF>
  </metadata>
  <g
     inkscape:label="Layer 1"
     inkscape:groupmode="layer"
     id="layer1">
    <rect
       ry="25.881062"
       y="93.473511"
       x="80.996933"
       height="81.340469"
       width="55.562504"
       id="rect2113"
       style="fill:#000000;fill-opacity:1;fill-rule:evenodd;stroke-width:0.313066" />
    <rect
       style="fill:#ffb483;fill-opacity:1;fill-rule:evenodd;stroke-width:0.262965"
       id="rect2093"
       width="46.175228"
       height="69.056244"
       x="85.690567"
       y="113.24167"
       ry="23.194466" />
    <path
       transform="scale(0.26458333)"
       d="M 331 389 L 331 492 L 432.70117 492 L 433.19336 467.20703 L 447.50781 492 L 493 492 L 493 389 L 331 389 z "
       style="opacity:1;fill:#000000;fill-opacity:1;fill-rule:evenodd;stroke-width:0.742602"
       id="rect865" />
    <g
       id="g916">
      <path
         id="rect844"
         style="fill:#000000;fill-opacity:1;fill-rule:evenodd;stroke-width:0.296622"
         d="m 91.18203,117.42126 c -6.041813,5.31173 -9.989571,14.21076 -9.989571,24.3329 v 28.84091 c 0,12.76232 6.27439,23.58209 15.111222,27.71582 -4.717791,-6.69572 -7.702888,-16.68306 -7.702888,-27.87847 v -35.7284 c 0,-6.25998 0.933907,-12.14199 2.581237,-17.28276 z"
         inkscape:connector-curvature="0" />
      <path
         inkscape:connector-curvature="0"
         d="m 126.79537,118.21501 c 6.04181,5.31173 9.98957,14.21076 9.98957,24.3329 v 28.84091 c 0,12.76232 -6.27439,23.58209 -15.11122,27.71582 4.71779,-6.69572 7.70289,-16.68306 7.70289,-27.87847 v -35.7284 c 0,-6.25998 -0.93391,-12.14199 -2.58124,-17.28276 z"
         style="fill:#000000;fill-opacity:1;fill-rule:evenodd;stroke-width:0.296622"
         id="path863" />
      <path
         d="m 87.047915,103.98125 v 27.25209 h 26.908435 l 0.13022,-6.55981 3.78737,6.55981 h 12.03647 v -27.25209 z"
         style="opacity:0.517685;fill:#000000;fill-opacity:1;fill-rule:evenodd;stroke-width:0.19648"
         id="path872"
         inkscape:connector-curvature="0" />
    </g>
    <g
       id="g889">
      <path
         id="ellipse876"
         style="opacity:1;fill:#000000;fill-opacity:1;fill-rule:evenodd;stroke-width:0.0711248"
         d="m 98.557303,138.50509 a 3.3073086,3.9474331 0 0 0 -3.3073,3.94744 3.3073086,3.9474331 0 0 0 0.0195,0.42675 3.3073086,3.9474331 0 0 1 3.28785,-3.52069 3.3073086,3.9474331 0 0 1 3.287857,3.52069 3.3073086,3.9474331 0 0 0 0.0195,-0.42675 3.3073086,3.9474331 0 0 0 -3.307307,-3.94744 z"
         inkscape:connector-curvature="0" />
      <path
         inkscape:connector-curvature="0"
         d="m 118.13647,138.50509 a 3.3073086,3.9474331 0 0 0 -3.3073,3.94744 3.3073086,3.9474331 0 0 0 0.0195,0.42675 3.3073086,3.9474331 0 0 1 3.28785,-3.52069 3.3073086,3.9474331 0 0 1 3.28786,3.52069 3.3073086,3.9474331 0 0 0 0.0195,-0.42675 3.3073086,3.9474331 0 0 0 -3.30731,-3.94744 z"
         style="opacity:1;fill:#000000;fill-opacity:1;fill-rule:evenodd;stroke-width:0.0711248"
         id="path881" />
    </g>
  </g>
</svg>
