<?xml version="1.0" encoding="UTF-8" standalone="no"?>
<svg
   xmlns:dc="http://purl.org/dc/elements/1.1/"
   xmlns:cc="http://creativecommons.org/ns#"
   xmlns:rdf="http://www.w3.org/1999/02/22-rdf-syntax-ns#"
   xmlns:svg="http://www.w3.org/2000/svg"
   xmlns="http://www.w3.org/2000/svg"
   xmlns:sodipodi="http://sodipodi.sourceforge.net/DTD/sodipodi-0.dtd"
   xmlns:inkscape="http://www.inkscape.org/namespaces/inkscape"
   sodipodi:docname="girl working.svg"
   inkscape:version="1.0beta2 (2b71d25, 2019-12-03)"
   id="svg1530"
   version="1.1"
   viewBox="0 0 210 297"
   height="297mm"
   width="210mm">
  <defs
     id="defs1524" />
  <sodipodi:namedview
     inkscape:window-maximized="0"
     inkscape:window-y="23"
     inkscape:window-x="0"
     inkscape:window-height="803"
     inkscape:window-width="1440"
     showgrid="false"
     inkscape:document-rotation="0"
     inkscape:current-layer="layer1"
     inkscape:document-units="mm"
     inkscape:cy="489.5"
     inkscape:cx="283"
     inkscape:zoom="1"
     inkscape:pageshadow="2"
     inkscape:pageopacity="0.0"
     borderopacity="1.0"
     bordercolor="#666666"
     pagecolor="#ffffff"
     id="base" />
  <metadata
     id="metadata1527">
    <rdf:RDF>
      <cc:Work
         rdf:about="">
        <dc:format>image/svg+xml</dc:format>
        <dc:type
           rdf:resource="http://purl.org/dc/dcmitype/StillImage" />
        <dc:title />
      </cc:Work>
    </rdf:RDF>
  </metadata>
  <g
     id="layer1"
     inkscape:groupmode="layer"
     inkscape:label="Layer 1">
    <rect
       style="fill:#000000;fill-opacity:1;fill-rule:evenodd;stroke-width:0.299028"
       id="rect2113"
       width="55.562504"
       height="74.209557"
       x="80.996933"
       y="93.473511"
       ry="23.612133" />
    <rect
       ry="21.161064"
       y="111.50864"
       x="85.690567"
       height="63.002254"
       width="46.175228"
       id="rect2093"
       style="fill:#ffb483;fill-opacity:1;fill-rule:evenodd;stroke-width:0.251174" />
    <path
       inkscape:connector-curvature="0"
       id="rect865"
       style="opacity:1;fill:#000000;fill-opacity:1;fill-rule:evenodd;stroke-width:0.18767"
       d="m 87.577082,102.09451 v 24.86296 h 26.908438 l 0.13022,-5.98472 3.78737,5.98472 h 12.03647 v -24.86296 z" />
    <g
       transform="matrix(1,0,0,0.9123325,0,8.1945887)"
       id="g916">
      <path
         inkscape:connector-curvature="0"
         d="m 91.18203,117.42126 c -6.041813,5.31173 -9.989571,14.21076 -9.989571,24.3329 v 28.84091 c 0,12.76232 6.27439,23.58209 15.111222,27.71582 -4.717791,-6.69572 -7.702888,-16.68306 -7.702888,-27.87847 v -35.7284 c 0,-6.25998 0.933907,-12.14199 2.581237,-17.28276 z"
         style="fill:#000000;fill-opacity:1;fill-rule:evenodd;stroke-width:0.296622"
         id="rect844" />
      <path
         id="path863"
         style="fill:#000000;fill-opacity:1;fill-rule:evenodd;stroke-width:0.296622"
         d="m 126.79537,118.21501 c 6.04181,5.31173 9.98957,14.21076 9.98957,24.3329 v 28.84091 c 0,12.76232 -6.27439,23.58209 -15.11122,27.71582 4.71779,-6.69572 7.70289,-16.68306 7.70289,-27.87847 v -35.7284 c 0,-6.25998 -0.93391,-12.14199 -2.58124,-17.28276 z"
         inkscape:connector-curvature="0" />
      <path
         inkscape:connector-curvature="0"
         id="path872"
         style="opacity:0.517685;fill:#000000;fill-opacity:1;fill-rule:evenodd;stroke-width:0.19648"
         d="m 87.047915,103.98125 v 27.25209 h 26.908435 l 0.13022,-6.55981 3.78737,6.55981 h 12.03647 v -27.25209 z" />
    </g>
    <g
       transform="matrix(1,0,0,0.9123325,0,8.1945887)"
       id="g889">
      <path
         inkscape:connector-curvature="0"
         d="m 98.557303,138.50509 a 3.3073086,3.9474331 0 0 0 -3.3073,3.94744 3.3073086,3.9474331 0 0 0 0.0195,0.42675 3.3073086,3.9474331 0 0 1 3.28785,-3.52069 3.3073086,3.9474331 0 0 1 3.287857,3.52069 3.3073086,3.9474331 0 0 0 0.0195,-0.42675 3.3073086,3.9474331 0 0 0 -3.307307,-3.94744 z"
         style="opacity:1;fill:#000000;fill-opacity:1;fill-rule:evenodd;stroke-width:0.0711248"
         id="ellipse876" />
      <path
         id="path881"
         style="opacity:1;fill:#000000;fill-opacity:1;fill-rule:evenodd;stroke-width:0.0711248"
         d="m 118.13647,138.50509 a 3.3073086,3.9474331 0 0 0 -3.3073,3.94744 3.3073086,3.9474331 0 0 0 0.0195,0.42675 3.3073086,3.9474331 0 0 1 3.28785,-3.52069 3.3073086,3.9474331 0 0 1 3.28786,3.52069 3.3073086,3.9474331 0 0 0 0.0195,-0.42675 3.3073086,3.9474331 0 0 0 -3.30731,-3.94744 z"
         inkscape:connector-curvature="0" />
    </g>
  </g>
</svg>
