<?xml version="1.0" encoding="UTF-8" standalone="no"?>
<svg
   xmlns:dc="http://purl.org/dc/elements/1.1/"
   xmlns:cc="http://creativecommons.org/ns#"
   xmlns:rdf="http://www.w3.org/1999/02/22-rdf-syntax-ns#"
   xmlns:svg="http://www.w3.org/2000/svg"
   xmlns="http://www.w3.org/2000/svg"
   xmlns:sodipodi="http://sodipodi.sourceforge.net/DTD/sodipodi-0.dtd"
   xmlns:inkscape="http://www.inkscape.org/namespaces/inkscape"
   sodipodi:docname="japanese doll.svg"
   inkscape:version="1.0beta2 (2b71d25, 2019-12-03)"
   id="svg8"
   version="1.1"
   viewBox="0 0 210 297"
   height="297mm"
   width="210mm">
  <defs
     id="defs2">
    <inkscape:perspective
       id="perspective31"
       inkscape:persp3d-origin="105 : 99 : 1"
       inkscape:vp_z="210 : 148.5 : 1"
       inkscape:vp_y="0 : 1000 : 0"
       inkscape:vp_x="0 : 148.5 : 1"
       sodipodi:type="inkscape:persp3d" />
  </defs>
  <sodipodi:namedview
     inkscape:window-maximized="0"
     inkscape:window-y="23"
     inkscape:window-x="26"
     inkscape:window-height="816"
     inkscape:window-width="1383"
     showgrid="false"
     inkscape:document-rotation="0"
     inkscape:current-layer="layer1"
     inkscape:document-units="mm"
     inkscape:cy="576.83704"
     inkscape:cx="-100.37786"
     inkscape:zoom="0.49497475"
     inkscape:pageshadow="2"
     inkscape:pageopacity="0.0"
     borderopacity="1.0"
     bordercolor="#666666"
     pagecolor="#ffffff"
     id="base" />
  <metadata
     id="metadata5">
    <rdf:RDF>
      <cc:Work
         rdf:about="">
        <dc:format>image/svg+xml</dc:format>
        <dc:type
           rdf:resource="http://purl.org/dc/dcmitype/StillImage" />
        <dc:title></dc:title>
      </cc:Work>
    </rdf:RDF>
  </metadata>
  <g
     id="layer1"
     inkscape:groupmode="layer"
     inkscape:label="Layer 1">
    <ellipse
       ry="6.0409408"
       rx="3.0244288"
       cy="26.108047"
       cx="94.08094"
       id="path13"
       style="fill:#ffffff;stroke-width:0.242689" />
    <ellipse
       ry="9.8273811"
       rx="35.151787"
       cy="251.73215"
       cx="-231.6994"
       id="path21"
       style="fill:none;stroke-width:0.264583" />
    <ellipse
       ry="10.961308"
       rx="37.419643"
       cy="326.9494"
       cx="-281.59229"
       id="path23"
       style="fill:none;stroke-width:0.264583" />
    <ellipse
       ry="23.434523"
       rx="31.75"
       cy="260.80356"
       cx="-181.42857"
       id="path25"
       style="fill:none;stroke-width:0.264583" />
    <ellipse
       ry="37.041668"
       rx="55.5625"
       cy="257.0238"
       cx="-153.83632"
       id="path27"
       style="fill:none;stroke-width:0.264583" />
    <ellipse
       ry="21.166666"
       rx="358.32144"
       cy="123.97619"
       cx="-60.476189"
       id="path103"
       style="fill:none;stroke-width:0.264583" />
    <ellipse
       ry="23.845821"
       rx="1.1341608"
       cy="42.895515"
       cx="94.08094"
       id="path119"
       style="fill:none;stroke-width:0.242689" />
    <ellipse
       ry="77.10714"
       rx="2.2678571"
       cy="108.1012"
       cx="83.154762"
       id="path121"
       style="fill:none;stroke-width:0.264583" />
    <ellipse
       ry="118.68452"
       rx="3.0238097"
       cy="144.3869"
       cx="80.130951"
       id="path127"
       style="fill:none;stroke-width:0.264583" />
    <ellipse
       ry="128.5119"
       rx="18.142857"
       cy="158.75"
       cx="119.44047"
       id="path129"
       style="fill:none;stroke-width:0.264583" />
    <path
       inkscape:connector-curvature="0"
       d="M 94.081198,18.705705 A 53.464849,67.670985 0 0 0 40.61615,86.376602 53.464849,67.670985 0 0 0 50.837258,126.1698 H 137.32513 A 53.464849,67.670985 0 0 0 147.54573,86.376602 53.464849,67.670985 0 0 0 94.081198,18.705705 Z"
       style="fill:none;stroke:#000000;stroke-width:0.242689;stroke-opacity:1"
       id="path998" />
    <path
       transform="scale(0.26458333)"
       d="M 355.58203 70.699219 A 202.07187 255.76435 0 0 0 153.50977 326.46289 A 202.07187 255.76435 0 0 0 192.14062 476.86133 L 225.30078 476.86133 L 225.30078 363.68359 L 485.86133 363.68359 L 485.86133 476.86133 L 519.02344 476.86133 A 202.07187 255.76435 0 0 0 557.65234 326.46289 A 202.07187 255.76435 0 0 0 355.58203 70.699219 z "
       style="fill:#ffffff;stroke:#000000;stroke-width:0.91725;stroke-opacity:1"
       id="path1021" />
    <path
       sodipodi:nodetypes="caccac"
       inkscape:connector-curvature="0"
       d="m 95.322834,169.03808 c -29.521936,-1.6e-4 -41.876665,47.92076 -47.039632,77.77576 -3.052472,17.651 4.112055,38.9039 10.753554,52.65206 l 75.245074,0.53454 c 6.64133,-13.74824 12.156,-35.93436 8.61494,-53.72114 -5.90419,-29.65683 -18.05209,-77.24119 -47.573936,-77.24122 z"
       style="fill:none;stroke:#000000;stroke-width:0.264583;stroke-opacity:1"
       id="path1025" />
  </g>
</svg>
