<?xml version="1.0" encoding="UTF-8" standalone="no"?>
<svg
   xmlns:dc="http://purl.org/dc/elements/1.1/"
   xmlns:cc="http://creativecommons.org/ns#"
   xmlns:rdf="http://www.w3.org/1999/02/22-rdf-syntax-ns#"
   xmlns:svg="http://www.w3.org/2000/svg"
   xmlns="http://www.w3.org/2000/svg"
   xmlns:sodipodi="http://sodipodi.sourceforge.net/DTD/sodipodi-0.dtd"
   xmlns:inkscape="http://www.inkscape.org/namespaces/inkscape"
   sodipodi:docname="kokeshi.svg"
   inkscape:version="1.0beta2 (2b71d25, 2019-12-03)"
   id="svg1117"
   version="1.1"
   viewBox="0 0 210 297"
   height="297mm"
   width="210mm">
  <defs
     id="defs1111">
    <inkscape:path-effect
       end_linecap_type="zerowidth"
       scale_width="1"
       miter_limit="4"
       linejoin_type="extrp_arc"
       start_linecap_type="zerowidth"
       interpolator_beta="0.2"
       interpolator_type="CubicBezierJohan"
       sort_points="true"
       offset_points="0,0.1322915"
       lpeversion="1"
       is_visible="true"
       id="path-effect1273"
       effect="powerstroke" />
    <inkscape:path-effect
       end_linecap_type="zerowidth"
       scale_width="1"
       miter_limit="4"
       linejoin_type="extrp_arc"
       start_linecap_type="zerowidth"
       interpolator_beta="0.2"
       interpolator_type="CubicBezierJohan"
       sort_points="true"
       offset_points="0,0.1322915"
       lpeversion="1"
       is_visible="true"
       id="path-effect1243"
       effect="powerstroke" />
    <inkscape:path-effect
       end_linecap_type="zerowidth"
       scale_width="1"
       miter_limit="4"
       linejoin_type="extrp_arc"
       start_linecap_type="zerowidth"
       interpolator_beta="0.2"
       interpolator_type="CubicBezierJohan"
       sort_points="true"
       offset_points="0,0.1322915"
       lpeversion="1"
       is_visible="true"
       id="path-effect1239"
       effect="powerstroke" />
    <inkscape:path-effect
       end_linecap_type="zerowidth"
       scale_width="1"
       miter_limit="4"
       linejoin_type="extrp_arc"
       start_linecap_type="zerowidth"
       interpolator_beta="0.2"
       interpolator_type="CubicBezierJohan"
       sort_points="true"
       offset_points="0,0.1322915"
       lpeversion="1"
       is_visible="true"
       id="path-effect1235"
       effect="powerstroke" />
    <inkscape:path-effect
       end_linecap_type="zerowidth"
       scale_width="1"
       miter_limit="4"
       linejoin_type="extrp_arc"
       start_linecap_type="zerowidth"
       interpolator_beta="0.2"
       interpolator_type="CubicBezierJohan"
       sort_points="true"
       offset_points="0,0.1322915"
       lpeversion="1"
       is_visible="true"
       id="path-effect1231"
       effect="powerstroke" />
    <inkscape:path-effect
       end_linecap_type="zerowidth"
       scale_width="1"
       miter_limit="4"
       linejoin_type="extrp_arc"
       start_linecap_type="zerowidth"
       interpolator_beta="0.2"
       interpolator_type="CubicBezierJohan"
       sort_points="true"
       offset_points="0,0.1322915"
       lpeversion="1"
       is_visible="true"
       id="path-effect1227"
       effect="powerstroke" />
    <inkscape:path-effect
       end_linecap_type="zerowidth"
       scale_width="1"
       miter_limit="4"
       linejoin_type="extrp_arc"
       start_linecap_type="zerowidth"
       interpolator_beta="0.2"
       interpolator_type="CubicBezierJohan"
       sort_points="true"
       offset_points="0,0.1322915"
       lpeversion="1"
       is_visible="true"
       id="path-effect1223"
       effect="powerstroke" />
    <inkscape:path-effect
       end_linecap_type="zerowidth"
       scale_width="1"
       miter_limit="4"
       linejoin_type="extrp_arc"
       start_linecap_type="zerowidth"
       interpolator_beta="0.2"
       interpolator_type="CubicBezierJohan"
       sort_points="true"
       offset_points="0,0.1322915"
       lpeversion="1"
       is_visible="true"
       id="path-effect1219"
       effect="powerstroke" />
    <inkscape:path-effect
       end_linecap_type="zerowidth"
       scale_width="1"
       miter_limit="4"
       linejoin_type="extrp_arc"
       start_linecap_type="zerowidth"
       interpolator_beta="0.2"
       interpolator_type="CubicBezierJohan"
       sort_points="true"
       offset_points="0,0.1322915"
       lpeversion="1"
       is_visible="true"
       id="path-effect1215"
       effect="powerstroke" />
    <inkscape:path-effect
       end_linecap_type="zerowidth"
       scale_width="1"
       miter_limit="4"
       linejoin_type="extrp_arc"
       start_linecap_type="zerowidth"
       interpolator_beta="0.2"
       interpolator_type="CubicBezierJohan"
       sort_points="true"
       offset_points="0,0.1322915"
       lpeversion="1"
       is_visible="true"
       id="path-effect1211"
       effect="powerstroke" />
    <inkscape:path-effect
       end_linecap_type="zerowidth"
       scale_width="1"
       miter_limit="4"
       linejoin_type="extrp_arc"
       start_linecap_type="zerowidth"
       interpolator_beta="0.2"
       interpolator_type="CubicBezierJohan"
       sort_points="true"
       offset_points="0,0.1322915"
       lpeversion="1"
       is_visible="true"
       id="path-effect1207"
       effect="powerstroke" />
    <inkscape:path-effect
       end_linecap_type="zerowidth"
       scale_width="1"
       miter_limit="4"
       linejoin_type="extrp_arc"
       start_linecap_type="zerowidth"
       interpolator_beta="0.2"
       interpolator_type="CubicBezierJohan"
       sort_points="true"
       offset_points="0,0.1322915"
       lpeversion="1"
       is_visible="true"
       id="path-effect1203"
       effect="powerstroke" />
    <inkscape:path-effect
       end_linecap_type="zerowidth"
       scale_width="1"
       miter_limit="4"
       linejoin_type="extrp_arc"
       start_linecap_type="zerowidth"
       interpolator_beta="0.2"
       interpolator_type="CubicBezierJohan"
       sort_points="true"
       offset_points="0,0.1322915"
       lpeversion="1"
       is_visible="true"
       id="path-effect1199"
       effect="powerstroke" />
  </defs>
  <sodipodi:namedview
     inkscape:window-maximized="0"
     inkscape:window-y="23"
     inkscape:window-x="0"
     inkscape:window-height="829"
     inkscape:window-width="1440"
     showgrid="true"
     inkscape:document-rotation="0"
     inkscape:current-layer="layer1"
     inkscape:document-units="mm"
     inkscape:cy="329.50886"
     inkscape:cx="-46.149408"
     inkscape:zoom="1.2667699"
     inkscape:pageshadow="2"
     inkscape:pageopacity="0.0"
     borderopacity="1.0"
     bordercolor="#666666"
     pagecolor="#ffffff"
     id="base">
    <inkscape:grid
       id="grid1182"
       type="xygrid" />
  </sodipodi:namedview>
  <metadata
     id="metadata1114">
    <rdf:RDF>
      <cc:Work
         rdf:about="">
        <dc:format>image/svg+xml</dc:format>
        <dc:type
           rdf:resource="http://purl.org/dc/dcmitype/StillImage" />
        <dc:title></dc:title>
      </cc:Work>
    </rdf:RDF>
  </metadata>
  <g
     id="layer1"
     inkscape:groupmode="layer"
     inkscape:label="Layer 1">
    <path
       sodipodi:nodetypes="csccsc"
       id="path1180"
       style="fill:#ffffff;fill-opacity:1;stroke:#000000;stroke-width:0.390049;stroke-opacity:1"
       d="m 105.38145,142.875 c -20.770501,1.3e-4 -40.254081,37.9253 -40.254159,85.49293 -2.4e-5,14.8178 10.671578,30.59869 13.848689,43.50707 l 52.82479,0.11658 c 3.17711,-12.90838 13.83485,-28.80582 13.83483,-43.62362 -8e-5,-47.56763 -19.48365,-85.49283 -40.25415,-85.49296 z"
       inkscape:connector-curvature="0" />
    <ellipse
       ry="31.456743"
       rx="42.630787"
       cy="119.87463"
       cx="105.52562"
       id="path1195"
       style="fill:#ffffff;fill-opacity:1;stroke:#000000;stroke-width:0.285086;stroke-opacity:1" />
    <path
       inkscape:connector-curvature="0"
       d="m 105.83333,57.150001 a 42.479449,55.703895 0 0 0 -42.479574,55.703589 42.479449,55.703895 0 0 0 5.474084,27.35338 h 10.547159 v -21.14445 h 52.916661 v 21.14445 h 10.54716 a 42.479449,55.703895 0 0 0 5.47409,-27.35338 42.479449,55.703895 0 0 0 -42.47958,-55.703589 z"
       style="fill:#ffffff;fill-opacity:1;stroke:#000000;stroke-width:0.333375;stroke-opacity:1"
       id="path1173" />
    <circle
       r="7.9375"
       cy="92.604164"
       cx="-134.9375"
       id="path1267"
       style="fill:none;fill-opacity:1;stroke:#000000;stroke-width:0.264583;stroke-opacity:1" />
    <path
       inkscape:original-d="m -127,89.958332 c 21.16667,0 21.16667,-5.291666 21.16667,-5.291666 0,0 -21.16667,5.291666 -21.16667,0 0,-5.291667 0,5.291666 0,5.291666 z"
       inkscape:path-effect="#path-effect1273"
       inkscape:connector-curvature="0"
       id="path1271"
       d="m -127,90.090623 c 4.48248,0 8.71158,-0.23743 12.25873,-0.828622 2.78016,-0.46336 4.85185,-1.096468 6.32127,-1.831176 0.65362,-0.32681 1.16261,-0.661094 1.55515,-0.988214 0.37441,-0.312007 0.63351,-0.609703 0.81086,-0.875739 0.17091,-0.256367 0.26041,-0.475086 0.30652,-0.636486 0.0444,-0.15549 0.0464,-0.252566 0.0464,-0.26372 l 0,-0.169436 -0.16438,0.04109 c 0.001,-3.09e-4 -1.29318,0.32443 -3.30218,0.742972 -1.96799,0.409996 -4.61487,0.907149 -7.26547,1.238475 -1.32224,0.165279 -2.64092,0.28873 -3.87517,0.340157 -1.24106,0.05171 -2.38905,0.03027 -3.36806,-0.09211 -0.49242,-0.06155 -0.93964,-0.148342 -1.33329,-0.263155 -0.39636,-0.115606 -0.73534,-0.258739 -1.01079,-0.430892 -0.27726,-0.173286 -0.48771,-0.374418 -0.62924,-0.604399 -0.0713,-0.115771 -0.12554,-0.239652 -0.16213,-0.372314 -0.0368,-0.13336 -0.056,-0.276543 -0.056,-0.430392 l -0.26458,0 c 0,2.190869 0,4.15104 0,5.291666 z m 0.13229,-0.132291 c 0,-1.140626 0,-3.100797 0,-5.291666 l -0.26458,0 c 0,0.176049 0.022,0.343004 0.0655,0.500752 0.0433,0.157019 0.1077,0.303863 0.19185,0.440619 0.16701,0.271391 0.41029,0.500059 0.71435,0.690098 0.3014,0.188374 0.66425,0.34016 1.07694,0.460527 0.41034,0.119683 0.87191,0.208865 1.37455,0.271696 0.99869,0.124835 2.16249,0.145983 3.41189,0.09392 1.24352,-0.05181 2.56977,-0.176071 3.89697,-0.341971 2.66036,-0.332545 5.31487,-0.831212 7.28662,-1.241994 1.55397,-0.323744 2.68144,-0.591493 3.11579,-0.697009 -0.001,0.0047 -0.003,0.0095 -0.004,0.01439 -0.0386,0.134912 -0.11643,0.328663 -0.27226,0.562408 -0.16184,0.242758 -0.4032,0.52183 -0.7601,0.819246 -0.37442,0.312011 -0.86563,0.635586 -1.5041,0.954821 -1.43752,0.718761 -3.48119,1.345969 -6.24644,1.806844 -3.52718,0.587863 -7.74026,0.825023 -12.21523,0.825023 z"
       style="fill:#000000;fill-rule:nonzero;stroke:none;stroke-width:0.26458300000000001px;stroke-linecap:butt;stroke-linejoin:miter;stroke-opacity:1" />
    <path
       transform="scale(0.26458333)"
       inkscape:connector-curvature="0"
       id="path1275"
       d="m -479.21939,332.62663 c 0,-6.08472 0.12356,-6.22922 4.04983,-4.73645 6.75041,2.5665 32.22433,1.73155 51.15141,-1.67656 9.82401,-1.76897 18.65151,-2.94683 19.61666,-2.61746 2.50284,0.85412 -9.41504,6.67923 -19.60676,9.5832 -8.84453,2.52012 -35.86275,5.72347 -48.27374,5.72347 h -6.9374 z"
       style="fill:none;fill-opacity:1;stroke:#000000;stroke-width:1.57882;stroke-opacity:1" />
    <path
       transform="scale(0.26458333)"
       inkscape:connector-curvature="0"
       id="path1277"
       d="m -477.64057,333.87109 c 0,-3.90301 0.0509,-3.91604 12.47366,-3.1969 10.80967,0.62577 28.627,-0.72373 47.61571,-3.60643 l 5.43161,-0.82458 -5.52587,2.56498 c -7.04088,3.26822 -25.86057,6.5825 -45.0288,7.92989 l -14.96631,1.05203 z"
       style="fill:none;fill-opacity:1;stroke:#000000;stroke-width:1.57882;stroke-opacity:1" />
    <path
       transform="scale(0.26458333)"
       inkscape:connector-curvature="0"
       id="path1279"
       d="m -461.42763,331.49345 c 1.53614,-0.4003 3.66755,-0.37397 4.73646,0.0585 1.06891,0.43248 -0.18793,0.75999 -2.79298,0.72782 -2.60505,-0.0322 -3.47962,-0.38602 -1.94348,-0.78632 z"
       style="fill:none;fill-opacity:1;stroke:#000000;stroke-width:1.57882;stroke-opacity:1" />
    <path
       transform="scale(0.26458333)"
       inkscape:connector-curvature="0"
       id="path1281"
       d="m -460.56959,331.50904 c 1.13971,-0.45607 2.50144,-0.39998 3.02607,0.12465 0.52463,0.52462 -0.40786,0.89778 -2.0722,0.82922 -1.83924,-0.0758 -2.21335,-0.44987 -0.95387,-0.95387 z"
       style="fill:none;fill-opacity:1;stroke:#000000;stroke-width:1.57882;stroke-opacity:1" />
  </g>
</svg>
