<?xml version="1.0" encoding="UTF-8" standalone="no"?>
<svg
   xmlns:dc="http://purl.org/dc/elements/1.1/"
   xmlns:cc="http://creativecommons.org/ns#"
   xmlns:rdf="http://www.w3.org/1999/02/22-rdf-syntax-ns#"
   xmlns:svg="http://www.w3.org/2000/svg"
   xmlns="http://www.w3.org/2000/svg"
   xmlns:sodipodi="http://sodipodi.sourceforge.net/DTD/sodipodi-0.dtd"
   xmlns:inkscape="http://www.inkscape.org/namespaces/inkscape"
   width="210mm"
   height="297mm"
   viewBox="0 0 210 297"
   version="1.1"
   id="svg8"
   inkscape:version="1.0beta2 (2b71d25, 2019-12-03)"
   sodipodi:docname="my donut.svg">
  <defs
     id="defs2" />
  <sodipodi:namedview
     id="base"
     pagecolor="#ffffff"
     bordercolor="#666666"
     borderopacity="1.0"
     inkscape:pageopacity="0.0"
     inkscape:pageshadow="2"
     inkscape:zoom="1"
     inkscape:cx="285.45105"
     inkscape:cy="612.13103"
     inkscape:document-units="mm"
     inkscape:current-layer="layer1"
     inkscape:document-rotation="0"
     showgrid="false"
     inkscape:window-width="1440"
     inkscape:window-height="803"
     inkscape:window-x="0"
     inkscape:window-y="23"
     inkscape:window-maximized="0" />
  <metadata
     id="metadata5">
    <rdf:RDF>
      <cc:Work
         rdf:about="">
        <dc:format>image/svg+xml</dc:format>
        <dc:type
           rdf:resource="http://purl.org/dc/dcmitype/StillImage" />
        <dc:title></dc:title>
      </cc:Work>
    </rdf:RDF>
  </metadata>
  <g
     inkscape:label="Layer 1"
     inkscape:groupmode="layer"
     id="layer1">
    <path
       transform="scale(0.26458333)"
       d="M 252.07812 409 A 170.07874 170.07874 0 0 0 82 579.07812 A 170.07874 170.07874 0 0 0 252.07812 749.1582 A 170.07874 170.07874 0 0 0 422.1582 579.07812 A 170.07874 170.07874 0 0 0 252.07812 409 z M 251.66602 522.38672 A 56.692913 56.692913 0 0 1 252.07812 522.38672 A 56.692913 56.692913 0 0 1 308.77148 579.07812 A 56.692913 56.692913 0 0 1 252.07812 635.77148 A 56.692913 56.692913 0 0 1 195.38672 579.07812 A 56.692913 56.692913 0 0 1 251.66602 522.38672 z "
       style="opacity:0.511254;fill:#000000;fill-rule:evenodd;stroke-width:1.01844;stroke:none"
       id="path1621" />
    <path
       id="path1630"
       style="opacity:0.511254;fill:#ff0000;fill-rule:evenodd;stroke-width:1.01844;stroke:none"
       d="M 252.07812 409 A 170.07874 170.07874 0 0 0 82 579.07812 A 170.07874 170.07874 0 0 0 252.07812 749.1582 A 170.07874 170.07874 0 0 0 422.1582 579.07812 A 170.07874 170.07874 0 0 0 252.07812 409 z M 251.66602 522.38672 A 56.692913 56.692913 0 0 1 252.07812 522.38672 A 56.692913 56.692913 0 0 1 308.77148 579.07812 A 56.692913 56.692913 0 0 1 252.07812 635.77148 A 56.692913 56.692913 0 0 1 195.38672 579.07812 A 56.692913 56.692913 0 0 1 251.66602 522.38672 z "
       transform="scale(0.26458333)" />
  </g>
</svg>
