<?xml version="1.0" encoding="UTF-8" standalone="no"?>
<svg
   xmlns:dc="http://purl.org/dc/elements/1.1/"
   xmlns:cc="http://creativecommons.org/ns#"
   xmlns:rdf="http://www.w3.org/1999/02/22-rdf-syntax-ns#"
   xmlns:svg="http://www.w3.org/2000/svg"
   xmlns="http://www.w3.org/2000/svg"
   xmlns:sodipodi="http://sodipodi.sourceforge.net/DTD/sodipodi-0.dtd"
   xmlns:inkscape="http://www.inkscape.org/namespaces/inkscape"
   width="210mm"
   height="297mm"
   viewBox="0 0 210 297"
   version="1.1"
   id="svg8"
   sodipodi:docname="pencil.svg"
   inkscape:version="1.0beta2 (2b71d25, 2019-12-03)">
  <defs
     id="defs2" />
  <sodipodi:namedview
     id="base"
     pagecolor="#ffffff"
     bordercolor="#666666"
     borderopacity="1.0"
     inkscape:pageopacity="0.0"
     inkscape:pageshadow="2"
     inkscape:zoom="1"
     inkscape:cx="460.81565"
     inkscape:cy="469.49278"
     inkscape:document-units="mm"
     inkscape:current-layer="layer1"
     inkscape:document-rotation="0"
     showgrid="false"
     inkscape:window-width="1440"
     inkscape:window-height="829"
     inkscape:window-x="-13"
     inkscape:window-y="23"
     inkscape:window-maximized="0"
     showguides="false" />
  <metadata
     id="metadata5">
    <rdf:RDF>
      <cc:Work
         rdf:about="">
        <dc:format>image/svg+xml</dc:format>
        <dc:type
           rdf:resource="http://purl.org/dc/dcmitype/StillImage" />
      </cc:Work>
    </rdf:RDF>
  </metadata>
  <g
     inkscape:label="Layer 1"
     inkscape:groupmode="layer"
     id="layer1">
    <circle
       style="opacity:0.485531;fill:#ff0000;stroke-width:0.264583"
       id="circle849"
       cx="63.235413"
       cy="234.68542"
       r="24.606249" />
    <circle
       style="opacity:0.168403;fill:#ff0000;stroke-width:0.264583"
       id="path10"
       cx="141.81656"
       cy="157.95625"
       r="24.606249" />
    <circle
       r="24.606249"
       cy="157.95625"
       cx="141.81656"
       id="circle843"
       style="opacity:0.168403;fill:#ff0000;stroke-width:0.264583" />
    <circle
       style="opacity:0.168403;fill:#00ff00;stroke-width:0.0967293"
       id="circle847"
       cx="141.81656"
       cy="157.95625"
       r="8.9958324" />
    <circle
       r="24.606249"
       cy="157.95625"
       cx="141.81656"
       id="circle851"
       style="opacity:0.168403;fill:#ff0000;stroke-width:0.264583" />
    <circle
       style="opacity:0.168403;fill:#ff0000;stroke-width:0.264583"
       id="circle853"
       cx="141.81656"
       cy="157.95625"
       r="24.606249" />
    <circle
       r="8.9958324"
       cy="157.95625"
       cx="141.81656"
       id="circle855"
       style="opacity:0.168403;fill:#00ff00;stroke-width:0.0967293" />
    <circle
       style="opacity:0.168403;fill:#ff0000;stroke-width:0.264583"
       id="circle857"
       cx="141.81656"
       cy="157.95625"
       r="24.606249" />
    <circle
       r="24.606249"
       cy="157.95625"
       cx="141.81656"
       id="circle859"
       style="opacity:0.168403;fill:#ff0000;stroke-width:0.264583" />
    <circle
       style="opacity:0.168403;fill:#00ff00;stroke-width:0.0967293"
       id="circle861"
       cx="141.81656"
       cy="157.95625"
       r="8.9958324" />
    <circle
       r="24.606249"
       cy="157.95625"
       cx="141.81656"
       id="circle863"
       style="opacity:0.168403;fill:#ff0000;stroke-width:0.264583" />
    <circle
       style="opacity:0.0817648;fill:#ff0000;stroke-width:0.264583"
       id="circle865"
       cx="141.81656"
       cy="157.95625"
       r="24.606249" />
    <circle
       r="8.9958324"
       cy="157.95625"
       cx="141.81656"
       id="circle867"
       style="opacity:0.168403;fill:#00ff00;stroke-width:0.0967293" />
    <rect
       style="opacity:0.403222;fill:#0000ff;stroke-width:0.264583"
       id="rect871"
       width="47.095833"
       height="47.095833"
       x="-38.300949"
       y="212.09613"
       transform="matrix(-0.71578195,0.69832385,0.69832385,0.71578195,0,0)" />
    <rect
       y="212.09613"
       x="-38.300949"
       height="47.095833"
       width="47.095833"
       id="rect875"
       style="opacity:0.403222;fill:#0000ff;stroke-width:0.264583"
       transform="matrix(-0.71578195,0.69832385,0.69832385,0.71578195,0,0)" />
    <rect
       y="212.09613"
       x="-38.300949"
       height="47.095833"
       width="47.095833"
       id="rect899"
       style="opacity:0.403222;fill:#000000;stroke-width:0.264583"
       transform="matrix(-0.71578195,0.69832385,0.69832385,0.71578195,0,0)" />
    <rect
       style="opacity:0.403222;fill:#000000;stroke-width:0.264583"
       id="rect901"
       width="47.095833"
       height="47.095833"
       x="8.7948818"
       y="212.09613"
       transform="matrix(-0.71578195,0.69832385,0.69832385,0.71578195,0,0)" />
    <rect
       y="165.00029"
       x="-55.890717"
       height="47.095833"
       width="47.095833"
       id="rect909"
       style="opacity:0.403222;fill:#0000ff;stroke-width:0.264583"
       transform="rotate(-44.29268)" />
    <rect
       style="opacity:0.403222;fill:#0000ff;stroke-width:0.264583"
       id="rect911"
       width="47.095833"
       height="47.095833"
       x="-55.890717"
       y="165.00029"
       transform="rotate(-44.29268)" />
    <rect
       style="opacity:0.403222;fill:#000000;stroke-width:0.264583"
       id="rect913"
       width="47.095833"
       height="47.095833"
       x="-55.890717"
       y="165.00029"
       transform="rotate(-44.29268)" />
    <path
       transform="scale(0.26458333)"
       d="M 535.88281 504 A 92.999996 92.999996 0 0 0 471.05664 530.43359 L 536 597 L 602.56641 532.05664 A 92.999996 92.999996 0 0 0 536 504 A 92.999996 92.999996 0 0 0 535.88281 504 z "
       style="opacity:0.403222;fill:#000000;stroke-width:0.999999"
       id="rect915" />
    <circle
       r="24.606249"
       cy="157.95625"
       cx="141.81656"
       id="circle1085"
       style="opacity:0.168403;fill:#ff0000;stroke-width:0.264583" />
    <circle
       style="opacity:0.168403;fill:#ff0000;stroke-width:0.264583"
       id="circle1087"
       cx="141.81656"
       cy="157.95625"
       r="24.606249" />
    <circle
       r="8.9958324"
       cy="157.95625"
       cx="141.81656"
       id="circle1089"
       style="opacity:0.168403;fill:#00ff00;stroke-width:0.0967293" />
    <circle
       style="opacity:0.168403;fill:#ff0000;stroke-width:0.264583"
       id="circle1091"
       cx="141.81656"
       cy="157.95625"
       r="24.606249" />
    <circle
       r="24.606249"
       cy="157.95625"
       cx="141.81656"
       id="circle1093"
       style="opacity:0.168403;fill:#ff0000;stroke-width:0.264583" />
    <circle
       style="opacity:0.168403;fill:#00ff00;stroke-width:0.0967293"
       id="circle1095"
       cx="141.81656"
       cy="157.95625"
       r="8.9958324" />
    <circle
       r="24.606249"
       cy="157.95625"
       cx="141.81656"
       id="circle1097"
       style="opacity:0.168403;fill:#ff0000;stroke-width:0.264583" />
    <path
       transform="scale(0.26458333)"
       d="M 602.56641 532.05664 L 536 597 L 600.94336 663.56836 A 92.999996 92.999996 0 0 0 629 597 A 92.999996 92.999996 0 0 0 602.56641 532.05664 z "
       style="opacity:0.168403;fill:#ff0000;stroke-width:0.999999"
       id="circle1099" />
    <circle
       r="8.9958324"
       cy="157.95625"
       cx="141.81656"
       id="circle1101"
       style="opacity:0.168403;fill:#00ff00;stroke-width:0.0967293" />
    <circle
       style="opacity:0;fill:#ff0000;stroke-width:0.264583"
       id="circle1103"
       cx="141.81656"
       cy="157.95625"
       r="24.606249" />
    <path
       transform="scale(0.26458333)"
       d="M 536 563 A 33.999996 33.999996 0 0 0 512.25781 572.66406 L 536 597 L 560.33594 573.25781 A 33.999996 33.999996 0 0 0 536 563 z "
       style="opacity:0.168403;fill:#00ff00;stroke-width:0.365591"
       id="circle1107" />
    <rect
       transform="matrix(-0.71578195,0.69832385,0.69832385,0.71578195,0,0)"
       y="212.09613"
       x="-38.300949"
       height="47.095833"
       width="47.095833"
       id="rect1109"
       style="opacity:0.403222;fill:#0000ff;stroke-width:0.264583" />
    <rect
       transform="matrix(-0.71578195,0.69832385,0.69832385,0.71578195,0,0)"
       style="opacity:0.403222;fill:#0000ff;stroke-width:0.264583"
       id="rect1111"
       width="47.095833"
       height="47.095833"
       x="-38.300949"
       y="212.09613" />
    <rect
       transform="matrix(-0.71578195,0.69832385,0.69832385,0.71578195,0,0)"
       y="212.09613"
       x="8.7948818"
       height="47.095833"
       width="47.095833"
       id="rect1115"
       style="opacity:0.403222;fill:#000000;stroke-width:0.264583" />
    <rect
       transform="rotate(-44.29268)"
       style="opacity:0.403222;fill:#0000ff;stroke-width:0.264583"
       id="rect1117"
       width="47.095833"
       height="47.095833"
       x="-55.890717"
       y="165.00029" />
    <rect
       transform="rotate(-44.29268)"
       y="165.00029"
       x="-55.890717"
       height="47.095833"
       width="47.095833"
       id="rect1119"
       style="opacity:0.403222;fill:#0000ff;stroke-width:0.264583" />
    <rect
       transform="rotate(-44.29268)"
       y="165.00029"
       x="-55.890717"
       height="47.095833"
       width="47.095833"
       id="rect1121"
       style="opacity:0.403222;fill:#000000;stroke-width:0.264583" />
  </g>
</svg>
