<?xml version="1.0" encoding="UTF-8" standalone="no"?>
<svg
   xmlns:dc="http://purl.org/dc/elements/1.1/"
   xmlns:cc="http://creativecommons.org/ns#"
   xmlns:rdf="http://www.w3.org/1999/02/22-rdf-syntax-ns#"
   xmlns:svg="http://www.w3.org/2000/svg"
   xmlns="http://www.w3.org/2000/svg"
   xmlns:sodipodi="http://sodipodi.sourceforge.net/DTD/sodipodi-0.dtd"
   xmlns:inkscape="http://www.inkscape.org/namespaces/inkscape"
   width="210mm"
   height="297mm"
   viewBox="0 0 210 297"
   version="1.1"
   id="svg1178"
   sodipodi:docname="person.svg"
   inkscape:version="1.0beta2 (2b71d25, 2019-12-03)">
  <style
     id="style2023" />
  <defs
     id="defs1172">
    <inkscape:path-effect
       lpeversion="0"
       effect="bspline"
       id="path-effect2959"
       is_visible="true"
       weight="33.333333"
       steps="2"
       helper_size="0"
       apply_no_weight="true"
       apply_with_weight="true"
       only_selected="false" />
    <inkscape:path-effect
       lpeversion="0"
       effect="bspline"
       id="path-effect2929"
       is_visible="true"
       weight="33.333333"
       steps="2"
       helper_size="0"
       apply_no_weight="true"
       apply_with_weight="true"
       only_selected="false" />
    <inkscape:path-effect
       only_selected="false"
       apply_with_weight="true"
       apply_no_weight="true"
       helper_size="0"
       steps="2"
       weight="33.333333"
       is_visible="true"
       id="path-effect902"
       effect="bspline"
       lpeversion="0" />
    <inkscape:path-effect
       effect="bspline"
       id="path-effect910"
       is_visible="true"
       weight="33.333333"
       steps="2"
       helper_size="0"
       apply_no_weight="true"
       apply_with_weight="true"
       only_selected="false"
       lpeversion="0" />
    <inkscape:path-effect
       effect="bspline"
       id="path-effect910-7"
       is_visible="true"
       weight="33.333333"
       steps="2"
       helper_size="0"
       apply_no_weight="true"
       apply_with_weight="true"
       only_selected="false"
       lpeversion="0" />
    <inkscape:path-effect
       only_selected="false"
       apply_with_weight="true"
       apply_no_weight="true"
       helper_size="0"
       steps="2"
       weight="33.333333"
       is_visible="true"
       id="path-effect916"
       effect="bspline"
       lpeversion="0" />
    <inkscape:path-effect
       only_selected="false"
       apply_with_weight="true"
       apply_no_weight="true"
       helper_size="0"
       steps="2"
       weight="33.333333"
       is_visible="true"
       id="path-effect908"
       effect="bspline"
       lpeversion="0" />
    <inkscape:path-effect
       only_selected="false"
       apply_with_weight="true"
       apply_no_weight="true"
       helper_size="0"
       steps="2"
       weight="33.333333"
       is_visible="true"
       id="path-effect908-4"
       effect="bspline"
       lpeversion="0" />
    <inkscape:path-effect
       only_selected="false"
       apply_with_weight="true"
       apply_no_weight="true"
       helper_size="0"
       steps="2"
       weight="33.333333"
       is_visible="true"
       id="path-effect916-6"
       effect="bspline"
       lpeversion="0" />
    <inkscape:path-effect
       only_selected="false"
       apply_with_weight="true"
       apply_no_weight="true"
       helper_size="0"
       steps="2"
       weight="33.333333"
       is_visible="true"
       id="path-effect916-1"
       effect="bspline"
       lpeversion="0" />
    <inkscape:path-effect
       only_selected="false"
       apply_with_weight="true"
       apply_no_weight="true"
       helper_size="0"
       steps="2"
       weight="33.333333"
       is_visible="true"
       id="path-effect916-8"
       effect="bspline"
       lpeversion="0" />
    <inkscape:path-effect
       lpeversion="0"
       only_selected="false"
       apply_with_weight="true"
       apply_no_weight="true"
       helper_size="0"
       steps="2"
       weight="33.333333"
       is_visible="true"
       id="path-effect940"
       effect="bspline" />
    <inkscape:path-effect
       only_selected="false"
       apply_with_weight="true"
       apply_no_weight="true"
       helper_size="0"
       steps="2"
       weight="33.333333"
       is_visible="true"
       id="path-effect1142"
       effect="bspline"
       lpeversion="0" />
  </defs>
  <sodipodi:namedview
     id="base"
     pagecolor="#ffffff"
     bordercolor="#666666"
     borderopacity="1.0"
     inkscape:pageopacity="0.0"
     inkscape:pageshadow="2"
     inkscape:zoom="0.5"
     inkscape:cx="396.85039"
     inkscape:cy="561.25984"
     inkscape:document-units="mm"
     inkscape:current-layer="layer1"
     inkscape:document-rotation="0"
     showgrid="false"
     inkscape:window-width="1440"
     inkscape:window-height="803"
     inkscape:window-x="0"
     inkscape:window-y="23"
     inkscape:window-maximized="0" />
  <metadata
     id="metadata1175">
    <rdf:RDF>
      <cc:Work
         rdf:about="">
        <dc:format>image/svg+xml</dc:format>
        <dc:type
           rdf:resource="http://purl.org/dc/dcmitype/StillImage" />
      </cc:Work>
    </rdf:RDF>
  </metadata>
  <g
     inkscape:label="Layer 1"
     inkscape:groupmode="layer"
     id="layer1">
    <path
       style="opacity:0.920988;fill:#53676c;fill-opacity:1"
       d=""
       id="path2282"
       inkscape:connector-curvature="0"
       transform="scale(0.26458333)" />
    <ellipse
       ry="11.509375"
       rx="14.552083"
       cy="119.19479"
       cx="-64.293747"
       id="path219"
       style="fill:#000000;fill-opacity:0;stroke:none;stroke-width:0.264583" />
    <ellipse
       style="fill:#000000;fill-opacity:0;stroke-width:0.264583"
       id="path275"
       cx="-33.469791"
       cy="114.3"
       rx="0.92604166"
       ry="1.5875" />
    <g
       id="g531"
       transform="matrix(1.2423955,0,0,1.2423955,-1.9109789,-30.227338)">
      <path
         id="path947"
         style="fill:#c87137;fill-opacity:1;stroke:none;stroke-width:0.424151;stroke-linecap:butt;stroke-linejoin:miter;stroke-miterlimit:4;stroke-dasharray:none;stroke-opacity:1"
         d="m 132.96042,76.6567 c -0.40207,-0.01274 -0.80338,0.08245 -1.18228,0.318738 -1.51558,0.945036 -2.6735,4.14207 -3.19238,5.774858 -0.51878,1.632846 -0.39727,1.698104 -0.87669,1.2092 -0.47946,-0.488922 -1.55992,-1.531959 -2.46161,-1.739596 -0.90168,-0.207635 -1.62493,0.41919 -1.25429,1.551108 0.37065,1.131927 1.8359,2.768823 3.11036,4.031505 0.1742,0.172527 0.34411,0.33699 0.5116,0.495327 -0.37305,0.562147 -0.70488,1.919621 -1.32943,4.987717 -1.10839,5.444928 -3.13934,16.281263 -4.27571,21.631613 -0.90887,4.2793 -1.2477,5.05244 -2.34264,4.77982 -0.27403,-0.0682 -0.59452,-0.20116 -0.98439,-0.36195 -1.84888,-0.76274 -5.22907,-2.13476 -8.18888,-3.66768 l -0.7934,0.36131 c -0.88488,4.02692 -1.24632,6.90289 -1.38704,8.78315 3.6953,0.89144 9.19253,2.11982 12.58859,2.71335 3.91877,0.68492 4.87656,0.49418 5.67279,0.0225 0.0619,-0.0366 0.12257,-0.0769 0.18284,-0.11961 0.71484,-0.50468 1.33632,-1.59604 2.39336,-7.4249 1.14623,-6.3203 2.80379,-18.20503 3.69774,-24.272311 0.37711,-2.559936 0.61695,-4.075677 0.69633,-5.008386 0.22592,-0.04072 0.33924,-0.240333 0.67505,-1.07707 0.4764,-1.187015 1.40046,-3.654087 1.94499,-5.700341 0.5445,-2.046258 0.70939,-3.672192 -0.14465,-5.13926 -0.42703,-0.733526 -1.10856,-1.427296 -1.87297,-1.81975 v 6.29e-4 c -0.38222,-0.19625 -0.78521,-0.317277 -1.18729,-0.330011 z"
         inkscape:connector-curvature="0" />
      <path
         style="fill:#103c22;fill-opacity:1;stroke:none;stroke-width:1.32292;stroke-linecap:butt;stroke-linejoin:miter;stroke-miterlimit:4;stroke-dasharray:none;stroke-opacity:1"
         d="m 49.115909,145.15696 c 13.518983,1.65306 25.161641,3.80421 30.876914,5.49563 5.715273,1.69143 5.50343,2.92345 5.231702,9.92857 -0.271728,7.00513 -0.603218,19.77942 -2.53926,26.04975 -1.936041,6.27033 -5.476839,6.03456 -16.100195,5.32717 -10.623356,-0.70738 -28.325857,-1.88615 -43.655713,-1.68682 -15.3298551,0.19933 -28.2849353,1.77689 -30.9097443,-6.17329 -2.6248087,-7.95017 5.0807039,-25.42696 16.6312401,-33.58799 11.5505362,-8.16103 26.9460732,-7.00607 40.4650562,-5.35302 z"
         id="path938"
         inkscape:connector-curvature="0"
         inkscape:original-d="m 50.991922,144.65882 c 11.643006,2.15101 23.285663,4.30216 34.927971,6.45344 -0.211482,1.23181 -0.423322,2.46383 -0.635507,3.69594 -0.331246,12.7781 -0.662732,25.55239 -0.994625,38.3288 -3.540526,-0.23592 -7.081324,-0.47169 -10.622511,-0.70733 -17.705526,-1.17913 -35.408027,-2.3579 -53.112559,-3.53665 -12.9552003,1.57748 -25.9102803,3.15504 -38.86593,4.73276 7.70628,-17.47788 15.4117997,-34.95466 23.1171697,-52.43178 15.3954703,1.15479 30.7910073,2.30975 46.1859913,3.46482 z"
         inkscape:path-effect="#path-effect940"
         transform="matrix(0.31710387,0.04733067,-0.04733067,0.31710387,91.512844,62.098285)" />
      <path
         inkscape:connector-curvature="0"
         d="m 46.023515,121.32144 c -0.633323,0.82957 -0.701952,1.68826 -1.754624,5.33338 -1.151288,3.98662 -3.487848,11.30669 -4.467343,15.24181 -0.979481,3.93512 -0.601371,4.48511 3.299471,8.59216 3.481198,3.66523 9.491481,9.87769 13.502846,14.03011 0.483539,0.50053 1.209597,1.25242 1.618115,1.67572 0.153385,0.15893 0.219481,0.22253 0.361318,0.36946 0.03357,-0.0359 0.0665,-0.0656 0.10019,-0.10204 0.245227,-0.26597 0.492346,-0.54951 0.737669,-0.84913 0.245349,-0.2996 0.489278,-0.6151 0.726399,-0.94494 0.237118,-0.32984 0.467594,-0.67403 0.688197,-1.03073 0.220594,-0.35669 0.431092,-0.72575 0.626832,-1.10588 0.195739,-0.38014 0.376589,-0.77144 0.539162,-1.17162 0.16754,-0.41241 0.315617,-0.83436 0.445229,-1.26369 0.07804,-0.25857 0.136913,-0.52384 0.202265,-0.78714 -1.778214,-1.87988 -3.935332,-4.15902 -6.173121,-6.55824 -1.576469,-1.69016 -3.092275,-3.33009 -4.198703,-4.58193 -3.007151,-3.40242 -3.213192,-4.12392 -2.422785,-7.11369 0.790406,-2.98979 2.577499,-8.24885 4.0553,-11.96051 1.280666,-3.21656 2.335152,-5.29109 3.486707,-7.64971 l -0.738923,-0.0563 H 46.077367 Z"
         style="fill:#c87137;fill-opacity:1;stroke:none;stroke-width:0.424151;stroke-linecap:butt;stroke-linejoin:miter;stroke-miterlimit:4;stroke-dasharray:none;stroke-opacity:1"
         id="path939" />
      <path
         style="fill:#103c22;fill-opacity:1;stroke:none;stroke-width:1.32292;stroke-linecap:butt;stroke-linejoin:miter;stroke-miterlimit:4;stroke-dasharray:none;stroke-opacity:1"
         d="m -94.087048,147.14261 c -4.850919,1.44004 -10.156642,4.32029 -15.007842,16.14502 -4.85121,11.82473 -9.24712,32.5916 -11.59683,42.82421 -2.34971,10.23261 -2.65289,9.92943 -0.37892,10.46003 2.27397,0.5306 7.12492,1.89493 12.80956,2.12229 5.68464,0.22736 12.203342,-0.68223 24.936651,-6.51835 12.733309,-5.83611 31.683169,-16.59963 33.199079,-28.4994 1.515911,-11.89977 -14.401517,-24.9369 -24.558068,-31.45537 -10.156551,-6.51847 -14.552711,-6.51847 -19.40363,-5.07843 z"
         id="path914"
         inkscape:connector-curvature="0"
         inkscape:original-d="m -93.632569,145.70257 c -5.30545,2.87998 -10.611171,5.76023 -15.917161,8.64075 -4.39617,20.76908 -8.79207,41.53595 -13.18851,62.30432 -0.30292,-0.30345 -0.6061,-0.60663 -0.90955,-0.90955 4.85121,1.36407 9.70216,2.72839 14.55284,4.09299 6.51848,-0.90979 13.037181,-1.81937 19.555371,-2.72866 18.94841,-10.76281 37.89827,-21.52633 56.84701,-32.2891 -15.91663,-13.03697 -31.83406,-26.0741 -47.75149,-39.11075 -4.39591,-2.6e-4 -8.79207,-2.6e-4 -13.18851,0 z"
         inkscape:path-effect="#path-effect916-6"
         transform="matrix(0.32061668,0,0,0.32061668,81.734472,63.516364)" />
      <path
         inkscape:connector-curvature="0"
         id="path2276"
         d="m 55.290619,199.31423 c -0.348039,-21.58764 -0.573313,-39.34877 -0.500613,-39.46917 0.07266,-0.12033 1.16861,0.25703 2.435366,0.83875 6.486342,2.97861 16.456138,4.19924 24.155977,2.95745 3.527208,-0.56884 10.639767,-2.63021 13.268858,-3.8456 0.729062,-0.33702 0.731378,-0.28936 0.960707,19.7494 0.126371,11.048 0.330742,28.84699 0.454045,39.55332 l 0.224156,19.46609 h -7.19267 c -3.955978,0 -7.192685,-0.10009 -7.192685,-0.22218 0,-0.12224 -1.505813,-11.60718 -3.346238,-25.52219 -1.84044,-13.91501 -3.355455,-26.02098 -3.366696,-26.90216 -0.01054,-0.88117 -0.181075,-1.51347 -0.377392,-1.40509 -0.276522,0.15263 -3.300392,29.74339 -5.243557,51.31196 l -0.246824,2.73966 h -6.699812 -6.69981 z"
         style="opacity:0.920988;fill:#53676c;fill-opacity:1;stroke:#53676c;stroke-width:0.448192;stroke-opacity:1" />
      <path
         inkscape:connector-curvature="0"
         id="path2280"
         d="m 60.851671,239.20571 c 1.816854,-0.0573 4.702404,-0.0571 6.412333,6.4e-4 1.709926,0.0576 0.223406,0.10433 -3.303377,0.10409 -3.526784,-2.8e-4 -4.925814,-0.0474 -3.108956,-0.10458 z"
         style="opacity:0.920988;fill:#53676c;fill-opacity:1;stroke-width:0.320616" />
      <path
         transform="matrix(0.32061668,0,0,0.32061668,82.696441,67.817496)"
         style="fill:#1a1a1a;stroke:none;stroke-width:1.32292;stroke-linecap:butt;stroke-linejoin:miter;stroke-miterlimit:4;stroke-dasharray:none;stroke-opacity:1"
         d="m -78.133615,551.20939 c -9.593669,1.44698 -11.737497,3.37643 -14.739099,4.77007 -3.001602,1.39363 -6.86001,2.25105 -10.397466,3.10861 -3.53745,0.85756 -6.75295,1.71502 -8.30738,3.75174 -1.55444,2.03671 -1.44726,5.25217 -1.28649,7.18169 0.16078,1.92952 0.37514,2.57262 6.64754,2.89427 6.272401,0.32165 18.596411,0.32165 29.208301,0.32165 10.61189,0 19.509,0 24.010995,-0.10734 4.501996,-0.10734 4.60919,-0.32174 4.823304,-0.96409 0.214114,-0.64235 0.536172,-1.71587 1.07195,-1.60874 0.535779,0.10712 1.28634,1.39379 1.768888,1.98331 0.482548,0.58951 0.69692,0.48232 3.265857,0.21473 2.568936,-0.2676 7.507058,-0.697 10.133134,-0.80416 2.626075,-0.10717 2.947663,0.10722 2.143858,-3.64386 -0.803805,-3.75109 -2.733621,-11.47036 -3.698323,-15.54369 -0.964703,-4.07333 -0.964703,-4.50208 -9.481051,-4.23428 -8.516349,0.26779 -25.570348,1.23311 -35.164018,2.68009 z"
         id="path900"
         inkscape:connector-curvature="0"
         inkscape:original-d="m -85.583719,550.72715 c -2.14357,1.92921 -4.2874,3.85866 -6.4315,5.78837 -3.85914,0.85738 -7.71755,1.71479 -11.576711,2.57259 -3.21575,0.85733 -6.43124,1.71482 -9.64726,2.5726 0.10746,3.2158 0.21465,6.43126 0.32157,9.64727 0.21467,0.64293 0.42903,1.28603 0.64315,1.92944 12.330361,0 24.654371,0 36.981161,0 8.89699,0 17.7941,0 26.69075,0 0.10745,-0.21463 0.21465,-0.42902 0.32157,-0.64315 0.32137,-1.07058 0.64342,-2.1441 0.96473,-3.21574 0.75039,1.28566 1.50095,2.57233 2.25103,3.85889 0.21466,-0.10744 0.42903,-0.21463 0.64315,-0.32157 4.92378,-0.42839 9.8619,-0.85781 14.79246,-1.2863 0.32182,0.2141 0.64341,0.42849 0.96472,0.64315 -1.92882,-7.7166 -3.85863,-15.43587 -5.78835,-23.15342 2.7e-4,-0.42903 2.7e-4,-0.85778 0,-1.2863 -17.03271,0.96388 -34.08671,1.92918 -51.13047,2.89417 z"
         inkscape:path-effect="#path-effect902" />
      <rect
         style="fill:#374548;fill-opacity:1;fill-rule:nonzero;stroke:none;stroke-width:0.424151;stroke-miterlimit:4;stroke-dasharray:none;stroke-opacity:1"
         id="rect848"
         width="19.589457"
         height="5.9799395"
         x="52.85183"
         y="238.56448"
         rx="1.6030834" />
      <rect
         style="fill:#374548;fill-opacity:1;fill-rule:nonzero;stroke:none;stroke-width:0.424151;stroke-miterlimit:4;stroke-dasharray:none;stroke-opacity:1"
         id="rect848-1"
         width="19.589457"
         height="5.9799395"
         x="80.009361"
         y="238.56448"
         rx="1.6030834" />
      <path
         inkscape:path-effect="#path-effect2959"
         inkscape:original-d="m -85.583719,550.72715 c -2.14357,1.92921 -4.2874,3.85866 -6.4315,5.78837 -3.85914,0.85738 -7.71755,1.71479 -11.576711,2.57259 -3.21575,0.85733 -6.43124,1.71482 -9.64726,2.5726 0.10746,3.2158 0.21465,6.43126 0.32157,9.64727 0.21467,0.64293 0.42903,1.28603 0.64315,1.92944 12.330361,0 24.654371,0 36.981161,0 8.89699,0 17.7941,0 26.69075,0 0.10745,-0.21463 0.21465,-0.42902 0.32157,-0.64315 0.32137,-1.07058 0.64342,-2.1441 0.96473,-3.21574 0.75039,1.28566 1.50095,2.57233 2.25103,3.85889 0.21466,-0.10744 0.42903,-0.21463 0.64315,-0.32157 4.92378,-0.42839 9.8619,-0.85781 14.79246,-1.2863 0.32182,0.2141 0.64341,0.42849 0.96472,0.64315 -1.92882,-7.7166 -3.85863,-15.43587 -5.78835,-23.15342 2.7e-4,-0.42903 2.7e-4,-0.85778 0,-1.2863 -17.03271,0.96388 -34.08671,1.92918 -51.13047,2.89417 z"
         inkscape:connector-curvature="0"
         id="path2957"
         d="m -78.133615,551.20939 c -9.593669,1.44698 -11.737497,3.37643 -14.739099,4.77007 -3.001602,1.39363 -6.86001,2.25105 -10.397466,3.10861 -3.53745,0.85756 -6.75295,1.71502 -8.30738,3.75174 -1.55444,2.03671 -1.44726,5.25217 -1.28649,7.18169 0.16078,1.92952 0.37514,2.57262 6.64754,2.89427 6.272401,0.32165 18.596411,0.32165 29.208301,0.32165 10.61189,0 19.509,0 24.010995,-0.10734 4.501996,-0.10734 4.60919,-0.32174 4.823304,-0.96409 0.214114,-0.64235 0.536172,-1.71587 1.07195,-1.60874 0.535779,0.10712 1.28634,1.39379 1.768888,1.98331 0.482548,0.58951 0.69692,0.48232 3.265857,0.21473 2.568936,-0.2676 7.507058,-0.697 10.133134,-0.80416 2.626075,-0.10717 2.947663,0.10722 2.143858,-3.64386 -0.803805,-3.75109 -2.733621,-11.47036 -3.698323,-15.54369 -0.964703,-4.07333 -0.964703,-4.50208 -9.481051,-4.23428 -8.516349,0.26779 -25.570348,1.23311 -35.164018,2.68009 z"
         style="fill:#1a1a1a;stroke:none;stroke-width:1.32292;stroke-linecap:butt;stroke-linejoin:miter;stroke-miterlimit:4;stroke-dasharray:none;stroke-opacity:1"
         transform="matrix(-0.32040154,0.01174343,0.01174343,0.32040154,63.183198,68.774017)" />
      <path
         inkscape:connector-curvature="0"
         id="path3047"
         d="m 95.096341,160.8386 c -0.388726,2.23393 -7.053568,2.30156 -7.053568,2.56494 0,1.85869 -0.632858,3.87252 0,5.7711 0.461781,1.38534 5.377492,7.44717 7.374184,5.45049 1.334429,-1.33444 0.68601,-11.77327 -0.320616,-13.78653 z"
         style="fill:#453748;stroke:none;stroke-width:0.320616px;stroke-linecap:butt;stroke-linejoin:miter;stroke-opacity:1" />
      <path
         inkscape:connector-curvature="0"
         id="path3232"
         d="m 69.541464,104.97179 8.355741,-0.0229 -1.030574,-4.5094 h -6.289313 z"
         style="fill:none;stroke:none;stroke-width:0.320616px;stroke-linecap:butt;stroke-linejoin:miter;stroke-opacity:1" />
      <path
         style="fill:#16502d;fill-opacity:1;stroke:none;stroke-width:0.424151;stroke-linecap:butt;stroke-linejoin:miter;stroke-miterlimit:4;stroke-dasharray:none;stroke-opacity:1"
         d="m 75.331326,100.11582 c -0.04617,-0.007 -0.09173,0.0118 -0.136846,0.0504 -0.481125,0.41235 -0.893639,3.09321 -1.649717,4.39922 -0.756066,1.30601 -1.855816,1.23726 -4.98325,1.75276 -3.127433,0.5155 -8.28255,1.61523 -11.306885,2.44003 -3.024347,0.82481 -3.917865,1.37466 -4.63963,2.16515 -0.721772,0.79049 -1.271477,1.82146 -1.030883,10.20791 0.240592,8.38645 1.271479,24.12523 2.06193,32.40781 0.790444,8.2826 1.340362,9.10731 4.021133,9.72595 2.68076,0.61863 7.491985,1.03109 10.963092,1.16856 2.92898,0.11596 4.863004,0.0371 6.172369,-0.032 0.21005,0.13925 0.459834,0.15325 0.757338,0.16933 1.271581,0.0687 3.402434,0.20623 6.873529,0.0687 3.471106,-0.13747 8.282501,-0.54976 10.963273,-1.1684 2.680759,-0.61864 3.230677,-1.44351 4.021121,-9.72611 0.790456,-8.28258 1.821341,-24.02136 2.06194,-32.40781 0.240586,-8.38643 -0.309283,-9.41724 -1.031055,-10.20774 -0.721773,-0.79049 -1.615278,-1.34033 -4.639626,-2.16514 -3.024347,-0.82481 -8.179463,-1.9247 -11.306885,-2.4402 -3.127433,-0.5155 -4.227184,-0.44675 -4.983262,-1.75276 -0.756077,-1.30602 -1.168422,-3.98671 -1.649547,-4.39906 -0.09306,-0.0797 -0.188613,-0.073 -0.285301,0.0671 -0.08495,-0.21262 -0.169674,-0.31125 -0.252838,-0.32375 z"
         id="path1044-1"
         inkscape:connector-curvature="0" />
      <path
         style="fill:#c87137;fill-opacity:1;fill-rule:nonzero;stroke:none;stroke-width:0.424151;stroke-miterlimit:4;stroke-dasharray:none;stroke-opacity:1"
         d="m 72.393449,100.00694 -1.696601,7.42344 h 0.05647 a 4.8689709,3.2487724 0 0 0 -0.09028,0.61568 4.8689709,3.2487724 0 0 0 4.86893,3.24875 4.8689709,3.2487724 0 0 0 4.86893,-3.24875 4.8689709,3.2487724 0 0 0 -0.09209,-0.61568 h 0.07053 l -1.696589,-7.42344 z"
         id="rect980-7"
         inkscape:connector-curvature="0" />
      <path
         id="path1020"
         d="m 72.389953,100.00694 -1.035854,4.53226 c 0.941214,0.21072 1.922658,0.32242 2.932265,0.32242 h 2.393628 c 1.04459,0 2.058947,-0.12021 3.029849,-0.34527 l -1.030546,-4.50941 z"
         style="opacity:0.447;fill:#552200;fill-opacity:1;fill-rule:nonzero;stroke:none;stroke-width:0.435894;stroke-miterlimit:4;stroke-dasharray:none;stroke-opacity:1"
         inkscape:connector-curvature="0" />
      <path
         inkscape:connector-curvature="0"
         style="fill:#c87137;fill-opacity:1;fill-rule:nonzero;stroke:none;stroke-width:0.424151;stroke-miterlimit:4;stroke-dasharray:none;stroke-opacity:1"
         d="m 67.496855,78.164063 c -5.417188,0 -6.083073,3.033332 -6.094161,7.345071 a 1.6496383,1.8443516 0 0 0 -0.871985,1.624851 1.6496383,1.8443516 0 0 0 0.919365,1.651207 c 0.0048,0.353149 0.0085,0.710248 0.0085,1.071965 v 2.183214 c 0,6.477956 5.719697,11.693089 12.824554,11.693089 h 2.39461 c 7.10486,0 12.824714,-5.215133 12.824714,-11.693089 v -2.183214 c 0,-0.667218 0.01212,-1.316635 0.02411,-1.952747 a 1.6496383,1.8443516 0 0 0 1.00668,-1.698418 1.6496383,1.8443516 0 0 0 -0.992272,-1.689136 C 89.412424,80.7396 88.455252,78.164063 83.464028,78.164063 Z"
         id="rect829" />
      <path
         style="fill:#000000;stroke:none;stroke-width:0.79375;stroke-linecap:butt;stroke-linejoin:miter;stroke-miterlimit:4;stroke-dasharray:none;stroke-opacity:1"
         d="m -69.445096,58.461929 c -0.160798,-2.197552 -0.482374,-6.592413 -0.643154,-9.540161 -0.160779,-2.947747 -0.160779,-4.448504 0.214351,-7.50308 0.37513,-3.054576 1.125605,-7.664635 3.966146,-11.952142 2.840541,-4.287507 7.771681,-8.25386 11.952075,-10.933563 4.180394,-2.679702 7.610733,-4.073277 10.451208,-5.198746 2.840476,-1.125469 5.091715,-1.983084 9.914788,-2.411789 4.823073,-0.428706 12.220353,-0.428706 18.330171,6.4e-5 6.109818,0.42877 10.9336182,1.286334 14.8092795,2.708478 3.8756613,1.422143 6.9505556,3.50868 9.9519661,4.848573 3.0014104,1.339892 6.0028404,1.983055 8.1465064,3.483593 2.143667,1.500538 3.430056,3.858913 4.180421,7.289059 0.750365,3.430145 0.964737,7.932022 0.482378,13.07736 -0.482359,5.145338 -1.6614,10.93337 -2.894197,12.541279 -1.232797,1.607908 -2.519031,-0.964556 -5.091527,-4.126583 -2.572495,-3.162026 -6.4315539,-6.913892 -8.5752586,-8.575496 -2.1437047,-1.661604 -2.5724697,-1.232842 -4.98561179,5.5e-4 -2.41314211,1.233392 -6.80529141,3.268779 -12.80832461,4.555165 -6.003033,1.286385 -13.613103,1.822305 -19.723123,2.143889 -6.110021,0.321583 -10.719091,0.428771 -15.060453,1.179103 -4.341361,0.750332 -8.41441,2.143744 -12.112664,4.01964 -3.698253,1.875896 -7.020502,4.233621 -8.682341,5.41299 -1.661839,1.17937 -1.661839,1.17937 -1.822636,-1.018183 z"
         id="path906-2"
         inkscape:connector-curvature="0"
         inkscape:original-d="m -69.284299,60.659482 c -0.32131,-4.395126 -0.64289,-8.789987 -0.96473,-13.184584 2.6e-4,-1.500877 2.6e-4,-3.001634 0,-4.502054 0.75047,-4.608698 1.50095,-9.218756 2.25103,-13.827737 4.93076,-3.966102 9.8619,-7.932455 14.79246,-11.898285 3.4302,-1.393676 6.86054,-2.78725 10.29041,-4.180479 2.25108,-0.857718 4.50232,-1.715332 6.75308,-2.572601 7.39544,-2.65e-4 14.79272,-2.65e-4 22.18869,0 4.8237197,0.857238 9.6475197,1.714803 14.47088973,2.572601 2.89430997,2.03629 6.00299997,4.073023 9.00409997,6.10993 3.0015803,0.642874 6.0030103,1.286037 9.0041103,1.929452 1.28648,2.357798 2.57287,4.716173 3.85891,7.074656 0.21465,4.501966 0.42903,9.003843 0.64314,13.506162 -1.1789,5.788413 -2.35795,11.576443 -3.53732,17.365064 -1.28611,-2.573002 -2.57234,-5.145469 -3.85891,-7.717806 -3.85848,-3.751824 -7.7175403,-7.503688 -11.5767003,-11.255135 -0.42851,0.428503 -0.85727,0.85727 -1.28631,1.286301 -4.3973,2.037636 -8.78945,4.073022 -13.1845797,6.109931 -7.6109,0.535734 -15.22097,1.071652 -22.83185,1.607875 -4.60915,0.106932 -9.21822,0.21412 -13.82773,0.321575 -4.07326,1.393312 -8.14631,2.786721 -12.21986,4.18048 -3.32294,2.358138 -6.64519,4.715862 -9.96883,7.074654 2.6e-4,-2.65e-4 2.6e-4,-2.65e-4 0,0 z"
         sodipodi:nodetypes="ccccccccccccccccccccccc"
         inkscape:path-effect="#path-effect908-4"
         transform="matrix(0.32061668,0,0,0.32061668,83.66795,66.765264)" />
      <path
         style="fill:#453748;stroke:none;stroke-width:0.320616px;stroke-linecap:butt;stroke-linejoin:miter;stroke-opacity:1"
         d="m 55.170928,160.83859 c 0.388726,2.23393 7.053568,2.30155 7.053568,2.56494 0,1.85868 0.632858,3.87252 0,5.7711 -0.461781,1.38534 -5.377492,7.44717 -7.374184,5.45048 -1.334429,-1.33443 -0.68601,-11.77326 0.320616,-13.78652 z"
         id="path3463"
         inkscape:connector-curvature="0" />
      <path
         inkscape:connector-curvature="0"
         id="path3480"
         d="m 55.15859,173.81924 2.898567,-2.88953 1.167375,-4.36563 -11.482691,-12.41093 -7.708149,3.62737 -1.586972,11.22215 z"
         style="fill:none;stroke:none;stroke-width:0.320616px;stroke-linecap:butt;stroke-linejoin:miter;stroke-opacity:1" />
      <rect
         style="fill:#000000;fill-opacity:1;fill-rule:nonzero;stroke:none;stroke-width:0.114536;stroke-miterlimit:4;stroke-dasharray:none;stroke-opacity:1"
         id="rect939"
         width="1.5748693"
         height="2.5649333"
         x="81.16362"
         y="87.417397"
         rx="2.8859525" />
      <rect
         rx="2.8859525"
         y="87.417389"
         x="68.338951"
         height="2.5649333"
         width="1.5748693"
         id="rect279"
         style="fill:#000000;fill-opacity:1;fill-rule:nonzero;stroke:none;stroke-width:0.114536;stroke-miterlimit:4;stroke-dasharray:none;stroke-opacity:1" />
      <path
         inkscape:connector-curvature="0"
         id="path285"
         d="m 76.613794,88.576701 -2.312095,6.071541 2.312095,-0.303573 h -2.312095 z"
         style="fill:none;stroke:#000000;stroke-width:0.241851px;stroke-linecap:butt;stroke-linejoin:miter;stroke-opacity:1" />
      <path
         transform="matrix(0.32061668,0,0,0.32061668,83.529782,67.25269)"
         style="fill:#c87137;fill-opacity:1;stroke:#000000;stroke-width:1.323;stroke-linecap:butt;stroke-linejoin:miter;stroke-miterlimit:4;stroke-dasharray:none;stroke-opacity:1"
         d="m -30.153859,96.904504 c 3.195837,-0.122117 6.391337,-0.244221 9.104297,-1.228858 2.712959,-0.984636 4.943847,-2.831952 5.954094,-3.776523 1.010247,-0.944572 0.800057,-0.986885 0.589629,-1.029246"
         id="path1140"
         inkscape:connector-curvature="0"
         inkscape:original-d="m -30.153859,96.904504 c 3.19583,-0.122311 6.39133,-0.244416 9.58653,-0.366313 2.23075,-1.847152 4.46164,-3.694465 6.69199,-5.541389 -0.20983,-0.04251 -0.42002,-0.08482 -0.6305,-0.126925"
         inkscape:path-effect="#path-effect1142" />
      <path
         inkscape:connector-curvature="0"
         id="path973"
         d="m 82.792466,86.417672 a 3.9323579,4.9154475 23.517839 0 0 -3.758846,0.617119 4.8203096,4.9154475 23.517839 0 1 3.513279,0.106031 4.8203096,4.9154475 23.517839 0 1 2.321525,2.181201 3.9323579,4.9154475 23.517839 0 0 -2.075958,-2.904336 z"
         style="fill:#000000;fill-opacity:1;fill-rule:nonzero;stroke:none;stroke-width:0;stroke-miterlimit:4;stroke-dasharray:none;stroke-opacity:1" />
      <path
         style="fill:#000000;fill-opacity:1;fill-rule:nonzero;stroke:none;stroke-width:0;stroke-miterlimit:4;stroke-dasharray:none;stroke-opacity:1"
         d="m 68.284903,86.417672 a 4.9154475,3.9323579 66.482161 0 1 3.758846,0.617119 4.9154475,4.8203096 66.482161 0 0 -3.513279,0.106031 4.9154475,4.8203096 66.482161 0 0 -2.321525,2.181201 4.9154475,3.9323579 66.482161 0 1 2.075958,-2.904336 z"
         id="path373"
         inkscape:connector-curvature="0" />
    </g>
  </g>
</svg>
