<?xml version="1.0" encoding="UTF-8" standalone="no"?>
<!-- Created with Inkscape (http://www.inkscape.org/) -->

<svg
   xmlns:dc="http://purl.org/dc/elements/1.1/"
   xmlns:cc="http://creativecommons.org/ns#"
   xmlns:rdf="http://www.w3.org/1999/02/22-rdf-syntax-ns#"
   xmlns:svg="http://www.w3.org/2000/svg"
   xmlns="http://www.w3.org/2000/svg"
   xmlns:sodipodi="http://sodipodi.sourceforge.net/DTD/sodipodi-0.dtd"
   xmlns:inkscape="http://www.inkscape.org/namespaces/inkscape"
   width="210mm"
   height="297mm"
   viewBox="0 0 210 297"
   version="1.1"
   id="svg1178"
   sodipodi:docname="person.svg"
   inkscape:version="1.0beta2 (2b71d25, 2019-12-03)">
  <style
     id="style2023"></style>
  <defs
     id="defs1172">
    <inkscape:path-effect
       lpeversion="0"
       effect="bspline"
       id="path-effect2959"
       is_visible="true"
       weight="33.333333"
       steps="2"
       helper_size="0"
       apply_no_weight="true"
       apply_with_weight="true"
       only_selected="false" />
    <inkscape:path-effect
       lpeversion="0"
       effect="bspline"
       id="path-effect2929"
       is_visible="true"
       weight="33.333333"
       steps="2"
       helper_size="0"
       apply_no_weight="true"
       apply_with_weight="true"
       only_selected="false" />
    <inkscape:path-effect
       only_selected="false"
       apply_with_weight="true"
       apply_no_weight="true"
       helper_size="0"
       steps="2"
       weight="33.333333"
       is_visible="true"
       id="path-effect902"
       effect="bspline"
       lpeversion="0" />
    <inkscape:path-effect
       effect="bspline"
       id="path-effect910"
       is_visible="true"
       weight="33.333333"
       steps="2"
       helper_size="0"
       apply_no_weight="true"
       apply_with_weight="true"
       only_selected="false"
       lpeversion="0" />
    <inkscape:path-effect
       effect="bspline"
       id="path-effect910-7"
       is_visible="true"
       weight="33.333333"
       steps="2"
       helper_size="0"
       apply_no_weight="true"
       apply_with_weight="true"
       only_selected="false"
       lpeversion="0" />
    <inkscape:path-effect
       only_selected="false"
       apply_with_weight="true"
       apply_no_weight="true"
       helper_size="0"
       steps="2"
       weight="33.333333"
       is_visible="true"
       id="path-effect916"
       effect="bspline"
       lpeversion="0" />
    <inkscape:path-effect
       only_selected="false"
       apply_with_weight="true"
       apply_no_weight="true"
       helper_size="0"
       steps="2"
       weight="33.333333"
       is_visible="true"
       id="path-effect908"
       effect="bspline"
       lpeversion="0" />
    <inkscape:path-effect
       only_selected="false"
       apply_with_weight="true"
       apply_no_weight="true"
       helper_size="0"
       steps="2"
       weight="33.333333"
       is_visible="true"
       id="path-effect908-4"
       effect="bspline"
       lpeversion="0" />
    <inkscape:path-effect
       only_selected="false"
       apply_with_weight="true"
       apply_no_weight="true"
       helper_size="0"
       steps="2"
       weight="33.333333"
       is_visible="true"
       id="path-effect916-6"
       effect="bspline"
       lpeversion="0" />
    <inkscape:path-effect
       only_selected="false"
       apply_with_weight="true"
       apply_no_weight="true"
       helper_size="0"
       steps="2"
       weight="33.333333"
       is_visible="true"
       id="path-effect916-1"
       effect="bspline"
       lpeversion="0" />
    <inkscape:path-effect
       only_selected="false"
       apply_with_weight="true"
       apply_no_weight="true"
       helper_size="0"
       steps="2"
       weight="33.333333"
       is_visible="true"
       id="path-effect916-8"
       effect="bspline"
       lpeversion="0" />
  </defs>
  <sodipodi:namedview
     id="base"
     pagecolor="#ffffff"
     bordercolor="#666666"
     borderopacity="1.0"
     inkscape:pageopacity="0.0"
     inkscape:pageshadow="2"
     inkscape:zoom="1"
     inkscape:cx="254.9433"
     inkscape:cy="560.24734"
     inkscape:document-units="mm"
     inkscape:current-layer="layer1"
     inkscape:document-rotation="0"
     showgrid="false"
     inkscape:window-width="1440"
     inkscape:window-height="829"
     inkscape:window-x="-2"
     inkscape:window-y="38"
     inkscape:window-maximized="0" />
  <metadata
     id="metadata1175">
    <rdf:RDF>
      <cc:Work
         rdf:about="">
        <dc:format>image/svg+xml</dc:format>
        <dc:type
           rdf:resource="http://purl.org/dc/dcmitype/StillImage" />
      </cc:Work>
    </rdf:RDF>
  </metadata>
  <g
     inkscape:label="Layer 1"
     inkscape:groupmode="layer"
     id="layer1">
    <path
       id="path939"
       style="fill:#c87137;fill-opacity:1;stroke:none;stroke-width:0.350023;stroke-linecap:butt;stroke-linejoin:miter;stroke-miterlimit:4;stroke-dasharray:none;stroke-opacity:1"
       d="m 44.699338,112.3808 c -0.522639,0.68459 -0.579274,1.39321 -1.447973,4.40128 -0.950081,3.28989 -2.878286,9.33065 -3.686597,12.57804 -0.8083,3.24739 -0.496271,3.70126 2.722831,7.09053 2.872798,3.02467 7.832679,8.15139 11.142988,11.5781 0.399032,0.41306 0.998199,1.03354 1.335321,1.38286 0.126579,0.13116 0.181123,0.18364 0.298172,0.30489 0.0277,-0.0296 0.05488,-0.0541 0.08268,-0.0842 0.202369,-0.21949 0.4063,-0.45348 0.608748,-0.70073 0.20247,-0.24724 0.403768,-0.5076 0.599448,-0.7798 0.195678,-0.27219 0.385874,-0.55623 0.567923,-0.85059 0.182041,-0.29435 0.355751,-0.59891 0.517282,-0.91261 0.16153,-0.3137 0.310774,-0.63662 0.444934,-0.96686 0.13826,-0.34033 0.260458,-0.68854 0.367418,-1.04284 0.0644,-0.21338 0.112985,-0.43229 0.166915,-0.64957 -1.46744,-1.55134 -3.247564,-3.43216 -5.09426,-5.41207 -1.300954,-1.39478 -2.551846,-2.7481 -3.464907,-3.78116 -2.481599,-2.80779 -2.65163,-3.40319 -1.999361,-5.87045 0.652269,-2.46727 2.127036,-6.80722 3.346566,-9.8702 1.056847,-2.65441 1.927043,-4.36638 2.877344,-6.31279 l -0.609783,-0.0465 h -8.731249 z"
       inkscape:connector-curvature="0" />
    <path
       transform="matrix(0.26458333,0,0,0.26458333,74.169183,64.678171)"
       inkscape:path-effect="#path-effect916-6"
       inkscape:original-d="m -93.632569,145.70257 c -5.30545,2.87998 -10.611171,5.76023 -15.917161,8.64075 -4.39617,20.76908 -8.79207,41.53595 -13.18851,62.30432 -0.30292,-0.30345 -0.6061,-0.60663 -0.90955,-0.90955 4.85121,1.36407 9.70216,2.72839 14.55284,4.09299 6.51848,-0.90979 13.037181,-1.81937 19.555371,-2.72866 18.94841,-10.76281 37.89827,-21.52633 56.84701,-32.2891 -15.91663,-13.03697 -31.83406,-26.0741 -47.75149,-39.11075 -4.39591,-2.6e-4 -8.79207,-2.6e-4 -13.18851,0 z"
       inkscape:connector-curvature="0"
       id="path914"
       d="m -94.087048,147.14261 c -4.850919,1.44004 -10.156642,4.32029 -15.007842,16.14502 -4.85121,11.82473 -9.24712,32.5916 -11.59683,42.82421 -2.34971,10.23261 -2.65289,9.92943 -0.37892,10.46003 2.27397,0.5306 7.12492,1.89493 12.80956,2.12229 5.68464,0.22736 12.203342,-0.68223 24.936651,-6.51835 12.733309,-5.83611 31.683169,-16.59963 33.199079,-28.4994 1.515911,-11.89977 -14.401517,-24.9369 -24.558068,-31.45537 -10.156551,-6.51847 -14.552711,-6.51847 -19.40363,-5.07843 z"
       style="fill:#103c22;fill-opacity:1;stroke:none;stroke-width:1.32292;stroke-linecap:butt;stroke-linejoin:miter;stroke-miterlimit:4;stroke-dasharray:none;stroke-opacity:1" />
    <path
       style="opacity:0.920988;fill:#53676c;fill-opacity:1;stroke:#53676c;stroke-width:0.369863;stroke-opacity:1"
       d="m 52.346854,176.74299 c -0.287213,-17.81482 -0.473117,-32.47188 -0.413122,-32.57124 0.05996,-0.0993 0.964375,0.21211 2.009743,0.69216 5.352741,2.45805 13.580141,3.46535 19.934299,2.44059 2.910767,-0.46943 8.780282,-2.17054 10.949894,-3.17352 0.601646,-0.27812 0.603557,-0.23879 0.792807,16.29785 0.104285,9.11717 0.272939,23.80548 0.374692,32.64069 l 0.184981,16.06405 h -5.935625 c -3.264602,0 -5.935638,-0.0826 -5.935638,-0.18335 0,-0.10088 -1.242646,-9.57862 -2.761425,-21.06174 -1.518791,-11.48312 -2.769031,-21.47336 -2.778307,-22.20054 -0.0087,-0.72717 -0.149429,-1.24897 -0.311436,-1.15953 -0.228195,0.12596 -2.723591,24.54522 -4.327154,42.3443 l -0.203688,2.26086 h -5.528903 -5.528901 z"
       id="path2276"
       inkscape:connector-curvature="0" />
    <path
       style="opacity:0.920988;fill:#53676c;fill-opacity:1"
       d="m 215.19124,792.42612 c 5.66675,-0.17857 14.66675,-0.17785 20,0.002 5.33324,0.17945 0.6968,0.32555 -10.3032,0.32467 -11,-8.9e-4 -15.36356,-0.14771 -9.6968,-0.32628 z"
       id="path2280"
       inkscape:connector-curvature="0"
       transform="scale(0.26458333)" />
    <path
       style="opacity:0.920988;fill:#53676c;fill-opacity:1"
       d=""
       id="path2282"
       inkscape:connector-curvature="0"
       transform="scale(0.26458333)" />
    <path
       inkscape:path-effect="#path-effect902"
       inkscape:original-d="m -85.583719,550.72715 c -2.14357,1.92921 -4.2874,3.85866 -6.4315,5.78837 -3.85914,0.85738 -7.71755,1.71479 -11.576711,2.57259 -3.21575,0.85733 -6.43124,1.71482 -9.64726,2.5726 0.10746,3.2158 0.21465,6.43126 0.32157,9.64727 0.21467,0.64293 0.42903,1.28603 0.64315,1.92944 12.330361,0 24.654371,0 36.981161,0 8.89699,0 17.7941,0 26.69075,0 0.10745,-0.21463 0.21465,-0.42902 0.32157,-0.64315 0.32137,-1.07058 0.64342,-2.1441 0.96473,-3.21574 0.75039,1.28566 1.50095,2.57233 2.25103,3.85889 0.21466,-0.10744 0.42903,-0.21463 0.64315,-0.32157 4.92378,-0.42839 9.8619,-0.85781 14.79246,-1.2863 0.32182,0.2141 0.64341,0.42849 0.96472,0.64315 -1.92882,-7.7166 -3.85863,-15.43587 -5.78835,-23.15342 2.7e-4,-0.42903 2.7e-4,-0.85778 0,-1.2863 -17.03271,0.96388 -34.08671,1.92918 -51.13047,2.89417 z"
       inkscape:connector-curvature="0"
       id="path900"
       d="m -78.133615,551.20939 c -9.593669,1.44698 -11.737497,3.37643 -14.739099,4.77007 -3.001602,1.39363 -6.86001,2.25105 -10.397466,3.10861 -3.53745,0.85756 -6.75295,1.71502 -8.30738,3.75174 -1.55444,2.03671 -1.44726,5.25217 -1.28649,7.18169 0.16078,1.92952 0.37514,2.57262 6.64754,2.89427 6.272401,0.32165 18.596411,0.32165 29.208301,0.32165 10.61189,0 19.509,0 24.010995,-0.10734 4.501996,-0.10734 4.60919,-0.32174 4.823304,-0.96409 0.214114,-0.64235 0.536172,-1.71587 1.07195,-1.60874 0.535779,0.10712 1.28634,1.39379 1.768888,1.98331 0.482548,0.58951 0.69692,0.48232 3.265857,0.21473 2.568936,-0.2676 7.507058,-0.697 10.133134,-0.80416 2.626075,-0.10717 2.947663,0.10722 2.143858,-3.64386 -0.803805,-3.75109 -2.733621,-11.47036 -3.698323,-15.54369 -0.964703,-4.07333 -0.964703,-4.50208 -9.481051,-4.23428 -8.516349,0.26779 -25.570348,1.23311 -35.164018,2.68009 z"
       style="fill:#1a1a1a;stroke:none;stroke-width:1.32292;stroke-linecap:butt;stroke-linejoin:miter;stroke-miterlimit:4;stroke-dasharray:none;stroke-opacity:1"
       transform="matrix(0.26458333,0,0,0.26458333,74.963031,68.227605)" />
    <rect
       rx="1.3229166"
       y="209.13358"
       x="51.644344"
       height="4.9348407"
       width="16.165857"
       id="rect848"
       style="opacity:1;fill:#374548;fill-opacity:1;fill-rule:nonzero;stroke:none;stroke-width:0.350023;stroke-miterlimit:4;stroke-dasharray:none;stroke-opacity:1" />
    <rect
       rx="1.3229166"
       y="209.13358"
       x="71.435509"
       height="4.9348407"
       width="16.165857"
       id="rect848-1"
       style="opacity:1;fill:#374548;fill-opacity:1;fill-rule:nonzero;stroke:none;stroke-width:0.350023;stroke-miterlimit:4;stroke-dasharray:none;stroke-opacity:1" />
    <path
       transform="matrix(-0.26440579,0.00969106,0.00969106,0.26440579,58.860067,69.016957)"
       style="fill:#1a1a1a;stroke:none;stroke-width:1.32292;stroke-linecap:butt;stroke-linejoin:miter;stroke-miterlimit:4;stroke-dasharray:none;stroke-opacity:1"
       d="m -78.133615,551.20939 c -9.593669,1.44698 -11.737497,3.37643 -14.739099,4.77007 -3.001602,1.39363 -6.86001,2.25105 -10.397466,3.10861 -3.53745,0.85756 -6.75295,1.71502 -8.30738,3.75174 -1.55444,2.03671 -1.44726,5.25217 -1.28649,7.18169 0.16078,1.92952 0.37514,2.57262 6.64754,2.89427 6.272401,0.32165 18.596411,0.32165 29.208301,0.32165 10.61189,0 19.509,0 24.010995,-0.10734 4.501996,-0.10734 4.60919,-0.32174 4.823304,-0.96409 0.214114,-0.64235 0.536172,-1.71587 1.07195,-1.60874 0.535779,0.10712 1.28634,1.39379 1.768888,1.98331 0.482548,0.58951 0.69692,0.48232 3.265857,0.21473 2.568936,-0.2676 7.507058,-0.697 10.133134,-0.80416 2.626075,-0.10717 2.947663,0.10722 2.143858,-3.64386 -0.803805,-3.75109 -2.733621,-11.47036 -3.698323,-15.54369 -0.964703,-4.07333 -0.964703,-4.50208 -9.481051,-4.23428 -8.516349,0.26779 -25.570348,1.23311 -35.164018,2.68009 z"
       id="path2957"
       inkscape:connector-curvature="0"
       inkscape:original-d="m -85.583719,550.72715 c -2.14357,1.92921 -4.2874,3.85866 -6.4315,5.78837 -3.85914,0.85738 -7.71755,1.71479 -11.576711,2.57259 -3.21575,0.85733 -6.43124,1.71482 -9.64726,2.5726 0.10746,3.2158 0.21465,6.43126 0.32157,9.64727 0.21467,0.64293 0.42903,1.28603 0.64315,1.92944 12.330361,0 24.654371,0 36.981161,0 8.89699,0 17.7941,0 26.69075,0 0.10745,-0.21463 0.21465,-0.42902 0.32157,-0.64315 0.32137,-1.07058 0.64342,-2.1441 0.96473,-3.21574 0.75039,1.28566 1.50095,2.57233 2.25103,3.85889 0.21466,-0.10744 0.42903,-0.21463 0.64315,-0.32157 4.92378,-0.42839 9.8619,-0.85781 14.79246,-1.2863 0.32182,0.2141 0.64341,0.42849 0.96472,0.64315 -1.92882,-7.7166 -3.85863,-15.43587 -5.78835,-23.15342 2.7e-4,-0.42903 2.7e-4,-0.85778 0,-1.2863 -17.03271,0.96388 -34.08671,1.92918 -51.13047,2.89417 z"
       inkscape:path-effect="#path-effect2959" />
    <path
       style="fill:#453748;stroke:none;stroke-width:0.264583px;stroke-linecap:butt;stroke-linejoin:miter;stroke-opacity:1"
       d="m 85.195832,144.99165 c -0.320789,1.84351 -5.820834,1.89932 -5.820834,2.11667 0,1.53385 -0.522255,3.19573 0,4.7625 0.381077,1.14323 4.437682,6.14565 6.085417,4.49792 1.101214,-1.10122 0.566118,-9.71568 -0.264583,-11.37709 z"
       id="path3047"
       inkscape:connector-curvature="0" />
    <path
       style="fill:none;stroke:none;stroke-width:0.264583px;stroke-linecap:butt;stroke-linejoin:miter;stroke-opacity:1"
       d="m 64.107115,98.888539 6.89543,-0.01887 -0.850463,-3.721309 h -5.190146 z"
       id="path3232"
       inkscape:connector-curvature="0" />
    <path
       inkscape:connector-curvature="0"
       id="path1044-1"
       d="m 68.885098,94.881238 c -0.0381,-0.0057 -0.0757,0.0097 -0.11293,0.04157 -0.39704,0.340283 -0.73746,2.552618 -1.3614,3.63038 -0.62393,1.077764 -1.53148,1.021032 -4.11234,1.446437 -2.58086,0.425405 -6.83503,1.332935 -9.33081,2.013595 -2.49579,0.68066 -3.23315,1.13441 -3.828774,1.78675 -0.59563,0.65234 -1.049264,1.50313 -0.850718,8.4239 0.198544,6.92077 1.049266,19.90892 1.701572,26.74398 0.6523,6.83507 1.10611,7.51565 3.31837,8.02617 2.21225,0.51051 6.18263,0.85089 9.0471,0.96433 2.41709,0.0957 4.01311,0.0306 5.09364,-0.0264 0.17334,0.11492 0.37947,0.12647 0.62498,0.13974 1.04935,0.0567 2.8078,0.17019 5.67226,0.0567 2.86447,-0.11344 6.83499,-0.45368 9.04725,-0.9642 2.21225,-0.51052 2.66606,-1.19123 3.31836,-8.0263 0.65231,-6.83506 1.50303,-19.82321 1.70158,-26.74398 0.19854,-6.92076 -0.25523,-7.77142 -0.85086,-8.42376 -0.59563,-0.65234 -1.33298,-1.10609 -3.82877,-1.78675 -2.49579,-0.68066 -6.74996,-1.58832 -9.33081,-2.01373 -2.58086,-0.425403 -3.48841,-0.368674 -4.11235,-1.446436 -0.62394,-1.077764 -0.96422,-3.289961 -1.36126,-3.630244 -0.0768,-0.0658 -0.15565,-0.06024 -0.23544,0.05537 -0.0701,-0.175458 -0.14002,-0.256855 -0.20865,-0.267165 z"
       style="fill:#16502d;fill-opacity:1;stroke:none;stroke-width:0.350023;stroke-linecap:butt;stroke-linejoin:miter;stroke-miterlimit:4;stroke-dasharray:none;stroke-opacity:1" />
    <path
       inkscape:connector-curvature="0"
       id="rect980-7"
       d="m 66.460666,94.791383 -1.40009,6.126067 h 0.0466 a 4.0180334,2.6809928 0 0 0 -0.0745,0.50808 4.0180334,2.6809928 0 0 0 4.018,2.68097 4.0180334,2.6809928 0 0 0 4.018,-2.68097 4.0180334,2.6809928 0 0 0 -0.076,-0.50808 h 0.0582 l -1.40008,-6.126067 z"
       style="fill:#c87137;fill-opacity:1;fill-rule:nonzero;stroke:none;stroke-width:0.350023;stroke-miterlimit:4;stroke-dasharray:none;stroke-opacity:1" />
    <path
       inkscape:connector-curvature="0"
       style="opacity:0.447;fill:#552200;fill-opacity:1;fill-rule:nonzero;stroke:none;stroke-width:0.359714;stroke-miterlimit:4;stroke-dasharray:none;stroke-opacity:1"
       d="m 66.457781,94.791383 -0.85482,3.74017 c 0.77672,0.17389 1.58664,0.26607 2.4198,0.26607 h 1.9753 c 0.86203,0 1.69911,-0.0992 2.50033,-0.28493 l -0.85044,-3.72131 z"
       id="path1020" />
    <path
       id="rect829"
       d="m 62.419837,76.765929 c -4.47044,0 -5.01995,2.503205 -5.0291,6.061392 a 1.3613353,1.522019 0 0 0 -0.71959,1.34088 1.3613353,1.522019 0 0 0 0.75869,1.36263 c 0.004,0.29143 0.007,0.58612 0.007,0.88462 v 1.80166 c 0,5.34582 4.72008,9.649518 10.58324,9.649518 h 1.97611 c 5.863162,0 10.583372,-4.303698 10.583372,-9.649518 v -1.80166 c 0,-0.55061 0.01,-1.08653 0.0199,-1.61147 a 1.3613353,1.522019 0 0 0 0.830745,-1.40159 1.3613353,1.522019 0 0 0 -0.818855,-1.39393 c -0.10607,-3.117115 -0.89596,-5.242532 -5.01488,-5.242532 z"
       style="opacity:1;fill:#c87137;fill-opacity:1;fill-rule:nonzero;stroke:none;stroke-width:0.350023;stroke-miterlimit:4;stroke-dasharray:none;stroke-opacity:1"
       inkscape:connector-curvature="0" />
    <path
       transform="matrix(0.26458333,0,0,0.26458333,75.764752,67.359269)"
       inkscape:path-effect="#path-effect908-4"
       sodipodi:nodetypes="ccccccccccccccccccccccc"
       inkscape:original-d="m -69.284299,60.659482 c -0.32131,-4.395126 -0.64289,-8.789987 -0.96473,-13.184584 2.6e-4,-1.500877 2.6e-4,-3.001634 0,-4.502054 0.75047,-4.608698 1.50095,-9.218756 2.25103,-13.827737 4.93076,-3.966102 9.8619,-7.932455 14.79246,-11.898285 3.4302,-1.393676 6.86054,-2.78725 10.29041,-4.180479 2.25108,-0.857718 4.50232,-1.715332 6.75308,-2.572601 7.39544,-2.65e-4 14.79272,-2.65e-4 22.18869,0 4.8237197,0.857238 9.6475197,1.714803 14.47088973,2.572601 2.89430997,2.03629 6.00299997,4.073023 9.00409997,6.10993 3.0015803,0.642874 6.0030103,1.286037 9.0041103,1.929452 1.28648,2.357798 2.57287,4.716173 3.85891,7.074656 0.21465,4.501966 0.42903,9.003843 0.64314,13.506162 -1.1789,5.788413 -2.35795,11.576443 -3.53732,17.365064 -1.28611,-2.573002 -2.57234,-5.145469 -3.85891,-7.717806 -3.85848,-3.751824 -7.7175403,-7.503688 -11.5767003,-11.255135 -0.42851,0.428503 -0.85727,0.85727 -1.28631,1.286301 -4.3973,2.037636 -8.78945,4.073022 -13.1845797,6.109931 -7.6109,0.535734 -15.22097,1.071652 -22.83185,1.607875 -4.60915,0.106932 -9.21822,0.21412 -13.82773,0.321575 -4.07326,1.393312 -8.14631,2.786721 -12.21986,4.18048 -3.32294,2.358138 -6.64519,4.715862 -9.96883,7.074654 2.6e-4,-2.65e-4 2.6e-4,-2.65e-4 0,0 z"
       inkscape:connector-curvature="0"
       id="path906-2"
       d="m -69.445096,58.461929 c -0.160798,-2.197552 -0.482374,-6.592413 -0.643154,-9.540161 -0.160779,-2.947747 -0.160779,-4.448504 0.214351,-7.50308 0.37513,-3.054576 1.125605,-7.664635 3.966146,-11.952142 2.840541,-4.287507 7.771681,-8.25386 11.952075,-10.933563 4.180394,-2.679702 7.610733,-4.073277 10.451208,-5.198746 2.840476,-1.125469 5.091715,-1.983084 9.914788,-2.411789 4.823073,-0.428706 12.220353,-0.428706 18.330171,6.4e-5 6.109818,0.42877 10.9336182,1.286334 14.8092795,2.708478 3.8756613,1.422143 6.9505556,3.50868 9.9519661,4.848573 3.0014104,1.339892 6.0028404,1.983055 8.1465064,3.483593 2.143667,1.500538 3.430056,3.858913 4.180421,7.289059 0.750365,3.430145 0.964737,7.932022 0.482378,13.07736 -0.482359,5.145338 -1.6614,10.93337 -2.894197,12.541279 -1.232797,1.607908 -2.519031,-0.964556 -5.091527,-4.126583 -2.572495,-3.162026 -6.4315539,-6.913892 -8.5752586,-8.575496 -2.1437047,-1.661604 -2.5724697,-1.232842 -4.98561179,5.5e-4 -2.41314211,1.233392 -6.80529141,3.268779 -12.80832461,4.555165 -6.003033,1.286385 -13.613103,1.822305 -19.723123,2.143889 -6.110021,0.321583 -10.719091,0.428771 -15.060453,1.179103 -4.341361,0.750332 -8.41441,2.143744 -12.112664,4.01964 -3.698253,1.875896 -7.020502,4.233621 -8.682341,5.41299 -1.661839,1.17937 -1.661839,1.17937 -1.822636,-1.018183 z"
       style="fill:#000000;stroke:none;stroke-width:0.79375;stroke-linecap:butt;stroke-linejoin:miter;stroke-miterlimit:4;stroke-dasharray:none;stroke-opacity:1" />
    <path
       inkscape:connector-curvature="0"
       id="path3463"
       d="m 52.248081,144.99164 c 0.320789,1.84351 5.820834,1.89932 5.820834,2.11667 0,1.53385 0.522255,3.19573 0,4.7625 -0.381077,1.14323 -4.437682,6.14565 -6.085417,4.49792 -1.101214,-1.10122 -0.566118,-9.71568 0.264583,-11.37709 z"
       style="fill:#453748;stroke:none;stroke-width:0.264583px;stroke-linecap:butt;stroke-linejoin:miter;stroke-opacity:1" />
    <path
       style="fill:none;stroke:none;stroke-width:0.26458300000000001px;stroke-linecap:butt;stroke-linejoin:miter;stroke-opacity:1"
       d="m 52.237899,155.7037 2.391992,-2.38454 0.963356,-3.60266 -9.475891,-10.2419 -6.361015,2.99342 -1.309621,9.26089 z"
       id="path3480"
       inkscape:connector-curvature="0" />
    <path
       inkscape:connector-curvature="0"
       id="path3503"
       d="m 116.13685,178.17527 7.48355,-0.37417 0.74835,-0.93545 -7.29645,-25.25697 c 0,0 -4.86431,-0.37418 -4.49013,-2.24507 0.37418,-1.87088 3.3676,-0.93544 3.3676,-0.93544 0,0 -1.30963,-5.42557 -0.56127,-6.36101 0.74835,-0.93545 3.3676,-1.12253 3.3676,-1.12253 0,0 2.80632,1.87088 2.61924,2.80633 -0.18709,0.93544 1.30962,7.29645 1.30962,7.29645 h -0.37418 l 8.41899,24.32153 c 0,0 1.49671,4.67722 1.12253,4.67722 -0.37418,0 -0.93544,1.49671 -0.93544,1.49671 l -15.90254,4.49012 z"
       style="fill:none;stroke:#000000;stroke-width:0.264583px;stroke-linecap:butt;stroke-linejoin:miter;stroke-opacity:1" />
    <path
       style="fill:none;stroke:black;stroke-opacity:1;stroke-linejoin:miter;stroke-linecap:butt;stroke-width:1px"
       d="m 398,422 c 1.68787,7.8868 -1.79151,15.15188 -3,22"
       id="path3522"
       inkscape:connector-curvature="0"
       transform="scale(0.26458333)" />
  </g>
</svg>
