<?xml version="1.0" encoding="UTF-8" standalone="no"?>
<svg
   xmlns:dc="http://purl.org/dc/elements/1.1/"
   xmlns:cc="http://creativecommons.org/ns#"
   xmlns:rdf="http://www.w3.org/1999/02/22-rdf-syntax-ns#"
   xmlns:svg="http://www.w3.org/2000/svg"
   xmlns="http://www.w3.org/2000/svg"
   xmlns:sodipodi="http://sodipodi.sourceforge.net/DTD/sodipodi-0.dtd"
   xmlns:inkscape="http://www.inkscape.org/namespaces/inkscape"
   sodipodi:docname="random.svg"
   inkscape:version="1.0beta2 (2b71d25, 2019-12-03)"
   id="svg8"
   version="1.1"
   viewBox="0 0 210 297"
   height="297mm"
   width="210mm">
  <defs
     id="defs2">
    <inkscape:perspective
       id="perspective1287"
       inkscape:persp3d-origin="105 : 99 : 1"
       inkscape:vp_z="210 : 148.5 : 1"
       inkscape:vp_y="0 : 1000 : 0"
       inkscape:vp_x="0 : 148.5 : 1"
       sodipodi:type="inkscape:persp3d" />
  </defs>
  <sodipodi:namedview
     inkscape:snap-intersection-paths="false"
     inkscape:object-paths="false"
     inkscape:window-maximized="0"
     inkscape:window-y="23"
     inkscape:window-x="0"
     inkscape:window-height="829"
     inkscape:window-width="1440"
     inkscape:object-nodes="false"
     showgrid="false"
     inkscape:document-rotation="0"
     inkscape:current-layer="layer1"
     inkscape:document-units="mm"
     inkscape:cy="601.91971"
     inkscape:cx="-19.586804"
     inkscape:zoom="0.47953623"
     inkscape:pageshadow="2"
     inkscape:pageopacity="0.0"
     borderopacity="1.0"
     bordercolor="#666666"
     pagecolor="#ffffff"
     id="base" />
  <metadata
     id="metadata5">
    <rdf:RDF>
      <cc:Work
         rdf:about="">
        <dc:format>image/svg+xml</dc:format>
        <dc:type
           rdf:resource="http://purl.org/dc/dcmitype/StillImage" />
        <dc:title></dc:title>
      </cc:Work>
    </rdf:RDF>
  </metadata>
  <g
     id="layer1"
     inkscape:groupmode="layer"
     inkscape:label="Layer 1">
    <text
       transform="scale(0.97053224,1.0303625)"
       id="text4221"
       y="-452.53641"
       x="-8.0478392"
       style="font-style:normal;font-variant:normal;font-weight:bold;font-stretch:normal;font-size:65.1514px;line-height:1.25;font-family:Trattatello;-inkscape-font-specification:'Trattatello Bold';stroke-width:1.62879"
       xml:space="preserve"><tspan
         style="font-style:normal;font-variant:normal;font-weight:bold;font-stretch:normal;font-family:Trattatello;-inkscape-font-specification:'Trattatello Bold';stroke-width:1.62879"
         y="-452.53641"
         x="-8.0478392"
         id="tspan4219"
         sodipodi:role="line" /></text>
    <g
       transform="translate(-72.995238,-4.3802827)"
       id="g4352">
      <rect
         style="fill:#ff7f2a;fill-opacity:1;fill-rule:evenodd;stroke:none;stroke-width:0.264583"
         id="rect4266"
         width="38.41853"
         height="47.35495"
         x="83.724846"
         y="97.239471"
         ry="5.3558364" />
      <rect
         ry="4.4730849"
         y="100.75581"
         x="86.421028"
         height="39.549877"
         width="33.026165"
         id="rect4268"
         style="fill:#ffffff;fill-opacity:1;fill-rule:evenodd;stroke:none;stroke-width:0.227447" />
      <rect
         style="fill:#b3b3b3;fill-opacity:1;fill-rule:evenodd;stroke:none;stroke-width:0.198741"
         id="rect4270"
         width="17.022455"
         height="8.9915743"
         x="94.422882"
         y="93.571915"
         ry="3.6446555" />
      <path
         id="rect4276"
         style="fill:#888888;fill-opacity:1;fill-rule:evenodd;stroke:none;stroke-width:0.093018"
         d="m 90.107014,116.72333 c -0.231342,0 -0.417672,0.19472 -0.417672,0.43671 v 5.69864 c 0,0.24199 0.18633,0.43689 0.417672,0.43689 h 5.447896 c 0.231342,0 0.417672,-0.1949 0.417672,-0.43689 v -5.69864 c 0,-0.24199 -0.18633,-0.43671 -0.417672,-0.43671 z m 1.046267,1.26223 h 3.355362 c 0.142478,0 0.257251,0.12005 0.257251,0.26909 v 3.5096 c 0,0.14904 -0.114773,0.26909 -0.257251,0.26909 h -3.355362 c -0.142479,0 -0.25707,-0.12005 -0.25707,-0.26909 v -3.5096 c 0,-0.14904 0.114591,-0.26909 0.25707,-0.26909 z"
         inkscape:connector-curvature="0" />
      <path
         inkscape:connector-curvature="0"
         d="m 90.107014,107.17344 c -0.231342,0 -0.417672,0.19472 -0.417672,0.43671 v 5.69864 c 0,0.24199 0.18633,0.43689 0.417672,0.43689 h 5.447896 c 0.231342,0 0.417672,-0.1949 0.417672,-0.43689 v -5.69864 c 0,-0.24199 -0.18633,-0.43671 -0.417672,-0.43671 z m 1.046267,1.26223 h 3.355362 c 0.142478,0 0.257251,0.12005 0.257251,0.26909 v 3.5096 c 0,0.14904 -0.114773,0.26909 -0.257251,0.26909 h -3.355362 c -0.142479,0 -0.25707,-0.12005 -0.25707,-0.26909 v -3.5096 c 0,-0.14904 0.114591,-0.26909 0.25707,-0.26909 z"
         style="fill:#888888;fill-opacity:1;fill-rule:evenodd;stroke:none;stroke-width:0.093018"
         id="path4287" />
      <path
         id="path4289"
         style="fill:#888888;fill-opacity:1;fill-rule:evenodd;stroke:none;stroke-width:0.093018"
         d="m 90.107014,126.27321 c -0.231342,0 -0.417672,0.19472 -0.417672,0.4367 v 5.69865 c 0,0.24199 0.18633,0.43689 0.417672,0.43689 h 5.447896 c 0.231342,0 0.417672,-0.1949 0.417672,-0.43689 v -5.69865 c 0,-0.24198 -0.18633,-0.4367 -0.417672,-0.4367 z m 1.046267,1.26223 h 3.355362 c 0.142478,0 0.257251,0.12005 0.257251,0.26909 v 3.5096 c 0,0.14904 -0.114773,0.26909 -0.257251,0.26909 h -3.355362 c -0.142479,0 -0.25707,-0.12005 -0.25707,-0.26909 v -3.5096 c 0,-0.14904 0.114591,-0.26909 0.25707,-0.26909 z"
         inkscape:connector-curvature="0" />
      <g
         id="g4299"
         transform="matrix(1,0,0,1.0460256,-0.52916667,-4.3067057)"
         style="stroke-width:0.977752">
        <rect
           style="fill:#888888;fill-opacity:1;fill-rule:evenodd;stroke:none;stroke-width:0.258697"
           id="rect4293"
           width="11.665978"
           height="1.3119662"
           x="101.52165"
           y="110.09683"
           ry="0.65598309" />
        <rect
           ry="0.65598309"
           y="107.97144"
           x="101.52165"
           height="1.3119662"
           width="11.665978"
           id="rect4295"
           style="fill:#888888;fill-opacity:1;fill-rule:evenodd;stroke:none;stroke-width:0.258697" />
      </g>
      <g
         id="g4334"
         transform="matrix(1,0,0,1.0460256,-0.52916667,5.6528104)"
         style="stroke-width:0.977752">
        <g
           id="g4323"
           style="stroke-width:0.977752">
          <rect
             style="fill:#888888;fill-opacity:1;fill-rule:evenodd;stroke:none;stroke-width:0.258697"
             id="rect4319"
             width="11.665978"
             height="1.3119662"
             x="101.52165"
             y="110.09683"
             ry="0.65598309" />
          <rect
             ry="0.65598309"
             y="107.97144"
             x="101.52165"
             height="1.3119662"
             width="11.665978"
             id="rect4321"
             style="fill:#888888;fill-opacity:1;fill-rule:evenodd;stroke:none;stroke-width:0.258697" />
        </g>
      </g>
      <g
         id="g4329"
         transform="matrix(1,0,0,1.0460256,-0.52916667,15.324534)"
         style="stroke-width:0.977752">
        <rect
           style="fill:#888888;fill-opacity:1;fill-rule:evenodd;stroke:none;stroke-width:0.258697"
           id="rect4325"
           width="11.665978"
           height="1.3119662"
           x="101.52165"
           y="110.09683"
           ry="0.65598309" />
        <rect
           ry="0.65598309"
           y="107.97144"
           x="101.52165"
           height="1.3119662"
           width="11.665978"
           id="rect4327"
           style="fill:#888888;fill-opacity:1;fill-rule:evenodd;stroke:none;stroke-width:0.258697" />
      </g>
    </g>
    <g
       style="stroke-width:1.11128"
       transform="matrix(0.87813606,-0.19653149,0.19653149,0.87813606,51.977375,119.99856)"
       id="g4490">
      <rect
         style="fill:#d8fafb;fill-opacity:1;fill-rule:evenodd;stroke:none;stroke-width:0.294027"
         id="rect4387"
         width="58.030998"
         height="92.750496"
         x="53.555603"
         y="56.26688" />
      <g
         style="stroke-width:1.11128"
         id="g4472"
         transform="rotate(20.972421,83.280682,103.31641)">
        <rect
           y="75.679802"
           x="76.176979"
           height="52.010048"
           width="14.207405"
           id="rect4354"
           style="fill:#4cd600;fill-opacity:1;fill-rule:evenodd;stroke:none;stroke-width:0.294027" />
        <rect
           transform="scale(1,-1)"
           style="fill:#ffb380;fill-opacity:1;fill-rule:evenodd;stroke:none;stroke-width:0.294028"
           id="rect4356"
           width="14.333901"
           height="3.2586267"
           x="76.113731"
           y="-75.679802" />
        <rect
           style="fill:#f2f2f2;fill-opacity:0.266129;fill-rule:evenodd;stroke:none;stroke-width:0.294027"
           id="rect4358"
           width="8.9109831"
           height="52.010048"
           x="78.825188"
           y="75.679802" />
        <path
           inkscape:connector-curvature="0"
           id="path4366"
           d="m 76.113731,127.68985 14.04832,0.0295 -4.64897,8.05226 h -5.07904 z"
           style="fill:#ffb380;fill-opacity:0.66129;stroke:none;stroke-width:0.294027px;stroke-linecap:butt;stroke-linejoin:miter;stroke-opacity:1" />
        <path
           inkscape:transform-center-x="-1.5863382"
           transform="matrix(-0.05259806,-0.28941579,-0.30665896,0.04964051,128.75617,153.61899)"
           inkscape:transform-center-y="1.3271111"
           d="m 86.583954,142.91631 -7.706186,-2.69554 -7.706186,-2.69553 6.187495,-5.32599 6.187496,-5.32598 1.51869,8.02152 z"
           inkscape:randomized="0"
           inkscape:rounded="0"
           inkscape:flatsided="false"
           sodipodi:arg2="1.9072827"
           sodipodi:arg1="0.86008519"
           sodipodi:r2="4.7134986"
           sodipodi:r1="9.4269981"
           sodipodi:cy="135.77161"
           sodipodi:cx="80.434036"
           sodipodi:sides="3"
           id="path4368"
           style="fill:#4cd600;fill-opacity:1;fill-rule:evenodd;stroke:none;stroke-width:0.972752"
           sodipodi:type="star" />
        <path
           inkscape:connector-curvature="0"
           d="m 76.113733,72.421173 0.0042,-0.587054 a 7.3099719,6.7729953 0 0 1 7.069,-5.048932 7.3099719,6.7729953 0 0 1 7.20616,5.635986 z"
           style="fill:#ffffff;fill-opacity:1;fill-rule:evenodd;stroke:none;stroke-width:0.294027"
           id="path4370" />
        <g
           style="stroke-width:1.11128"
           transform="translate(7.6846385,-38.151805)"
           id="g4407">
          <circle
             style="fill:#000000;fill-opacity:1;fill-rule:evenodd;stroke:none;stroke-width:0.294027"
             id="path4401"
             cx="72.229485"
             cy="159.06821"
             r="1.8660808" />
          <circle
             r="0.80777067"
             cy="158.27798"
             cx="71.695068"
             id="circle4403"
             style="fill:#ffffff;fill-opacity:1;fill-rule:evenodd;stroke:none;stroke-width:0.294027" />
        </g>
        <g
           style="stroke-width:1.11128"
           id="g4413"
           transform="translate(14.302586,-38.151805)">
          <circle
             r="1.8660808"
             cy="159.06821"
             cx="72.229485"
             id="circle4409"
             style="fill:#000000;fill-opacity:1;fill-rule:evenodd;stroke:none;stroke-width:0.294027" />
          <circle
             style="fill:#ffffff;fill-opacity:1;fill-rule:evenodd;stroke:none;stroke-width:0.294027"
             id="circle4411"
             cx="71.695068"
             cy="158.27798"
             r="0.80777067" />
        </g>
        <path
           inkscape:connector-curvature="0"
           d="m 81.165257,125.18877 a 2.1306581,2.102582 0 0 0 1.946651,1.24851 2.1306581,2.102582 0 0 0 1.834512,-1.03353 h -3.414778 z"
           style="fill:#000000;fill-opacity:1;fill-rule:evenodd;stroke:none;stroke-width:0.294027"
           id="path4423" />
      </g>
    </g>
    <rect
       ry="18.927814"
       y="169.76643"
       x="26.506935"
       height="78.042816"
       width="42.330822"
       id="rect4589"
       style="fill:#2c752c;fill-opacity:1;fill-rule:evenodd;stroke:none;stroke-width:0.264583" />
    <rect
       ry="1.6628249"
       y="213.75531"
       x="45.695938"
       height="58.513317"
       width="3.952817"
       id="rect4591"
       style="fill:#784421;fill-opacity:1;fill-rule:evenodd;stroke:none;stroke-width:0.264583" />
  </g>
</svg>
