<?xml version="1.0" encoding="UTF-8" standalone="no"?>
<svg
   xmlns:dc="http://purl.org/dc/elements/1.1/"
   xmlns:cc="http://creativecommons.org/ns#"
   xmlns:rdf="http://www.w3.org/1999/02/22-rdf-syntax-ns#"
   xmlns:svg="http://www.w3.org/2000/svg"
   xmlns="http://www.w3.org/2000/svg"
   xmlns:sodipodi="http://sodipodi.sourceforge.net/DTD/sodipodi-0.dtd"
   xmlns:inkscape="http://www.inkscape.org/namespaces/inkscape"
   sodipodi:docname="spirals.svg"
   inkscape:version="1.0beta2 (2b71d25, 2019-12-03)"
   id="svg885"
   version="1.1"
   viewBox="0 0 210 297"
   height="297mm"
   width="210mm">
  <defs
     id="defs879" />
  <sodipodi:namedview
     inkscape:window-maximized="0"
     inkscape:window-y="23"
     inkscape:window-x="0"
     inkscape:window-height="829"
     inkscape:window-width="1440"
     showgrid="false"
     inkscape:document-rotation="0"
     inkscape:current-layer="layer1"
     inkscape:document-units="mm"
     inkscape:cy="540.3978"
     inkscape:cx="298.09585"
     inkscape:zoom="1"
     inkscape:pageshadow="2"
     inkscape:pageopacity="0.0"
     borderopacity="1.0"
     bordercolor="#666666"
     pagecolor="#ffffff"
     id="base" />
  <metadata
     id="metadata882">
    <rdf:RDF>
      <cc:Work
         rdf:about="">
        <dc:format>image/svg+xml</dc:format>
        <dc:type
           rdf:resource="http://purl.org/dc/dcmitype/StillImage" />
        <dc:title></dc:title>
      </cc:Work>
    </rdf:RDF>
  </metadata>
  <g
     id="layer1"
     inkscape:groupmode="layer"
     inkscape:label="Layer 1">
    <path
       sodipodi:type="spiral"
       style="fill:none;fill-rule:evenodd;stroke:#000000;stroke-width:0.264583"
       id="path1456"
       sodipodi:cx="55.297916"
       sodipodi:cy="116.41666"
       sodipodi:expansion="1"
       sodipodi:revolution="13.531238"
       sodipodi:radius="41.132153"
       sodipodi:argument="-48.415867"
       sodipodi:t0="0"
       d="m 55.297916,116.41666 c -0.125839,0.43957 -0.65462,0.0472 -0.730599,-0.20916 -0.205899,-0.69481 0.531274,-1.23391 1.148906,-1.25204 1.1048,-0.0324 1.845006,1.06451 1.773493,2.08866 -0.10495,1.50297 -1.602839,2.46826 -3.028413,2.29494 -1.900067,-0.23102 -3.096345,-2.14269 -2.816385,-3.96817 0.352301,-2.29718 2.683191,-3.72685 4.907919,-3.33783 2.694444,0.47115 4.358747,3.22405 3.859277,5.84767 -0.588607,3.09185 -3.765134,4.99151 -6.787425,4.38072 -3.489356,-0.70518 -5.624861,-4.30636 -4.90217,-7.72717 0.821168,-3.88695 4.847694,-6.25862 8.666932,-5.42362 4.284608,0.93674 6.892666,5.3891 5.945062,9.60668 -1.05202,4.68232 -5.930568,7.52694 -10.546438,6.46651 -5.080065,-1.16707 -8.161381,-6.47208 -6.987955,-11.48619 1.281952,-5.47784 7.013626,-8.79596 12.425945,-7.5094 5.87565,1.3967 9.430642,7.5552 8.030847,13.3657 -1.511331,6.27348 -8.096801,10.06541 -14.305451,8.55229 -6.671322,-1.62588 -10.700257,-8.63842 -9.07374,-15.2452 1.740355,-7.06918 9.180055,-11.33516 16.184958,-9.59519 7.467054,1.85477 11.970112,9.7217 10.116632,17.12471 -1.969133,7.86494 -10.263364,12.60511 -18.064464,10.63808 -8.262829,-2.08345 -13.24014,-10.80503 -11.159524,-19.00422 2.197737,-8.66073 11.346714,-13.8752 19.943969,-11.68097 9.058637,2.31199 14.510296,11.88841 12.202418,20.88373 -2.426214,9.45655 -12.430097,15.14541 -21.823477,12.72386 C 40.423765,131.41064 34.497686,120.97925 37.032924,111.18782 39.687515,100.93543 50.546427,94.772118 60.735906,97.421064 71.386226,100.18981 77.78678,111.47628 75.024108,122.0638 72.141216,133.11205 60.42718,139.74986 49.44162,136.87345 37.995434,133.87643 31.120359,121.7348 34.110525,110.35121 37.221659,98.507082 49.790894,91.394734 61.57252,94.498665 73.814585,97.723902 81.164215,110.72076 77.946507,122.90041 74.60718,135.54042 61.182685,143.12734 48.605006,139.79585 35.567052,136.34244 27.742837,122.49029 31.188126,109.51459 34.755607,96.078691 49.035412,88.017174 62.409134,91.576267 76.242985,95.257811 84.541809,109.96529 80.868906,123.73703 77.073305,137.96883 61.938148,146.50497 47.768392,142.71825 33.138637,138.8086 24.365183,123.24575 28.265727,108.67798 32.289421,93.650269 48.279965,84.639494 63.245748,88.653868 c 15.425665,4.137731 24.673765,20.555982 20.545557,35.919772 -4.251763,15.82362 -21.097724,25.30905 -36.859527,21.067 -16.221581,-4.36579 -25.944341,-21.63946 -21.588449,-37.79928 4.479812,-16.619535 22.181215,-26.579631 38.739033,-22.109891 17.0175,4.59383 27.214934,22.722961 22.631342,39.678791 -4.707845,17.41546 -23.264712,27.85023 -40.61854,23.15278 C 28.28174,143.74119 17.609622,124.75658 22.42093,107.00475 27.356792,88.793364 46.769141,77.8839 64.918975,82.80907 83.528326,87.858936 94.675138,107.69903 89.636102,126.24687 84.472236,145.25418 64.204387,156.63835 45.25855,151.48544 25.85327,146.20758 14.231756,125.51197 19.498531,106.16814 24.89039,86.36489 46.013753,74.506023 65.755589,79.886671 85.956803,85.392523 98.053026,106.94365 92.558501,127.08348 86.938659,147.68266 64.95977,160.01624 44.421937,154.40784 23.424789,148.67401 10.85385,126.26735 16.576132,105.33152 22.423949,83.936407 45.258376,71.128108 66.592203,76.964273 c 2.592954,0.709338 5.115559,1.674129 7.520354,2.87557"
       transform="matrix(0.69387131,0,0,1.5804089,6.2448478,-43.845322)" />
    <path
       transform="matrix(0.69387131,0,0,1.5804089,6.7740145,-43.845322)"
       d="m 55.297916,116.41666 c -0.125839,0.43957 -0.65462,0.0472 -0.730599,-0.20916 -0.205899,-0.69481 0.531274,-1.23391 1.148906,-1.25204 1.1048,-0.0324 1.845006,1.06451 1.773493,2.08866 -0.10495,1.50297 -1.602839,2.46826 -3.028413,2.29494 -1.900067,-0.23102 -3.096345,-2.14269 -2.816385,-3.96817 0.352301,-2.29718 2.683191,-3.72685 4.907919,-3.33783 2.694444,0.47115 4.358747,3.22405 3.859277,5.84767 -0.588607,3.09185 -3.765134,4.99151 -6.787425,4.38072 -3.489356,-0.70518 -5.624861,-4.30636 -4.90217,-7.72717 0.821168,-3.88695 4.847694,-6.25862 8.666932,-5.42362 4.284608,0.93674 6.892666,5.3891 5.945062,9.60668 -1.05202,4.68232 -5.930568,7.52694 -10.546438,6.46651 -5.080065,-1.16707 -8.161381,-6.47208 -6.987955,-11.48619 1.281952,-5.47784 7.013626,-8.79596 12.425945,-7.5094 5.87565,1.3967 9.430642,7.5552 8.030847,13.3657 -1.511331,6.27348 -8.096801,10.06541 -14.305451,8.55229 -6.671322,-1.62588 -10.700257,-8.63842 -9.07374,-15.2452 1.740355,-7.06918 9.180055,-11.33516 16.184958,-9.59519 7.467054,1.85477 11.970112,9.7217 10.116632,17.12471 -1.969133,7.86494 -10.263364,12.60511 -18.064464,10.63808 -8.262829,-2.08345 -13.24014,-10.80503 -11.159524,-19.00422 2.197737,-8.66073 11.346714,-13.8752 19.943969,-11.68097 9.058637,2.31199 14.510296,11.88841 12.202418,20.88373 -2.426214,9.45655 -12.430097,15.14541 -21.823477,12.72386 C 40.423765,131.41064 34.497686,120.97925 37.032924,111.18782 39.687515,100.93543 50.546427,94.772118 60.735906,97.421064 71.386226,100.18981 77.78678,111.47628 75.024108,122.0638 72.141216,133.11205 60.42718,139.74986 49.44162,136.87345 37.995434,133.87643 31.120359,121.7348 34.110525,110.35121 37.221659,98.507082 49.790894,91.394734 61.57252,94.498665 73.814585,97.723902 81.164215,110.72076 77.946507,122.90041 74.60718,135.54042 61.182685,143.12734 48.605006,139.79585 35.567052,136.34244 27.742837,122.49029 31.188126,109.51459 34.755607,96.078691 49.035412,88.017174 62.409134,91.576267 76.242985,95.257811 84.541809,109.96529 80.868906,123.73703 77.073305,137.96883 61.938148,146.50497 47.768392,142.71825 33.138637,138.8086 24.365183,123.24575 28.265727,108.67798 32.289421,93.650269 48.279965,84.639494 63.245748,88.653868 c 15.425665,4.137731 24.673765,20.555982 20.545557,35.919772 -4.251763,15.82362 -21.097724,25.30905 -36.859527,21.067 -16.221581,-4.36579 -25.944341,-21.63946 -21.588449,-37.79928 4.479812,-16.619535 22.181215,-26.579631 38.739033,-22.109891 17.0175,4.59383 27.214934,22.722961 22.631342,39.678791 -4.707845,17.41546 -23.264712,27.85023 -40.61854,23.15278 C 28.28174,143.74119 17.609622,124.75658 22.42093,107.00475 27.356792,88.793364 46.769141,77.8839 64.918975,82.80907 83.528326,87.858936 94.675138,107.69903 89.636102,126.24687 84.472236,145.25418 64.204387,156.63835 45.25855,151.48544 25.85327,146.20758 14.231756,125.51197 19.498531,106.16814 24.89039,86.36489 46.013753,74.506023 65.755589,79.886671 85.956803,85.392523 98.053026,106.94365 92.558501,127.08348 86.938659,147.68266 64.95977,160.01624 44.421937,154.40784 23.424789,148.67401 10.85385,126.26735 16.576132,105.33152 22.423949,83.936407 45.258376,71.128108 66.592203,76.964273 c 2.592954,0.709338 5.115559,1.674129 7.520354,2.87557"
       sodipodi:t0="0"
       sodipodi:argument="-48.415867"
       sodipodi:radius="41.132153"
       sodipodi:revolution="13.531238"
       sodipodi:expansion="1"
       sodipodi:cy="116.41666"
       sodipodi:cx="55.297916"
       id="path1458"
       style="fill:none;fill-rule:evenodd;stroke:#000000;stroke-width:0.264583"
       sodipodi:type="spiral" />
    <path
       sodipodi:type="spiral"
       style="fill:none;fill-rule:evenodd;stroke:#000000;stroke-width:0.264583"
       id="path1460"
       sodipodi:cx="55.297916"
       sodipodi:cy="116.41666"
       sodipodi:expansion="1"
       sodipodi:revolution="13.531238"
       sodipodi:radius="41.132153"
       sodipodi:argument="-48.415867"
       sodipodi:t0="0"
       d="m 55.297916,116.41666 c -0.125839,0.43957 -0.65462,0.0472 -0.730599,-0.20916 -0.205899,-0.69481 0.531274,-1.23391 1.148906,-1.25204 1.1048,-0.0324 1.845006,1.06451 1.773493,2.08866 -0.10495,1.50297 -1.602839,2.46826 -3.028413,2.29494 -1.900067,-0.23102 -3.096345,-2.14269 -2.816385,-3.96817 0.352301,-2.29718 2.683191,-3.72685 4.907919,-3.33783 2.694444,0.47115 4.358747,3.22405 3.859277,5.84767 -0.588607,3.09185 -3.765134,4.99151 -6.787425,4.38072 -3.489356,-0.70518 -5.624861,-4.30636 -4.90217,-7.72717 0.821168,-3.88695 4.847694,-6.25862 8.666932,-5.42362 4.284608,0.93674 6.892666,5.3891 5.945062,9.60668 -1.05202,4.68232 -5.930568,7.52694 -10.546438,6.46651 -5.080065,-1.16707 -8.161381,-6.47208 -6.987955,-11.48619 1.281952,-5.47784 7.013626,-8.79596 12.425945,-7.5094 5.87565,1.3967 9.430642,7.5552 8.030847,13.3657 -1.511331,6.27348 -8.096801,10.06541 -14.305451,8.55229 -6.671322,-1.62588 -10.700257,-8.63842 -9.07374,-15.2452 1.740355,-7.06918 9.180055,-11.33516 16.184958,-9.59519 7.467054,1.85477 11.970112,9.7217 10.116632,17.12471 -1.969133,7.86494 -10.263364,12.60511 -18.064464,10.63808 -8.262829,-2.08345 -13.24014,-10.80503 -11.159524,-19.00422 2.197737,-8.66073 11.346714,-13.8752 19.943969,-11.68097 9.058637,2.31199 14.510296,11.88841 12.202418,20.88373 -2.426214,9.45655 -12.430097,15.14541 -21.823477,12.72386 C 40.423765,131.41064 34.497686,120.97925 37.032924,111.18782 39.687515,100.93543 50.546427,94.772118 60.735906,97.421064 71.386226,100.18981 77.78678,111.47628 75.024108,122.0638 72.141216,133.11205 60.42718,139.74986 49.44162,136.87345 37.995434,133.87643 31.120359,121.7348 34.110525,110.35121 37.221659,98.507082 49.790894,91.394734 61.57252,94.498665 73.814585,97.723902 81.164215,110.72076 77.946507,122.90041 74.60718,135.54042 61.182685,143.12734 48.605006,139.79585 35.567052,136.34244 27.742837,122.49029 31.188126,109.51459 34.755607,96.078691 49.035412,88.017174 62.409134,91.576267 76.242985,95.257811 84.541809,109.96529 80.868906,123.73703 77.073305,137.96883 61.938148,146.50497 47.768392,142.71825 33.138637,138.8086 24.365183,123.24575 28.265727,108.67798 32.289421,93.650269 48.279965,84.639494 63.245748,88.653868 c 15.425665,4.137731 24.673765,20.555982 20.545557,35.919772 -4.251763,15.82362 -21.097724,25.30905 -36.859527,21.067 -16.221581,-4.36579 -25.944341,-21.63946 -21.588449,-37.79928 4.479812,-16.619535 22.181215,-26.579631 38.739033,-22.109891 17.0175,4.59383 27.214934,22.722961 22.631342,39.678791 -4.707845,17.41546 -23.264712,27.85023 -40.61854,23.15278 C 28.28174,143.74119 17.609622,124.75658 22.42093,107.00475 27.356792,88.793364 46.769141,77.8839 64.918975,82.80907 83.528326,87.858936 94.675138,107.69903 89.636102,126.24687 84.472236,145.25418 64.204387,156.63835 45.25855,151.48544 25.85327,146.20758 14.231756,125.51197 19.498531,106.16814 24.89039,86.36489 46.013753,74.506023 65.755589,79.886671 85.956803,85.392523 98.053026,106.94365 92.558501,127.08348 86.938659,147.68266 64.95977,160.01624 44.421937,154.40784 23.424789,148.67401 10.85385,126.26735 16.576132,105.33152 22.423949,83.936407 45.258376,71.128108 66.592203,76.964273 c 2.592954,0.709338 5.115559,1.674129 7.520354,2.87557"
       transform="matrix(0.69387131,0,0,1.5804089,7.3031812,-43.845322)" />
    <path
       transform="matrix(0.69387131,0,0,1.5804089,7.8323479,-43.845322)"
       d="m 55.297916,116.41666 c -0.125839,0.43957 -0.65462,0.0472 -0.730599,-0.20916 -0.205899,-0.69481 0.531274,-1.23391 1.148906,-1.25204 1.1048,-0.0324 1.845006,1.06451 1.773493,2.08866 -0.10495,1.50297 -1.602839,2.46826 -3.028413,2.29494 -1.900067,-0.23102 -3.096345,-2.14269 -2.816385,-3.96817 0.352301,-2.29718 2.683191,-3.72685 4.907919,-3.33783 2.694444,0.47115 4.358747,3.22405 3.859277,5.84767 -0.588607,3.09185 -3.765134,4.99151 -6.787425,4.38072 -3.489356,-0.70518 -5.624861,-4.30636 -4.90217,-7.72717 0.821168,-3.88695 4.847694,-6.25862 8.666932,-5.42362 4.284608,0.93674 6.892666,5.3891 5.945062,9.60668 -1.05202,4.68232 -5.930568,7.52694 -10.546438,6.46651 -5.080065,-1.16707 -8.161381,-6.47208 -6.987955,-11.48619 1.281952,-5.47784 7.013626,-8.79596 12.425945,-7.5094 5.87565,1.3967 9.430642,7.5552 8.030847,13.3657 -1.511331,6.27348 -8.096801,10.06541 -14.305451,8.55229 -6.671322,-1.62588 -10.700257,-8.63842 -9.07374,-15.2452 1.740355,-7.06918 9.180055,-11.33516 16.184958,-9.59519 7.467054,1.85477 11.970112,9.7217 10.116632,17.12471 -1.969133,7.86494 -10.263364,12.60511 -18.064464,10.63808 -8.262829,-2.08345 -13.24014,-10.80503 -11.159524,-19.00422 2.197737,-8.66073 11.346714,-13.8752 19.943969,-11.68097 9.058637,2.31199 14.510296,11.88841 12.202418,20.88373 -2.426214,9.45655 -12.430097,15.14541 -21.823477,12.72386 C 40.423765,131.41064 34.497686,120.97925 37.032924,111.18782 39.687515,100.93543 50.546427,94.772118 60.735906,97.421064 71.386226,100.18981 77.78678,111.47628 75.024108,122.0638 72.141216,133.11205 60.42718,139.74986 49.44162,136.87345 37.995434,133.87643 31.120359,121.7348 34.110525,110.35121 37.221659,98.507082 49.790894,91.394734 61.57252,94.498665 73.814585,97.723902 81.164215,110.72076 77.946507,122.90041 74.60718,135.54042 61.182685,143.12734 48.605006,139.79585 35.567052,136.34244 27.742837,122.49029 31.188126,109.51459 34.755607,96.078691 49.035412,88.017174 62.409134,91.576267 76.242985,95.257811 84.541809,109.96529 80.868906,123.73703 77.073305,137.96883 61.938148,146.50497 47.768392,142.71825 33.138637,138.8086 24.365183,123.24575 28.265727,108.67798 32.289421,93.650269 48.279965,84.639494 63.245748,88.653868 c 15.425665,4.137731 24.673765,20.555982 20.545557,35.919772 -4.251763,15.82362 -21.097724,25.30905 -36.859527,21.067 -16.221581,-4.36579 -25.944341,-21.63946 -21.588449,-37.79928 4.479812,-16.619535 22.181215,-26.579631 38.739033,-22.109891 17.0175,4.59383 27.214934,22.722961 22.631342,39.678791 -4.707845,17.41546 -23.264712,27.85023 -40.61854,23.15278 C 28.28174,143.74119 17.609622,124.75658 22.42093,107.00475 27.356792,88.793364 46.769141,77.8839 64.918975,82.80907 83.528326,87.858936 94.675138,107.69903 89.636102,126.24687 84.472236,145.25418 64.204387,156.63835 45.25855,151.48544 25.85327,146.20758 14.231756,125.51197 19.498531,106.16814 24.89039,86.36489 46.013753,74.506023 65.755589,79.886671 85.956803,85.392523 98.053026,106.94365 92.558501,127.08348 86.938659,147.68266 64.95977,160.01624 44.421937,154.40784 23.424789,148.67401 10.85385,126.26735 16.576132,105.33152 22.423949,83.936407 45.258376,71.128108 66.592203,76.964273 c 2.592954,0.709338 5.115559,1.674129 7.520354,2.87557"
       sodipodi:t0="0"
       sodipodi:argument="-48.415867"
       sodipodi:radius="41.132153"
       sodipodi:revolution="13.531238"
       sodipodi:expansion="1"
       sodipodi:cy="116.41666"
       sodipodi:cx="55.297916"
       id="path1466"
       style="fill:none;fill-rule:evenodd;stroke:#000000;stroke-width:0.264583"
       sodipodi:type="spiral" />
    <path
       sodipodi:type="spiral"
       style="fill:none;fill-rule:evenodd;stroke:#000000;stroke-width:0.264583"
       id="path1468"
       sodipodi:cx="55.297916"
       sodipodi:cy="116.41666"
       sodipodi:expansion="1"
       sodipodi:revolution="13.531238"
       sodipodi:radius="41.132153"
       sodipodi:argument="-48.415867"
       sodipodi:t0="0"
       d="m 55.297916,116.41666 c -0.125839,0.43957 -0.65462,0.0472 -0.730599,-0.20916 -0.205899,-0.69481 0.531274,-1.23391 1.148906,-1.25204 1.1048,-0.0324 1.845006,1.06451 1.773493,2.08866 -0.10495,1.50297 -1.602839,2.46826 -3.028413,2.29494 -1.900067,-0.23102 -3.096345,-2.14269 -2.816385,-3.96817 0.352301,-2.29718 2.683191,-3.72685 4.907919,-3.33783 2.694444,0.47115 4.358747,3.22405 3.859277,5.84767 -0.588607,3.09185 -3.765134,4.99151 -6.787425,4.38072 -3.489356,-0.70518 -5.624861,-4.30636 -4.90217,-7.72717 0.821168,-3.88695 4.847694,-6.25862 8.666932,-5.42362 4.284608,0.93674 6.892666,5.3891 5.945062,9.60668 -1.05202,4.68232 -5.930568,7.52694 -10.546438,6.46651 -5.080065,-1.16707 -8.161381,-6.47208 -6.987955,-11.48619 1.281952,-5.47784 7.013626,-8.79596 12.425945,-7.5094 5.87565,1.3967 9.430642,7.5552 8.030847,13.3657 -1.511331,6.27348 -8.096801,10.06541 -14.305451,8.55229 -6.671322,-1.62588 -10.700257,-8.63842 -9.07374,-15.2452 1.740355,-7.06918 9.180055,-11.33516 16.184958,-9.59519 7.467054,1.85477 11.970112,9.7217 10.116632,17.12471 -1.969133,7.86494 -10.263364,12.60511 -18.064464,10.63808 -8.262829,-2.08345 -13.24014,-10.80503 -11.159524,-19.00422 2.197737,-8.66073 11.346714,-13.8752 19.943969,-11.68097 9.058637,2.31199 14.510296,11.88841 12.202418,20.88373 -2.426214,9.45655 -12.430097,15.14541 -21.823477,12.72386 C 40.423765,131.41064 34.497686,120.97925 37.032924,111.18782 39.687515,100.93543 50.546427,94.772118 60.735906,97.421064 71.386226,100.18981 77.78678,111.47628 75.024108,122.0638 72.141216,133.11205 60.42718,139.74986 49.44162,136.87345 37.995434,133.87643 31.120359,121.7348 34.110525,110.35121 37.221659,98.507082 49.790894,91.394734 61.57252,94.498665 73.814585,97.723902 81.164215,110.72076 77.946507,122.90041 74.60718,135.54042 61.182685,143.12734 48.605006,139.79585 35.567052,136.34244 27.742837,122.49029 31.188126,109.51459 34.755607,96.078691 49.035412,88.017174 62.409134,91.576267 76.242985,95.257811 84.541809,109.96529 80.868906,123.73703 77.073305,137.96883 61.938148,146.50497 47.768392,142.71825 33.138637,138.8086 24.365183,123.24575 28.265727,108.67798 32.289421,93.650269 48.279965,84.639494 63.245748,88.653868 c 15.425665,4.137731 24.673765,20.555982 20.545557,35.919772 -4.251763,15.82362 -21.097724,25.30905 -36.859527,21.067 -16.221581,-4.36579 -25.944341,-21.63946 -21.588449,-37.79928 4.479812,-16.619535 22.181215,-26.579631 38.739033,-22.109891 17.0175,4.59383 27.214934,22.722961 22.631342,39.678791 -4.707845,17.41546 -23.264712,27.85023 -40.61854,23.15278 C 28.28174,143.74119 17.609622,124.75658 22.42093,107.00475 27.356792,88.793364 46.769141,77.8839 64.918975,82.80907 83.528326,87.858936 94.675138,107.69903 89.636102,126.24687 84.472236,145.25418 64.204387,156.63835 45.25855,151.48544 25.85327,146.20758 14.231756,125.51197 19.498531,106.16814 24.89039,86.36489 46.013753,74.506023 65.755589,79.886671 85.956803,85.392523 98.053026,106.94365 92.558501,127.08348 86.938659,147.68266 64.95977,160.01624 44.421937,154.40784 23.424789,148.67401 10.85385,126.26735 16.576132,105.33152 22.423949,83.936407 45.258376,71.128108 66.592203,76.964273 c 2.592954,0.709338 5.115559,1.674129 7.520354,2.87557"
       transform="matrix(0.69387131,0,0,1.5804089,8.3615146,-43.845322)" />
    <path
       transform="matrix(0.69387131,0,0,1.5804089,8.8906813,-43.845322)"
       d="m 55.297916,116.41666 c -0.125839,0.43957 -0.65462,0.0472 -0.730599,-0.20916 -0.205899,-0.69481 0.531274,-1.23391 1.148906,-1.25204 1.1048,-0.0324 1.845006,1.06451 1.773493,2.08866 -0.10495,1.50297 -1.602839,2.46826 -3.028413,2.29494 -1.900067,-0.23102 -3.096345,-2.14269 -2.816385,-3.96817 0.352301,-2.29718 2.683191,-3.72685 4.907919,-3.33783 2.694444,0.47115 4.358747,3.22405 3.859277,5.84767 -0.588607,3.09185 -3.765134,4.99151 -6.787425,4.38072 -3.489356,-0.70518 -5.624861,-4.30636 -4.90217,-7.72717 0.821168,-3.88695 4.847694,-6.25862 8.666932,-5.42362 4.284608,0.93674 6.892666,5.3891 5.945062,9.60668 -1.05202,4.68232 -5.930568,7.52694 -10.546438,6.46651 -5.080065,-1.16707 -8.161381,-6.47208 -6.987955,-11.48619 1.281952,-5.47784 7.013626,-8.79596 12.425945,-7.5094 5.87565,1.3967 9.430642,7.5552 8.030847,13.3657 -1.511331,6.27348 -8.096801,10.06541 -14.305451,8.55229 -6.671322,-1.62588 -10.700257,-8.63842 -9.07374,-15.2452 1.740355,-7.06918 9.180055,-11.33516 16.184958,-9.59519 7.467054,1.85477 11.970112,9.7217 10.116632,17.12471 -1.969133,7.86494 -10.263364,12.60511 -18.064464,10.63808 -8.262829,-2.08345 -13.24014,-10.80503 -11.159524,-19.00422 2.197737,-8.66073 11.346714,-13.8752 19.943969,-11.68097 9.058637,2.31199 14.510296,11.88841 12.202418,20.88373 -2.426214,9.45655 -12.430097,15.14541 -21.823477,12.72386 C 40.423765,131.41064 34.497686,120.97925 37.032924,111.18782 39.687515,100.93543 50.546427,94.772118 60.735906,97.421064 71.386226,100.18981 77.78678,111.47628 75.024108,122.0638 72.141216,133.11205 60.42718,139.74986 49.44162,136.87345 37.995434,133.87643 31.120359,121.7348 34.110525,110.35121 37.221659,98.507082 49.790894,91.394734 61.57252,94.498665 73.814585,97.723902 81.164215,110.72076 77.946507,122.90041 74.60718,135.54042 61.182685,143.12734 48.605006,139.79585 35.567052,136.34244 27.742837,122.49029 31.188126,109.51459 34.755607,96.078691 49.035412,88.017174 62.409134,91.576267 76.242985,95.257811 84.541809,109.96529 80.868906,123.73703 77.073305,137.96883 61.938148,146.50497 47.768392,142.71825 33.138637,138.8086 24.365183,123.24575 28.265727,108.67798 32.289421,93.650269 48.279965,84.639494 63.245748,88.653868 c 15.425665,4.137731 24.673765,20.555982 20.545557,35.919772 -4.251763,15.82362 -21.097724,25.30905 -36.859527,21.067 -16.221581,-4.36579 -25.944341,-21.63946 -21.588449,-37.79928 4.479812,-16.619535 22.181215,-26.579631 38.739033,-22.109891 17.0175,4.59383 27.214934,22.722961 22.631342,39.678791 -4.707845,17.41546 -23.264712,27.85023 -40.61854,23.15278 C 28.28174,143.74119 17.609622,124.75658 22.42093,107.00475 27.356792,88.793364 46.769141,77.8839 64.918975,82.80907 83.528326,87.858936 94.675138,107.69903 89.636102,126.24687 84.472236,145.25418 64.204387,156.63835 45.25855,151.48544 25.85327,146.20758 14.231756,125.51197 19.498531,106.16814 24.89039,86.36489 46.013753,74.506023 65.755589,79.886671 85.956803,85.392523 98.053026,106.94365 92.558501,127.08348 86.938659,147.68266 64.95977,160.01624 44.421937,154.40784 23.424789,148.67401 10.85385,126.26735 16.576132,105.33152 22.423949,83.936407 45.258376,71.128108 66.592203,76.964273 c 2.592954,0.709338 5.115559,1.674129 7.520354,2.87557"
       sodipodi:t0="0"
       sodipodi:argument="-48.415867"
       sodipodi:radius="41.132153"
       sodipodi:revolution="13.531238"
       sodipodi:expansion="1"
       sodipodi:cy="116.41666"
       sodipodi:cx="55.297916"
       id="path1470"
       style="fill:none;fill-rule:evenodd;stroke:#000000;stroke-width:0.264583"
       sodipodi:type="spiral" />
    <path
       sodipodi:type="spiral"
       style="fill:none;fill-rule:evenodd;stroke:#000000;stroke-width:0.264583"
       id="path1472"
       sodipodi:cx="55.297916"
       sodipodi:cy="116.41666"
       sodipodi:expansion="1"
       sodipodi:revolution="13.531238"
       sodipodi:radius="41.132153"
       sodipodi:argument="-48.415867"
       sodipodi:t0="0"
       d="m 55.297916,116.41666 c -0.125839,0.43957 -0.65462,0.0472 -0.730599,-0.20916 -0.205899,-0.69481 0.531274,-1.23391 1.148906,-1.25204 1.1048,-0.0324 1.845006,1.06451 1.773493,2.08866 -0.10495,1.50297 -1.602839,2.46826 -3.028413,2.29494 -1.900067,-0.23102 -3.096345,-2.14269 -2.816385,-3.96817 0.352301,-2.29718 2.683191,-3.72685 4.907919,-3.33783 2.694444,0.47115 4.358747,3.22405 3.859277,5.84767 -0.588607,3.09185 -3.765134,4.99151 -6.787425,4.38072 -3.489356,-0.70518 -5.624861,-4.30636 -4.90217,-7.72717 0.821168,-3.88695 4.847694,-6.25862 8.666932,-5.42362 4.284608,0.93674 6.892666,5.3891 5.945062,9.60668 -1.05202,4.68232 -5.930568,7.52694 -10.546438,6.46651 -5.080065,-1.16707 -8.161381,-6.47208 -6.987955,-11.48619 1.281952,-5.47784 7.013626,-8.79596 12.425945,-7.5094 5.87565,1.3967 9.430642,7.5552 8.030847,13.3657 -1.511331,6.27348 -8.096801,10.06541 -14.305451,8.55229 -6.671322,-1.62588 -10.700257,-8.63842 -9.07374,-15.2452 1.740355,-7.06918 9.180055,-11.33516 16.184958,-9.59519 7.467054,1.85477 11.970112,9.7217 10.116632,17.12471 -1.969133,7.86494 -10.263364,12.60511 -18.064464,10.63808 -8.262829,-2.08345 -13.24014,-10.80503 -11.159524,-19.00422 2.197737,-8.66073 11.346714,-13.8752 19.943969,-11.68097 9.058637,2.31199 14.510296,11.88841 12.202418,20.88373 -2.426214,9.45655 -12.430097,15.14541 -21.823477,12.72386 C 40.423765,131.41064 34.497686,120.97925 37.032924,111.18782 39.687515,100.93543 50.546427,94.772118 60.735906,97.421064 71.386226,100.18981 77.78678,111.47628 75.024108,122.0638 72.141216,133.11205 60.42718,139.74986 49.44162,136.87345 37.995434,133.87643 31.120359,121.7348 34.110525,110.35121 37.221659,98.507082 49.790894,91.394734 61.57252,94.498665 73.814585,97.723902 81.164215,110.72076 77.946507,122.90041 74.60718,135.54042 61.182685,143.12734 48.605006,139.79585 35.567052,136.34244 27.742837,122.49029 31.188126,109.51459 34.755607,96.078691 49.035412,88.017174 62.409134,91.576267 76.242985,95.257811 84.541809,109.96529 80.868906,123.73703 77.073305,137.96883 61.938148,146.50497 47.768392,142.71825 33.138637,138.8086 24.365183,123.24575 28.265727,108.67798 32.289421,93.650269 48.279965,84.639494 63.245748,88.653868 c 15.425665,4.137731 24.673765,20.555982 20.545557,35.919772 -4.251763,15.82362 -21.097724,25.30905 -36.859527,21.067 -16.221581,-4.36579 -25.944341,-21.63946 -21.588449,-37.79928 4.479812,-16.619535 22.181215,-26.579631 38.739033,-22.109891 17.0175,4.59383 27.214934,22.722961 22.631342,39.678791 -4.707845,17.41546 -23.264712,27.85023 -40.61854,23.15278 C 28.28174,143.74119 17.609622,124.75658 22.42093,107.00475 27.356792,88.793364 46.769141,77.8839 64.918975,82.80907 83.528326,87.858936 94.675138,107.69903 89.636102,126.24687 84.472236,145.25418 64.204387,156.63835 45.25855,151.48544 25.85327,146.20758 14.231756,125.51197 19.498531,106.16814 24.89039,86.36489 46.013753,74.506023 65.755589,79.886671 85.956803,85.392523 98.053026,106.94365 92.558501,127.08348 86.938659,147.68266 64.95977,160.01624 44.421937,154.40784 23.424789,148.67401 10.85385,126.26735 16.576132,105.33152 22.423949,83.936407 45.258376,71.128108 66.592203,76.964273 c 2.592954,0.709338 5.115559,1.674129 7.520354,2.87557"
       transform="matrix(0.69387131,0,0,1.5804089,9.419848,-43.845322)" />
    <path
       transform="matrix(0.69387131,0,0,1.5804089,9.9490147,-43.845322)"
       d="m 55.297916,116.41666 c -0.125839,0.43957 -0.65462,0.0472 -0.730599,-0.20916 -0.205899,-0.69481 0.531274,-1.23391 1.148906,-1.25204 1.1048,-0.0324 1.845006,1.06451 1.773493,2.08866 -0.10495,1.50297 -1.602839,2.46826 -3.028413,2.29494 -1.900067,-0.23102 -3.096345,-2.14269 -2.816385,-3.96817 0.352301,-2.29718 2.683191,-3.72685 4.907919,-3.33783 2.694444,0.47115 4.358747,3.22405 3.859277,5.84767 -0.588607,3.09185 -3.765134,4.99151 -6.787425,4.38072 -3.489356,-0.70518 -5.624861,-4.30636 -4.90217,-7.72717 0.821168,-3.88695 4.847694,-6.25862 8.666932,-5.42362 4.284608,0.93674 6.892666,5.3891 5.945062,9.60668 -1.05202,4.68232 -5.930568,7.52694 -10.546438,6.46651 -5.080065,-1.16707 -8.161381,-6.47208 -6.987955,-11.48619 1.281952,-5.47784 7.013626,-8.79596 12.425945,-7.5094 5.87565,1.3967 9.430642,7.5552 8.030847,13.3657 -1.511331,6.27348 -8.096801,10.06541 -14.305451,8.55229 -6.671322,-1.62588 -10.700257,-8.63842 -9.07374,-15.2452 1.740355,-7.06918 9.180055,-11.33516 16.184958,-9.59519 7.467054,1.85477 11.970112,9.7217 10.116632,17.12471 -1.969133,7.86494 -10.263364,12.60511 -18.064464,10.63808 -8.262829,-2.08345 -13.24014,-10.80503 -11.159524,-19.00422 2.197737,-8.66073 11.346714,-13.8752 19.943969,-11.68097 9.058637,2.31199 14.510296,11.88841 12.202418,20.88373 -2.426214,9.45655 -12.430097,15.14541 -21.823477,12.72386 C 40.423765,131.41064 34.497686,120.97925 37.032924,111.18782 39.687515,100.93543 50.546427,94.772118 60.735906,97.421064 71.386226,100.18981 77.78678,111.47628 75.024108,122.0638 72.141216,133.11205 60.42718,139.74986 49.44162,136.87345 37.995434,133.87643 31.120359,121.7348 34.110525,110.35121 37.221659,98.507082 49.790894,91.394734 61.57252,94.498665 73.814585,97.723902 81.164215,110.72076 77.946507,122.90041 74.60718,135.54042 61.182685,143.12734 48.605006,139.79585 35.567052,136.34244 27.742837,122.49029 31.188126,109.51459 34.755607,96.078691 49.035412,88.017174 62.409134,91.576267 76.242985,95.257811 84.541809,109.96529 80.868906,123.73703 77.073305,137.96883 61.938148,146.50497 47.768392,142.71825 33.138637,138.8086 24.365183,123.24575 28.265727,108.67798 32.289421,93.650269 48.279965,84.639494 63.245748,88.653868 c 15.425665,4.137731 24.673765,20.555982 20.545557,35.919772 -4.251763,15.82362 -21.097724,25.30905 -36.859527,21.067 -16.221581,-4.36579 -25.944341,-21.63946 -21.588449,-37.79928 4.479812,-16.619535 22.181215,-26.579631 38.739033,-22.109891 17.0175,4.59383 27.214934,22.722961 22.631342,39.678791 -4.707845,17.41546 -23.264712,27.85023 -40.61854,23.15278 C 28.28174,143.74119 17.609622,124.75658 22.42093,107.00475 27.356792,88.793364 46.769141,77.8839 64.918975,82.80907 83.528326,87.858936 94.675138,107.69903 89.636102,126.24687 84.472236,145.25418 64.204387,156.63835 45.25855,151.48544 25.85327,146.20758 14.231756,125.51197 19.498531,106.16814 24.89039,86.36489 46.013753,74.506023 65.755589,79.886671 85.956803,85.392523 98.053026,106.94365 92.558501,127.08348 86.938659,147.68266 64.95977,160.01624 44.421937,154.40784 23.424789,148.67401 10.85385,126.26735 16.576132,105.33152 22.423949,83.936407 45.258376,71.128108 66.592203,76.964273 c 2.592954,0.709338 5.115559,1.674129 7.520354,2.87557"
       sodipodi:t0="0"
       sodipodi:argument="-48.415867"
       sodipodi:radius="41.132153"
       sodipodi:revolution="13.531238"
       sodipodi:expansion="1"
       sodipodi:cy="116.41666"
       sodipodi:cx="55.297916"
       id="path1474"
       style="fill:none;fill-rule:evenodd;stroke:#000000;stroke-width:0.264583"
       sodipodi:type="spiral" />
    <path
       sodipodi:type="spiral"
       style="fill:none;fill-rule:evenodd;stroke:#000000;stroke-width:0.264583"
       id="path1476"
       sodipodi:cx="55.297916"
       sodipodi:cy="116.41666"
       sodipodi:expansion="1"
       sodipodi:revolution="13.531238"
       sodipodi:radius="41.132153"
       sodipodi:argument="-48.415867"
       sodipodi:t0="0"
       d="m 55.297916,116.41666 c -0.125839,0.43957 -0.65462,0.0472 -0.730599,-0.20916 -0.205899,-0.69481 0.531274,-1.23391 1.148906,-1.25204 1.1048,-0.0324 1.845006,1.06451 1.773493,2.08866 -0.10495,1.50297 -1.602839,2.46826 -3.028413,2.29494 -1.900067,-0.23102 -3.096345,-2.14269 -2.816385,-3.96817 0.352301,-2.29718 2.683191,-3.72685 4.907919,-3.33783 2.694444,0.47115 4.358747,3.22405 3.859277,5.84767 -0.588607,3.09185 -3.765134,4.99151 -6.787425,4.38072 -3.489356,-0.70518 -5.624861,-4.30636 -4.90217,-7.72717 0.821168,-3.88695 4.847694,-6.25862 8.666932,-5.42362 4.284608,0.93674 6.892666,5.3891 5.945062,9.60668 -1.05202,4.68232 -5.930568,7.52694 -10.546438,6.46651 -5.080065,-1.16707 -8.161381,-6.47208 -6.987955,-11.48619 1.281952,-5.47784 7.013626,-8.79596 12.425945,-7.5094 5.87565,1.3967 9.430642,7.5552 8.030847,13.3657 -1.511331,6.27348 -8.096801,10.06541 -14.305451,8.55229 -6.671322,-1.62588 -10.700257,-8.63842 -9.07374,-15.2452 1.740355,-7.06918 9.180055,-11.33516 16.184958,-9.59519 7.467054,1.85477 11.970112,9.7217 10.116632,17.12471 -1.969133,7.86494 -10.263364,12.60511 -18.064464,10.63808 -8.262829,-2.08345 -13.24014,-10.80503 -11.159524,-19.00422 2.197737,-8.66073 11.346714,-13.8752 19.943969,-11.68097 9.058637,2.31199 14.510296,11.88841 12.202418,20.88373 -2.426214,9.45655 -12.430097,15.14541 -21.823477,12.72386 C 40.423765,131.41064 34.497686,120.97925 37.032924,111.18782 39.687515,100.93543 50.546427,94.772118 60.735906,97.421064 71.386226,100.18981 77.78678,111.47628 75.024108,122.0638 72.141216,133.11205 60.42718,139.74986 49.44162,136.87345 37.995434,133.87643 31.120359,121.7348 34.110525,110.35121 37.221659,98.507082 49.790894,91.394734 61.57252,94.498665 73.814585,97.723902 81.164215,110.72076 77.946507,122.90041 74.60718,135.54042 61.182685,143.12734 48.605006,139.79585 35.567052,136.34244 27.742837,122.49029 31.188126,109.51459 34.755607,96.078691 49.035412,88.017174 62.409134,91.576267 76.242985,95.257811 84.541809,109.96529 80.868906,123.73703 77.073305,137.96883 61.938148,146.50497 47.768392,142.71825 33.138637,138.8086 24.365183,123.24575 28.265727,108.67798 32.289421,93.650269 48.279965,84.639494 63.245748,88.653868 c 15.425665,4.137731 24.673765,20.555982 20.545557,35.919772 -4.251763,15.82362 -21.097724,25.30905 -36.859527,21.067 -16.221581,-4.36579 -25.944341,-21.63946 -21.588449,-37.79928 4.479812,-16.619535 22.181215,-26.579631 38.739033,-22.109891 17.0175,4.59383 27.214934,22.722961 22.631342,39.678791 -4.707845,17.41546 -23.264712,27.85023 -40.61854,23.15278 C 28.28174,143.74119 17.609622,124.75658 22.42093,107.00475 27.356792,88.793364 46.769141,77.8839 64.918975,82.80907 83.528326,87.858936 94.675138,107.69903 89.636102,126.24687 84.472236,145.25418 64.204387,156.63835 45.25855,151.48544 25.85327,146.20758 14.231756,125.51197 19.498531,106.16814 24.89039,86.36489 46.013753,74.506023 65.755589,79.886671 85.956803,85.392523 98.053026,106.94365 92.558501,127.08348 86.938659,147.68266 64.95977,160.01624 44.421937,154.40784 23.424789,148.67401 10.85385,126.26735 16.576132,105.33152 22.423949,83.936407 45.258376,71.128108 66.592203,76.964273 c 2.592954,0.709338 5.115559,1.674129 7.520354,2.87557"
       transform="matrix(0.69387131,0,0,1.5804089,9.9490143,-43.845322)" />
    <path
       transform="matrix(0.69387131,0,0,1.5804089,10.478181,-43.845322)"
       d="m 55.297916,116.41666 c -0.125839,0.43957 -0.65462,0.0472 -0.730599,-0.20916 -0.205899,-0.69481 0.531274,-1.23391 1.148906,-1.25204 1.1048,-0.0324 1.845006,1.06451 1.773493,2.08866 -0.10495,1.50297 -1.602839,2.46826 -3.028413,2.29494 -1.900067,-0.23102 -3.096345,-2.14269 -2.816385,-3.96817 0.352301,-2.29718 2.683191,-3.72685 4.907919,-3.33783 2.694444,0.47115 4.358747,3.22405 3.859277,5.84767 -0.588607,3.09185 -3.765134,4.99151 -6.787425,4.38072 -3.489356,-0.70518 -5.624861,-4.30636 -4.90217,-7.72717 0.821168,-3.88695 4.847694,-6.25862 8.666932,-5.42362 4.284608,0.93674 6.892666,5.3891 5.945062,9.60668 -1.05202,4.68232 -5.930568,7.52694 -10.546438,6.46651 -5.080065,-1.16707 -8.161381,-6.47208 -6.987955,-11.48619 1.281952,-5.47784 7.013626,-8.79596 12.425945,-7.5094 5.87565,1.3967 9.430642,7.5552 8.030847,13.3657 -1.511331,6.27348 -8.096801,10.06541 -14.305451,8.55229 -6.671322,-1.62588 -10.700257,-8.63842 -9.07374,-15.2452 1.740355,-7.06918 9.180055,-11.33516 16.184958,-9.59519 7.467054,1.85477 11.970112,9.7217 10.116632,17.12471 -1.969133,7.86494 -10.263364,12.60511 -18.064464,10.63808 -8.262829,-2.08345 -13.24014,-10.80503 -11.159524,-19.00422 2.197737,-8.66073 11.346714,-13.8752 19.943969,-11.68097 9.058637,2.31199 14.510296,11.88841 12.202418,20.88373 -2.426214,9.45655 -12.430097,15.14541 -21.823477,12.72386 C 40.423765,131.41064 34.497686,120.97925 37.032924,111.18782 39.687515,100.93543 50.546427,94.772118 60.735906,97.421064 71.386226,100.18981 77.78678,111.47628 75.024108,122.0638 72.141216,133.11205 60.42718,139.74986 49.44162,136.87345 37.995434,133.87643 31.120359,121.7348 34.110525,110.35121 37.221659,98.507082 49.790894,91.394734 61.57252,94.498665 73.814585,97.723902 81.164215,110.72076 77.946507,122.90041 74.60718,135.54042 61.182685,143.12734 48.605006,139.79585 35.567052,136.34244 27.742837,122.49029 31.188126,109.51459 34.755607,96.078691 49.035412,88.017174 62.409134,91.576267 76.242985,95.257811 84.541809,109.96529 80.868906,123.73703 77.073305,137.96883 61.938148,146.50497 47.768392,142.71825 33.138637,138.8086 24.365183,123.24575 28.265727,108.67798 32.289421,93.650269 48.279965,84.639494 63.245748,88.653868 c 15.425665,4.137731 24.673765,20.555982 20.545557,35.919772 -4.251763,15.82362 -21.097724,25.30905 -36.859527,21.067 -16.221581,-4.36579 -25.944341,-21.63946 -21.588449,-37.79928 4.479812,-16.619535 22.181215,-26.579631 38.739033,-22.109891 17.0175,4.59383 27.214934,22.722961 22.631342,39.678791 -4.707845,17.41546 -23.264712,27.85023 -40.61854,23.15278 C 28.28174,143.74119 17.609622,124.75658 22.42093,107.00475 27.356792,88.793364 46.769141,77.8839 64.918975,82.80907 83.528326,87.858936 94.675138,107.69903 89.636102,126.24687 84.472236,145.25418 64.204387,156.63835 45.25855,151.48544 25.85327,146.20758 14.231756,125.51197 19.498531,106.16814 24.89039,86.36489 46.013753,74.506023 65.755589,79.886671 85.956803,85.392523 98.053026,106.94365 92.558501,127.08348 86.938659,147.68266 64.95977,160.01624 44.421937,154.40784 23.424789,148.67401 10.85385,126.26735 16.576132,105.33152 22.423949,83.936407 45.258376,71.128108 66.592203,76.964273 c 2.592954,0.709338 5.115559,1.674129 7.520354,2.87557"
       sodipodi:t0="0"
       sodipodi:argument="-48.415867"
       sodipodi:radius="41.132153"
       sodipodi:revolution="13.531238"
       sodipodi:expansion="1"
       sodipodi:cy="116.41666"
       sodipodi:cx="55.297916"
       id="path1478"
       style="fill:none;fill-rule:evenodd;stroke:#000000;stroke-width:0.264583"
       sodipodi:type="spiral" />
    <path
       sodipodi:type="spiral"
       style="fill:none;fill-rule:evenodd;stroke:#000000;stroke-width:0.264583"
       id="path1480"
       sodipodi:cx="55.297916"
       sodipodi:cy="116.41666"
       sodipodi:expansion="1"
       sodipodi:revolution="13.531238"
       sodipodi:radius="41.132153"
       sodipodi:argument="-48.415867"
       sodipodi:t0="0"
       d="m 55.297916,116.41666 c -0.125839,0.43957 -0.65462,0.0472 -0.730599,-0.20916 -0.205899,-0.69481 0.531274,-1.23391 1.148906,-1.25204 1.1048,-0.0324 1.845006,1.06451 1.773493,2.08866 -0.10495,1.50297 -1.602839,2.46826 -3.028413,2.29494 -1.900067,-0.23102 -3.096345,-2.14269 -2.816385,-3.96817 0.352301,-2.29718 2.683191,-3.72685 4.907919,-3.33783 2.694444,0.47115 4.358747,3.22405 3.859277,5.84767 -0.588607,3.09185 -3.765134,4.99151 -6.787425,4.38072 -3.489356,-0.70518 -5.624861,-4.30636 -4.90217,-7.72717 0.821168,-3.88695 4.847694,-6.25862 8.666932,-5.42362 4.284608,0.93674 6.892666,5.3891 5.945062,9.60668 -1.05202,4.68232 -5.930568,7.52694 -10.546438,6.46651 -5.080065,-1.16707 -8.161381,-6.47208 -6.987955,-11.48619 1.281952,-5.47784 7.013626,-8.79596 12.425945,-7.5094 5.87565,1.3967 9.430642,7.5552 8.030847,13.3657 -1.511331,6.27348 -8.096801,10.06541 -14.305451,8.55229 -6.671322,-1.62588 -10.700257,-8.63842 -9.07374,-15.2452 1.740355,-7.06918 9.180055,-11.33516 16.184958,-9.59519 7.467054,1.85477 11.970112,9.7217 10.116632,17.12471 -1.969133,7.86494 -10.263364,12.60511 -18.064464,10.63808 -8.262829,-2.08345 -13.24014,-10.80503 -11.159524,-19.00422 2.197737,-8.66073 11.346714,-13.8752 19.943969,-11.68097 9.058637,2.31199 14.510296,11.88841 12.202418,20.88373 -2.426214,9.45655 -12.430097,15.14541 -21.823477,12.72386 C 40.423765,131.41064 34.497686,120.97925 37.032924,111.18782 39.687515,100.93543 50.546427,94.772118 60.735906,97.421064 71.386226,100.18981 77.78678,111.47628 75.024108,122.0638 72.141216,133.11205 60.42718,139.74986 49.44162,136.87345 37.995434,133.87643 31.120359,121.7348 34.110525,110.35121 37.221659,98.507082 49.790894,91.394734 61.57252,94.498665 73.814585,97.723902 81.164215,110.72076 77.946507,122.90041 74.60718,135.54042 61.182685,143.12734 48.605006,139.79585 35.567052,136.34244 27.742837,122.49029 31.188126,109.51459 34.755607,96.078691 49.035412,88.017174 62.409134,91.576267 76.242985,95.257811 84.541809,109.96529 80.868906,123.73703 77.073305,137.96883 61.938148,146.50497 47.768392,142.71825 33.138637,138.8086 24.365183,123.24575 28.265727,108.67798 32.289421,93.650269 48.279965,84.639494 63.245748,88.653868 c 15.425665,4.137731 24.673765,20.555982 20.545557,35.919772 -4.251763,15.82362 -21.097724,25.30905 -36.859527,21.067 -16.221581,-4.36579 -25.944341,-21.63946 -21.588449,-37.79928 4.479812,-16.619535 22.181215,-26.579631 38.739033,-22.109891 17.0175,4.59383 27.214934,22.722961 22.631342,39.678791 -4.707845,17.41546 -23.264712,27.85023 -40.61854,23.15278 C 28.28174,143.74119 17.609622,124.75658 22.42093,107.00475 27.356792,88.793364 46.769141,77.8839 64.918975,82.80907 83.528326,87.858936 94.675138,107.69903 89.636102,126.24687 84.472236,145.25418 64.204387,156.63835 45.25855,151.48544 25.85327,146.20758 14.231756,125.51197 19.498531,106.16814 24.89039,86.36489 46.013753,74.506023 65.755589,79.886671 85.956803,85.392523 98.053026,106.94365 92.558501,127.08348 86.938659,147.68266 64.95977,160.01624 44.421937,154.40784 23.424789,148.67401 10.85385,126.26735 16.576132,105.33152 22.423949,83.936407 45.258376,71.128108 66.592203,76.964273 c 2.592954,0.709338 5.115559,1.674129 7.520354,2.87557"
       transform="matrix(0.69387131,0,0,1.5804089,11.007348,-43.845322)" />
    <path
       transform="matrix(0.69387131,0,0,1.5804089,11.536515,-43.845322)"
       d="m 55.297916,116.41666 c -0.125839,0.43957 -0.65462,0.0472 -0.730599,-0.20916 -0.205899,-0.69481 0.531274,-1.23391 1.148906,-1.25204 1.1048,-0.0324 1.845006,1.06451 1.773493,2.08866 -0.10495,1.50297 -1.602839,2.46826 -3.028413,2.29494 -1.900067,-0.23102 -3.096345,-2.14269 -2.816385,-3.96817 0.352301,-2.29718 2.683191,-3.72685 4.907919,-3.33783 2.694444,0.47115 4.358747,3.22405 3.859277,5.84767 -0.588607,3.09185 -3.765134,4.99151 -6.787425,4.38072 -3.489356,-0.70518 -5.624861,-4.30636 -4.90217,-7.72717 0.821168,-3.88695 4.847694,-6.25862 8.666932,-5.42362 4.284608,0.93674 6.892666,5.3891 5.945062,9.60668 -1.05202,4.68232 -5.930568,7.52694 -10.546438,6.46651 -5.080065,-1.16707 -8.161381,-6.47208 -6.987955,-11.48619 1.281952,-5.47784 7.013626,-8.79596 12.425945,-7.5094 5.87565,1.3967 9.430642,7.5552 8.030847,13.3657 -1.511331,6.27348 -8.096801,10.06541 -14.305451,8.55229 -6.671322,-1.62588 -10.700257,-8.63842 -9.07374,-15.2452 1.740355,-7.06918 9.180055,-11.33516 16.184958,-9.59519 7.467054,1.85477 11.970112,9.7217 10.116632,17.12471 -1.969133,7.86494 -10.263364,12.60511 -18.064464,10.63808 -8.262829,-2.08345 -13.24014,-10.80503 -11.159524,-19.00422 2.197737,-8.66073 11.346714,-13.8752 19.943969,-11.68097 9.058637,2.31199 14.510296,11.88841 12.202418,20.88373 -2.426214,9.45655 -12.430097,15.14541 -21.823477,12.72386 C 40.423765,131.41064 34.497686,120.97925 37.032924,111.18782 39.687515,100.93543 50.546427,94.772118 60.735906,97.421064 71.386226,100.18981 77.78678,111.47628 75.024108,122.0638 72.141216,133.11205 60.42718,139.74986 49.44162,136.87345 37.995434,133.87643 31.120359,121.7348 34.110525,110.35121 37.221659,98.507082 49.790894,91.394734 61.57252,94.498665 73.814585,97.723902 81.164215,110.72076 77.946507,122.90041 74.60718,135.54042 61.182685,143.12734 48.605006,139.79585 35.567052,136.34244 27.742837,122.49029 31.188126,109.51459 34.755607,96.078691 49.035412,88.017174 62.409134,91.576267 76.242985,95.257811 84.541809,109.96529 80.868906,123.73703 77.073305,137.96883 61.938148,146.50497 47.768392,142.71825 33.138637,138.8086 24.365183,123.24575 28.265727,108.67798 32.289421,93.650269 48.279965,84.639494 63.245748,88.653868 c 15.425665,4.137731 24.673765,20.555982 20.545557,35.919772 -4.251763,15.82362 -21.097724,25.30905 -36.859527,21.067 -16.221581,-4.36579 -25.944341,-21.63946 -21.588449,-37.79928 4.479812,-16.619535 22.181215,-26.579631 38.739033,-22.109891 17.0175,4.59383 27.214934,22.722961 22.631342,39.678791 -4.707845,17.41546 -23.264712,27.85023 -40.61854,23.15278 C 28.28174,143.74119 17.609622,124.75658 22.42093,107.00475 27.356792,88.793364 46.769141,77.8839 64.918975,82.80907 83.528326,87.858936 94.675138,107.69903 89.636102,126.24687 84.472236,145.25418 64.204387,156.63835 45.25855,151.48544 25.85327,146.20758 14.231756,125.51197 19.498531,106.16814 24.89039,86.36489 46.013753,74.506023 65.755589,79.886671 85.956803,85.392523 98.053026,106.94365 92.558501,127.08348 86.938659,147.68266 64.95977,160.01624 44.421937,154.40784 23.424789,148.67401 10.85385,126.26735 16.576132,105.33152 22.423949,83.936407 45.258376,71.128108 66.592203,76.964273 c 2.592954,0.709338 5.115559,1.674129 7.520354,2.87557"
       sodipodi:t0="0"
       sodipodi:argument="-48.415867"
       sodipodi:radius="41.132153"
       sodipodi:revolution="13.531238"
       sodipodi:expansion="1"
       sodipodi:cy="116.41666"
       sodipodi:cx="55.297916"
       id="path1482"
       style="fill:none;fill-rule:evenodd;stroke:#000000;stroke-width:0.264583"
       sodipodi:type="spiral" />
    <path
       transform="matrix(0.96086711,0,0,2.2024636,3.6256315,-81.528535)"
       d="m 122.50208,98.160416 c 0.0206,-0.30395 0.41989,-0.122189 0.50519,0.03424 0.23116,0.423912 -0.17382,0.878071 -0.57367,0.976131 -0.71523,0.175406 -1.35065,-0.435882 -1.44707,-1.11309 -0.14151,-0.993829 0.69956,-1.831871 1.65251,-1.918021 1.27014,-0.114824 2.31645,0.963563 2.38897,2.191939 0.0913,1.545787 -1.22765,2.802696 -2.73137,2.859916 -1.82119,0.0693 -3.28989,-1.491783 -3.33085,-3.270793 -0.0483,-2.096501 1.75593,-3.777689 3.81021,-3.801802 2.37175,-0.02784 4.26589,2.020092 4.27275,4.349638 0.008,2.646977 -2.28427,4.754367 -4.88906,4.743697 -2.92219,-0.012 -5.24305,-2.54845 -5.21464,-5.428492 0.0315,-3.197388 2.81264,-5.731878 5.96791,-5.685583 3.47258,0.05095 6.22083,3.076834 6.15653,6.507337 -0.0703,3.747778 -3.34103,6.709868 -7.04676,6.627478 -4.02297,-0.0895 -7.19899,-3.60524 -7.09842,-7.586191 0.10858,-4.298153 3.86944,-7.688165 8.12561,-7.569364 4.57334,0.127654 8.17739,4.133651 8.04031,8.665036 -0.14668,4.848529 -4.39786,8.666659 -9.20446,8.511259 -5.12372,-0.16566 -9.15596,-4.66208 -8.9822,-9.74389 0.1846,-5.398902 4.92629,-9.645292 10.28331,-9.453145 5.67409,0.20352 10.13465,5.190508 9.92409,10.822735 -0.22241,5.94928 -5.45473,10.62403 -11.36216,10.39504 -6.22446,-0.24128 -11.11343,-5.71895 -10.86598,-11.901589 0.26013,-6.499649 5.98316,-11.60284 12.44101,-11.336926 6.77483,0.278966 12.09227,6.247388 11.80787,12.980434 -0.29779,7.050021 -6.51161,12.581711 -13.51986,12.278821 -7.32521,-0.3166 -13.07116,-6.77584 -12.74976,-14.059288 0.33538,-7.600398 7.04005,-13.560627 14.59871,-13.220708 7.87558,0.354173 14.0501,7.304282 13.69165,15.138134 -0.37295,8.150772 -7.56851,14.539582 -15.67756,14.162602 -8.42596,-0.39172 -15.02907,-7.83274 -14.63354,-16.216987 0.41047,-8.70115 8.09696,-15.518565 16.7564,-15.104489 8.97634,0.429229 16.00807,8.361186 15.57544,17.295833 -0.44798,9.251523 -8.62541,16.497573 -17.83526,16.046383 -9.52671,-0.46672 -16.98708,-8.88964 -16.51732,-18.374686 0.48545,-9.801903 9.15386,-17.476602 18.9141,-16.98827 10.0771,0.504185 17.96613,9.418095 17.45922,19.453532 -0.52291,10.352284 -9.68232,18.455654 -19.99296,17.930164 -10.62747,-0.54164 -18.94518,-9.94655 -18.4011,-20.532385 0.56035,-10.902657 10.21078,-19.434709 21.0718,-18.872051 11.17785,0.579071 19.92425,10.47501 19.343,21.611231 -0.59778,11.453035 -10.73924,20.413785 -22.15066,19.813945 -11.72822,-0.6165 -20.90332,-11.00347 -20.28488,-22.690084 0.6352,-12.003413 11.26769,-21.392868 23.2295,-20.755832 12.2786,0.653907 21.88242,11.531928 21.22678,23.76893 C 144.5628,112.255 133.43925,122.07317 120.92705,121.39893 108.09807,120.70762 98.065542,109.33854 98.758386,96.551147 99.468393,83.446978 111.083,73.200083 124.14559,73.911534 c 13.37936,0.728703 23.84062,12.588849 23.11056,25.926629 -0.7474,13.654547 -12.85308,24.330177 -26.46605,23.581507 -13.92974,-0.76609 -24.819736,-13.11731 -24.052454,-27.005482 0.784782,-14.204927 13.381544,-25.30929 27.544904,-24.523395 14.48012,0.803472 25.79885,13.645773 24.99434,28.084329 -0.82216,14.755308 -13.91,26.288408 -28.62375,25.465288 -15.0305,-0.84085 -26.777979,-14.17424 -25.936234,-29.163181 0.859531,-15.305685 14.438464,-27.267539 29.702604,-26.407176 15.58087,0.878216 27.7571,14.702698 26.87812,30.242027 -0.8969,15.85607 -14.96693,28.24667 -30.78145,27.34907 -16.13126,-0.91558 -28.736241,-15.23116 -27.820015,-31.32088 0.934263,-16.406444 15.495395,-29.225806 31.860305,-28.290957 16.68163,0.952942 29.71537,15.759624 28.7619,32.399727 -0.32948,5.75017 -2.29225,11.36334 -5.60993,16.07072"
       sodipodi:t0="0"
       sodipodi:argument="-83.184532"
       sodipodi:radius="31.066416"
       sodipodi:revolution="15.338591"
       sodipodi:expansion="1"
       sodipodi:cy="98.160416"
       sodipodi:cx="122.50208"
       id="path1490"
       style="fill:none;fill-rule:evenodd;stroke:#000000;stroke-width:0.264583"
       sodipodi:type="spiral" />
    <path
       sodipodi:type="spiral"
       style="fill:none;fill-rule:evenodd;stroke:#000000;stroke-width:0.264583"
       id="path1492"
       sodipodi:cx="122.50208"
       sodipodi:cy="98.160416"
       sodipodi:expansion="1"
       sodipodi:revolution="15.338591"
       sodipodi:radius="31.066416"
       sodipodi:argument="-83.184532"
       sodipodi:t0="0"
       d="m 122.50208,98.160416 c 0.0206,-0.30395 0.41989,-0.122189 0.50519,0.03424 0.23116,0.423912 -0.17382,0.878071 -0.57367,0.976131 -0.71523,0.175406 -1.35065,-0.435882 -1.44707,-1.11309 -0.14151,-0.993829 0.69956,-1.831871 1.65251,-1.918021 1.27014,-0.114824 2.31645,0.963563 2.38897,2.191939 0.0913,1.545787 -1.22765,2.802696 -2.73137,2.859916 -1.82119,0.0693 -3.28989,-1.491783 -3.33085,-3.270793 -0.0483,-2.096501 1.75593,-3.777689 3.81021,-3.801802 2.37175,-0.02784 4.26589,2.020092 4.27275,4.349638 0.008,2.646977 -2.28427,4.754367 -4.88906,4.743697 -2.92219,-0.012 -5.24305,-2.54845 -5.21464,-5.428492 0.0315,-3.197388 2.81264,-5.731878 5.96791,-5.685583 3.47258,0.05095 6.22083,3.076834 6.15653,6.507337 -0.0703,3.747778 -3.34103,6.709868 -7.04676,6.627478 -4.02297,-0.0895 -7.19899,-3.60524 -7.09842,-7.586191 0.10858,-4.298153 3.86944,-7.688165 8.12561,-7.569364 4.57334,0.127654 8.17739,4.133651 8.04031,8.665036 -0.14668,4.848529 -4.39786,8.666659 -9.20446,8.511259 -5.12372,-0.16566 -9.15596,-4.66208 -8.9822,-9.74389 0.1846,-5.398902 4.92629,-9.645292 10.28331,-9.453145 5.67409,0.20352 10.13465,5.190508 9.92409,10.822735 -0.22241,5.94928 -5.45473,10.62403 -11.36216,10.39504 -6.22446,-0.24128 -11.11343,-5.71895 -10.86598,-11.901589 0.26013,-6.499649 5.98316,-11.60284 12.44101,-11.336926 6.77483,0.278966 12.09227,6.247388 11.80787,12.980434 -0.29779,7.050021 -6.51161,12.581711 -13.51986,12.278821 -7.32521,-0.3166 -13.07116,-6.77584 -12.74976,-14.059288 0.33538,-7.600398 7.04005,-13.560627 14.59871,-13.220708 7.87558,0.354173 14.0501,7.304282 13.69165,15.138134 -0.37295,8.150772 -7.56851,14.539582 -15.67756,14.162602 -8.42596,-0.39172 -15.02907,-7.83274 -14.63354,-16.216987 0.41047,-8.70115 8.09696,-15.518565 16.7564,-15.104489 8.97634,0.429229 16.00807,8.361186 15.57544,17.295833 -0.44798,9.251523 -8.62541,16.497573 -17.83526,16.046383 -9.52671,-0.46672 -16.98708,-8.88964 -16.51732,-18.374686 0.48545,-9.801903 9.15386,-17.476602 18.9141,-16.98827 10.0771,0.504185 17.96613,9.418095 17.45922,19.453532 -0.52291,10.352284 -9.68232,18.455654 -19.99296,17.930164 -10.62747,-0.54164 -18.94518,-9.94655 -18.4011,-20.532385 0.56035,-10.902657 10.21078,-19.434709 21.0718,-18.872051 11.17785,0.579071 19.92425,10.47501 19.343,21.611231 -0.59778,11.453035 -10.73924,20.413785 -22.15066,19.813945 -11.72822,-0.6165 -20.90332,-11.00347 -20.28488,-22.690084 0.6352,-12.003413 11.26769,-21.392868 23.2295,-20.755832 12.2786,0.653907 21.88242,11.531928 21.22678,23.76893 C 144.5628,112.255 133.43925,122.07317 120.92705,121.39893 108.09807,120.70762 98.065542,109.33854 98.758386,96.551147 99.468393,83.446978 111.083,73.200083 124.14559,73.911534 c 13.37936,0.728703 23.84062,12.588849 23.11056,25.926629 -0.7474,13.654547 -12.85308,24.330177 -26.46605,23.581507 -13.92974,-0.76609 -24.819736,-13.11731 -24.052454,-27.005482 0.784782,-14.204927 13.381544,-25.30929 27.544904,-24.523395 14.48012,0.803472 25.79885,13.645773 24.99434,28.084329 -0.82216,14.755308 -13.91,26.288408 -28.62375,25.465288 -15.0305,-0.84085 -26.777979,-14.17424 -25.936234,-29.163181 0.859531,-15.305685 14.438464,-27.267539 29.702604,-26.407176 15.58087,0.878216 27.7571,14.702698 26.87812,30.242027 -0.8969,15.85607 -14.96693,28.24667 -30.78145,27.34907 -16.13126,-0.91558 -28.736241,-15.23116 -27.820015,-31.32088 0.934263,-16.406444 15.495395,-29.225806 31.860305,-28.290957 16.68163,0.952942 29.71537,15.759624 28.7619,32.399727 -0.32948,5.75017 -2.29225,11.36334 -5.60993,16.07072"
       transform="matrix(0.96086711,0,0,2.2024636,4.1547982,-81.528535)" />
    <path
       transform="matrix(0.96086711,0,0,2.2024636,4.6839649,-81.528535)"
       d="m 122.50208,98.160416 c 0.0206,-0.30395 0.41989,-0.122189 0.50519,0.03424 0.23116,0.423912 -0.17382,0.878071 -0.57367,0.976131 -0.71523,0.175406 -1.35065,-0.435882 -1.44707,-1.11309 -0.14151,-0.993829 0.69956,-1.831871 1.65251,-1.918021 1.27014,-0.114824 2.31645,0.963563 2.38897,2.191939 0.0913,1.545787 -1.22765,2.802696 -2.73137,2.859916 -1.82119,0.0693 -3.28989,-1.491783 -3.33085,-3.270793 -0.0483,-2.096501 1.75593,-3.777689 3.81021,-3.801802 2.37175,-0.02784 4.26589,2.020092 4.27275,4.349638 0.008,2.646977 -2.28427,4.754367 -4.88906,4.743697 -2.92219,-0.012 -5.24305,-2.54845 -5.21464,-5.428492 0.0315,-3.197388 2.81264,-5.731878 5.96791,-5.685583 3.47258,0.05095 6.22083,3.076834 6.15653,6.507337 -0.0703,3.747778 -3.34103,6.709868 -7.04676,6.627478 -4.02297,-0.0895 -7.19899,-3.60524 -7.09842,-7.586191 0.10858,-4.298153 3.86944,-7.688165 8.12561,-7.569364 4.57334,0.127654 8.17739,4.133651 8.04031,8.665036 -0.14668,4.848529 -4.39786,8.666659 -9.20446,8.511259 -5.12372,-0.16566 -9.15596,-4.66208 -8.9822,-9.74389 0.1846,-5.398902 4.92629,-9.645292 10.28331,-9.453145 5.67409,0.20352 10.13465,5.190508 9.92409,10.822735 -0.22241,5.94928 -5.45473,10.62403 -11.36216,10.39504 -6.22446,-0.24128 -11.11343,-5.71895 -10.86598,-11.901589 0.26013,-6.499649 5.98316,-11.60284 12.44101,-11.336926 6.77483,0.278966 12.09227,6.247388 11.80787,12.980434 -0.29779,7.050021 -6.51161,12.581711 -13.51986,12.278821 -7.32521,-0.3166 -13.07116,-6.77584 -12.74976,-14.059288 0.33538,-7.600398 7.04005,-13.560627 14.59871,-13.220708 7.87558,0.354173 14.0501,7.304282 13.69165,15.138134 -0.37295,8.150772 -7.56851,14.539582 -15.67756,14.162602 -8.42596,-0.39172 -15.02907,-7.83274 -14.63354,-16.216987 0.41047,-8.70115 8.09696,-15.518565 16.7564,-15.104489 8.97634,0.429229 16.00807,8.361186 15.57544,17.295833 -0.44798,9.251523 -8.62541,16.497573 -17.83526,16.046383 -9.52671,-0.46672 -16.98708,-8.88964 -16.51732,-18.374686 0.48545,-9.801903 9.15386,-17.476602 18.9141,-16.98827 10.0771,0.504185 17.96613,9.418095 17.45922,19.453532 -0.52291,10.352284 -9.68232,18.455654 -19.99296,17.930164 -10.62747,-0.54164 -18.94518,-9.94655 -18.4011,-20.532385 0.56035,-10.902657 10.21078,-19.434709 21.0718,-18.872051 11.17785,0.579071 19.92425,10.47501 19.343,21.611231 -0.59778,11.453035 -10.73924,20.413785 -22.15066,19.813945 -11.72822,-0.6165 -20.90332,-11.00347 -20.28488,-22.690084 0.6352,-12.003413 11.26769,-21.392868 23.2295,-20.755832 12.2786,0.653907 21.88242,11.531928 21.22678,23.76893 C 144.5628,112.255 133.43925,122.07317 120.92705,121.39893 108.09807,120.70762 98.065542,109.33854 98.758386,96.551147 99.468393,83.446978 111.083,73.200083 124.14559,73.911534 c 13.37936,0.728703 23.84062,12.588849 23.11056,25.926629 -0.7474,13.654547 -12.85308,24.330177 -26.46605,23.581507 -13.92974,-0.76609 -24.819736,-13.11731 -24.052454,-27.005482 0.784782,-14.204927 13.381544,-25.30929 27.544904,-24.523395 14.48012,0.803472 25.79885,13.645773 24.99434,28.084329 -0.82216,14.755308 -13.91,26.288408 -28.62375,25.465288 -15.0305,-0.84085 -26.777979,-14.17424 -25.936234,-29.163181 0.859531,-15.305685 14.438464,-27.267539 29.702604,-26.407176 15.58087,0.878216 27.7571,14.702698 26.87812,30.242027 -0.8969,15.85607 -14.96693,28.24667 -30.78145,27.34907 -16.13126,-0.91558 -28.736241,-15.23116 -27.820015,-31.32088 0.934263,-16.406444 15.495395,-29.225806 31.860305,-28.290957 16.68163,0.952942 29.71537,15.759624 28.7619,32.399727 -0.32948,5.75017 -2.29225,11.36334 -5.60993,16.07072"
       sodipodi:t0="0"
       sodipodi:argument="-83.184532"
       sodipodi:radius="31.066416"
       sodipodi:revolution="15.338591"
       sodipodi:expansion="1"
       sodipodi:cy="98.160416"
       sodipodi:cx="122.50208"
       id="path1494"
       style="fill:none;fill-rule:evenodd;stroke:#000000;stroke-width:0.264583"
       sodipodi:type="spiral" />
    <path
       sodipodi:type="spiral"
       style="fill:none;fill-rule:evenodd;stroke:#000000;stroke-width:0.264583"
       id="path1496"
       sodipodi:cx="122.50208"
       sodipodi:cy="98.160416"
       sodipodi:expansion="1"
       sodipodi:revolution="15.338591"
       sodipodi:radius="31.066416"
       sodipodi:argument="-83.184532"
       sodipodi:t0="0"
       d="m 122.50208,98.160416 c 0.0206,-0.30395 0.41989,-0.122189 0.50519,0.03424 0.23116,0.423912 -0.17382,0.878071 -0.57367,0.976131 -0.71523,0.175406 -1.35065,-0.435882 -1.44707,-1.11309 -0.14151,-0.993829 0.69956,-1.831871 1.65251,-1.918021 1.27014,-0.114824 2.31645,0.963563 2.38897,2.191939 0.0913,1.545787 -1.22765,2.802696 -2.73137,2.859916 -1.82119,0.0693 -3.28989,-1.491783 -3.33085,-3.270793 -0.0483,-2.096501 1.75593,-3.777689 3.81021,-3.801802 2.37175,-0.02784 4.26589,2.020092 4.27275,4.349638 0.008,2.646977 -2.28427,4.754367 -4.88906,4.743697 -2.92219,-0.012 -5.24305,-2.54845 -5.21464,-5.428492 0.0315,-3.197388 2.81264,-5.731878 5.96791,-5.685583 3.47258,0.05095 6.22083,3.076834 6.15653,6.507337 -0.0703,3.747778 -3.34103,6.709868 -7.04676,6.627478 -4.02297,-0.0895 -7.19899,-3.60524 -7.09842,-7.586191 0.10858,-4.298153 3.86944,-7.688165 8.12561,-7.569364 4.57334,0.127654 8.17739,4.133651 8.04031,8.665036 -0.14668,4.848529 -4.39786,8.666659 -9.20446,8.511259 -5.12372,-0.16566 -9.15596,-4.66208 -8.9822,-9.74389 0.1846,-5.398902 4.92629,-9.645292 10.28331,-9.453145 5.67409,0.20352 10.13465,5.190508 9.92409,10.822735 -0.22241,5.94928 -5.45473,10.62403 -11.36216,10.39504 -6.22446,-0.24128 -11.11343,-5.71895 -10.86598,-11.901589 0.26013,-6.499649 5.98316,-11.60284 12.44101,-11.336926 6.77483,0.278966 12.09227,6.247388 11.80787,12.980434 -0.29779,7.050021 -6.51161,12.581711 -13.51986,12.278821 -7.32521,-0.3166 -13.07116,-6.77584 -12.74976,-14.059288 0.33538,-7.600398 7.04005,-13.560627 14.59871,-13.220708 7.87558,0.354173 14.0501,7.304282 13.69165,15.138134 -0.37295,8.150772 -7.56851,14.539582 -15.67756,14.162602 -8.42596,-0.39172 -15.02907,-7.83274 -14.63354,-16.216987 0.41047,-8.70115 8.09696,-15.518565 16.7564,-15.104489 8.97634,0.429229 16.00807,8.361186 15.57544,17.295833 -0.44798,9.251523 -8.62541,16.497573 -17.83526,16.046383 -9.52671,-0.46672 -16.98708,-8.88964 -16.51732,-18.374686 0.48545,-9.801903 9.15386,-17.476602 18.9141,-16.98827 10.0771,0.504185 17.96613,9.418095 17.45922,19.453532 -0.52291,10.352284 -9.68232,18.455654 -19.99296,17.930164 -10.62747,-0.54164 -18.94518,-9.94655 -18.4011,-20.532385 0.56035,-10.902657 10.21078,-19.434709 21.0718,-18.872051 11.17785,0.579071 19.92425,10.47501 19.343,21.611231 -0.59778,11.453035 -10.73924,20.413785 -22.15066,19.813945 -11.72822,-0.6165 -20.90332,-11.00347 -20.28488,-22.690084 0.6352,-12.003413 11.26769,-21.392868 23.2295,-20.755832 12.2786,0.653907 21.88242,11.531928 21.22678,23.76893 C 144.5628,112.255 133.43925,122.07317 120.92705,121.39893 108.09807,120.70762 98.065542,109.33854 98.758386,96.551147 99.468393,83.446978 111.083,73.200083 124.14559,73.911534 c 13.37936,0.728703 23.84062,12.588849 23.11056,25.926629 -0.7474,13.654547 -12.85308,24.330177 -26.46605,23.581507 -13.92974,-0.76609 -24.819736,-13.11731 -24.052454,-27.005482 0.784782,-14.204927 13.381544,-25.30929 27.544904,-24.523395 14.48012,0.803472 25.79885,13.645773 24.99434,28.084329 -0.82216,14.755308 -13.91,26.288408 -28.62375,25.465288 -15.0305,-0.84085 -26.777979,-14.17424 -25.936234,-29.163181 0.859531,-15.305685 14.438464,-27.267539 29.702604,-26.407176 15.58087,0.878216 27.7571,14.702698 26.87812,30.242027 -0.8969,15.85607 -14.96693,28.24667 -30.78145,27.34907 -16.13126,-0.91558 -28.736241,-15.23116 -27.820015,-31.32088 0.934263,-16.406444 15.495395,-29.225806 31.860305,-28.290957 16.68163,0.952942 29.71537,15.759624 28.7619,32.399727 -0.32948,5.75017 -2.29225,11.36334 -5.60993,16.07072"
       transform="matrix(0.96086711,0,0,2.2024636,4.6839649,-81.528535)" />
    <path
       transform="matrix(0.96086711,0,0,2.2024636,5.2131316,-81.528535)"
       d="m 122.50208,98.160416 c 0.0206,-0.30395 0.41989,-0.122189 0.50519,0.03424 0.23116,0.423912 -0.17382,0.878071 -0.57367,0.976131 -0.71523,0.175406 -1.35065,-0.435882 -1.44707,-1.11309 -0.14151,-0.993829 0.69956,-1.831871 1.65251,-1.918021 1.27014,-0.114824 2.31645,0.963563 2.38897,2.191939 0.0913,1.545787 -1.22765,2.802696 -2.73137,2.859916 -1.82119,0.0693 -3.28989,-1.491783 -3.33085,-3.270793 -0.0483,-2.096501 1.75593,-3.777689 3.81021,-3.801802 2.37175,-0.02784 4.26589,2.020092 4.27275,4.349638 0.008,2.646977 -2.28427,4.754367 -4.88906,4.743697 -2.92219,-0.012 -5.24305,-2.54845 -5.21464,-5.428492 0.0315,-3.197388 2.81264,-5.731878 5.96791,-5.685583 3.47258,0.05095 6.22083,3.076834 6.15653,6.507337 -0.0703,3.747778 -3.34103,6.709868 -7.04676,6.627478 -4.02297,-0.0895 -7.19899,-3.60524 -7.09842,-7.586191 0.10858,-4.298153 3.86944,-7.688165 8.12561,-7.569364 4.57334,0.127654 8.17739,4.133651 8.04031,8.665036 -0.14668,4.848529 -4.39786,8.666659 -9.20446,8.511259 -5.12372,-0.16566 -9.15596,-4.66208 -8.9822,-9.74389 0.1846,-5.398902 4.92629,-9.645292 10.28331,-9.453145 5.67409,0.20352 10.13465,5.190508 9.92409,10.822735 -0.22241,5.94928 -5.45473,10.62403 -11.36216,10.39504 -6.22446,-0.24128 -11.11343,-5.71895 -10.86598,-11.901589 0.26013,-6.499649 5.98316,-11.60284 12.44101,-11.336926 6.77483,0.278966 12.09227,6.247388 11.80787,12.980434 -0.29779,7.050021 -6.51161,12.581711 -13.51986,12.278821 -7.32521,-0.3166 -13.07116,-6.77584 -12.74976,-14.059288 0.33538,-7.600398 7.04005,-13.560627 14.59871,-13.220708 7.87558,0.354173 14.0501,7.304282 13.69165,15.138134 -0.37295,8.150772 -7.56851,14.539582 -15.67756,14.162602 -8.42596,-0.39172 -15.02907,-7.83274 -14.63354,-16.216987 0.41047,-8.70115 8.09696,-15.518565 16.7564,-15.104489 8.97634,0.429229 16.00807,8.361186 15.57544,17.295833 -0.44798,9.251523 -8.62541,16.497573 -17.83526,16.046383 -9.52671,-0.46672 -16.98708,-8.88964 -16.51732,-18.374686 0.48545,-9.801903 9.15386,-17.476602 18.9141,-16.98827 10.0771,0.504185 17.96613,9.418095 17.45922,19.453532 -0.52291,10.352284 -9.68232,18.455654 -19.99296,17.930164 -10.62747,-0.54164 -18.94518,-9.94655 -18.4011,-20.532385 0.56035,-10.902657 10.21078,-19.434709 21.0718,-18.872051 11.17785,0.579071 19.92425,10.47501 19.343,21.611231 -0.59778,11.453035 -10.73924,20.413785 -22.15066,19.813945 -11.72822,-0.6165 -20.90332,-11.00347 -20.28488,-22.690084 0.6352,-12.003413 11.26769,-21.392868 23.2295,-20.755832 12.2786,0.653907 21.88242,11.531928 21.22678,23.76893 C 144.5628,112.255 133.43925,122.07317 120.92705,121.39893 108.09807,120.70762 98.065542,109.33854 98.758386,96.551147 99.468393,83.446978 111.083,73.200083 124.14559,73.911534 c 13.37936,0.728703 23.84062,12.588849 23.11056,25.926629 -0.7474,13.654547 -12.85308,24.330177 -26.46605,23.581507 -13.92974,-0.76609 -24.819736,-13.11731 -24.052454,-27.005482 0.784782,-14.204927 13.381544,-25.30929 27.544904,-24.523395 14.48012,0.803472 25.79885,13.645773 24.99434,28.084329 -0.82216,14.755308 -13.91,26.288408 -28.62375,25.465288 -15.0305,-0.84085 -26.777979,-14.17424 -25.936234,-29.163181 0.859531,-15.305685 14.438464,-27.267539 29.702604,-26.407176 15.58087,0.878216 27.7571,14.702698 26.87812,30.242027 -0.8969,15.85607 -14.96693,28.24667 -30.78145,27.34907 -16.13126,-0.91558 -28.736241,-15.23116 -27.820015,-31.32088 0.934263,-16.406444 15.495395,-29.225806 31.860305,-28.290957 16.68163,0.952942 29.71537,15.759624 28.7619,32.399727 -0.32948,5.75017 -2.29225,11.36334 -5.60993,16.07072"
       sodipodi:t0="0"
       sodipodi:argument="-83.184532"
       sodipodi:radius="31.066416"
       sodipodi:revolution="15.338591"
       sodipodi:expansion="1"
       sodipodi:cy="98.160416"
       sodipodi:cx="122.50208"
       id="path1498"
       style="fill:none;fill-rule:evenodd;stroke:#000000;stroke-width:0.264583"
       sodipodi:type="spiral" />
    <path
       sodipodi:type="spiral"
       style="fill:none;fill-rule:evenodd;stroke:#000000;stroke-width:0.264583"
       id="path1500"
       sodipodi:cx="122.50208"
       sodipodi:cy="98.160416"
       sodipodi:expansion="1"
       sodipodi:revolution="15.338591"
       sodipodi:radius="31.066416"
       sodipodi:argument="-83.184532"
       sodipodi:t0="0"
       d="m 122.50208,98.160416 c 0.0206,-0.30395 0.41989,-0.122189 0.50519,0.03424 0.23116,0.423912 -0.17382,0.878071 -0.57367,0.976131 -0.71523,0.175406 -1.35065,-0.435882 -1.44707,-1.11309 -0.14151,-0.993829 0.69956,-1.831871 1.65251,-1.918021 1.27014,-0.114824 2.31645,0.963563 2.38897,2.191939 0.0913,1.545787 -1.22765,2.802696 -2.73137,2.859916 -1.82119,0.0693 -3.28989,-1.491783 -3.33085,-3.270793 -0.0483,-2.096501 1.75593,-3.777689 3.81021,-3.801802 2.37175,-0.02784 4.26589,2.020092 4.27275,4.349638 0.008,2.646977 -2.28427,4.754367 -4.88906,4.743697 -2.92219,-0.012 -5.24305,-2.54845 -5.21464,-5.428492 0.0315,-3.197388 2.81264,-5.731878 5.96791,-5.685583 3.47258,0.05095 6.22083,3.076834 6.15653,6.507337 -0.0703,3.747778 -3.34103,6.709868 -7.04676,6.627478 -4.02297,-0.0895 -7.19899,-3.60524 -7.09842,-7.586191 0.10858,-4.298153 3.86944,-7.688165 8.12561,-7.569364 4.57334,0.127654 8.17739,4.133651 8.04031,8.665036 -0.14668,4.848529 -4.39786,8.666659 -9.20446,8.511259 -5.12372,-0.16566 -9.15596,-4.66208 -8.9822,-9.74389 0.1846,-5.398902 4.92629,-9.645292 10.28331,-9.453145 5.67409,0.20352 10.13465,5.190508 9.92409,10.822735 -0.22241,5.94928 -5.45473,10.62403 -11.36216,10.39504 -6.22446,-0.24128 -11.11343,-5.71895 -10.86598,-11.901589 0.26013,-6.499649 5.98316,-11.60284 12.44101,-11.336926 6.77483,0.278966 12.09227,6.247388 11.80787,12.980434 -0.29779,7.050021 -6.51161,12.581711 -13.51986,12.278821 -7.32521,-0.3166 -13.07116,-6.77584 -12.74976,-14.059288 0.33538,-7.600398 7.04005,-13.560627 14.59871,-13.220708 7.87558,0.354173 14.0501,7.304282 13.69165,15.138134 -0.37295,8.150772 -7.56851,14.539582 -15.67756,14.162602 -8.42596,-0.39172 -15.02907,-7.83274 -14.63354,-16.216987 0.41047,-8.70115 8.09696,-15.518565 16.7564,-15.104489 8.97634,0.429229 16.00807,8.361186 15.57544,17.295833 -0.44798,9.251523 -8.62541,16.497573 -17.83526,16.046383 -9.52671,-0.46672 -16.98708,-8.88964 -16.51732,-18.374686 0.48545,-9.801903 9.15386,-17.476602 18.9141,-16.98827 10.0771,0.504185 17.96613,9.418095 17.45922,19.453532 -0.52291,10.352284 -9.68232,18.455654 -19.99296,17.930164 -10.62747,-0.54164 -18.94518,-9.94655 -18.4011,-20.532385 0.56035,-10.902657 10.21078,-19.434709 21.0718,-18.872051 11.17785,0.579071 19.92425,10.47501 19.343,21.611231 -0.59778,11.453035 -10.73924,20.413785 -22.15066,19.813945 -11.72822,-0.6165 -20.90332,-11.00347 -20.28488,-22.690084 0.6352,-12.003413 11.26769,-21.392868 23.2295,-20.755832 12.2786,0.653907 21.88242,11.531928 21.22678,23.76893 C 144.5628,112.255 133.43925,122.07317 120.92705,121.39893 108.09807,120.70762 98.065542,109.33854 98.758386,96.551147 99.468393,83.446978 111.083,73.200083 124.14559,73.911534 c 13.37936,0.728703 23.84062,12.588849 23.11056,25.926629 -0.7474,13.654547 -12.85308,24.330177 -26.46605,23.581507 -13.92974,-0.76609 -24.819736,-13.11731 -24.052454,-27.005482 0.784782,-14.204927 13.381544,-25.30929 27.544904,-24.523395 14.48012,0.803472 25.79885,13.645773 24.99434,28.084329 -0.82216,14.755308 -13.91,26.288408 -28.62375,25.465288 -15.0305,-0.84085 -26.777979,-14.17424 -25.936234,-29.163181 0.859531,-15.305685 14.438464,-27.267539 29.702604,-26.407176 15.58087,0.878216 27.7571,14.702698 26.87812,30.242027 -0.8969,15.85607 -14.96693,28.24667 -30.78145,27.34907 -16.13126,-0.91558 -28.736241,-15.23116 -27.820015,-31.32088 0.934263,-16.406444 15.495395,-29.225806 31.860305,-28.290957 16.68163,0.952942 29.71537,15.759624 28.7619,32.399727 -0.32948,5.75017 -2.29225,11.36334 -5.60993,16.07072"
       transform="matrix(0.96086711,0,0,2.2024636,5.7422983,-81.528535)" />
    <path
       transform="matrix(0.96086711,0,0,2.2024636,6.271465,-81.528535)"
       d="m 122.50208,98.160416 c 0.0206,-0.30395 0.41989,-0.122189 0.50519,0.03424 0.23116,0.423912 -0.17382,0.878071 -0.57367,0.976131 -0.71523,0.175406 -1.35065,-0.435882 -1.44707,-1.11309 -0.14151,-0.993829 0.69956,-1.831871 1.65251,-1.918021 1.27014,-0.114824 2.31645,0.963563 2.38897,2.191939 0.0913,1.545787 -1.22765,2.802696 -2.73137,2.859916 -1.82119,0.0693 -3.28989,-1.491783 -3.33085,-3.270793 -0.0483,-2.096501 1.75593,-3.777689 3.81021,-3.801802 2.37175,-0.02784 4.26589,2.020092 4.27275,4.349638 0.008,2.646977 -2.28427,4.754367 -4.88906,4.743697 -2.92219,-0.012 -5.24305,-2.54845 -5.21464,-5.428492 0.0315,-3.197388 2.81264,-5.731878 5.96791,-5.685583 3.47258,0.05095 6.22083,3.076834 6.15653,6.507337 -0.0703,3.747778 -3.34103,6.709868 -7.04676,6.627478 -4.02297,-0.0895 -7.19899,-3.60524 -7.09842,-7.586191 0.10858,-4.298153 3.86944,-7.688165 8.12561,-7.569364 4.57334,0.127654 8.17739,4.133651 8.04031,8.665036 -0.14668,4.848529 -4.39786,8.666659 -9.20446,8.511259 -5.12372,-0.16566 -9.15596,-4.66208 -8.9822,-9.74389 0.1846,-5.398902 4.92629,-9.645292 10.28331,-9.453145 5.67409,0.20352 10.13465,5.190508 9.92409,10.822735 -0.22241,5.94928 -5.45473,10.62403 -11.36216,10.39504 -6.22446,-0.24128 -11.11343,-5.71895 -10.86598,-11.901589 0.26013,-6.499649 5.98316,-11.60284 12.44101,-11.336926 6.77483,0.278966 12.09227,6.247388 11.80787,12.980434 -0.29779,7.050021 -6.51161,12.581711 -13.51986,12.278821 -7.32521,-0.3166 -13.07116,-6.77584 -12.74976,-14.059288 0.33538,-7.600398 7.04005,-13.560627 14.59871,-13.220708 7.87558,0.354173 14.0501,7.304282 13.69165,15.138134 -0.37295,8.150772 -7.56851,14.539582 -15.67756,14.162602 -8.42596,-0.39172 -15.02907,-7.83274 -14.63354,-16.216987 0.41047,-8.70115 8.09696,-15.518565 16.7564,-15.104489 8.97634,0.429229 16.00807,8.361186 15.57544,17.295833 -0.44798,9.251523 -8.62541,16.497573 -17.83526,16.046383 -9.52671,-0.46672 -16.98708,-8.88964 -16.51732,-18.374686 0.48545,-9.801903 9.15386,-17.476602 18.9141,-16.98827 10.0771,0.504185 17.96613,9.418095 17.45922,19.453532 -0.52291,10.352284 -9.68232,18.455654 -19.99296,17.930164 -10.62747,-0.54164 -18.94518,-9.94655 -18.4011,-20.532385 0.56035,-10.902657 10.21078,-19.434709 21.0718,-18.872051 11.17785,0.579071 19.92425,10.47501 19.343,21.611231 -0.59778,11.453035 -10.73924,20.413785 -22.15066,19.813945 -11.72822,-0.6165 -20.90332,-11.00347 -20.28488,-22.690084 0.6352,-12.003413 11.26769,-21.392868 23.2295,-20.755832 12.2786,0.653907 21.88242,11.531928 21.22678,23.76893 C 144.5628,112.255 133.43925,122.07317 120.92705,121.39893 108.09807,120.70762 98.065542,109.33854 98.758386,96.551147 99.468393,83.446978 111.083,73.200083 124.14559,73.911534 c 13.37936,0.728703 23.84062,12.588849 23.11056,25.926629 -0.7474,13.654547 -12.85308,24.330177 -26.46605,23.581507 -13.92974,-0.76609 -24.819736,-13.11731 -24.052454,-27.005482 0.784782,-14.204927 13.381544,-25.30929 27.544904,-24.523395 14.48012,0.803472 25.79885,13.645773 24.99434,28.084329 -0.82216,14.755308 -13.91,26.288408 -28.62375,25.465288 -15.0305,-0.84085 -26.777979,-14.17424 -25.936234,-29.163181 0.859531,-15.305685 14.438464,-27.267539 29.702604,-26.407176 15.58087,0.878216 27.7571,14.702698 26.87812,30.242027 -0.8969,15.85607 -14.96693,28.24667 -30.78145,27.34907 -16.13126,-0.91558 -28.736241,-15.23116 -27.820015,-31.32088 0.934263,-16.406444 15.495395,-29.225806 31.860305,-28.290957 16.68163,0.952942 29.71537,15.759624 28.7619,32.399727 -0.32948,5.75017 -2.29225,11.36334 -5.60993,16.07072"
       sodipodi:t0="0"
       sodipodi:argument="-83.184532"
       sodipodi:radius="31.066416"
       sodipodi:revolution="15.338591"
       sodipodi:expansion="1"
       sodipodi:cy="98.160416"
       sodipodi:cx="122.50208"
       id="path1502"
       style="fill:none;fill-rule:evenodd;stroke:#000000;stroke-width:0.264583"
       sodipodi:type="spiral" />
    <path
       sodipodi:type="spiral"
       style="fill:none;fill-rule:evenodd;stroke:#000000;stroke-width:0.264583"
       id="path1504"
       sodipodi:cx="122.50208"
       sodipodi:cy="98.160416"
       sodipodi:expansion="1"
       sodipodi:revolution="15.338591"
       sodipodi:radius="31.066416"
       sodipodi:argument="-83.184532"
       sodipodi:t0="0"
       d="m 122.50208,98.160416 c 0.0206,-0.30395 0.41989,-0.122189 0.50519,0.03424 0.23116,0.423912 -0.17382,0.878071 -0.57367,0.976131 -0.71523,0.175406 -1.35065,-0.435882 -1.44707,-1.11309 -0.14151,-0.993829 0.69956,-1.831871 1.65251,-1.918021 1.27014,-0.114824 2.31645,0.963563 2.38897,2.191939 0.0913,1.545787 -1.22765,2.802696 -2.73137,2.859916 -1.82119,0.0693 -3.28989,-1.491783 -3.33085,-3.270793 -0.0483,-2.096501 1.75593,-3.777689 3.81021,-3.801802 2.37175,-0.02784 4.26589,2.020092 4.27275,4.349638 0.008,2.646977 -2.28427,4.754367 -4.88906,4.743697 -2.92219,-0.012 -5.24305,-2.54845 -5.21464,-5.428492 0.0315,-3.197388 2.81264,-5.731878 5.96791,-5.685583 3.47258,0.05095 6.22083,3.076834 6.15653,6.507337 -0.0703,3.747778 -3.34103,6.709868 -7.04676,6.627478 -4.02297,-0.0895 -7.19899,-3.60524 -7.09842,-7.586191 0.10858,-4.298153 3.86944,-7.688165 8.12561,-7.569364 4.57334,0.127654 8.17739,4.133651 8.04031,8.665036 -0.14668,4.848529 -4.39786,8.666659 -9.20446,8.511259 -5.12372,-0.16566 -9.15596,-4.66208 -8.9822,-9.74389 0.1846,-5.398902 4.92629,-9.645292 10.28331,-9.453145 5.67409,0.20352 10.13465,5.190508 9.92409,10.822735 -0.22241,5.94928 -5.45473,10.62403 -11.36216,10.39504 -6.22446,-0.24128 -11.11343,-5.71895 -10.86598,-11.901589 0.26013,-6.499649 5.98316,-11.60284 12.44101,-11.336926 6.77483,0.278966 12.09227,6.247388 11.80787,12.980434 -0.29779,7.050021 -6.51161,12.581711 -13.51986,12.278821 -7.32521,-0.3166 -13.07116,-6.77584 -12.74976,-14.059288 0.33538,-7.600398 7.04005,-13.560627 14.59871,-13.220708 7.87558,0.354173 14.0501,7.304282 13.69165,15.138134 -0.37295,8.150772 -7.56851,14.539582 -15.67756,14.162602 -8.42596,-0.39172 -15.02907,-7.83274 -14.63354,-16.216987 0.41047,-8.70115 8.09696,-15.518565 16.7564,-15.104489 8.97634,0.429229 16.00807,8.361186 15.57544,17.295833 -0.44798,9.251523 -8.62541,16.497573 -17.83526,16.046383 -9.52671,-0.46672 -16.98708,-8.88964 -16.51732,-18.374686 0.48545,-9.801903 9.15386,-17.476602 18.9141,-16.98827 10.0771,0.504185 17.96613,9.418095 17.45922,19.453532 -0.52291,10.352284 -9.68232,18.455654 -19.99296,17.930164 -10.62747,-0.54164 -18.94518,-9.94655 -18.4011,-20.532385 0.56035,-10.902657 10.21078,-19.434709 21.0718,-18.872051 11.17785,0.579071 19.92425,10.47501 19.343,21.611231 -0.59778,11.453035 -10.73924,20.413785 -22.15066,19.813945 -11.72822,-0.6165 -20.90332,-11.00347 -20.28488,-22.690084 0.6352,-12.003413 11.26769,-21.392868 23.2295,-20.755832 12.2786,0.653907 21.88242,11.531928 21.22678,23.76893 C 144.5628,112.255 133.43925,122.07317 120.92705,121.39893 108.09807,120.70762 98.065542,109.33854 98.758386,96.551147 99.468393,83.446978 111.083,73.200083 124.14559,73.911534 c 13.37936,0.728703 23.84062,12.588849 23.11056,25.926629 -0.7474,13.654547 -12.85308,24.330177 -26.46605,23.581507 -13.92974,-0.76609 -24.819736,-13.11731 -24.052454,-27.005482 0.784782,-14.204927 13.381544,-25.30929 27.544904,-24.523395 14.48012,0.803472 25.79885,13.645773 24.99434,28.084329 -0.82216,14.755308 -13.91,26.288408 -28.62375,25.465288 -15.0305,-0.84085 -26.777979,-14.17424 -25.936234,-29.163181 0.859531,-15.305685 14.438464,-27.267539 29.702604,-26.407176 15.58087,0.878216 27.7571,14.702698 26.87812,30.242027 -0.8969,15.85607 -14.96693,28.24667 -30.78145,27.34907 -16.13126,-0.91558 -28.736241,-15.23116 -27.820015,-31.32088 0.934263,-16.406444 15.495395,-29.225806 31.860305,-28.290957 16.68163,0.952942 29.71537,15.759624 28.7619,32.399727 -0.32948,5.75017 -2.29225,11.36334 -5.60993,16.07072"
       transform="matrix(0.96086711,0,0,2.2024636,6.271465,-81.528535)" />
  </g>
</svg>
