<?xml version="1.0" encoding="UTF-8" standalone="no"?>
<svg
   xmlns:dc="http://purl.org/dc/elements/1.1/"
   xmlns:cc="http://creativecommons.org/ns#"
   xmlns:rdf="http://www.w3.org/1999/02/22-rdf-syntax-ns#"
   xmlns:svg="http://www.w3.org/2000/svg"
   xmlns="http://www.w3.org/2000/svg"
   xmlns:xlink="http://www.w3.org/1999/xlink"
   xmlns:sodipodi="http://sodipodi.sourceforge.net/DTD/sodipodi-0.dtd"
   xmlns:inkscape="http://www.inkscape.org/namespaces/inkscape"
   sodipodi:docname="things.svg"
   inkscape:version="1.0beta2 (2b71d25, 2019-12-03)"
   id="svg12392"
   version="1.1"
   viewBox="0 0 210 297"
   height="297mm"
   width="210mm">
  <defs
     id="defs12386">
    <linearGradient
       id="linearGradient2827"
       inkscape:collect="always">
      <stop
         id="stop2823"
         offset="0"
         style="stop-color:#ff0808;stop-opacity:1" />
      <stop
         id="stop2825"
         offset="1"
         style="stop-color:#fbff00;stop-opacity:0.67741936" />
    </linearGradient>
    <inkscape:perspective
       sodipodi:type="inkscape:persp3d"
       inkscape:vp_x="0 : 148.5 : 1"
       inkscape:vp_y="0 : 1000 : 0"
       inkscape:vp_z="210 : 148.5 : 1"
       inkscape:persp3d-origin="105 : 99 : 1"
       id="perspective1347" />
    <linearGradient
       gradientTransform="translate(-27.796031,-102.09695)"
       gradientUnits="userSpaceOnUse"
       y2="214.35016"
       x2="132.03114"
       y1="215.41924"
       x1="83.388092"
       id="linearGradient2829"
       xlink:href="#linearGradient2827"
       inkscape:collect="always" />
    <linearGradient
       y2="214.35016"
       x2="132.03114"
       y1="215.41924"
       x1="83.388092"
       gradientTransform="translate(-27.796031,-102.09695)"
       gradientUnits="userSpaceOnUse"
       id="linearGradient2852"
       xlink:href="#linearGradient2827"
       inkscape:collect="always" />
    <linearGradient
       y2="214.35016"
       x2="132.03114"
       y1="215.41924"
       x1="83.388092"
       gradientTransform="translate(-27.796031,-102.09695)"
       gradientUnits="userSpaceOnUse"
       id="linearGradient2854"
       xlink:href="#linearGradient2827"
       inkscape:collect="always" />
    <linearGradient
       y2="214.35016"
       x2="132.03114"
       y1="215.41924"
       x1="83.388092"
       gradientTransform="translate(-27.796031,-102.09695)"
       gradientUnits="userSpaceOnUse"
       id="linearGradient2880"
       xlink:href="#linearGradient2827"
       inkscape:collect="always" />
    <linearGradient
       y2="214.35016"
       x2="132.03114"
       y1="215.41924"
       x1="83.388092"
       gradientTransform="translate(-27.796031,-102.09695)"
       gradientUnits="userSpaceOnUse"
       id="linearGradient2882"
       xlink:href="#linearGradient2827"
       inkscape:collect="always" />
  </defs>
  <sodipodi:namedview
     inkscape:object-paths="true"
     showguides="true"
     inkscape:window-maximized="0"
     inkscape:window-y="23"
     inkscape:window-x="0"
     inkscape:window-height="777"
     inkscape:window-width="1440"
     inkscape:object-nodes="false"
     showgrid="false"
     inkscape:document-rotation="0"
     inkscape:current-layer="layer1"
     inkscape:document-units="mm"
     inkscape:cy="500.14397"
     inkscape:cx="317.14766"
     inkscape:zoom="1.206756"
     inkscape:pageshadow="2"
     inkscape:pageopacity="0.0"
     borderopacity="1.0"
     bordercolor="#666666"
     pagecolor="#ffffff"
     id="base" />
  <metadata
     id="metadata12389">
    <rdf:RDF>
      <cc:Work
         rdf:about="">
        <dc:format>image/svg+xml</dc:format>
        <dc:type
           rdf:resource="http://purl.org/dc/dcmitype/StillImage" />
        <dc:title></dc:title>
      </cc:Work>
    </rdf:RDF>
  </metadata>
  <g
     id="layer1"
     inkscape:groupmode="layer"
     inkscape:label="Layer 1">
    <path
       inkscape:connector-curvature="0"
       d="m 83.383198,80.05298 c 0.518855,0.660705 0.808912,1.291311 0.838006,1.876653 l 4.363198,87.794317 2.558869,-0.35146 1.512794,-0.92258 -4.347778,3.82696 c -0.192694,0.26553 -0.46854,0.50246 -0.811629,0.71436 l -0.02505,0.0218 -0.01704,0.004 c -0.995748,0.59825 -2.576517,0.97744 -4.615329,1.13197 l -0.01331,0.003 0.0012,-0.002 C 78.501687,174.47587 72.133218,173.7948 64.96479,172.05449 51.654656,168.8231 40.789218,163.2058 40.603046,159.45956 L 36.19334,70.725012 36.17014,70.264006 c -0.02845,-0.572501 0.195329,-1.066753 0.640498,-1.482508 l 3.06e-4,-0.0015 0.0071,-0.0058 c 0.07655,-0.07079 0.160572,-0.138759 0.249651,-0.205296 l 3.750078,-3.085053 0.02765,1.871558 c 4.299594,-0.559893 11.179928,0.07746 19.014078,1.979419 11.23041,2.72647 20.720474,7.151635 23.523698,10.718168 z"
       style="fill:#afafaf;fill-opacity:1;fill-rule:evenodd;stroke-width:0.268523"
       id="rect948" />
    <rect
       transform="matrix(-0.9717716,-0.23592361,0.04963751,0.9987673,0,0)"
       rx="24.723404"
       ry="6.770484"
       y="50.315712"
       x="-88.418602"
       height="102.8468"
       width="49.446804"
       id="rect838"
       style="fill:#e6e6e6;fill-rule:evenodd;stroke-width:0.274221" />
    <rect
       transform="matrix(-0.9717716,-0.23592361,0.04963751,0.9987673,0,0)"
       style="fill:#000061;fill-rule:evenodd;stroke-width:0.242649;fill-opacity:1"
       id="rect840"
       width="49.446804"
       height="80.528137"
       x="-88.418602"
       y="61.188759" />
    <ellipse
       transform="matrix(-0.9717716,-0.23592361,0.04963751,0.9987673,0,0)"
       ry="3.166837"
       rx="2.5902441"
       cy="146.99493"
       cx="-63.695244"
       id="path869"
       style="fill:#afafaf;fill-opacity:1;fill-rule:evenodd;stroke-width:0.272768" />
    <g
       transform="matrix(0.85774116,0,0,0.85774116,12.697013,7.4923486)"
       id="g2878">
      <g
         id="g2846"
         transform="translate(13.363476,1.6036171)"
         inkscape:transform-center-x="-6.4144686"
         inkscape:transform-center-y="8.5526248">
        <path
           inkscape:connector-curvature="0"
           id="path2797"
           d="m 61.387165,143.82057 c 0.170353,-0.20526 0.157511,-0.42427 -0.06473,-1.10374 -0.445144,-1.36093 -0.292395,-2.58341 0.322798,-2.58341 0.320498,0 0.600056,-0.53775 0.600056,-1.15423 0,-0.33224 0.192276,-0.68237 0.594614,-1.08281 0.685305,-0.68206 0.749727,-0.97811 0.252836,-1.16192 -0.322837,-0.11943 -0.261953,-0.22946 0.719992,-1.30107 0.589961,-0.64384 2.008638,-1.92537 3.152616,-2.84784 1.143985,-0.92248 2.690882,-2.19684 3.437551,-2.83191 0.746677,-0.63506 1.66619,-1.2894 2.043371,-1.45406 0.79835,-0.34853 1.39955,-0.96165 2.04438,-2.08494 0.25361,-0.44178 1.4635,-1.98479 2.68863,-3.4289 1.22514,-1.44413 2.57863,-3.14918 3.00774,-3.78902 0.56243,-0.83862 0.85915,-1.13837 1.06302,-1.0739 0.37835,0.11966 4.8065,0.42947 5.05727,0.35383 0.1086,-0.0328 0.64561,-0.10579 1.19336,-0.16229 l 0.99588,-0.10272 -0.5003,0.73133 c -0.75401,1.10217 -1.04376,1.73639 -1.25054,2.73723 -0.2903,1.40511 -3.01206,6.40895 -3.78774,6.96359 -0.17368,0.12419 -0.69628,0.78967 -1.16133,1.47885 l -0.84555,1.25304 0.39548,0.37155 c 0.41977,0.39434 0.97641,0.62975 4.38669,1.85514 2.14106,0.76934 3.58446,0.97628 4.58797,0.65778 0.71151,-0.22583 0.62267,-1.29238 -0.10852,-1.30287 -0.39829,-0.006 -1.94127,-0.89014 -2.08676,-1.19612 -0.0673,-0.14144 -0.24045,-0.53457 -0.38487,-0.87363 l -0.26258,-0.61645 0.92756,-0.29239 c 0.51015,-0.16082 0.92756,-0.33718 0.92756,-0.39192 0,-0.11506 -1.15215,0.0291 -1.56376,0.19575 -0.15957,0.0646 -0.39671,-0.006 -0.55686,-0.16647 -0.312,-0.31199 -0.18373,-0.70837 0.45684,-1.4117 0.48226,-0.5295 0.22052,-0.71135 -0.30852,-0.21434 -1.06283,0.99849 0.08,-1.0534 1.8258,-3.27807 1.82799,-2.32941 3.84892,-5.28325 4.34775,-6.35478 0.86622,-1.86067 0.43535,-3.08304 -1.4932,-4.23627 -1.05937,-0.63348 -5.10681,-2.23727 -6.56056,-2.59963 -0.7516,-0.18733 -1.44057,-0.41463 -1.53104,-0.5051 -0.36603,-0.36604 0.21976,-2.15121 1.51891,-4.62886 0.71693,-1.36727 1.40756,-2.62298 1.53472,-2.79047 0.21119,-0.27812 0.42973,-0.10565 2.52354,1.99162 1.26077,1.26286 2.47116,2.35185 2.68973,2.41996 0.29281,0.0913 0.58277,-0.005 1.10181,-0.36288 1.00814,-0.69657 3.18264,-2.92727 4.07871,-4.1841 0.42105,-0.59059 1.11893,-1.47179 1.55083,-1.95822 0.43191,-0.48645 1.03353,-1.24526 1.336931,-1.686249 0.30342,-0.44099 0.61918,-0.80181 0.70171,-0.80181 0.26633,0 1.20503,-0.87996 1.20503,-1.12963 0,-0.36868 -0.43142,-0.28955 -0.99172,0.18191 -0.72017,0.60598 -0.79753,0.34869 -0.206,-0.68519 0.59605,-1.04178 0.66475,-1.53304 0.19731,-1.41081 -0.2532,0.0662 -0.29952,0.003 -0.23718,-0.32289 0.0852,-0.4457 -0.2567,-0.55675 -0.61401,-0.19944 -0.16002,0.16001 -0.20574,0.16001 -0.20574,0 0,-0.11315 -0.153181,-0.20573 -0.340421,-0.20573 -0.24602,0 -0.48929,0.29713 -0.87727,1.07153 -0.74884,1.49466 -0.8349,1.58321 -1.12971,1.16232 -0.33231,-0.47445 -0.79407,-0.69704 -1.07971,-0.52051 -0.17034,0.10528 -0.1864,0.2103 -0.0572,0.37379 0.0989,0.12505 0.22638,0.69665 0.28338,1.27021 0.057,0.57357 0.14627,1.15398 0.1984,1.28981 0.0584,0.15209 -0.35111,0.708299 -1.0659,1.447879 -0.98658,1.02079 -1.33964,1.2645 -2.35373,1.62477 -0.65618,0.23312 -1.24076,0.44511 -1.29906,0.47111 -0.14015,0.0625 -1.02251,-1.56581 -1.02251,-1.88694 0,-0.13764 -0.14666,-0.38299 -0.32591,-0.54521 -0.17925,-0.16221 -0.37857,-0.57562 -0.44293,-0.918679 -0.2526,-1.3465 -1.31983,-2.83223 -2.51825,-3.50578 -0.61694,-0.34674 -0.67328,-0.43432 -0.57985,-0.90144 0.0569,-0.28457 0.24087,-0.65479 0.4088,-0.82271 0.27142,-0.27142 0.40331,-0.2827 1.18797,-0.10158 1.06861,0.24667 1.41294,0.0511 1.41294,-0.80225 0,-0.35482 0.16129,-0.75758 0.43238,-1.07976 0.2773,-0.32955 0.41898,-0.6896 0.39504,-1.00387 -0.0206,-0.26951 0.0265,-0.59327 0.10446,-0.71947 0.078,-0.1262 0.16801,-0.91445 0.20004,-1.75168 l 0.0582,-1.52223 -0.56876,-0.56877 c -1.22467,-1.22467 -2.97711,-1.61969 -4.31409,-0.97247 -0.69395,0.33594 -0.87336,0.53665 -1.28416,1.43661 -0.33968,0.74417 -0.51079,1.46062 -0.59283,2.48214 -0.0634,0.78981 -0.156,1.54202 -0.20572,1.67158 -0.13849,0.36091 -1.78153,0.29531 -2.83786,-0.11329 -0.82183,-0.3179 -1.14553,-0.33947 -3.64504,-0.24284 -1.50872,0.0583 -3.36033,0.20941 -4.11469,0.33576 -0.75435,0.12635 -1.83446,0.2307 -2.400221,0.23189 -1.024659,0.002 -3.410556,0.71862 -6.002781,1.80257 -0.566977,0.23709 -1.286625,0.47612 -1.599218,0.53119 -0.312592,0.0551 -0.735932,0.20266 -0.940746,0.32798 -0.20482,0.12531 -0.826487,0.36508 -1.381489,0.53281 -0.554996,0.16774 -1.138309,0.4342 -1.296248,0.59214 -0.820455,0.82046 -1.192474,1.88543 -0.575977,1.64886 0.272923,-0.10474 0.272923,-0.0921 0,0.20946 -0.326947,0.36127 -0.38807,0.89396 -0.102576,0.89396 0.103308,0 0.40898,-0.15746 0.679259,-0.34992 l 0.491423,-0.34992 -0.249596,0.4785 c -0.531922,1.01978 -0.109444,1.24804 0.650521,0.35147 0.425925,-0.50248 0.458609,-0.51558 0.324645,-0.13013 -0.165857,0.47722 -0.08851,0.85723 0.174495,0.85723 0.301422,0 2.0398,-1.58375 2.308304,-2.10298 0.387622,-0.74957 1.746659,-1.29848 3.68287,-1.48749 0.884584,-0.0864 2.20862,-0.35535 2.942321,-0.59778 1.539204,-0.50857 1.760334,-0.52614 2.545434,-0.20227 0.31798,0.13116 1.43724,0.37462 2.48725,0.54099 l 1.9091,0.30251 0.10538,0.76877 c 0.34636,2.52699 -0.0974,7.106919 -0.93367,9.636059 -0.47418,1.43408 -0.70109,1.86877 -1.78981,3.4289 -1.74546,2.50126 -1.89462,3.06111 -1.51721,5.69455 0.25297,1.76521 0.25039,1.8557 -0.066,2.31451 -0.47033,0.68203 -2.841403,5.06501 -3.478801,6.43063 -0.466318,0.99908 -0.658059,1.22138 -1.438816,1.66807 -1.386065,0.79304 -2.375236,1.7551 -3.947997,3.83984 -0.7932,1.05141 -2.045599,2.50774 -2.783099,3.23631 l -1.340913,1.32466 -1.757312,0.19968 -1.757313,0.1997 0.0039,0.61871 c 0.0019,0.34029 0.07213,0.88873 0.155302,1.21877 1.320709,5.24108 1.77414,6.4237 2.763278,7.20711 0.716764,0.56769 1.049399,0.62917 1.362555,0.25183 z m 0.17235,-4.27709 c 0,-0.0416 0.07715,-0.12329 0.171443,-0.18156 0.09429,-0.0583 0.171442,-0.0243 0.171442,0.0756 0,0.0999 -0.07715,0.18157 -0.171442,0.18157 -0.0943,0 -0.171443,-0.0341 -0.171443,-0.0756 z"
           style="fill:url(#linearGradient2880);fill-opacity:1;stroke:none;stroke-width:0.171445" />
        <path
           style="fill:url(#linearGradient2882);fill-opacity:1;stroke:none;stroke-width:0.171445"
           d="m 61.387165,143.82057 c 0.170353,-0.20526 0.157511,-0.42427 -0.06473,-1.10374 -0.445144,-1.36093 -0.292395,-2.58341 0.322798,-2.58341 0.320498,0 0.600056,-0.53775 0.600056,-1.15423 0,-0.33224 0.192276,-0.68237 0.594614,-1.08281 0.685305,-0.68206 0.749727,-0.97811 0.252836,-1.16192 -0.322837,-0.11943 -0.261953,-0.22946 0.719992,-1.30107 0.589961,-0.64384 2.008638,-1.92537 3.152616,-2.84784 1.143985,-0.92248 2.690882,-2.19684 3.437551,-2.83191 0.746677,-0.63506 1.66619,-1.2894 2.043371,-1.45406 0.79835,-0.34853 1.39955,-0.96165 2.04438,-2.08494 0.25361,-0.44178 1.4635,-1.98479 2.68863,-3.4289 1.22514,-1.44413 2.57863,-3.14918 3.00774,-3.78902 0.56243,-0.83862 0.85915,-1.13837 1.06302,-1.0739 0.37835,0.11966 4.8065,0.42947 5.05727,0.35383 0.1086,-0.0328 0.64561,-0.10579 1.19336,-0.16229 l 0.99588,-0.10272 -0.5003,0.73133 c -0.75401,1.10217 -1.04376,1.73639 -1.25054,2.73723 -0.2903,1.40511 -3.01206,6.40895 -3.78774,6.96359 -0.17368,0.12419 -0.69628,0.78967 -1.16133,1.47885 l -0.84555,1.25304 0.39548,0.37155 c 0.41977,0.39434 0.97641,0.62975 4.38669,1.85514 2.14106,0.76934 3.58446,0.97628 4.58797,0.65778 0.71151,-0.22583 0.62267,-1.29238 -0.10852,-1.30287 -0.39829,-0.006 -1.94127,-0.89014 -2.08676,-1.19612 -0.0673,-0.14144 -0.24045,-0.53457 -0.38487,-0.87363 l -0.26258,-0.61645 0.92756,-0.29239 c 0.51015,-0.16082 0.92756,-0.33718 0.92756,-0.39192 0,-0.11506 -1.15215,0.0291 -1.56376,0.19575 -0.15957,0.0646 -0.39671,-0.006 -0.55686,-0.16647 -0.312,-0.31199 -0.18373,-0.70837 0.45684,-1.4117 0.48226,-0.5295 0.22052,-0.71135 -0.30852,-0.21434 -1.06283,0.99849 0.08,-1.0534 1.8258,-3.27807 1.82799,-2.32941 3.84892,-5.28325 4.34775,-6.35478 0.86622,-1.86067 0.43535,-3.08304 -1.4932,-4.23627 -1.05937,-0.63348 -5.10681,-2.23727 -6.56056,-2.59963 -0.7516,-0.18733 -1.44057,-0.41463 -1.53104,-0.5051 -0.36603,-0.36604 0.21976,-2.15121 1.51891,-4.62886 0.71693,-1.36727 1.40756,-2.62298 1.53472,-2.79047 0.21119,-0.27812 0.42973,-0.10565 2.52354,1.99162 1.26077,1.26286 2.47116,2.35185 2.68973,2.41996 0.29281,0.0913 0.58277,-0.005 1.10181,-0.36288 1.00814,-0.69657 3.18264,-2.92727 4.07871,-4.1841 0.42105,-0.59059 1.11893,-1.47179 1.55083,-1.95822 0.43191,-0.48645 1.03353,-1.24526 1.336931,-1.686249 0.30342,-0.44099 0.61918,-0.80181 0.70171,-0.80181 0.26633,0 1.20503,-0.87996 1.20503,-1.12963 0,-0.36868 -0.43142,-0.28955 -0.99172,0.18191 -0.72017,0.60598 -0.79753,0.34869 -0.206,-0.68519 0.59605,-1.04178 0.66475,-1.53304 0.19731,-1.41081 -0.2532,0.0662 -0.29952,0.003 -0.23718,-0.32289 0.0852,-0.4457 -0.2567,-0.55675 -0.61401,-0.19944 -0.16002,0.16001 -0.20574,0.16001 -0.20574,0 0,-0.11315 -0.153181,-0.20573 -0.340421,-0.20573 -0.24602,0 -0.48929,0.29713 -0.87727,1.07153 -0.74884,1.49466 -0.8349,1.58321 -1.12971,1.16232 -0.33231,-0.47445 -0.79407,-0.69704 -1.07971,-0.52051 -0.17034,0.10528 -0.1864,0.2103 -0.0572,0.37379 0.0989,0.12505 0.22638,0.69665 0.28338,1.27021 0.057,0.57357 0.14627,1.15398 0.1984,1.28981 0.0584,0.15209 -0.35111,0.708299 -1.0659,1.447879 -0.98658,1.02079 -1.33964,1.2645 -2.35373,1.62477 -0.65618,0.23312 -1.24076,0.44511 -1.29906,0.47111 -0.14015,0.0625 -1.02251,-1.56581 -1.02251,-1.88694 0,-0.13764 -0.14666,-0.38299 -0.32591,-0.54521 -0.17925,-0.16221 -0.37857,-0.57562 -0.44293,-0.918679 -0.2526,-1.3465 -1.31983,-2.83223 -2.51825,-3.50578 -0.61694,-0.34674 -0.67328,-0.43432 -0.57985,-0.90144 0.0569,-0.28457 0.24087,-0.65479 0.4088,-0.82271 0.27142,-0.27142 0.40331,-0.2827 1.18797,-0.10158 1.06861,0.24667 1.41294,0.0511 1.41294,-0.80225 0,-0.35482 0.16129,-0.75758 0.43238,-1.07976 0.2773,-0.32955 0.41898,-0.6896 0.39504,-1.00387 -0.0206,-0.26951 0.0265,-0.59327 0.10446,-0.71947 0.078,-0.1262 0.16801,-0.91445 0.20004,-1.75168 l 0.0582,-1.52223 -0.56876,-0.56877 c -1.22467,-1.22467 -2.97711,-1.61969 -4.31409,-0.97247 -0.69395,0.33594 -0.87336,0.53665 -1.28416,1.43661 -0.33968,0.74417 -0.51079,1.46062 -0.59283,2.48214 -0.0634,0.78981 -0.156,1.54202 -0.20572,1.67158 -0.13849,0.36091 -1.78153,0.29531 -2.83786,-0.11329 -0.82183,-0.3179 -1.14553,-0.33947 -3.64504,-0.24284 -1.50872,0.0583 -3.36033,0.20941 -4.11469,0.33576 -0.75435,0.12635 -1.83446,0.2307 -2.400221,0.23189 -1.024659,0.002 -3.410556,0.71862 -6.002781,1.80257 -0.566977,0.23709 -1.286625,0.47612 -1.599218,0.53119 -0.312592,0.0551 -0.735932,0.20266 -0.940746,0.32798 -0.20482,0.12531 -0.826487,0.36508 -1.381489,0.53281 -0.554996,0.16774 -1.138309,0.4342 -1.296248,0.59214 -0.820455,0.82046 -1.192474,1.88543 -0.575977,1.64886 0.272923,-0.10474 0.272923,-0.0921 0,0.20946 -0.326947,0.36127 -0.38807,0.89396 -0.102576,0.89396 0.103308,0 0.40898,-0.15746 0.679259,-0.34992 l 0.491423,-0.34992 -0.249596,0.4785 c -0.531922,1.01978 -0.109444,1.24804 0.650521,0.35147 0.425925,-0.50248 0.458609,-0.51558 0.324645,-0.13013 -0.165857,0.47722 -0.08851,0.85723 0.174495,0.85723 0.301422,0 2.0398,-1.58375 2.308304,-2.10298 0.387622,-0.74957 1.746659,-1.29848 3.68287,-1.48749 0.884584,-0.0864 2.20862,-0.35535 2.942321,-0.59778 1.539204,-0.50857 1.760334,-0.52614 2.545434,-0.20227 0.31798,0.13116 1.43724,0.37462 2.48725,0.54099 l 1.9091,0.30251 0.10538,0.76877 c 0.34636,2.52699 -0.0974,7.106919 -0.93367,9.636059 -0.47418,1.43408 -0.70109,1.86877 -1.78981,3.4289 -1.74546,2.50126 -1.89462,3.06111 -1.51721,5.69455 0.25297,1.76521 0.25039,1.8557 -0.066,2.31451 -0.47033,0.68203 -2.841403,5.06501 -3.478801,6.43063 -0.466318,0.99908 -0.658059,1.22138 -1.438816,1.66807 -1.386065,0.79304 -2.375236,1.7551 -3.947997,3.83984 -0.7932,1.05141 -2.045599,2.50774 -2.783099,3.23631 l -1.340913,1.32466 -1.757312,0.19968 -1.757313,0.1997 0.0039,0.61871 c 0.0019,0.34029 0.07213,0.88873 0.155302,1.21877 1.320709,5.24108 1.77414,6.4237 2.763278,7.20711 0.716764,0.56769 1.049399,0.62917 1.362555,0.25183 z m 0.17235,-4.27709 c 0,-0.0416 0.07715,-0.12329 0.171443,-0.18156 0.09429,-0.0583 0.171442,-0.0243 0.171442,0.0756 0,0.0999 -0.07715,0.18157 -0.171442,0.18157 -0.0943,0 -0.171443,-0.0341 -0.171443,-0.0756 z"
           id="path2842"
           inkscape:connector-curvature="0" />
      </g>
      <g
         id="g2865">
        <g
           id="g2860"
           transform="translate(13.363476,1.6036171)"
           inkscape:transform-center-x="-6.4144686"
           inkscape:transform-center-y="8.5526248">
          <path
             inkscape:connector-curvature="0"
             id="path2856"
             d="m 61.387165,143.82057 c 0.170353,-0.20526 0.157511,-0.42427 -0.06473,-1.10374 -0.445144,-1.36093 -0.292395,-2.58341 0.322798,-2.58341 0.320498,0 0.600056,-0.53775 0.600056,-1.15423 0,-0.33224 0.192276,-0.68237 0.594614,-1.08281 0.685305,-0.68206 0.749727,-0.97811 0.252836,-1.16192 -0.322837,-0.11943 -0.261953,-0.22946 0.719992,-1.30107 0.589961,-0.64384 2.008638,-1.92537 3.152616,-2.84784 1.143985,-0.92248 2.690882,-2.19684 3.437551,-2.83191 0.746677,-0.63506 1.66619,-1.2894 2.043371,-1.45406 0.79835,-0.34853 1.39955,-0.96165 2.04438,-2.08494 0.25361,-0.44178 1.4635,-1.98479 2.68863,-3.4289 1.22514,-1.44413 2.57863,-3.14918 3.00774,-3.78902 0.56243,-0.83862 0.85915,-1.13837 1.06302,-1.0739 0.37835,0.11966 4.8065,0.42947 5.05727,0.35383 0.1086,-0.0328 0.64561,-0.10579 1.19336,-0.16229 l 0.99588,-0.10272 -0.5003,0.73133 c -0.75401,1.10217 -1.04376,1.73639 -1.25054,2.73723 -0.2903,1.40511 -3.01206,6.40895 -3.78774,6.96359 -0.17368,0.12419 -0.69628,0.78967 -1.16133,1.47885 l -0.84555,1.25304 0.39548,0.37155 c 0.41977,0.39434 0.97641,0.62975 4.38669,1.85514 2.14106,0.76934 3.58446,0.97628 4.58797,0.65778 0.71151,-0.22583 0.62267,-1.29238 -0.10852,-1.30287 -0.39829,-0.006 -1.94127,-0.89014 -2.08676,-1.19612 -0.0673,-0.14144 -0.24045,-0.53457 -0.38487,-0.87363 l -0.26258,-0.61645 0.92756,-0.29239 c 0.51015,-0.16082 0.92756,-0.33718 0.92756,-0.39192 0,-0.11506 -1.15215,0.0291 -1.56376,0.19575 -0.15957,0.0646 -0.39671,-0.006 -0.55686,-0.16647 -0.312,-0.31199 -0.18373,-0.70837 0.45684,-1.4117 0.48226,-0.5295 0.22052,-0.71135 -0.30852,-0.21434 -1.06283,0.99849 0.08,-1.0534 1.8258,-3.27807 1.82799,-2.32941 3.84892,-5.28325 4.34775,-6.35478 0.86622,-1.86067 0.43535,-3.08304 -1.4932,-4.23627 -1.05937,-0.63348 -5.10681,-2.23727 -6.56056,-2.59963 -0.7516,-0.18733 -1.44057,-0.41463 -1.53104,-0.5051 -0.36603,-0.36604 0.21976,-2.15121 1.51891,-4.62886 0.71693,-1.36727 1.40756,-2.62298 1.53472,-2.79047 0.21119,-0.27812 0.42973,-0.10565 2.52354,1.99162 1.26077,1.26286 2.47116,2.35185 2.68973,2.41996 0.29281,0.0913 0.58277,-0.005 1.10181,-0.36288 1.00814,-0.69657 3.18264,-2.92727 4.07871,-4.1841 0.42105,-0.59059 1.11893,-1.47179 1.55083,-1.95822 0.43191,-0.48645 1.03353,-1.24526 1.336931,-1.686249 0.30342,-0.44099 0.61918,-0.80181 0.70171,-0.80181 0.26633,0 1.20503,-0.87996 1.20503,-1.12963 0,-0.36868 -0.43142,-0.28955 -0.99172,0.18191 -0.72017,0.60598 -0.79753,0.34869 -0.206,-0.68519 0.59605,-1.04178 0.66475,-1.53304 0.19731,-1.41081 -0.2532,0.0662 -0.29952,0.003 -0.23718,-0.32289 0.0852,-0.4457 -0.2567,-0.55675 -0.61401,-0.19944 -0.16002,0.16001 -0.20574,0.16001 -0.20574,0 0,-0.11315 -0.153181,-0.20573 -0.340421,-0.20573 -0.24602,0 -0.48929,0.29713 -0.87727,1.07153 -0.74884,1.49466 -0.8349,1.58321 -1.12971,1.16232 -0.33231,-0.47445 -0.79407,-0.69704 -1.07971,-0.52051 -0.17034,0.10528 -0.1864,0.2103 -0.0572,0.37379 0.0989,0.12505 0.22638,0.69665 0.28338,1.27021 0.057,0.57357 0.14627,1.15398 0.1984,1.28981 0.0584,0.15209 -0.35111,0.708299 -1.0659,1.447879 -0.98658,1.02079 -1.33964,1.2645 -2.35373,1.62477 -0.65618,0.23312 -1.24076,0.44511 -1.29906,0.47111 -0.14015,0.0625 -1.02251,-1.56581 -1.02251,-1.88694 0,-0.13764 -0.14666,-0.38299 -0.32591,-0.54521 -0.17925,-0.16221 -0.37857,-0.57562 -0.44293,-0.918679 -0.2526,-1.3465 -1.31983,-2.83223 -2.51825,-3.50578 -0.61694,-0.34674 -0.67328,-0.43432 -0.57985,-0.90144 0.0569,-0.28457 0.24087,-0.65479 0.4088,-0.82271 0.27142,-0.27142 0.40331,-0.2827 1.18797,-0.10158 1.06861,0.24667 1.41294,0.0511 1.41294,-0.80225 0,-0.35482 0.16129,-0.75758 0.43238,-1.07976 0.2773,-0.32955 0.41898,-0.6896 0.39504,-1.00387 -0.0206,-0.26951 0.0265,-0.59327 0.10446,-0.71947 0.078,-0.1262 0.16801,-0.91445 0.20004,-1.75168 l 0.0582,-1.52223 -0.56876,-0.56877 c -1.22467,-1.22467 -2.97711,-1.61969 -4.31409,-0.97247 -0.69395,0.33594 -0.87336,0.53665 -1.28416,1.43661 -0.33968,0.74417 -0.51079,1.46062 -0.59283,2.48214 -0.0634,0.78981 -0.156,1.54202 -0.20572,1.67158 -0.13849,0.36091 -1.78153,0.29531 -2.83786,-0.11329 -0.82183,-0.3179 -1.14553,-0.33947 -3.64504,-0.24284 -1.50872,0.0583 -3.36033,0.20941 -4.11469,0.33576 -0.75435,0.12635 -1.83446,0.2307 -2.400221,0.23189 -1.024659,0.002 -3.410556,0.71862 -6.002781,1.80257 -0.566977,0.23709 -1.286625,0.47612 -1.599218,0.53119 -0.312592,0.0551 -0.735932,0.20266 -0.940746,0.32798 -0.20482,0.12531 -0.826487,0.36508 -1.381489,0.53281 -0.554996,0.16774 -1.138309,0.4342 -1.296248,0.59214 -0.820455,0.82046 -1.192474,1.88543 -0.575977,1.64886 0.272923,-0.10474 0.272923,-0.0921 0,0.20946 -0.326947,0.36127 -0.38807,0.89396 -0.102576,0.89396 0.103308,0 0.40898,-0.15746 0.679259,-0.34992 l 0.491423,-0.34992 -0.249596,0.4785 c -0.531922,1.01978 -0.109444,1.24804 0.650521,0.35147 0.425925,-0.50248 0.458609,-0.51558 0.324645,-0.13013 -0.165857,0.47722 -0.08851,0.85723 0.174495,0.85723 0.301422,0 2.0398,-1.58375 2.308304,-2.10298 0.387622,-0.74957 1.746659,-1.29848 3.68287,-1.48749 0.884584,-0.0864 2.20862,-0.35535 2.942321,-0.59778 1.539204,-0.50857 1.760334,-0.52614 2.545434,-0.20227 0.31798,0.13116 1.43724,0.37462 2.48725,0.54099 l 1.9091,0.30251 0.10538,0.76877 c 0.34636,2.52699 -0.0974,7.106919 -0.93367,9.636059 -0.47418,1.43408 -0.70109,1.86877 -1.78981,3.4289 -1.74546,2.50126 -1.89462,3.06111 -1.51721,5.69455 0.25297,1.76521 0.25039,1.8557 -0.066,2.31451 -0.47033,0.68203 -2.841403,5.06501 -3.478801,6.43063 -0.466318,0.99908 -0.658059,1.22138 -1.438816,1.66807 -1.386065,0.79304 -2.375236,1.7551 -3.947997,3.83984 -0.7932,1.05141 -2.045599,2.50774 -2.783099,3.23631 l -1.340913,1.32466 -1.757312,0.19968 -1.757313,0.1997 0.0039,0.61871 c 0.0019,0.34029 0.07213,0.88873 0.155302,1.21877 1.320709,5.24108 1.77414,6.4237 2.763278,7.20711 0.716764,0.56769 1.049399,0.62917 1.362555,0.25183 z m 0.17235,-4.27709 c 0,-0.0416 0.07715,-0.12329 0.171443,-0.18156 0.09429,-0.0583 0.171442,-0.0243 0.171442,0.0756 0,0.0999 -0.07715,0.18157 -0.171442,0.18157 -0.0943,0 -0.171443,-0.0341 -0.171443,-0.0756 z"
             style="fill:url(#linearGradient2852);fill-opacity:1;stroke:none;stroke-width:0.171445" />
          <path
             style="fill:url(#linearGradient2854);fill-opacity:1;stroke:none;stroke-width:0.171445"
             d="m 61.387165,143.82057 c 0.170353,-0.20526 0.157511,-0.42427 -0.06473,-1.10374 -0.445144,-1.36093 -0.292395,-2.58341 0.322798,-2.58341 0.320498,0 0.600056,-0.53775 0.600056,-1.15423 0,-0.33224 0.192276,-0.68237 0.594614,-1.08281 0.685305,-0.68206 0.749727,-0.97811 0.252836,-1.16192 -0.322837,-0.11943 -0.261953,-0.22946 0.719992,-1.30107 0.589961,-0.64384 2.008638,-1.92537 3.152616,-2.84784 1.143985,-0.92248 2.690882,-2.19684 3.437551,-2.83191 0.746677,-0.63506 1.66619,-1.2894 2.043371,-1.45406 0.79835,-0.34853 1.39955,-0.96165 2.04438,-2.08494 0.25361,-0.44178 1.4635,-1.98479 2.68863,-3.4289 1.22514,-1.44413 2.57863,-3.14918 3.00774,-3.78902 0.56243,-0.83862 0.85915,-1.13837 1.06302,-1.0739 0.37835,0.11966 4.8065,0.42947 5.05727,0.35383 0.1086,-0.0328 0.64561,-0.10579 1.19336,-0.16229 l 0.99588,-0.10272 -0.5003,0.73133 c -0.75401,1.10217 -1.04376,1.73639 -1.25054,2.73723 -0.2903,1.40511 -3.01206,6.40895 -3.78774,6.96359 -0.17368,0.12419 -0.69628,0.78967 -1.16133,1.47885 l -0.84555,1.25304 0.39548,0.37155 c 0.41977,0.39434 0.97641,0.62975 4.38669,1.85514 2.14106,0.76934 3.58446,0.97628 4.58797,0.65778 0.71151,-0.22583 0.62267,-1.29238 -0.10852,-1.30287 -0.39829,-0.006 -1.94127,-0.89014 -2.08676,-1.19612 -0.0673,-0.14144 -0.24045,-0.53457 -0.38487,-0.87363 l -0.26258,-0.61645 0.92756,-0.29239 c 0.51015,-0.16082 0.92756,-0.33718 0.92756,-0.39192 0,-0.11506 -1.15215,0.0291 -1.56376,0.19575 -0.15957,0.0646 -0.39671,-0.006 -0.55686,-0.16647 -0.312,-0.31199 -0.18373,-0.70837 0.45684,-1.4117 0.48226,-0.5295 0.22052,-0.71135 -0.30852,-0.21434 -1.06283,0.99849 0.08,-1.0534 1.8258,-3.27807 1.82799,-2.32941 3.84892,-5.28325 4.34775,-6.35478 0.86622,-1.86067 0.43535,-3.08304 -1.4932,-4.23627 -1.05937,-0.63348 -5.10681,-2.23727 -6.56056,-2.59963 -0.7516,-0.18733 -1.44057,-0.41463 -1.53104,-0.5051 -0.36603,-0.36604 0.21976,-2.15121 1.51891,-4.62886 0.71693,-1.36727 1.40756,-2.62298 1.53472,-2.79047 0.21119,-0.27812 0.42973,-0.10565 2.52354,1.99162 1.26077,1.26286 2.47116,2.35185 2.68973,2.41996 0.29281,0.0913 0.58277,-0.005 1.10181,-0.36288 1.00814,-0.69657 3.18264,-2.92727 4.07871,-4.1841 0.42105,-0.59059 1.11893,-1.47179 1.55083,-1.95822 0.43191,-0.48645 1.03353,-1.24526 1.336931,-1.686249 0.30342,-0.44099 0.61918,-0.80181 0.70171,-0.80181 0.26633,0 1.20503,-0.87996 1.20503,-1.12963 0,-0.36868 -0.43142,-0.28955 -0.99172,0.18191 -0.72017,0.60598 -0.79753,0.34869 -0.206,-0.68519 0.59605,-1.04178 0.66475,-1.53304 0.19731,-1.41081 -0.2532,0.0662 -0.29952,0.003 -0.23718,-0.32289 0.0852,-0.4457 -0.2567,-0.55675 -0.61401,-0.19944 -0.16002,0.16001 -0.20574,0.16001 -0.20574,0 0,-0.11315 -0.153181,-0.20573 -0.340421,-0.20573 -0.24602,0 -0.48929,0.29713 -0.87727,1.07153 -0.74884,1.49466 -0.8349,1.58321 -1.12971,1.16232 -0.33231,-0.47445 -0.79407,-0.69704 -1.07971,-0.52051 -0.17034,0.10528 -0.1864,0.2103 -0.0572,0.37379 0.0989,0.12505 0.22638,0.69665 0.28338,1.27021 0.057,0.57357 0.14627,1.15398 0.1984,1.28981 0.0584,0.15209 -0.35111,0.708299 -1.0659,1.447879 -0.98658,1.02079 -1.33964,1.2645 -2.35373,1.62477 -0.65618,0.23312 -1.24076,0.44511 -1.29906,0.47111 -0.14015,0.0625 -1.02251,-1.56581 -1.02251,-1.88694 0,-0.13764 -0.14666,-0.38299 -0.32591,-0.54521 -0.17925,-0.16221 -0.37857,-0.57562 -0.44293,-0.918679 -0.2526,-1.3465 -1.31983,-2.83223 -2.51825,-3.50578 -0.61694,-0.34674 -0.67328,-0.43432 -0.57985,-0.90144 0.0569,-0.28457 0.24087,-0.65479 0.4088,-0.82271 0.27142,-0.27142 0.40331,-0.2827 1.18797,-0.10158 1.06861,0.24667 1.41294,0.0511 1.41294,-0.80225 0,-0.35482 0.16129,-0.75758 0.43238,-1.07976 0.2773,-0.32955 0.41898,-0.6896 0.39504,-1.00387 -0.0206,-0.26951 0.0265,-0.59327 0.10446,-0.71947 0.078,-0.1262 0.16801,-0.91445 0.20004,-1.75168 l 0.0582,-1.52223 -0.56876,-0.56877 c -1.22467,-1.22467 -2.97711,-1.61969 -4.31409,-0.97247 -0.69395,0.33594 -0.87336,0.53665 -1.28416,1.43661 -0.33968,0.74417 -0.51079,1.46062 -0.59283,2.48214 -0.0634,0.78981 -0.156,1.54202 -0.20572,1.67158 -0.13849,0.36091 -1.78153,0.29531 -2.83786,-0.11329 -0.82183,-0.3179 -1.14553,-0.33947 -3.64504,-0.24284 -1.50872,0.0583 -3.36033,0.20941 -4.11469,0.33576 -0.75435,0.12635 -1.83446,0.2307 -2.400221,0.23189 -1.024659,0.002 -3.410556,0.71862 -6.002781,1.80257 -0.566977,0.23709 -1.286625,0.47612 -1.599218,0.53119 -0.312592,0.0551 -0.735932,0.20266 -0.940746,0.32798 -0.20482,0.12531 -0.826487,0.36508 -1.381489,0.53281 -0.554996,0.16774 -1.138309,0.4342 -1.296248,0.59214 -0.820455,0.82046 -1.192474,1.88543 -0.575977,1.64886 0.272923,-0.10474 0.272923,-0.0921 0,0.20946 -0.326947,0.36127 -0.38807,0.89396 -0.102576,0.89396 0.103308,0 0.40898,-0.15746 0.679259,-0.34992 l 0.491423,-0.34992 -0.249596,0.4785 c -0.531922,1.01978 -0.109444,1.24804 0.650521,0.35147 0.425925,-0.50248 0.458609,-0.51558 0.324645,-0.13013 -0.165857,0.47722 -0.08851,0.85723 0.174495,0.85723 0.301422,0 2.0398,-1.58375 2.308304,-2.10298 0.387622,-0.74957 1.746659,-1.29848 3.68287,-1.48749 0.884584,-0.0864 2.20862,-0.35535 2.942321,-0.59778 1.539204,-0.50857 1.760334,-0.52614 2.545434,-0.20227 0.31798,0.13116 1.43724,0.37462 2.48725,0.54099 l 1.9091,0.30251 0.10538,0.76877 c 0.34636,2.52699 -0.0974,7.106919 -0.93367,9.636059 -0.47418,1.43408 -0.70109,1.86877 -1.78981,3.4289 -1.74546,2.50126 -1.89462,3.06111 -1.51721,5.69455 0.25297,1.76521 0.25039,1.8557 -0.066,2.31451 -0.47033,0.68203 -2.841403,5.06501 -3.478801,6.43063 -0.466318,0.99908 -0.658059,1.22138 -1.438816,1.66807 -1.386065,0.79304 -2.375236,1.7551 -3.947997,3.83984 -0.7932,1.05141 -2.045599,2.50774 -2.783099,3.23631 l -1.340913,1.32466 -1.757312,0.19968 -1.757313,0.1997 0.0039,0.61871 c 0.0019,0.34029 0.07213,0.88873 0.155302,1.21877 1.320709,5.24108 1.77414,6.4237 2.763278,7.20711 0.716764,0.56769 1.049399,0.62917 1.362555,0.25183 z m 0.17235,-4.27709 c 0,-0.0416 0.07715,-0.12329 0.171443,-0.18156 0.09429,-0.0583 0.171442,-0.0243 0.171442,0.0756 0,0.0999 -0.07715,0.18157 -0.171442,0.18157 -0.0943,0 -0.171443,-0.0341 -0.171443,-0.0756 z"
             id="path2858"
             inkscape:connector-curvature="0" />
        </g>
      </g>
    </g>
    <path
       inkscape:connector-curvature="0"
       id="path860"
       d="m 99.061203,166.60995 c 0.365876,-0.22723 0.468393,-0.47304 0.513825,-1.23193 0.05421,-0.90559 0.212172,-1.5714 0.514172,-2.16737 0.0788,-0.15546 0.14085,-0.40223 0.19898,-0.79055 0.0464,-0.31047 0.0854,-0.56843 0.0865,-0.57321 0.001,-0.005 0.0947,-0.0143 0.20812,-0.0223 l 0.20616,-0.0143 0.11287,-0.30591 0.11286,-0.30591 0.17672,0.0237 0.17673,0.0237 -0.0369,-0.16367 c -0.0203,-0.09 -0.0375,-0.32418 -0.0381,-0.52036 l -0.001,-0.3567 0.69015,-0.93636 c 0.37957,-0.51499 0.75512,-1.06676 0.8345,-1.22615 0.18653,-0.37449 0.6968,-0.96341 1.15867,-1.3373 0.2006,-0.16238 0.71201,-0.54439 1.13648,-0.84892 0.42449,-0.30455 1.30349,-0.95761 1.95336,-1.45128 0.64986,-0.49367 1.37311,-1.02589 1.6072,-1.18269 0.55924,-0.3746 1.30575,-0.72841 1.8005,-0.85339 0.46478,-0.11732 0.53485,-0.17553 1.00798,-0.83623 0.16684,-0.23298 0.50586,-0.64118 0.75342,-0.90712 0.24756,-0.26595 0.56791,-0.6271 0.71188,-0.80258 0.14402,-0.17547 0.47342,-0.52389 0.73209,-0.77426 0.48249,-0.46704 1.73198,-1.88443 2.88071,-3.26786 0.68204,-0.82136 1.86569,-2.1848 1.89672,-2.1848 0.01,0 0.0634,0.0803 0.11842,0.17835 0.0552,0.0981 0.11875,0.17836 0.14133,0.17836 0.0369,0 0.28322,-0.0595 0.75119,-0.18143 0.14354,-0.0374 0.1738,-0.0717 0.26332,-0.29827 0.0556,-0.14084 0.11462,-0.27167 0.13131,-0.29083 0.0165,-0.0191 0.13878,0.005 0.27172,0.0529 0.1329,0.0482 0.41218,0.13671 0.62063,0.19677 0.20846,0.0599 0.55958,0.18917 0.78029,0.28707 0.65606,0.29104 1.97554,0.75287 2.43002,0.85052 0.23298,0.0501 0.79764,0.14275 1.25483,0.20591 1.04194,0.14402 1.30492,0.21171 2.29456,0.59049 l 0.79793,0.30539 -0.003,0.42999 c -0.003,0.4719 0.0412,0.347 -0.49558,1.39621 -0.39093,0.76412 -0.46373,1.36043 -0.37756,3.09284 l 0.0474,0.95263 -0.19953,1.32134 c -0.38463,2.54704 -0.5849,3.51694 -0.84412,4.08804 -0.14275,0.3144 -0.50292,0.69152 -0.93041,0.9741 -0.4218,0.27881 -0.50178,0.35907 -0.7061,0.70867 -0.0958,0.16406 -0.27218,0.3605 -0.48357,0.53884 -0.39179,0.33049 -0.39525,0.34977 -0.15213,0.84845 0.33381,0.68457 0.89998,1.22594 1.87056,1.78865 0.71471,0.41436 0.87715,0.55169 0.97472,0.82409 0.0552,0.15404 0.20424,0.33162 0.64093,0.76347 0.48793,0.48251 0.67386,0.62977 1.30471,1.03352 0.40464,0.25893 0.7959,0.53423 0.86947,0.61176 0.33274,0.35063 0.94877,0.47353 1.27423,0.2542 0.43088,-0.29037 0.45934,-0.69946 0.0843,-1.21119 -0.39926,-0.54471 -0.6558,-0.99252 -0.68168,-1.18991 -0.0143,-0.11334 -0.0879,-0.39638 -0.16242,-0.62883 -0.0744,-0.23246 -0.13543,-0.4679 -0.13543,-0.52324 0,-0.0553 -0.13846,-0.41441 -0.30773,-0.79796 -0.34763,-0.7878 -0.38463,-0.89494 -0.44746,-1.29571 -0.0372,-0.23756 -0.0299,-0.35467 0.0431,-0.68902 0.0483,-0.22154 0.0879,-0.41901 0.0879,-0.43881 0,-0.0199 -0.11032,-0.0901 -0.24524,-0.15627 l -0.24522,-0.12017 1.8e-4,-0.2694 c 9e-5,-0.14816 0.0307,-0.59042 0.068,-0.98279 0.0374,-0.39236 0.087,-1.00088 0.11048,-1.35226 0.0509,-0.7632 0.16136,-1.25884 0.4084,-1.83312 0.23714,-0.55127 0.9677,-2.84035 1.21753,-3.81489 0.10683,-0.4169 0.22549,-0.96867 0.26358,-1.22616 0.0785,-0.53085 0.20267,-0.92002 0.61871,-1.93958 0.16011,-0.39236 0.35526,-0.91403 0.43364,-1.15927 0.12972,-0.40592 0.14101,-0.48585 0.12479,-0.89175 -0.0143,-0.37405 -0.0369,-0.48286 -0.13623,-0.6754 -0.13178,-0.25509 -0.69102,-0.96611 -1.1695,-1.48682 -0.54371,-0.59173 -2.2062,-2.1854 -2.90746,-2.78708 -0.61846,-0.53063 -0.74853,-0.61921 -1.53704,-1.04681 -0.47378,-0.2569 -1.0398,-0.5722 -1.25782,-0.70066 -0.37891,-0.22325 -1.20973,-0.59898 -1.46186,-0.66112 -0.18921,-0.0466 -0.24392,-0.14402 -0.39133,-0.69698 -0.22386,-0.83971 -0.2758,-1.20711 -0.2208,-1.56162 0.0399,-0.2567 0.0353,-0.34112 -0.0288,-0.53401 -0.1286,-0.38736 -0.0736,-0.916 0.171,-1.64296 0.11144,-0.33106 0.2241,-0.7123 0.25041,-0.84716 0.0563,-0.28889 0.22738,-2.05241 0.22738,-2.34454 0,-0.21123 0.2938,-0.97154 0.35969,-0.93081 0.0188,0.0111 0.0892,0.16636 0.15674,0.34399 0.2475,0.65163 0.60787,1.39702 0.74612,1.5433 0.0781,0.0827 0.2615,0.25074 0.40756,0.37357 l 0.26557,0.22333 0.36045,-0.0226 c 0.29706,-0.0186 0.46363,-0.0631 0.94706,-0.25352 0.47802,-0.18826 0.64276,-0.27802 0.88997,-0.48488 0.16685,-0.13957 0.76422,-0.5849 1.3275,-0.98951 0.68745,-0.4938 1.14918,-0.86185 1.40451,-1.11953 0.2092,-0.21113 0.53085,-0.51044 0.71479,-0.66513 0.18393,-0.15468 0.40812,-0.3566 0.49822,-0.4487 0.0901,-0.092 0.40304,-0.3575 0.69546,-0.58981 0.6347,-0.50427 0.87747,-0.82233 0.92637,-1.21366 0.0169,-0.13544 0.017,-0.31084 1.1e-4,-0.3898 -0.0169,-0.079 -0.0455,-0.35424 -0.0634,-0.61173 l -0.0327,-0.46819 -0.25738,-0.43127 c -0.14164,-0.2372 -0.28339,-0.44125 -0.31515,-0.45344 -0.0318,-0.0127 -0.14562,-0.0351 -0.25295,-0.0509 -0.15642,-0.023 -0.23215,-0.008 -0.38155,0.0744 -0.27148,0.15038 -1.06704,1.06019 -1.21846,1.39355 -0.0676,0.14863 -0.27563,0.58571 -0.46252,0.97133 -0.27118,0.55954 -0.36626,0.7148 -0.47083,0.76888 -0.072,0.0372 -0.38654,0.25991 -0.69883,0.49477 -0.80816,0.60777 -0.88089,0.6402 -1.80291,0.80392 -0.40294,0.0715 -0.4447,0.0714 -0.78028,-0.003 -0.4651,-0.10285 -0.49081,-0.11938 -0.57436,-0.37098 -0.0928,-0.27937 -0.41043,-0.83436 -0.6484,-1.13292 l -0.18851,-0.23649 0.0378,-0.46817 c 0.0208,-0.25749 0.0378,-0.67885 0.0378,-0.93634 0,-0.60864 -0.0736,-0.76333 -0.64929,-1.36395 -0.33568,-0.35022 -0.44772,-0.4996 -0.50571,-0.67422 -0.041,-0.12336 -0.14561,-0.34228 -0.23245,-0.48645 -0.087,-0.14418 -0.25064,-0.44153 -0.36395,-0.66079 -0.11335,-0.21926 -0.29601,-0.49014 -0.40605,-0.60194 -0.27563,-0.28005 -0.71846,-0.85428 -0.71846,-0.93163 0,-0.0922 0.30348,-0.36434 0.51206,-0.45908 0.2366,-0.10746 0.62715,-0.10492 1.04852,0.006 0.18392,0.0488 0.48488,0.10015 0.66882,0.11382 0.28687,0.0215 0.35483,0.0127 0.47812,-0.0658 0.18974,-0.12002 0.22029,-0.26547 0.1232,-0.58617 -0.0741,-0.24462 -0.0744,-0.2688 -0.005,-0.37475 0.0409,-0.0623 0.14434,-0.14259 0.23001,-0.17834 0.1833,-0.0766 0.22304,-0.15452 0.16532,-0.32404 -0.0358,-0.10523 -0.0237,-0.14545 0.08,-0.26485 0.10476,-0.12065 0.11907,-0.16915 0.0998,-0.33903 -0.0292,-0.25975 0.0283,-0.35584 0.32849,-0.54784 0.23508,-0.15038 0.24743,-0.16725 0.22093,-0.30153 -0.0159,-0.0782 -0.0919,-0.24256 -0.17002,-0.36517 -0.31176,-0.48976 -0.36934,-0.6461 -0.36934,-1.00308 0,-0.3002 0.018,-0.37056 0.17536,-0.6852 0.16012,-0.32019 0.17502,-0.38022 0.17157,-0.6911 -0.006,-0.61077 -0.22349,-1.40862 -0.57115,-2.10304 -0.32632,-0.65183 -0.66664,-0.95089 -1.62517,-1.42812 -0.55274,-0.2752 -1.03388,-0.42289 -1.68098,-0.51597 -0.4406,-0.0634 -0.59998,-0.0676 -0.99409,-0.0259 -0.57186,0.0604 -1.15628,0.22505 -1.61792,0.45595 -0.30235,0.15117 -0.50983,0.28545 -1.15876,0.74968 -0.16865,0.12065 -0.27476,0.11604 -0.81381,-0.0358 -0.45077,-0.12686 -1.43345,-0.17165 -2.00017,-0.0912 -0.71411,0.10142 -1.24986,0.46043 -1.61459,1.08211 -0.09,0.15324 -0.3265,0.577 -0.52571,0.94157 -0.42077,0.77003 -0.67413,1.04329 -1.20043,1.29479 -1.0339,0.49405 -2.20891,0.36526 -3.86173,-0.42328 -0.30392,-0.14497 -0.56231,-0.26362 -0.57416,-0.26362 -0.0447,0 0.56197,0.46672 0.92613,0.71243 0.48777,0.32914 0.69818,0.43264 1.40451,0.69084 0.68411,0.25008 0.7803,0.31454 0.40185,0.26932 -0.42693,-0.051 -0.85471,-0.17569 -1.59789,-0.46568 -0.74423,-0.29038 -1.47927,-0.49791 -2.06653,-0.58345 -0.49341,-0.0718 -0.88591,-0.005 -1.36295,0.23439 -0.42085,0.21065 -0.87875,0.63601 -1.09345,1.01575 -0.20301,0.35908 -0.39507,0.97444 -0.48678,1.55964 -0.13942,0.8897 -0.0943,3.89066 0.0674,4.48107 0.0299,0.10905 0.0464,0.0482 0.0895,-0.32936 0.1251,-1.09632 0.82897,-2.50772 1.47509,-2.95781 0.13289,-0.0927 0.2787,-0.16838 0.32391,-0.16838 0.0744,0 0.07,0.0243 -0.047,0.25638 -0.26486,0.52508 -0.3397,1.07316 -0.26918,1.97148 0.0259,0.33022 0.0588,0.61919 0.073,0.64216 0.0143,0.023 0.0703,-0.17827 0.12447,-0.44719 0.12288,-0.60951 0.36483,-1.39731 0.42906,-1.39731 0.0301,0 0.0385,0.0547 0.0223,0.14498 -0.0695,0.38721 -0.0789,0.77243 -0.0291,1.20939 0.0835,0.73374 0.1151,0.78779 0.14689,0.25085 0.0302,-0.50955 0.15022,-1.04504 0.29998,-1.33846 0.21828,-0.42784 0.73048,-0.82692 1.22744,-0.95637 0.34825,-0.0908 0.70924,-0.0858 1.51429,0.0202 0.80241,0.10572 1.07068,0.10969 1.62746,0.0246 0.64151,-0.0981 0.83526,-0.1681 1.85038,-0.66891 0.515,-0.25406 0.98298,-0.47553 1.03999,-0.49216 l 0.10364,-0.0302 -0.11668,0.17641 c -0.16906,0.25544 -0.73846,0.74175 -1.14525,0.97811 -0.19338,0.11239 -0.34618,0.20928 -0.33957,0.21537 0.0361,0.0332 1.3968,-0.17334 1.66067,-0.25209 0.80463,-0.24015 1.29646,-0.66819 1.78728,-1.55553 0.37389,-0.67595 0.45649,-0.92478 0.79923,-2.40777 0.13767,-0.59571 0.38225,-1.13289 0.6496,-1.4268 l 0.18251,-0.20064 -0.0273,0.30678 c -0.0143,0.16875 -0.0577,0.44964 -0.0946,0.62423 -0.13512,0.63834 -0.0703,1.61937 0.15054,2.27318 0.18408,0.5453 0.67222,1.12885 1.03525,1.23761 0.0955,0.0286 0.22988,0.11064 0.29854,0.18233 0.11302,0.11812 0.12478,0.16048 0.12478,0.4514 0,0.31566 -0.005,0.33038 -0.31211,0.86885 -0.35837,0.6289 -0.8743,1.28188 -1.12349,1.42193 -0.22785,0.12813 -0.73514,0.25498 -1.57406,0.39382 -1.91427,0.3168 -3.2594,0.79523 -4.79966,1.70707 -0.6208,0.36753 -0.57879,0.30544 -0.83522,1.2342 -0.25635,0.9285 -0.42105,1.70222 -0.47448,2.22903 -0.0273,0.26977 -0.0676,1.43351 -0.0892,2.58609 -0.0496,2.6407 -0.10937,3.1881 -0.41127,3.77493 -0.10699,0.20803 -0.23109,0.51721 -0.27568,0.6871 -0.0445,0.16987 -0.15754,0.42926 -0.25115,0.5764 -0.24099,0.37903 -0.2898,0.61015 -0.22564,1.06871 0.0768,0.54935 0.16172,0.75294 0.43854,1.05194 0.27906,0.30141 0.45272,0.37293 1.02383,0.42159 0.31911,0.0272 0.36175,0.0208 0.50235,-0.0749 0.21853,-0.14864 0.32432,-0.35342 0.33111,-0.64068 0.005,-0.21693 0.018,-0.24715 0.12304,-0.2908 0.18119,-0.0752 0.35144,-0.27918 0.38003,-0.45533 0.0159,-0.0941 -0.003,-0.25693 -0.0469,-0.39711 -0.11049,-0.36074 -0.2499,-1.09271 -0.2499,-1.31173 0,-0.27568 0.16863,-1.73001 0.26913,-2.32113 0.0464,-0.27337 0.15674,-0.82515 0.24514,-1.22617 0.0884,-0.40101 0.2205,-1.12673 0.29367,-1.61272 0.14705,-0.97691 0.26661,-1.44104 0.53109,-2.06244 0.20246,-0.47569 0.31072,-0.85678 0.31072,-1.09374 0,-0.11 0.0237,-0.17333 0.072,-0.19182 0.0396,-0.0159 0.34553,-0.005 0.67996,0.0216 0.94675,0.0766 1.77463,0.021 2.4106,-0.1624 0.2838,-0.0819 0.52815,-0.1348 0.543,-0.11764 0.0143,0.0172 0.0911,0.35731 0.16953,0.75593 0.0784,0.39863 0.22318,0.99054 0.32172,1.31534 0.29672,0.97796 0.35106,1.66666 0.34739,4.40282 -0.002,1.23843 -0.0184,2.34767 -0.0374,2.46498 -0.0687,0.42713 -0.83505,1.33652 -1.83332,2.17565 -0.51461,0.43258 -0.71133,0.64599 -1.04407,1.13265 -0.2124,0.31062 -0.62503,1.12618 -0.84523,1.67056 -0.15038,0.37187 -0.50223,2.23122 -0.56329,2.97693 -0.093,1.136 -0.037,0.9723 -0.5731,1.67866 -0.26308,0.34671 -0.5809,0.7649 -0.70627,0.92933 -0.12543,0.16444 -0.29692,0.42529 -0.38122,0.57966 -1.07799,1.97418 -1.1983,2.22197 -1.61913,3.33492 -0.22463,0.59406 -0.3199,0.77878 -0.67837,1.31533 -0.22935,0.34334 -0.49057,0.70203 -0.58045,0.79709 -0.215,0.22743 -0.53151,0.42905 -0.67374,0.42919 -0.25495,2.7e-4 -0.99241,0.24017 -1.49792,0.48729 -0.63621,0.31104 -1.13813,0.67065 -1.70956,1.22482 -0.79458,0.7706 -1.29561,1.43126 -2.30275,3.03637 -0.96259,1.53412 -1.1573,1.81701 -1.36525,1.98353 -0.10682,0.0855 -0.30826,0.26008 -0.4478,0.38802 -0.24721,0.22668 -0.63612,0.45978 -0.76709,0.45978 -0.03577,0 -0.311288,-0.0803 -0.612163,-0.17835 -0.318996,-0.10396 -0.631698,-0.17794 -0.750095,-0.17737 -0.233775,0.001 -0.515908,0.11795 -0.657896,0.27235 -0.238671,0.25964 -0.377607,0.88118 -0.287728,1.28723 0.02448,0.11032 0.109845,0.7744 0.189773,1.47565 l 0.145295,1.275 -0.09427,0.19069 c -0.09284,0.18755 -0.09395,0.22262 -0.07249,2.13596 0.01272,1.0699 0.03942,2.02553 0.06088,2.12363 0.101579,0.46452 0.153402,0.60459 0.280463,0.75879 0.232964,0.28262 0.593817,0.36918 0.857175,0.2056 z"
       style="fill:#ffff00;stroke-width:0.0445877" />
    <path
       inkscape:connector-curvature="0"
       id="path872"
       d="m 97.473195,137.22954 c 0.332292,1.08962 2.916865,2.88984 4.022405,1.6838 1.58489,-1.72897 -1.30665,-3.35572 -0.8419,-1.49671"
       style="fill:none;stroke:#000000;stroke-width:0.264583px;stroke-linecap:butt;stroke-linejoin:miter;stroke-opacity:1" />
    <path
       inkscape:connector-curvature="0"
       id="path882"
       d="m 99.328133,166.38307 c -0.422923,-0.0134 -0.863082,0.2758 -1.200126,-0.0612 -0.511443,-0.51145 -0.09355,-2.31029 -0.09355,-3.3676 0,-0.92395 -0.137354,-1.793 -0.07036,-2.34125"
       style="fill:#ffffff;stroke:#000000;stroke-width:0.26458300000000001px;stroke-linecap:butt;stroke-linejoin:miter;stroke-opacity:1" />
    <path
       inkscape:connector-curvature="0"
       id="path898"
       d="m 99.274787,166.44377 c 0.388528,-0.16747 0.554631,-1.02078 0.340056,-1.27202"
       style="fill:none;stroke:#000000;stroke-width:0.264583px;stroke-linecap:butt;stroke-linejoin:miter;stroke-opacity:1" />
    <g
       id="g984">
      <path
         style="fill:#ffffff;stroke:#000000;stroke-width:0.26458300000000001px;stroke-linecap:butt;stroke-linejoin:miter;stroke-opacity:1"
         d="m 98.000387,161.25359 c 0.13883,-1.9646 -1.470556,-5.66104 1.982497,-4.01769"
         id="path880"
         inkscape:connector-curvature="0" />
      <path
         style="fill:none;stroke:#000000;stroke-width:0.264583px;stroke-linecap:butt;stroke-linejoin:miter;stroke-opacity:1"
         d="m 99.999714,157.23855 0.934616,-0.55183"
         id="path908"
         inkscape:connector-curvature="0" />
    </g>
    <path
       inkscape:connector-curvature="0"
       id="path912"
       d="m 101.74679,155.85829 c 0.45658,-0.12735 0.51731,-0.24081 0.68426,-0.5747 0.96646,-1.93293 1.67201,-3.82942 3.92886,-4.95785 0.59671,-0.29835 1.53604,-0.29618 1.93874,-0.50874"
       style="fill:none;stroke:#000000;stroke-width:0.264583px;stroke-linecap:butt;stroke-linejoin:miter;stroke-opacity:1" />
    <path
       inkscape:connector-curvature="0"
       id="path916"
       d="m 108.26802,149.83228 c 2.22125,-1.37568 2.55159,-4.70941 3.84574,-6.74438"
       style="fill:none;stroke:#000000;stroke-width:0.264583px;stroke-linecap:butt;stroke-linejoin:miter;stroke-opacity:1" />
    <path
       inkscape:connector-curvature="0"
       id="path918"
       d="m 112.20391,142.96939 c 1.86619,-1.73461 1.13962,-4.94679 2.34004,-6.74296"
       style="fill:none;stroke:#000000;stroke-width:0.264583px;stroke-linecap:butt;stroke-linejoin:miter;stroke-opacity:1" />
    <path
       inkscape:connector-curvature="0"
       id="path920"
       d="m 116.641,123.71701 c 0.83571,2.7441 2.02879,7.32099 0.66359,10.05139 -0.49111,0.98222 -3.20724,2.60525 -2.93269,2.74888"
       style="fill:none;stroke:#000000;stroke-width:0.264583px;stroke-linecap:butt;stroke-linejoin:miter;stroke-opacity:1" />
    <path
       inkscape:connector-curvature="0"
       id="path942"
       d="m 103.09891,157.61067 c 0.92358,-1.64636 8.23977,-5.71367 8.41898,-6.12847"
       style="fill:none;stroke:#000000;stroke-width:0.264583px;stroke-linecap:butt;stroke-linejoin:miter;stroke-opacity:1" />
    <path
       inkscape:connector-curvature="0"
       id="path944"
       d="m 111.40863,151.63344 c 1.23621,-0.83249 1.83884,-2.88638 3.27672,-3.36567 2.11058,-0.70353 2.37948,-3.50201 3.64823,-4.77076 0.15159,-0.15159 0.52936,-0.15519 0.65481,-0.28064 0.272,-0.272 1.74733,0.1359 1.96443,0.28064 2.17199,1.44798 4.17685,0.96589 6.36102,2.05797 0.9011,0.45055 1.1913,1.61147 0.4103,2.1253"
       style="fill:none;stroke:#000000;stroke-width:0.264583px;stroke-linecap:butt;stroke-linejoin:miter;stroke-opacity:1" />
    <path
       inkscape:connector-curvature="0"
       id="path954"
       d="m 127.73381,147.65928 c -1.41294,1.07099 0.19623,5.52015 -0.65792,6.53264"
       style="fill:none;stroke:#000000;stroke-width:0.264583px;stroke-linecap:butt;stroke-linejoin:miter;stroke-opacity:1" />
    <path
       inkscape:connector-curvature="0"
       id="path958"
       d="m 130.77259,165.40446 c -0.65286,-0.0466 -1.16429,-0.24843 -1.58787,-0.81321 -0.37868,-0.50491 -1.19722,-1.04294 -1.73056,-1.30962 -0.53654,-0.26827 -0.57246,-1.0988 -1.02899,-1.40316 -0.70179,-0.46786 -1.4693,-0.59999 -1.87089,-1.40317 -0.1336,-0.26719 -0.91708,-0.89964 -0.41346,-0.95031"
       style="fill:none;stroke:#000000;stroke-width:0.264583px;stroke-linecap:butt;stroke-linejoin:miter;stroke-opacity:1" />
    <path
       inkscape:connector-curvature="0"
       id="path962"
       d="m 127.08089,154.16121 c -0.21104,0.32887 -0.188,0.6857 -0.188,1.07561 0,2.85641 -1.15791,1.8538 -2.38538,3.695 -0.17254,0.25881 -0.3915,0.36646 -0.46411,0.61613"
       style="fill:none;stroke:#000000;stroke-width:0.264583px;stroke-linecap:butt;stroke-linejoin:miter;stroke-opacity:1" />
    <path
       inkscape:connector-curvature="0"
       id="path964"
       d="m 130.7645,165.40509 c 0.32465,-0.18937 0.63219,-0.826 0.39458,-1.3012 -0.22124,-0.44248 -0.59244,-0.79729 -0.85269,-1.3178 -0.43974,-0.87948 -0.18847,-1.81633 -0.9302,-2.55806 -0.30955,-0.30954 0.26629,-1.74916 0.0775,-1.93793 -0.14645,-0.14646 -0.3484,7.9e-4 -0.4651,-0.23255 -0.0399,-0.0798 0.23255,-0.36931 0.23255,-0.54262 0,-3.10734 0.51477,-5.60306 1.86041,-8.29434 0.39782,-0.79563 0.79148,-3.30111 1.23817,-3.93932"
       style="fill:none;stroke:#000000;stroke-width:0.264583px;stroke-linecap:butt;stroke-linejoin:miter;stroke-opacity:1" />
    <path
       inkscape:connector-curvature="0"
       id="path976"
       d="m 103.10646,157.5974 c -0.43578,0.94062 -1.23487,1.82745 -1.71398,2.78566 -0.14617,0.29234 0.31007,1.25705 0.31007,0.93021 0,-0.25968 -0.77517,-0.3372 -0.77517,-0.0775 0,0.0263 0.21759,0.43383 0,0.54262 -0.17085,0.0854 -0.55963,-0.21555 -0.69766,-0.0775 -0.10464,0.10465 0.22958,1.01219 0.0775,1.24028 -0.560666,0.841 -0.602306,1.55894 -0.628807,2.35263"
       style="fill:none;stroke:#000000;stroke-width:0.264583px;stroke-linecap:butt;stroke-linejoin:miter;stroke-opacity:1" />
    <path
       inkscape:connector-curvature="0"
       id="path980"
       d="m 101.76995,155.85174 c -0.40556,0.42964 -0.53515,0.70546 -0.97914,0.9083"
       style="fill:none;stroke:#000000;stroke-width:0.264583px;stroke-linecap:butt;stroke-linejoin:miter;stroke-opacity:1" />
    <path
       style="fill:#ffffff;stroke:#000000;stroke-width:0.26458300000000001px;stroke-linecap:butt;stroke-linejoin:miter;stroke-opacity:1"
       d="m 132.33086,145.21093 c -0.19652,-0.38329 -0.14496,-0.75822 -0.31909,-1.10648 -0.21284,-0.42568 -0.31751,-1.0226 -0.54262,-1.47283 -0.22479,-0.44957 -1.55553,-1.74673 -1.93793,-1.93793 -1.23171,-0.61585 -5.18357,-2.93557 -6.04634,-3.79834 -0.23987,-0.23987 -0.38759,-0.76915 -0.38759,-1.16275 0,-0.5591 -0.48868,-2.1469 -0.0775,-2.55807 0.35806,-0.35807 0.0828,-1.40063 0.4651,-1.7829 0.48974,-0.48974 -0.0335,-2.13701 0.4651,-2.63558 0.13538,-0.13538 0.46511,0.73603 0.46511,0.9302 0,1.08543 1.29421,1.83345 2.17048,1.39531 0.47387,-0.23693 1.48164,-0.47391 1.86041,-0.85268 0.48087,-0.48087 1.41574,-1.36677 2.09296,-1.70538 0.44681,-0.22341 1.39459,-1.56324 1.59793,-1.32826"
       id="path885"
       inkscape:connector-curvature="0" />
  </g>
</svg>
