<?xml version="1.0" encoding="UTF-8" standalone="no"?>
<svg
   xmlns:dc="http://purl.org/dc/elements/1.1/"
   xmlns:cc="http://creativecommons.org/ns#"
   xmlns:rdf="http://www.w3.org/1999/02/22-rdf-syntax-ns#"
   xmlns:svg="http://www.w3.org/2000/svg"
   xmlns="http://www.w3.org/2000/svg"
   xmlns:sodipodi="http://sodipodi.sourceforge.net/DTD/sodipodi-0.dtd"
   xmlns:inkscape="http://www.inkscape.org/namespaces/inkscape"
   sodipodi:docname="violin.svg"
   inkscape:version="1.0beta2 (2b71d25, 2019-12-03)"
   id="svg8"
   version="1.1"
   viewBox="0 0 210 297"
   height="297mm"
   width="210mm">
  <defs
     id="defs2">
    <filter
       id="filter1317"
       style="color-interpolation-filters:sRGB;"
       inkscape:menu-tooltip="Adds a white opaque background"
       inkscape:menu="Fill and Transparency"
       inkscape:label="Flatten Transparency">
      <feComposite
         id="feComposite1309"
         result="result1"
         k4="1"
         operator="arithmetic"
         in2="SourceGraphic" />
      <feMerge
         id="feMerge1315">
        <feMergeNode
           id="feMergeNode1311"
           in="result1" />
        <feMergeNode
           id="feMergeNode1313"
           in="SourceGraphic" />
      </feMerge>
    </filter>
  </defs>
  <sodipodi:namedview
     showguides="false"
     inkscape:object-nodes="false"
     inkscape:object-paths="true"
     inkscape:window-maximized="0"
     inkscape:window-y="23"
     inkscape:window-x="0"
     inkscape:window-height="829"
     inkscape:window-width="1440"
     showgrid="false"
     inkscape:document-rotation="0"
     inkscape:current-layer="layer1"
     inkscape:document-units="mm"
     inkscape:cy="542.21059"
     inkscape:cx="313.50385"
     inkscape:zoom="1"
     inkscape:pageshadow="2"
     inkscape:pageopacity="0.0"
     borderopacity="1.0"
     bordercolor="#666666"
     pagecolor="#ffffff"
     id="base" />
  <metadata
     id="metadata5">
    <rdf:RDF>
      <cc:Work
         rdf:about="">
        <dc:format>image/svg+xml</dc:format>
        <dc:type
           rdf:resource="http://purl.org/dc/dcmitype/StillImage" />
        <dc:title></dc:title>
      </cc:Work>
    </rdf:RDF>
  </metadata>
  <g
     id="layer1"
     inkscape:groupmode="layer"
     inkscape:label="Layer 1">
    <g
       transform="translate(-17.991666,-15.875)"
       style="filter:url(#filter1317);fill:#808000;fill-opacity:1"
       id="g1307">
      <g
         id="g1235"
         style="fill:#808000;stroke:none;fill-opacity:1"
         transform="matrix(0.64671053,-0.70419916,0.71196376,0.77103388,-70.920002,97.053985)">
        <path
           sodipodi:nodetypes="csccaaaaaacsaac"
           inkscape:connector-curvature="0"
           id="path952"
           d="m 91.016666,88.106249 c -6.003401,0.102611 -17.388872,2.090904 -21.960416,8.466667 -6.223693,8.679954 -6.133187,22.394044 -1.322917,32.014584 1.218417,2.43683 -1.5875,4.23333 -1.5875,4.23333 0,0 5.311199,-1.30391 7.408334,0 1.89134,1.17595 2.456739,3.82148 2.955791,5.99196 0.540582,2.35111 0.255193,4.84356 -0.04537,7.23721 -0.236848,1.88623 -0.568477,3.81349 -1.375345,5.53481 -0.74667,1.5929 -1.564724,3.43749 -3.122571,4.25477 -1.046165,0.54884 -2.369931,0.24369 -3.542727,0.10143 -0.78219,-0.0949 -2.278107,-0.63059 -2.278107,-0.63059 0,0 4.726451,4.04085 2.910417,7.67291 -2.66664,5.33328 -5.94122,18.27077 -3.439583,26.9875 0.691561,2.40968 2.645184,4.47852 4.7625,5.82083 6.142351,3.89406 17.727218,6.43816 21.166666,5.29167"
           style="fill:#808000;stroke:none;stroke-width:0.2;stroke-linecap:butt;stroke-linejoin:miter;stroke-miterlimit:4;stroke-dasharray:none;stroke-opacity:1;fill-opacity:1" />
        <path
           style="fill:#808000;stroke:none;stroke-width:0.2;stroke-linecap:butt;stroke-linejoin:miter;stroke-miterlimit:4;stroke-dasharray:none;stroke-opacity:1;fill-opacity:1"
           d="m 90.487499,88.106249 c 6.003401,0.102611 17.388871,2.090904 21.960411,8.466667 6.2237,8.679954 6.13319,22.394044 1.32292,32.014584 -1.21842,2.43683 1.5875,4.23333 1.5875,4.23333 0,0 -5.3112,-1.30391 -7.40833,0 -1.89134,1.17595 -2.45674,3.82148 -2.95579,5.99196 -0.54059,2.35111 -0.2552,4.84356 0.0454,7.23721 0.23684,1.88623 0.56847,3.81349 1.37534,5.53481 0.74667,1.5929 1.56473,3.43749 3.12257,4.25477 1.04617,0.54884 2.36993,0.24369 3.54273,0.10143 0.78219,-0.0949 2.27811,-0.63059 2.27811,-0.63059 0,0 -4.72645,4.04085 -2.91042,7.67291 2.66664,5.33328 5.94122,18.27077 3.43958,26.9875 -0.69156,2.40968 -2.65461,4.46376 -4.7625,5.82083 -5.79182,3.72882 -16.53659,6.43816 -19.976038,5.29167"
           id="path954"
           inkscape:connector-curvature="0"
           sodipodi:nodetypes="csccaaaaaacsaac" />
      </g>
      <g
         style="fill:#808000;fill-opacity:1"
         id="g1215"
         transform="matrix(0.28530822,-0.22489395,0.23474179,0.33213263,48.542898,121.46329)">
        <path
           inkscape:connector-curvature="0"
           id="path1193"
           d="m 35.409375,170.53782 c 3.196445,-4.2231 4.618596,-10.42207 4.622684,-20.14969 0.0038,-8.97506 -1.016344,-15.7443 -3.648312,-24.20938 -2.366912,-7.61259 -4.476227,-16.55478 -5.291465,-22.43253 -0.227758,-1.64211 -0.414107,-4.629403 -0.414107,-6.638409 0,-6.792339 1.591064,-10.494034 5.253749,-12.223134 1.403112,-0.662387 6.097601,-1.110612 5.75054,-0.549055 -0.10318,0.166949 -0.388935,0.30616 -0.635008,0.309356 -0.832178,0.01082 -2.658563,1.006779 -3.835363,2.091518 -4.787014,4.412514 -4.337597,15.144264 1.424598,34.018304 2.160839,7.07781 2.330024,7.70951 3.153347,11.77395 1.167664,5.76434 1.615831,9.8501 1.770353,16.13959 0.107173,4.36216 0.04099,6.43576 -0.283818,8.8932 -0.988775,7.48081 -3.30255,12.21203 -6.832461,13.97106 -2.273526,1.13294 -2.488661,0.92611 -1.034737,-0.99478 z"
           style="fill:#808000;fill-rule:evenodd;stroke:none;stroke-width:0.264583;fill-opacity:1" />
        <ellipse
           ry="5.1789737"
           rx="4.8218031"
           cy="89.296875"
           cx="41.142708"
           id="path1195"
           style="fill:#808000;fill-rule:evenodd;stroke:none;stroke-width:0.35717;fill-opacity:1" />
        <ellipse
           style="fill:#808000;fill-rule:evenodd;stroke:none;stroke-width:0.357169;fill-opacity:1"
           id="path1195-4"
           cx="33.602085"
           cy="167.21667"
           rx="4.8218031"
           ry="5.1789737" />
      </g>
      <g
         style="fill:#808000;fill-opacity:1"
         transform="matrix(-0.20631937,0.31043633,0.30649111,0.25400523,67.980395,100.29791)"
         id="g1259">
        <path
           style="fill:#808000;fill-rule:evenodd;stroke:none;stroke-width:0.264583;fill-opacity:1"
           d="m 35.409375,170.53782 c 3.196445,-4.2231 4.618596,-10.42207 4.622684,-20.14969 0.0038,-8.97506 -1.016344,-15.7443 -3.648312,-24.20938 -2.366912,-7.61259 -4.476227,-16.55478 -5.291465,-22.43253 -0.227758,-1.64211 -0.414107,-4.629403 -0.414107,-6.638409 0,-6.792339 1.591064,-10.494034 5.253749,-12.223134 1.403112,-0.662387 6.097601,-1.110612 5.75054,-0.549055 -0.10318,0.166949 -0.388935,0.30616 -0.635008,0.309356 -0.832178,0.01082 -2.658563,1.006779 -3.835363,2.091518 -4.787014,4.412514 -4.337597,15.144264 1.424598,34.018304 2.160839,7.07781 2.330024,7.70951 3.153347,11.77395 1.167664,5.76434 1.615831,9.8501 1.770353,16.13959 0.107173,4.36216 0.04099,6.43576 -0.283818,8.8932 -0.988775,7.48081 -3.30255,12.21203 -6.832461,13.97106 -2.273526,1.13294 -2.488661,0.92611 -1.034737,-0.99478 z"
           id="path1253"
           inkscape:connector-curvature="0" />
        <ellipse
           style="fill:#808000;fill-rule:evenodd;stroke:none;stroke-width:0.35717;fill-opacity:1"
           id="ellipse1255"
           cx="41.142708"
           cy="89.296875"
           rx="4.8218031"
           ry="5.1789737" />
        <ellipse
           ry="5.1789737"
           rx="4.8218031"
           cy="167.21667"
           cx="33.602085"
           id="ellipse1257"
           style="fill:#808000;fill-rule:evenodd;stroke:none;stroke-width:0.357169;fill-opacity:1" />
      </g>
    </g>
  </g>
</svg>
